<?xml version="1.0" encoding="utf-8"?>
<!-- Generator: Adobe Illustrator 27.5.0, SVG Export Plug-In . SVG Version: 6.00 Build 0)  -->
<svg version="1.1" id="Ñëîé_1" xmlns="http://www.w3.org/2000/svg" xmlns:xlink="http://www.w3.org/1999/xlink" x="0px" y="0px"
	 viewBox="0 0 2498.717 2499.391" style="enable-background:new 0 0 2498.717 2499.391;" xml:space="preserve">

<g>
	<g>
		<path style="fill:#354A5C;" d="M876.554,146.594h25.257l39.744,94.682h0.707l39.391-94.682h25.262v125.065h-16.956V168.852h-0.353
			l-42.218,102.807h-11.306l-42.218-102.807h-0.354v102.807h-16.956V146.594z"/>
		<path style="fill:#354A5C;" d="M1029.698,229.793c0-6.122,1.151-11.836,3.444-17.135c2.297-5.299,5.448-9.95,9.453-13.954
			c4.004-4.002,8.715-7.155,14.133-9.45c5.413-2.298,11.245-3.446,17.486-3.446s12.068,1.149,17.486,3.446
			c5.418,2.295,10.129,5.448,14.133,9.45c4.004,4.004,7.155,8.655,9.453,13.954c2.292,5.299,3.444,11.013,3.444,17.135
			c0,6.125-1.151,11.866-3.444,17.224c-2.297,5.36-5.448,10.01-9.453,13.954c-4.004,3.946-8.715,7.067-14.133,9.362
			c-5.418,2.298-11.245,3.446-17.486,3.446s-12.073-1.149-17.486-3.446c-5.418-2.295-10.129-5.416-14.133-9.362
			c-4.004-3.944-7.155-8.594-9.453-13.954C1030.85,241.66,1029.698,235.918,1029.698,229.793z M1046.66,229.793
			c0,4.239,0.646,8.155,1.939,11.747c1.298,3.593,3.12,6.655,5.479,9.185c2.353,2.535,5.236,4.534,8.655,6.006
			c3.413,1.474,7.241,2.207,11.482,2.207c4.242,0,8.064-0.732,11.482-2.207c3.414-1.472,6.297-3.471,8.655-6.006
			c2.353-2.53,4.181-5.592,5.479-9.185c1.293-3.593,1.939-7.508,1.939-11.747s-0.646-8.152-1.939-11.747
			c-1.298-3.59-3.126-6.65-5.479-9.185c-2.358-2.53-5.241-4.532-8.655-6.006c-3.418-1.469-7.241-2.207-11.482-2.207
			c-4.241,0-8.069,0.737-11.482,2.207c-3.419,1.474-6.302,3.477-8.655,6.006c-2.358,2.535-4.181,5.595-5.479,9.185
			C1047.306,221.641,1046.66,225.554,1046.66,229.793z"/>
		<path style="fill:#354A5C;" d="M1212.882,271.658h-15.901v-12.896h-0.353c-2.005,4.479-5.474,8.099-10.422,10.864
			c-4.943,2.767-10.659,4.153-17.133,4.153c-4.125,0-8.008-0.619-11.659-1.856c-3.651-1.237-6.862-3.148-9.629-5.741
			c-2.767-2.588-4.974-5.918-6.62-9.98c-1.651-4.062-2.474-8.859-2.474-14.396v-53.877h15.896v49.462c0,3.885,0.53,7.213,1.591,9.98
			c1.06,2.767,2.474,5.007,4.241,6.711c1.767,1.709,3.797,2.946,6.095,3.711c2.292,0.767,4.681,1.146,7.15,1.146
			c3.297,0,6.362-0.528,9.19-1.588c2.823-1.06,5.297-2.739,7.418-5.034c2.121-2.298,3.767-5.211,4.943-8.746
			c1.177-3.532,1.767-7.71,1.767-12.54v-43.102h15.901V271.658z"/>
		<path style="fill:#354A5C;" d="M1236.907,187.928h15.896v12.896h0.353c2.005-4.476,5.479-8.097,10.422-10.864
			c4.948-2.767,10.659-4.153,17.138-4.153c3.999,0,7.857,0.619,11.568,1.856c3.711,1.237,6.948,3.153,9.715,5.741
			c2.767,2.593,4.974,5.918,6.625,9.98c1.646,4.062,2.474,8.862,2.474,14.396v53.878h-15.901v-49.462c0-3.885-0.53-7.211-1.591-9.98
			c-1.055-2.765-2.469-5.004-4.236-6.711c-1.767-1.707-3.797-2.944-6.095-3.711c-2.297-0.762-4.681-1.146-7.155-1.146
			c-3.297,0-6.357,0.53-9.185,1.588c-2.828,1.06-5.302,2.739-7.418,5.034c-2.121,2.298-3.772,5.211-4.948,8.746
			c-1.177,3.532-1.767,7.713-1.767,12.54v43.102h-15.896V187.928z"/>
		<path style="fill:#354A5C;" d="M1379.988,201.706H1357.2v37.979c0,2.358,0.056,4.681,0.177,6.978
			c0.116,2.295,0.556,4.358,1.323,6.183c0.763,1.825,1.944,3.297,3.535,4.416c1.591,1.121,3.913,1.676,6.978,1.676
			c1.878,0,3.823-0.177,5.827-0.528c2-0.353,3.828-1,5.474-1.944v14.484c-1.883,1.06-4.327,1.795-7.327,2.209
			c-3.004,0.412-5.332,0.619-6.978,0.619c-6.125,0-10.866-0.856-14.219-2.563c-3.358-1.707-5.832-3.913-7.423-6.625
			c-1.586-2.706-2.53-5.741-2.823-9.096c-0.298-3.355-0.444-6.741-0.444-10.157v-43.632h-18.37v-13.777h18.37v-23.493h15.901v23.493
			h22.788V201.706z"/>
		<path style="fill:#354A5C;" d="M1398.005,157.899c0-3.181,1.146-5.918,3.444-8.215c2.297-2.295,5.034-3.444,8.215-3.444
			c3.181,0,5.918,1.149,8.216,3.444c2.292,2.298,3.444,5.034,3.444,8.215c0,3.179-1.151,5.918-3.444,8.213
			c-2.297,2.298-5.034,3.446-8.216,3.446c-3.181,0-5.918-1.149-8.215-3.446C1399.151,163.817,1398.005,161.078,1398.005,157.899z
			 M1401.716,187.928h15.896v83.73h-15.896V187.928z"/>
		<path style="fill:#354A5C;" d="M1442.869,187.928h15.896v12.896h0.354c2.005-4.476,5.479-8.097,10.422-10.864
			c4.948-2.767,10.659-4.153,17.138-4.153c3.999,0,7.857,0.619,11.568,1.856c3.711,1.237,6.948,3.153,9.715,5.741
			c2.767,2.593,4.974,5.918,6.625,9.98c1.646,4.062,2.474,8.862,2.474,14.396v53.878h-15.901v-49.462c0-3.885-0.53-7.211-1.591-9.98
			c-1.055-2.765-2.469-5.004-4.236-6.711c-1.767-1.707-3.797-2.944-6.095-3.711c-2.297-0.762-4.681-1.146-7.155-1.146
			c-3.297,0-6.357,0.53-9.185,1.588c-2.828,1.06-5.302,2.739-7.418,5.034c-2.121,2.298-3.772,5.211-4.948,8.746
			c-1.177,3.532-1.767,7.713-1.767,12.54v43.102h-15.896V187.928z"/>
		<path style="fill:#354A5C;" d="M1624.992,270.951c0,6.36-1.091,12.159-3.267,17.4c-2.181,5.239-5.272,9.773-9.276,13.601
			c-4.004,3.825-8.831,6.802-14.487,8.92c-5.65,2.121-11.891,3.181-18.723,3.181c-8.008,0-15.34-1.121-21.99-3.355
			c-6.655-2.239-12.982-6.125-18.991-11.659l10.776-13.426c4.12,4.474,8.594,7.862,13.426,10.157
			c4.827,2.298,10.301,3.446,16.426,3.446c5.888,0,10.776-0.856,14.664-2.563c3.883-1.707,6.978-3.916,9.271-6.625
			c2.297-2.709,3.918-5.799,4.858-9.273c0.944-3.474,1.414-6.976,1.414-10.51v-12.364h-0.53c-3.06,5.065-7.211,8.804-12.452,11.215
			c-5.241,2.416-10.745,3.623-16.517,3.623c-6.125,0-11.806-1.088-17.047-3.27c-5.241-2.176-9.745-5.181-13.512-9.008
			c-3.772-3.825-6.711-8.359-8.832-13.601c-2.121-5.239-3.181-10.922-3.181-17.047c0-6.122,1-11.864,3.004-17.224
			c2-5.357,4.858-10.038,8.569-14.042c3.706-4.002,8.18-7.125,13.421-9.362c5.241-2.237,11.099-3.358,17.577-3.358
			c5.655,0,11.159,1.237,16.517,3.711c5.357,2.472,9.569,5.948,12.629,10.422h0.354v-12.013h15.901V270.951z M1581.537,200.648
			c-4.241,0-8.069,0.737-11.482,2.207c-3.418,1.474-6.302,3.477-8.655,6.006c-2.358,2.535-4.181,5.595-5.479,9.185
			c-1.293,3.595-1.939,7.508-1.939,11.747c0,8.478,2.469,15.28,7.418,20.402c4.943,5.123,11.659,7.685,20.137,7.685
			c8.478,0,15.194-2.563,20.137-7.685c4.948-5.123,7.418-11.924,7.418-20.402c0-4.239-0.646-8.152-1.939-11.747
			c-1.298-3.59-3.126-6.65-5.479-9.185c-2.358-2.53-5.241-4.532-8.655-6.006C1589.601,201.385,1585.778,200.648,1581.537,200.648z"
			/>
	</g>
	<g>
		<g>
			<path style="fill:#E5F4FB;" d="M2284.492,1135.827C2109.765,497.069,1295.926,371.381,621.214,702.22
				s-688.141,1589.665,446.369,1627.102S2399.649,1556.81,2284.492,1135.827z"/>
		</g>
		<g>
			<g>
				<path style="fill:#B8DBF2;" d="M691.746,2353.151c-126.306,0-243.514-40.489-352.903-161.894
					c-53.075-58.905-87.512-120.347-105.282-187.843c-15.865-60.262-17.983-124.054-6.474-195.022
					c21.352-131.663,85.257-263.995,152.913-404.098c23.531-48.729,47.864-99.118,69.946-148.943
					c40.336-91.012,69.767-191.541,98.229-288.759c74.729-255.25,145.312-496.345,397.795-551.91
					c299.214-65.857,408.116,64.526,545.988,229.59c72.599,86.92,154.885,185.436,278.061,272.14
					c245.975,173.146,397.708,324.003,477.513,474.756c97.532,184.24,88.719,371.496-26.945,572.466
					c-63.65,110.59-145.744,177.516-258.356,210.619c-100.219,29.46-212.188,28.477-330.72,27.445
					c-117.129-1.031-238.238-2.082-360.129,25.686c-69.705,15.879-136.923,34.711-201.928,52.924
					C935.046,2317.964,809.444,2353.151,691.746,2353.151z M946.668,417.856l0.698,3.174
					c-248.724,54.738-318.782,294.038-392.954,547.389c-28.521,97.421-58.015,198.161-98.526,289.566
					c-22.125,49.922-46.48,100.358-70.035,149.135c-133.648,276.759-259.882,538.17-42.182,779.786
					c208.625,231.542,447.47,164.625,724.029,87.144c65.081-18.232,132.377-37.086,202.237-53.002
					c122.632-27.936,244.133-26.877,361.63-25.847c239.305,2.088,446.002,3.897,583.385-234.807
					c114.46-198.876,123.237-384.078,26.834-566.183c-79.306-149.813-230.404-299.947-475.51-472.481
					c-123.875-87.198-206.452-186.063-279.308-273.289c-136.457-163.37-244.238-292.416-539.602-227.41L946.668,417.856z"/>
			</g>
		</g>
		<g>
			<path style="fill:#F2FBFF;" d="M1088.591,939.076c170.673-82.123,310.791-212.039,450.066-136.549
				c139.275,75.491,20.002,305.53,149.833,408.114c129.831,102.584,407.1,279.173,263.786,583.969s-564.509,126.56-681.292,58.91
				s-218.002,319.813-541.959,198.616c-323.958-121.197-89.375-405.793-89.675-518.536c-0.3-112.743-210.436-297.802-66.487-421.839
				S845.6,1055.995,1088.591,939.076z"/>
		</g>
		<g>
			<path style="fill:#AFDFB6;" d="M869.356,1039.639C853.367,991.322,665.535,972.521,689.343,899s239.816-22.471,220.15,109.851
				S869.356,1039.639,869.356,1039.639z"/>
		</g>
		<g>
			<g>
				<path style="fill:#53C177;" d="M1728.783,812.463c37.391-99.71,312.804-216.557,157.181-322.498
					s-524.86,113.731-412.687,364.563C1585.451,1105.36,1728.783,812.463,1728.783,812.463z"/>
			</g>
			<g>
				<g>
					<path style="fill:#F2F2E8;" d="M1568.313,884.823c-1.786,0-3.457-1.111-4.083-2.895c-7.656-21.786-1.75-100.382,37.261-179.434
						c30.087-60.959,89.603-141.364,202.287-178.212c2.272-0.756,4.714,0.495,5.46,2.768c0.742,2.27-0.497,4.712-2.768,5.456
						c-109.827,35.919-167.866,114.349-197.218,173.821c-37.409,75.802-43.879,152.745-36.857,172.735
						c0.792,2.253-0.393,4.725-2.648,5.515C1569.272,884.747,1568.788,884.823,1568.313,884.823z"/>
				</g>
			</g>
			<g>
				<g>
					<path style="fill:#F2F2E8;" d="M1814.474,587.773c-0.368,0-0.744-0.047-1.118-0.148l-81.624-21.765
						c-2.31-0.613-3.681-2.984-3.066-5.296c0.613-2.307,2.979-3.702,5.298-3.064l81.623,21.765c2.31,0.613,3.681,2.984,3.066,5.295
						C1818.138,586.496,1816.389,587.773,1814.474,587.773z"/>
				</g>
			</g>
			<g>
				<g>
					<path style="fill:#F2F2E8;" d="M1790.068,615.294c-0.349,0-0.704-0.042-1.057-0.131l-93.434-23.426
						c-2.318-0.579-3.727-2.929-3.146-5.249c0.585-2.316,2.946-3.723,5.251-3.144l93.434,23.426
						c2.318,0.579,3.727,2.929,3.146,5.249C1793.768,613.984,1792.005,615.294,1790.068,615.294z"/>
				</g>
			</g>
			<g>
				<g>
					<path style="fill:#F2F2E8;" d="M1759.427,652.168c-0.302,0-0.609-0.029-0.917-0.097l-102.093-22.014
						c-2.335-0.503-3.821-2.806-3.318-5.143s2.796-3.842,5.143-3.318l102.093,22.015c2.335,0.503,3.821,2.806,3.318,5.143
						C1763.216,650.782,1761.422,652.168,1759.427,652.168z"/>
				</g>
			</g>
		</g>
		<g>
			<g>
				<path style="fill:#AFDFB6;" d="M1897.91,1319.693c162.527-51.822,567.098-17.871,515.685-209.501
					s-467.389-119.963-537.497,66.992S1897.91,1319.693,1897.91,1319.693z"/>
			</g>
			<g>
				<g>
					<path style="fill:#F2F2E8;" d="M1860.523,1262.11c-1.331,0-2.644-0.613-3.491-1.767c-1.416-1.923-1.002-4.632,0.923-6.048
						c2.162-1.593,218.75-158.89,439.973-151.545c2.388,0.076,4.262,2.075,4.184,4.463s-1.971,4.421-4.467,4.184
						c-218.258-6.927-432.427,148.303-434.563,149.871C1862.309,1261.836,1861.413,1262.11,1860.523,1262.11z"/>
				</g>
			</g>
			<g>
				<g>
					<path style="fill:#F2F2E8;" d="M2264.028,1165.017c-1.042,0-2.088-0.376-2.918-1.133l-53.145-48.623
						c-1.764-1.614-1.887-4.353-0.273-6.115c1.608-1.767,4.345-1.885,6.113-0.275l53.145,48.623
						c1.765,1.615,1.887,4.353,0.273,6.115C2266.369,1164.543,2265.201,1165.017,2264.028,1165.017z"/>
				</g>
			</g>
		</g>
		<g>
			<g>
				<path style="fill:#53C177;" d="M578.659,1296.51c-120.482,20.773-340.674,295.33-442.461,178.824
					c-101.787-116.506,75.821-438.484,409.225-321.118C878.827,1271.582,578.659,1296.51,578.659,1296.51z"/>
			</g>
			<g>
				<g>
					<path style="fill:#F2F2E8;" d="M206.823,1378.734c-0.947,0-1.9-0.308-2.696-0.943c-1.868-1.492-2.174-4.214-0.685-6.081
						c77.327-96.98,172.718-133.689,239.123-147.403c75.075-15.515,142.674-7.882,170.654,7.658c2.088,1.162,2.842,3.795,1.68,5.883
						c-1.16,2.092-3.793,2.853-5.885,1.682c-48.291-26.828-260.06-36.426-398.805,137.573
						C209.355,1378.177,208.095,1378.734,206.823,1378.734z"/>
				</g>
			</g>
			<g>
				<g>
					<path style="fill:#F2F2E8;" d="M283.162,1384.968c-2.225,0-4.114-1.703-4.309-3.96l-6.451-75.51
						c-0.203-2.379,1.564-4.476,3.945-4.678c2.377-0.271,4.476,1.559,4.681,3.943l6.451,75.51c0.203,2.379-1.564,4.476-3.945,4.678
						C283.409,1384.964,283.284,1384.968,283.162,1384.968z"/>
				</g>
			</g>
			<g>
				<g>
					<path style="fill:#F2F2E8;" d="M320.551,1372.505c-2.155,0-4.021-1.61-4.29-3.804l-10.521-86.321
						c-0.289-2.371,1.399-4.53,3.772-4.818c2.358-0.33,4.528,1.399,4.82,3.77l10.521,86.321c0.29,2.371-1.399,4.531-3.772,4.818
						C320.904,1372.496,320.727,1372.505,320.551,1372.505z"/>
				</g>
			</g>
		</g>
		<g>
			<g>
				<path style="fill:#AFDFB6;" d="M704.281,1594.602c-147.033,41.183-221.597,349.06-388.301,251.381
					c-166.703-97.678,76.922-402.385,337.085-355.021S704.281,1594.602,704.281,1594.602z"/>
			</g>
			<g>
				<g>
					<path style="fill:#F2F2E8;" d="M362.475,1756.725c-0.895,0.117-1.836-0.046-2.683-0.524c-2.082-1.173-2.816-3.814-1.64-5.898
						c56.129-99.366,133.71-152.895,188.906-180.304c66.937-33.24,125.785-39.955,149.326-29.411
						c2.182,0.977,3.157,3.539,2.18,5.721c-0.975,2.181-3.537,3.146-5.719,2.182c-21.159-9.483-78.098-2.445-141.935,29.261
						c-54.114,26.867-130.173,79.354-185.221,176.81C364.992,1755.796,363.78,1756.555,362.475,1756.725z"/>
				</g>
			</g>
		</g>
		<g>
			<g>
				<g>
					<path style="fill:#14479C;" d="M1915.346,1624.407c-9.668,7.556,65.849,473.223,75.395,483.648
						c8.349,9.119,28.631,6.904,27.496-6.904C2017.449,2091.578,1934.574,1609.38,1915.346,1624.407z"/>
				</g>
				<g>
					<path style="fill:#14479C;" d="M2062.605,1618.918c-9.024,8.019,105.692,479.852,116.07,489.791
						c9.079,8.694,29.129,5.484,26.861-8.246C2203.965,2090.944,2080.552,1602.969,2062.605,1618.918z"/>
				</g>
				<g>
					<g>
						<rect x="1931.339" y="1670.634" style="fill:#14479C;" width="153.131" height="10.979"/>
					</g>
				</g>
				<g>
					<g>
						<rect x="1944.355" y="1758.971" style="fill:#14479C;" width="164.829" height="10.979"/>
					</g>
				</g>
				<g>
					<g>
						<rect x="1965.587" y="1847.31" style="fill:#14479C;" width="172.817" height="10.979"/>
					</g>
				</g>
				<g>
					<g>
						<rect x="1972.944" y="1935.648" style="fill:#14479C;" width="178.195" height="10.979"/>
					</g>
				</g>
				<g>
					<g>
						<rect x="1978.829" y="2023.987" style="fill:#14479C;" width="180.001" height="10.979"/>
					</g>
				</g>
			</g>
			<g>
				<g>
					<path style="fill:#3B6BBF;" d="M2064.14,1619.251c9.668,7.473-66.086,478.554-75.631,488.865
						c-8.349,9.019-28.631,6.828-27.496-6.828C1961.8,2091.82,2044.912,1604.39,2064.14,1619.251z"/>
				</g>
				<g>
					<path style="fill:#3B6BBF;" d="M1916.644,1624.365c9.024,7.931-105.692,474.568-116.07,484.398
						c-9.078,8.598-29.129,5.424-26.861-8.155C1775.284,2091.193,1898.698,1608.592,1916.644,1624.365z"/>
				</g>
				<g>
					<g>
						<rect x="1894.779" y="1675.511" style="fill:#3B6BBF;" width="153.131" height="10.858"/>
					</g>
				</g>
				<g>
					<g>
						<rect x="1870.065" y="1762.876" style="fill:#3B6BBF;" width="164.829" height="10.858"/>
					</g>
				</g>
				<g>
					<g>
						<rect x="1840.846" y="1850.242" style="fill:#3B6BBF;" width="172.817" height="10.858"/>
					</g>
				</g>
				<g>
					<g>
						<rect x="1828.111" y="1937.607" style="fill:#3B6BBF;" width="178.195" height="10.858"/>
					</g>
				</g>
				<g>
					<g>
						<rect x="1820.42" y="2024.974" style="fill:#3B6BBF;" width="180.001" height="10.858"/>
					</g>
				</g>
			</g>
		</g>
		<g>
			<g>
				<g>
					<path style="fill:#14469C;" d="M1636.58,2047.795c0,0-10.229,57.109-9.376,62.224c0.852,5.115,19.605,4.262,23.867,0
						c4.262-4.262,34.948-62.224,34.948-62.224H1636.58z"/>
				</g>
				<g>
					<path style="fill:#14469C;" d="M1253.292,2047.795c0,0,10.229,57.109,9.376,62.224c-0.852,5.115-19.605,4.262-23.867,0
						c-4.262-4.262-34.948-62.224-34.948-62.224H1253.292z"/>
				</g>
			</g>
			<g>
				<g>
					<path style="fill:#FFA72B;" d="M1731.641,1865.251l-7.087-0.49c2.199-31.789,23.259-46.685,41.839-59.828
						c16.691-11.807,32.457-22.959,33.649-44.831c2.246-41.258-32.756-56.35-55.919-66.336
						c-10.679-4.605-17.735-7.646-19.391-12.565l6.731-2.268c0.719,1.949,9.247,5.626,15.472,8.31
						c23.455,10.113,62.715,27.038,60.198,73.245c-1.377,25.302-19.302,37.981-36.638,50.244
						C1752.359,1823.56,1733.606,1836.825,1731.641,1865.251z"/>
				</g>
			</g>
			<g>
				<g>
					<path style="fill:#FB503A;" d="M1728.29,1942.939l-7.066-0.733c3.157-30.435,26.139-52.654,48.364-74.143
						c20.579-19.898,40.018-38.693,38.472-60.772c-1.968-28.134-31.27-46.106-54.814-60.546
						c-14.977-9.187-26.807-16.441-28.621-24.829l6.944-1.501c1.171,5.42,12.936,12.635,25.391,20.275
						c23.617,14.485,55.963,34.323,58.187,66.106c1.776,25.38-18.819,45.292-40.622,66.374
						C1753.215,1893.773,1731.18,1915.079,1728.29,1942.939z"/>
				</g>
			</g>
			<g>
				<path style="fill:#81CAEB;" d="M1736.122,2057.36c-5.493,6.7-573.937,15.911-585.302,0c-4.57-6.417-6.795-105.98-6.867-208.408
					c-0.071-108.821,2.297-220.909,6.867-228.012c7.008-10.915,276.053-11.862,446.909-7.932
					c78.23,1.776,135.884,4.593,138.394,7.932C1753.17,1643.671,1744.504,2047.132,1736.122,2057.36z"/>
			</g>
			<g>
				<path style="fill:#3B6BBF;" d="M1567.848,1830.721c-0.024,2.249-0.047,4.499-0.047,6.748c0,0.687-0.024,1.397-0.024,2.084
					c-0.024,2.226-0.024,4.451-0.047,6.677c-0.237,26.755-0.663,53.25-1.208,77.022c-0.071,2.06-0.118,4.072-0.166,6.085
					c0,0.261,0,0.545-0.024,0.805c-0.047,1.942-0.095,3.859-0.142,5.754c-1.16,43.59-2.77,75.459-4.357,77.969
					c-0.118,0.19-0.663,0.379-1.634,0.568c-1.255,0.26-3.267,0.521-5.896,0.781c-12.904,1.278-41.27,2.557-76.643,3.599
					c-1.373,0.023-2.77,0.071-4.167,0.118c-0.9,0.024-1.799,0.047-2.723,0.071c-1.255,0.024-2.51,0.071-3.788,0.095
					c-25.429,0.687-53.795,1.208-82.35,1.515c-0.213,0.024-0.426,0.024-0.639,0.024c-2.036,0.024-4.096,0.047-6.132,0.071
					c-0.166-0.024-0.332,0-0.497,0c-29.099,0.284-58.08,0.308-84.007,0h-0.497c-2.06-0.024-4.096-0.047-6.109-0.095h-0.687
					c-36.581-0.544-66.178-1.799-79.792-4.049c-2.273-0.403-4.12-0.805-5.446-1.231c-1.397-0.45-2.273-0.947-2.557-1.468
					c-1.752-3.149-2.936-34.332-3.599-76.904c-0.047-2.178-0.071-4.38-0.095-6.606v-0.023c-0.024-0.426-0.024-0.805-0.024-1.231
					c-0.047-2.249-0.071-4.499-0.095-6.795c-0.284-23.488-0.45-49.557-0.45-75.886v-9.068c0-2.226,0-4.451,0.024-6.677
					c0.024-26.4,0.213-52.564,0.545-76.051c0.024-2.297,0.047-4.546,0.071-6.772c0.024-0.355,0.024-0.687,0.024-1.042
					c0.024-2.226,0.071-4.428,0.118-6.606c0.687-42.027,1.87-72.784,3.48-76.028c0.308-0.616,1.421-1.184,3.268-1.728
					c1.421-0.402,3.267-0.805,5.517-1.184c13.899-2.273,42.903-3.717,78.656-4.475c0.45,0,0.923-0.024,1.373-0.024
					c1.799-0.047,3.623-0.071,5.469-0.118c0.355,0,0.71,0,1.066-0.024c25.903-0.45,54.884-0.592,83.912-0.426h0.19
					c2.155,0,4.309,0.024,6.464,0.024h0.26c28.768,0.19,57.346,0.663,82.918,1.35c1.018,0.024,2.036,0.071,3.031,0.095
					c1.16,0.024,2.32,0.047,3.457,0.095c1.16,0.024,2.297,0.071,3.433,0.095c35.232,1.066,63.573,2.557,76.691,4.309
					c2.439,0.331,4.356,0.687,5.682,1.018c1.255,0.332,1.989,0.663,2.178,0.994c3.007,5.209,4.735,35.279,5.54,75.791
					c0.047,2.178,0.071,4.38,0.118,6.606c0,0.497,0.024,0.995,0.024,1.515c0.047,2.226,0.071,4.499,0.095,6.795
					C1567.943,1778.347,1567.99,1804.416,1567.848,1830.721z"/>
			</g>
			<g>
				<circle style="fill:#FEFEF1;" cx="1380.963" cy="1838.525" r="146.041"/>
			</g>
			<g>
				<path style="fill:#F5B3A2;" d="M1480.55,1867.894c-44.158,30.094-78.845-4.167-78.419-19.51
					c0.095-3.575,5.99-6.819,13.33-11.649c8.808-5.777,19.676-13.851,25.027-27.584c9.802-25.121-1.705-51.972,28.555-48.562
					c10.134,1.136,20.339,9.708,27.584,21.901C1511.046,1806.736,1513.745,1845.259,1480.55,1867.894z"/>
			</g>
			<g>
				<path style="fill:#F5B3A2;" d="M1385.343,1970.488c-2.273,1.728-4.972,3.031-7.955,3.907
					c-28.886,8.642-85.807-20.481-74.181-73.921c11.365-52.232,60.117-51.19,70.369-39.754c2.746,3.054-0.426,11.105-2.581,21.665
					l-0.024,0.047c-1.965,9.589-3.125,21.262,1.705,33.148C1382.833,1940.56,1409.66,1952.138,1385.343,1970.488z"/>
			</g>
			<g>
				<path style="fill:#F5B3A2;" d="M1365.81,1822.268c-4.499,1.042-10.891-7.411-20.836-15.224
					c-6.985-5.493-15.745-10.655-26.803-11.957c-26.803-3.149-49.864,14.775-54.221-15.366c-1.492-10.323,4.546-22.707,14.94-32.959
					h0.024c19.984-19.652,56.044-31.349,85.949-5.304C1405.161,1776.571,1380.774,1818.811,1365.81,1822.268z"/>
			</g>
			<g>
				
					<ellipse transform="matrix(0.2298 -0.9732 0.9732 0.2298 -725.6598 2760.1404)" style="fill:#EA917A;" cx="1380.963" cy="1838.525" rx="29.365" ry="29.365"/>
			</g>
			<g>
				<g>
					<g>
						<path style="fill:#81CAEB;" d="M1292.552,1656.646l-2.794,2.794l-42.264,42.264l-3.339,3.362l-42.264,42.24l-3.362,3.362
							l-3.954,3.954c0.024-2.297,0.047-4.546,0.071-6.772l0.545-0.545l3.339-3.339l42.264-42.264l3.339-3.339l41.577-41.577
							c0.45,0,0.923-0.024,1.373-0.024C1288.882,1656.717,1290.705,1656.693,1292.552,1656.646z"/>
					</g>
					<g>
						<path style="fill:#81CAEB;" d="M1384.183,1656.219l-91.087,91.087l-3.339,3.362l-26.021,25.998l-16.243,16.243l-3.362,3.362
							l-4.191,4.191l-38.049,38.073l-3.339,3.339l-4.546,4.546v-6.724l1.184-1.16l3.339-3.362l42.264-42.24l2.107-2.084l1.255-1.279
							l20.694-20.718l21.546-21.546l3.007-3.007l0.355-0.332l12.715-12.715l29.549-29.549l1.231-1.231l44.371-44.371l0.095,0.095
							C1379.874,1656.196,1382.029,1656.219,1384.183,1656.219z"/>
					</g>
					<g>
						<path style="fill:#81CAEB;" d="M1473.849,1657.759l-1.681,1.681l-41.672,41.672l-3.93,3.93l-42.264,42.264l-3.338,3.339
							l-40.275,40.275l-1.989,1.989l-3.338,3.362l-2.912,2.912l-39.352,39.352l-3.339,3.339l-42.264,42.264l-3.339,3.338
							l-0.616,0.616l-41.648,41.648l-3.362,3.338l-3.859,3.883c-0.047-2.178-0.071-4.38-0.095-6.606v-0.023l0.616-0.592l3.339-3.362
							l43.306-43.306l2.297-2.297l42.264-42.24l3.362-3.362l37.884-37.907l4.357-4.357l3.362-3.339l38.689-38.689l3.575-3.575
							l3.339-3.339l86.398-86.398c1.018,0.024,2.036,0.071,3.031,0.095C1471.552,1657.688,1472.713,1657.711,1473.849,1657.759z"/>
					</g>
					<g>
						<path style="fill:#81CAEB;" d="M1559.656,1663.181l-38.523,38.523l-3.339,3.362l-42.264,42.24l-140.17,140.169l-42.264,42.264
							l-3.339,3.338l-42.264,42.264l-3.339,3.362l-37.884,37.86c-2.273-0.403-4.12-0.805-5.446-1.231l39.967-39.991l3.362-3.338
							l42.264-42.264l3.338-3.339l42.264-42.264l3.338-3.339l42.264-42.264l3.339-3.362l42.264-42.264l3.339-3.339l42.264-42.264
							l3.339-3.339l42.264-42.264l3.362-3.339l36.179-36.203C1556.412,1662.494,1558.329,1662.849,1559.656,1663.181z"/>
					</g>
					<g>
						<path style="fill:#81CAEB;" d="M1567.493,1746.572l-0.758,0.734l-3.338,3.362l-43.306,43.306l-2.297,2.297l-11.886,11.886
							l-30.378,30.378l-3.362,3.339l-36.913,36.913l-54.292,54.292l-25.69,25.69l-16.574,16.574l-2.297,2.297l-1.042,1.042
							l-42.004,42.027l-0.26,0.237l-0.237-0.237c-2.06-0.024-4.096-0.047-6.109-0.095l3.007-3.007l48.61-48.61l14.822-14.822
							l24.435-24.435l48.941-48.941l3.433-3.433l38.831-38.831l3.339-3.362l87.867-87.866l3.362-3.339l3.978-4.001
							C1567.422,1742.144,1567.445,1744.346,1567.493,1746.572z"/>
					</g>
					<g>
						<path style="fill:#81CAEB;" d="M1567.848,1830.721c-0.024,2.249-0.047,4.499-0.047,6.748l-1.066,1.065l-3.362,3.339
							l-42.24,42.24l-2.084,2.084l-1.279,1.278l-42.264,42.264l-3.339,3.338l-42.264,42.264l-1.279,1.279l-2.06,2.06l-41.932,41.932
							l-0.332,0.332l-0.308-0.308c-2.036,0.024-4.096,0.047-6.132,0.071l41.151-41.151l4.215-4.215l3.339-3.338l42.264-42.264
							l3.339-3.339l42.264-42.264l3.362-3.362l4.191-4.191L1567.848,1830.721z"/>
					</g>
					<g>
						<path style="fill:#81CAEB;" d="M1566.735,1929.74l-45.602,45.602l-3.339,3.362l-40.133,40.109
							c-1.373,0.023-2.77,0.071-4.167,0.118c-0.9,0.024-1.799,0.047-2.723,0.071l46.999-46.999l42.264-42.264l3.362-3.362
							l3.125-3.125c-0.071,2.06-0.118,4.072-0.166,6.085L1566.735,1929.74z"/>
					</g>
				</g>
				<g>
					<g>
						<path style="fill:#81CAEB;" d="M1567.611,1754.883l-4.215-4.214l-3.362-3.362l-42.24-42.24l-47.402-47.402
							c1.16,0.024,2.32,0.047,3.457,0.095c1.16,0.024,2.297,0.071,3.433,0.095l90.234,90.234
							C1567.564,1750.313,1567.587,1752.586,1567.611,1754.883z"/>
					</g>
					<g>
						<path style="fill:#81CAEB;" d="M1567.777,1839.553c-0.024,2.226-0.024,4.451-0.047,6.677l-7.695-7.695l-38.049-38.073
							l-7.553-7.553l-42.264-42.24l-3.339-3.362l-42.264-42.264l-3.339-3.339l-4.191-4.191l-41.317-41.317
							c2.155,0,4.309,0.024,6.464,0.024l0.118-0.118l0.118,0.118h0.024l42.122,42.146l2.107,2.107l43.495,43.495l3.362,3.339
							l42.24,42.264l1.279,1.279l2.084,2.084l42.264,42.24l3.338,3.362L1567.777,1839.553z"/>
					</g>
					<g>
						<path style="fill:#81CAEB;" d="M1566.735,1929.74l-0.402,0.402c-0.047,1.942-0.095,3.859-0.142,5.754l-2.794-2.818
							l-3.362-3.338l-45.603-45.603l-24.222-24.222l-18.042-18.042l-10.773-10.773l-21.215-21.215l-13.615-13.614l-3.339-3.362
							l-136.144-136.144c1.799-0.047,3.623-0.071,5.469-0.118c0.355,0,0.71,0,1.066-0.024l42.809,42.809l2.273,2.273l42.264,42.264
							l45.602,45.602l3.362,3.339l12.004,12.004l23.535,23.559l6.701,6.701l3.362,3.362l17.876,17.876l24.387,24.364l48.562,48.562
							L1566.735,1929.74z"/>
					</g>
					<g>
						<path style="fill:#81CAEB;" d="M1560.2,2014.433c-1.255,0.26-3.267,0.521-5.896,0.781l-36.51-36.51l-3.362-3.362
							l-42.264-42.264l-3.339-3.338l-42.264-42.264l-3.339-3.338l-42.264-42.264l-3.339-3.339l-42.264-42.264l-3.362-3.362
							l-42.24-42.24l-3.362-3.362l-42.24-42.24l-42.619-42.619c1.421-0.402,3.267-0.805,5.517-1.184l37.079,37.102l3.362,3.339
							l42.264,42.264l3.339,3.339l42.264,42.264l45.603,45.603l3.338,3.362l42.264,42.264l3.339,3.339l87.866,87.866l3.362,3.338
							L1560.2,2014.433z"/>
					</g>
					<g>
						<path style="fill:#81CAEB;" d="M1473.494,2018.932c-0.9,0.024-1.799,0.047-2.723,0.071c-1.255,0.024-2.51,0.071-3.788,0.095
							l-86.02-86.02l-3.339-3.338l-22.422-22.422l-65.444-65.444l-3.362-3.339l-87.866-87.866l-3.339-3.362l-0.521-0.497
							c0.024-2.226,0.071-4.428,0.118-6.606l3.741,3.765l3.362,3.339l41.648,41.648l0.616,0.616l3.339,3.339l42.264,42.264
							l3.339,3.362l42.264,42.264l3.338,3.339l18.468,18.468l17.663,17.663l6.133,6.132l3.338,3.339l42.264,42.264l3.954,3.954
							l41.648,41.649L1473.494,2018.932z"/>
					</g>
					<g>
						<path style="fill:#81CAEB;" d="M1383.994,2020.636c-2.036,0.024-4.096,0.047-6.132,0.071l-0.237,0.237l-0.26-0.237
							l-42.004-42.027l-2.06-2.06l-1.278-1.279l-42.264-42.264l-91.205-91.205l-3.362-3.339l-1.184-1.184
							c0-2.226,0-4.451,0.024-6.677L1383.994,2020.636z"/>
					</g>
					<g>
						<path style="fill:#81CAEB;" d="M1292.86,2020.708c-2.06-0.024-4.096-0.047-6.109-0.095l-0.355,0.332l-0.332-0.332
							l-41.909-41.909l-3.362-3.362l-42.264-42.264l-3.339-3.338l-0.639-0.639c-0.047-2.249-0.071-4.499-0.095-6.795l4.072,4.072
							l3.362,3.362l42.264,42.264l3.339,3.338l42.264,42.264L1292.86,2020.708z"/>
					</g>
				</g>
			</g>
			<g>
				<path style="fill:#FEFEF1;" d="M1610.964,1662.163c1.859-2.186,73.731-0.45,75.862,2.533s0.426,30.686,0,32.817
					c-0.426,2.131-75.01,1.705-75.862,0C1610.112,1695.808,1608.407,1665.17,1610.964,1662.163z"/>
			</g>
			<g>
				<circle style="fill:#FB503A;" cx="1620.624" cy="1720.416" r="11.01"/>
			</g>
		</g>
		<g>
			<g>
				<g>
					<g>
						<path style="fill:#EA917A;" d="M1502.438,2198.951h-82.471c-1.501,0-2.73-1.229-2.73-2.73s1.229-2.73,2.73-2.73h79.441
							c-0.027,0.055-0.027,0.136-0.027,0.191c0,0.901,0.246,1.775,0.737,2.621
							C1500.636,2197.259,1501.428,2198.16,1502.438,2198.951z"/>
					</g>
					<g>
						<path style="fill:#EA917A;" d="M1623.182,2196.222c0,1.501-1.229,2.73-2.73,2.73h-82.471c1.01-0.791,1.802-1.692,2.321-2.648
							c0.491-0.846,0.737-1.72,0.737-2.621c0-0.055,0-0.136-0.027-0.191h79.441
							C1621.954,2193.492,1623.182,2194.72,1623.182,2196.222z"/>
					</g>
				</g>
				<g>
					<g>
						<path style="fill:#EA917A;" d="M1522.94,2145.309v38.328c-0.874-0.082-1.802-0.109-2.73-0.109s-1.856,0.027-2.73,0.109
							v-38.328c0-1.502,1.229-2.73,2.73-2.73C1521.711,2142.579,1522.94,2143.807,1522.94,2145.309z"/>
					</g>
					<g>
						<path style="fill:#EA917A;" d="M1522.94,2203.756v56.864c0,1.501-1.228,2.73-2.73,2.73c-1.502,0-2.73-1.228-2.73-2.73v-56.864
							c0.655,0.028,1.311,0.055,1.993,0.082h1.474C1521.63,2203.811,1522.285,2203.784,1522.94,2203.756z"/>
					</g>
				</g>
				<g>
					<g>
						<g>
							<g>
								<path style="fill:#EA917A;" d="M1519.473,2203.838l-50.094,50.094c-0.546,0.546-1.228,0.792-1.938,0.792
									c-0.71,0-1.392-0.246-1.938-0.792c-1.065-1.065-1.065-2.784,0-3.849l18.045-18.045l28.937-28.937
									c1.583,0.328,3.249,0.546,4.996,0.655C1518.135,2203.784,1518.79,2203.811,1519.473,2203.838z"/>
							</g>
							<g>
								<path style="fill:#EA917A;" d="M1570.85,2152.461l-34.697,34.698c-1.529-0.901-3.385-1.666-5.46-2.239l36.308-36.308
									c1.065-1.092,2.785-1.092,3.849,0C1571.915,2149.677,1571.915,2151.396,1570.85,2152.461z"/>
							</g>
						</g>
						<g>
							<g>
								<path style="fill:#EA917A;" d="M1511.365,2202.883l-54.544,17.444l-28.227,9.036c-0.273,0.109-0.573,0.137-0.846,0.137
									c-1.147,0-2.211-0.737-2.593-1.884c-0.464-1.447,0.328-2.976,1.774-3.44l24.788-7.944l51.759-16.543
									C1505.523,2201.054,1508.226,2202.146,1511.365,2202.883z"/>
							</g>
							<g>
								<path style="fill:#EA917A;" d="M1611.99,2170.67l-26.289,8.408l-44.689,14.305c-0.082-1.748-1.119-3.413-2.839-4.805
									l41.795-13.377l30.357-9.718c1.447-0.464,2.976,0.328,3.44,1.774C1614.228,2168.677,1613.437,2170.233,1611.99,2170.67z"/>
							</g>
						</g>
					</g>
					<g>
						<g>
							<g>
								<path style="fill:#EA917A;" d="M1509.727,2184.92c-2.075,0.573-3.931,1.338-5.46,2.239l-34.697-34.698
									c-1.065-1.065-1.065-2.784,0-3.849c1.065-1.092,2.785-1.092,3.849,0L1509.727,2184.92z"/>
							</g>
							<g>
								<path style="fill:#EA917A;" d="M1574.917,2253.932c-0.546,0.546-1.228,0.792-1.938,0.792s-1.392-0.246-1.938-0.792
									l-20.42-20.42l-27.681-27.681l-1.993-1.993c0.682-0.027,1.338-0.054,1.993-0.082c1.747-0.109,3.412-0.327,4.996-0.655
									l28.937,28.937l18.045,18.045C1575.982,2251.148,1575.982,2252.867,1574.917,2253.932z"/>
							</g>
						</g>
						<g>
							<g>
								<path style="fill:#EA917A;" d="M1460.452,2175.201l41.795,13.377c-1.72,1.392-2.757,3.057-2.839,4.805l-44.689-14.305
									l-26.289-8.408c-1.447-0.437-2.239-1.993-1.774-3.413c0.464-1.447,1.993-2.239,3.44-1.774L1460.452,2175.201z"/>
							</g>
							<g>
								<path style="fill:#EA917A;" d="M1615.266,2227.616c-0.382,1.147-1.447,1.884-2.594,1.884c-0.273,0-0.573-0.027-0.846-0.137
									l-28.227-9.036l-54.544-17.444c3.139-0.737,5.842-1.829,7.889-3.194l51.759,16.543l24.788,7.944
									C1614.938,2224.64,1615.73,2226.169,1615.266,2227.616z"/>
							</g>
						</g>
					</g>
				</g>
			</g>
			<g>
				<path style="fill:#EA917A;" d="M1597.03,2197.232c0,0,0,0,0-0.027c-0.109-0.682-0.273-1.365-0.491-2.047
					c-1.556-5.214-5.323-10.101-10.838-14.414c-1.747-1.338-3.658-2.648-5.733-3.877c-6.251-3.74-13.95-6.879-22.658-9.199
					c-2.02-0.546-4.068-1.038-6.197-1.501c-8.681-1.857-18.181-2.948-28.173-3.112c-0.901-0.027-1.802-0.027-2.73-0.027
					s-1.829,0-2.73,0.027c-9.991,0.164-19.491,1.256-28.173,3.112c-2.129,0.464-4.177,0.955-6.197,1.501
					c-8.708,2.32-16.407,5.46-22.658,9.199c-2.075,1.229-3.986,2.539-5.733,3.877c-5.514,4.313-9.282,9.2-10.838,14.414
					c-0.218,0.682-0.382,1.365-0.491,2.047c0,0.027,0,0.027,0,0.027c-0.218,1.119-0.328,2.239-0.328,3.385
					c0,6.251,3.112,12.121,8.654,17.28c1.529,1.447,3.221,2.812,5.105,4.095c6.88,4.887,16.052,8.9,26.726,11.711
					c2.02,0.519,4.122,1.01,6.252,1.474c8.545,1.774,17.881,2.839,27.681,3.003c0.901,0.027,1.802,0.027,2.73,0.027
					s1.829,0,2.73-0.027c9.801-0.164,19.137-1.229,27.681-3.003c2.129-0.464,4.231-0.956,6.252-1.474
					c10.674-2.812,19.846-6.825,26.726-11.711c1.884-1.283,3.576-2.648,5.105-4.095c5.542-5.159,8.654-11.029,8.654-17.28
					C1597.357,2199.47,1597.248,2198.351,1597.03,2197.232z M1503.475,2194.474c-0.355-0.218-0.71-0.464-1.037-0.737
					c-1.01-0.792-1.802-1.692-2.321-2.648c0.41-0.764,1.01-1.474,1.747-2.129c0.246-0.246,0.519-0.464,0.792-0.682
					c1.365-1.065,3.14-1.966,5.214-2.73c0.191-0.055,0.382-0.136,0.6-0.191c1.693-0.573,3.576-1.038,5.596-1.31
					c1.092-0.191,2.239-0.301,3.412-0.383c0.874-0.055,1.802-0.082,2.73-0.082s1.856,0.027,2.73,0.082
					c1.174,0.082,2.32,0.191,3.412,0.383c2.02,0.272,3.904,0.737,5.596,1.31c0.218,0.054,0.409,0.136,0.6,0.191
					c2.075,0.764,3.849,1.665,5.214,2.73c0.273,0.218,0.546,0.437,0.792,0.682c0.737,0.655,1.338,1.365,1.747,2.129
					c-0.519,0.956-1.311,1.856-2.321,2.648c-0.328,0.273-0.682,0.519-1.037,0.737c-0.027,0.027-0.055,0.027-0.082,0.054
					c0.327,0.191,0.628,0.41,0.901,0.628c0.273,0.218,0.546,0.437,0.792,0.682c0.737,0.655,1.338,1.365,1.747,2.129
					c-0.519,0.956-1.311,1.856-2.321,2.648c-0.328,0.273-0.682,0.519-1.037,0.737c-2.047,1.365-4.75,2.457-7.889,3.195
					c-0.355,0.082-0.737,0.164-1.119,0.218c-1.583,0.328-3.249,0.546-4.996,0.655c-0.655,0.027-1.31,0.054-1.993,0.082h-1.474
					c-0.682-0.027-1.338-0.055-1.993-0.082c-1.747-0.109-3.412-0.327-4.996-0.655c-0.382-0.054-0.764-0.136-1.119-0.218
					c-3.139-0.737-5.842-1.83-7.89-3.195c-0.355-0.218-0.71-0.464-1.037-0.737c-1.01-0.792-1.802-1.692-2.321-2.648
					c0.41-0.764,1.01-1.474,1.747-2.129c0.246-0.246,0.519-0.464,0.792-0.682c0.273-0.218,0.573-0.437,0.901-0.628
					C1503.53,2194.502,1503.503,2194.502,1503.475,2194.474z"/>
			</g>
			<g>
				<path style="fill:#F5B3A2;" d="M1596.538,2188.278c-1.556-5.214-5.323-10.101-10.838-14.414
					c-1.747-1.337-3.658-2.648-5.733-3.876c-6.251-3.74-13.95-6.879-22.658-9.199c-2.02-0.546-4.068-1.038-6.197-1.502
					c-4.422-0.955-9.063-1.692-13.868-2.211c-4.614-0.518-9.418-0.819-14.305-0.901c-0.901-0.027-1.802-0.027-2.73-0.027
					s-1.829,0-2.73,0.027c-9.991,0.164-19.491,1.256-28.173,3.112c-2.129,0.464-4.177,0.956-6.197,1.502
					c-8.708,2.32-16.407,5.46-22.658,9.199c-2.075,1.229-3.986,2.539-5.733,3.876c-5.514,4.313-9.282,9.2-10.838,14.414
					c-0.546,1.802-0.819,3.603-0.819,5.46c0,1.174,0.109,2.348,0.328,3.467c0,0.027,0,0.027,0,0.027
					c0.491,2.621,1.529,5.16,3.085,7.589c1.365,2.157,3.112,4.231,5.241,6.197c1.529,1.447,3.221,2.812,5.105,4.095
					c6.88,4.886,16.052,8.899,26.726,11.711c2.02,0.518,4.122,1.01,6.252,1.474c8.545,1.774,17.881,2.839,27.681,3.003
					c0.901,0.027,1.802,0.027,2.73,0.027s1.829,0,2.73-0.027c9.801-0.164,19.137-1.229,27.681-3.003
					c2.129-0.464,4.231-0.956,6.252-1.474c10.674-2.812,19.846-6.825,26.726-11.711c1.884-1.283,3.576-2.648,5.105-4.095
					c4.504-4.177,7.398-8.845,8.326-13.786c0,0,0,0,0-0.027c0.219-1.119,0.328-2.293,0.328-3.467
					C1597.357,2191.881,1597.084,2190.079,1596.538,2188.278z M1537.982,2193.737c-0.328,0.273-0.682,0.519-1.037,0.737
					c-1.283,0.846-2.839,1.611-4.586,2.239c-0.682,0.246-1.419,0.464-2.156,0.655c-0.382,0.109-0.765,0.219-1.147,0.301
					c-0.355,0.082-0.737,0.164-1.119,0.218c-1.583,0.328-3.249,0.546-4.996,0.655c-0.655,0.027-1.31,0.055-1.993,0.082h-1.474
					c-0.682-0.027-1.338-0.054-1.993-0.082c-1.747-0.109-3.412-0.328-4.996-0.655c-0.382-0.054-0.764-0.136-1.119-0.218
					c-0.382-0.082-0.764-0.191-1.146-0.301c-0.737-0.191-1.474-0.409-2.157-0.655c-1.747-0.628-3.303-1.392-4.586-2.239
					c-0.355-0.218-0.71-0.464-1.037-0.737c-0.218-0.164-0.437-0.355-0.628-0.546c-0.71-0.655-1.283-1.365-1.693-2.102
					c-0.491-0.846-0.737-1.72-0.737-2.621c0-5.596,9.309-10.155,20.829-10.155c1.966,0,3.849,0.136,5.651,0.409
					c-1.802,1.638-3.822,3.276-6.06,4.859h0.409c0.464,0,0.928,0,1.392,0.027c0.355,0,0.737,0.027,1.092,0.055
					c0.164,0,0.3,0,0.409,0.027c0.519,0.027,1.065,0.054,1.583,0.136c3.549,0.382,6.77,1.201,9.364,2.32
					c0.464,0.218,0.928,0.437,1.365,0.656c2.293,1.201,4.013,2.675,4.887,4.286
					C1539.783,2192.045,1538.992,2192.946,1537.982,2193.737z"/>
			</g>
			<g>
				<path style="fill:#EA917A;" d="M1541.039,2188.469c0,0.901-0.246,1.774-0.737,2.621c-2.348-4.313-10.456-7.507-20.092-7.507
					c-9.637,0-17.745,3.194-20.092,7.507c-0.491-0.846-0.737-1.72-0.737-2.621c0-5.596,9.309-10.155,20.829-10.155
					S1541.039,2182.872,1541.039,2188.469z"/>
			</g>
			<g>
				<g>
					<path style="fill:#EA917A;" d="M1426.523,2162.995v5.129c0,0,5.811-0.91,4.521-2.774
						C1429.754,2163.486,1426.523,2162.995,1426.523,2162.995z"/>
				</g>
				<g>
					<path style="fill:#EA917A;" d="M1417.237,2191.007v5.214c0,0,5.054-1.379,3.887-3.344
						C1419.957,2190.912,1417.237,2191.007,1417.237,2191.007z"/>
				</g>
				<g>
					<path style="fill:#EA917A;" d="M1425.021,2221.685l0.015,5.346c0,0,6.806-1.875,4.994-3.81
						C1428.219,2221.286,1425.021,2221.685,1425.021,2221.685z"/>
				</g>
				<g>
					<path style="fill:#EA917A;" d="M1464.704,2246.868l0.027,5.502c0,0,4.795-2.001,3.228-3.844
						C1466.393,2246.684,1464.704,2246.868,1464.704,2246.868z"/>
				</g>
				<g>
					<path style="fill:#EA917A;" d="M1571.648,2144.599v5.938c0,0-2.204,3.044-3.624-0.464
						C1566.605,2146.564,1571.648,2144.599,1571.648,2144.599z"/>
				</g>
				<g>
					<path style="fill:#EA917A;" d="M1468.771,2144.906l0.019,5.93c0,0,2.946,1.532,3.53-0.341
						C1472.904,2148.622,1468.771,2144.906,1468.771,2144.906z"/>
				</g>
				<g>
					<path style="fill:#EA917A;" d="M1613.897,2162.749v5.405c0,0-4.476,0.358-5-1.71
						C1608.373,2164.377,1613.897,2162.749,1613.897,2162.749z"/>
				</g>
				<g>
					<path style="fill:#EA917A;" d="M1623.182,2191.007v5.214c0,0-6.825,1.447-7.07-1.747
						C1615.866,2191.281,1623.182,2191.007,1623.182,2191.007z"/>
				</g>
				<g>
					<path style="fill:#EA917A;" d="M1575.716,2246.793v5.214c0,0-3.051-1.311-2.969-3.276
						C1572.829,2246.766,1575.716,2246.793,1575.716,2246.793z"/>
				</g>
				<g>
					<path style="fill:#EA917A;" d="M1615.398,2221.46l-0.007,5.159c0,0-4.726-0.49-4.521-2.333
						C1611.075,2222.442,1615.398,2221.46,1615.398,2221.46z"/>
				</g>
			</g>
			<g>
				<g>
					<g>
						<path style="fill:#F5B3A2;" d="M1502.438,2193.737h-82.471c-1.501,0-2.73-1.229-2.73-2.73s1.229-2.73,2.73-2.73h79.441
							c-0.027,0.054-0.027,0.136-0.027,0.191c0,0.901,0.246,1.774,0.737,2.621c0.41,0.737,0.983,1.447,1.693,2.102
							C1502.001,2193.382,1502.22,2193.574,1502.438,2193.737z"/>
					</g>
					<g>
						<path style="fill:#F5B3A2;" d="M1623.182,2191.007c0,1.501-1.229,2.73-2.73,2.73h-82.471c1.01-0.792,1.802-1.692,2.321-2.648
							c0.491-0.846,0.737-1.72,0.737-2.621c0-0.055,0-0.136-0.027-0.191h79.441
							C1621.954,2188.278,1623.182,2189.506,1623.182,2191.007z"/>
					</g>
				</g>
				<g>
					<g>
						<path style="fill:#F5B3A2;" d="M1522.94,2140.094v38.328c-0.874-0.082-1.802-0.109-2.73-0.109s-1.856,0.027-2.73,0.109
							v-38.328c0-1.501,1.229-2.73,2.73-2.73C1521.711,2137.365,1522.94,2138.593,1522.94,2140.094z"/>
					</g>
					<g>
						<path style="fill:#F5B3A2;" d="M1522.94,2198.542v56.864c0,1.502-1.228,2.73-2.73,2.73c-1.502,0-2.73-1.228-2.73-2.73v-56.864
							c0.655,0.027,1.311,0.055,1.993,0.082h1.474C1521.63,2198.597,1522.285,2198.569,1522.94,2198.542z"/>
					</g>
				</g>
				<g>
					<g>
						<g>
							<g>
								<path style="fill:#F5B3A2;" d="M1519.473,2198.624l-50.094,50.094c-0.546,0.546-1.228,0.792-1.938,0.792
									c-0.71,0-1.392-0.246-1.938-0.792c-1.065-1.065-1.065-2.785,0-3.849l18.045-18.045l28.937-28.937
									c1.583,0.328,3.249,0.546,4.996,0.655C1518.135,2198.569,1518.79,2198.597,1519.473,2198.624z"/>
							</g>
							<g>
								<path style="fill:#F5B3A2;" d="M1570.85,2147.247l-34.697,34.698c-1.529-0.901-3.385-1.665-5.46-2.239l36.308-36.308
									c1.065-1.092,2.785-1.092,3.849,0C1571.915,2144.462,1571.915,2146.182,1570.85,2147.247z"/>
							</g>
						</g>
						<g>
							<g>
								<path style="fill:#F5B3A2;" d="M1511.365,2197.669l-54.544,17.444l-28.227,9.036c-0.273,0.109-0.573,0.137-0.846,0.137
									c-1.147,0-2.211-0.737-2.593-1.884c-0.464-1.447,0.328-2.976,1.774-3.44l24.788-7.944l51.759-16.543
									C1505.523,2195.839,1508.226,2196.931,1511.365,2197.669z"/>
							</g>
							<g>
								<path style="fill:#F5B3A2;" d="M1611.99,2165.455l-26.289,8.408l-44.689,14.305c-0.082-1.748-1.119-3.412-2.839-4.805
									l41.795-13.377l30.357-9.718c1.447-0.464,2.976,0.327,3.44,1.774C1614.228,2163.463,1613.437,2165.019,1611.99,2165.455z"/>
							</g>
						</g>
					</g>
					<g>
						<g>
							<g>
								<path style="fill:#F5B3A2;" d="M1509.727,2179.706c-2.075,0.573-3.931,1.338-5.46,2.239l-34.697-34.698
									c-1.065-1.065-1.065-2.784,0-3.849c1.065-1.092,2.785-1.092,3.849,0L1509.727,2179.706z"/>
							</g>
							<g>
								<path style="fill:#F5B3A2;" d="M1574.917,2248.718c-0.546,0.546-1.228,0.792-1.938,0.792s-1.392-0.246-1.938-0.792
									l-20.42-20.42l-27.681-27.681l-1.993-1.993c0.682-0.027,1.338-0.054,1.993-0.082c1.747-0.109,3.412-0.328,4.996-0.655
									l28.937,28.937l18.045,18.045C1575.982,2245.933,1575.982,2247.653,1574.917,2248.718z"/>
							</g>
						</g>
						<g>
							<g>
								<path style="fill:#F5B3A2;" d="M1502.247,2183.364c-1.72,1.392-2.757,3.057-2.839,4.805l-44.689-14.305l-26.289-8.408
									c-1.447-0.437-2.239-1.993-1.774-3.412c0.464-1.447,1.993-2.239,3.44-1.774l30.357,9.718L1502.247,2183.364z"/>
							</g>
							<g>
								<path style="fill:#F5B3A2;" d="M1615.266,2222.402c-0.382,1.146-1.447,1.884-2.594,1.884c-0.273,0-0.573-0.028-0.846-0.137
									l-28.227-9.036l-54.544-17.444c3.139-0.737,5.842-1.829,7.889-3.194l51.759,16.543l24.788,7.944
									C1614.938,2219.426,1615.73,2220.955,1615.266,2222.402z"/>
							</g>
						</g>
					</g>
				</g>
			</g>
			<g>
				<path style="fill:#5091B9;" d="M1499.408,2188.168l0.328,0.109h-0.328C1499.381,2188.25,1499.381,2188.196,1499.408,2188.168z"
					/>
			</g>
			<g>
				<path style="fill:#5091B9;" d="M1541.012,2188.168c0.027,0.027,0.027,0.082,0,0.109h-0.328L1541.012,2188.168z"/>
			</g>
			<g>
				<path style="fill:#333333;" d="M1537.245,2157.074c-0.3,7.289-4.04,14.769-11.384,21.648c-1.802-0.273-3.685-0.409-5.651-0.409
					c-11.52,0-20.829,4.559-20.829,10.155c0,0.901,0.246,1.774,0.737,2.621c0.41,0.737,0.983,1.447,1.693,2.102
					c-0.437,0.191-0.901,0.383-1.365,0.546c-13.868,5.433-31.803,9.446-53.97,11.083c-1.556-2.429-2.594-4.968-3.085-7.589
					c0,0,0,0,0-0.027c-0.218-1.119-0.328-2.293-0.328-3.467h-23.095c-1.501,0-2.73-1.229-2.73-2.73s1.229-2.73,2.73-2.73h23.914
					c1.556-5.214,5.323-10.101,10.838-14.414l-26.289-8.408c-1.447-0.437-2.239-1.993-1.774-3.412
					c0.464-1.447,1.993-2.239,3.44-1.774l30.357,9.718c6.251-3.74,13.95-6.879,22.658-9.199l-13.54-13.541
					c-1.065-1.065-1.065-2.784,0-3.849c1.065-1.092,2.785-1.092,3.849,0l15.888,15.888c8.681-1.856,18.181-2.948,28.173-3.112
					v-16.079c0-1.501,1.229-2.73,2.73-2.73c1.501,0,2.73,1.228,2.73,2.73v16.079
					C1527.826,2156.256,1532.631,2156.556,1537.245,2157.074z"/>
			</g>
		</g>
		<g>
			<ellipse style="fill:#B8DBF2;" cx="570.904" cy="2121.777" rx="201.002" ry="36.295"/>
		</g>
		<g>
			<ellipse style="fill:#B8DBF2;" cx="1008.357" cy="2199.737" rx="296.155" ry="36.295"/>
		</g>
		<g>
			<g>
				<g>
					<path style="fill:#FB503A;" d="M1237.43,2188.325l-112.836-0.179c0,0-1.476-5.479-1.925-13.497
						c-0.579-9.536,0.299-22.666,6.752-34.599l52.195,0.083c0,0,23.819,1.225,45.766,18.483c4.481,3.505,7.544,6.842,9.585,9.88
						C1244.965,2180.419,1237.43,2188.325,1237.43,2188.325z"/>
				</g>
				<g>
					<path style="fill:#DE331E;" d="M1237.43,2188.325l-112.836-0.179c0,0-1.476-5.479-1.925-13.497
						c28.772-2.066,83.283-5.707,114.298-6.153C1244.965,2180.419,1237.43,2188.325,1237.43,2188.325z"/>
				</g>
			</g>
			<g>
				<path style="fill:#40312A;" d="M949.494,1777.596c-22.56-1.199-36.871-18.296-30.224-43.014
					c6.647-24.718,75.056-37.866,79.496-29.203c4.44,8.662,2.823,16.992-0.15,20.943
					C995.643,1730.273,949.494,1777.596,949.494,1777.596z"/>
			</g>
			<g>
				<g>
					<path style="fill:#FEC6AB;" d="M991.505,1780.166c-7.569,4.057-15.047,1.75-16.79,1.104c-0.252-0.085-0.38-0.152-0.38-0.152
						s0.666,4.863,3.235,10.14c1.979,3.998,5.06,8.256,9.805,10.814c11.018,5.922,0.804,19.851-15.807,20.178
						s-36.065-18.489-36.065-18.489s9.046-8.222,10.84-18.715c1.794-10.493,0.232-22.581,0.232-22.581s-10.772-1.481-13.83-8.438
						c-3.058-6.957-0.492-14.226,4.278-13.897c4.769,0.329,3.585,5.74,8.913,5.445c4.44-0.246,6.353-9.038,6.86-11.937
						c0.688,0.358,3.094,0.447,10.245-0.89c13.519-2.532,16.727-14.291,16.727-14.291s1.742,4.655,7.861,7.879
						c6.117,3.224,10.986-0.015,10.986-0.015C1004.516,1763.113,1000.157,1775.529,991.505,1780.166z"/>
				</g>
				<g>
					<path style="fill:#FD9B73;" d="M977.57,1791.258c-19.581-1.908-21.201-20.873-21.201-20.873s5.303,7.278,17.966,10.733
						C974.335,1781.118,975.001,1785.981,977.57,1791.258z"/>
				</g>
				<g>
					<path style="fill:#FD9B73;" d="M984.808,1734.363c5.196,8.026,7.818,17.828,7.432,18.889s-6.875,1.866-8.141,0.451
						C982.833,1752.289,984.808,1734.363,984.808,1734.363z"/>
				</g>
			</g>
			<g>
				<g>
					<path style="fill:#FB503A;" d="M919.309,1733.309c0,0,106.711-10.222,106.21-25.423c-0.493-14.779-27.455-9.044-28.94-8.718
						c-0.049,0.026-0.074,0.026-0.074,0.026s-4.066-26.719-39.397-26.074C921.753,1673.765,913.49,1709.929,919.309,1733.309z"/>
				</g>
				<g>
					<path style="fill:#DE331E;" d="M919.309,1733.309c0,0,106.711-10.222,106.21-25.423c-0.493-14.779-27.455-9.044-28.94-8.718
						c-0.049,0.026-0.074,0.026-0.074,0.026C1002.751,1715.101,919.309,1733.309,919.309,1733.309z"/>
				</g>
			</g>
			<g>
				<path style="fill:#FEC6AB;" d="M1159.21,1825.222c0,0,12.823-45.342,19.979-43.694c7.157,1.648,0,17.452,0,17.452
					s28.925-37.866,37.871-28.624c8.946,9.241-3.28,54.269-39.66,66.197C1141.02,1848.481,1159.21,1825.222,1159.21,1825.222z"/>
			</g>
			<g>
				<path style="fill:#F5B3A2;" d="M877.115,1841.623c9.94-15.382,22.588-25.571,33.995-32.181c9.045-5.268,17.271-8.3,22.738-9.94
					c4.249-1.292,6.809-1.74,6.809-1.74s38.89,26.266,41.3,0c0,0,5.939-0.969,14.736-0.149c5.964,0.522,13.22,1.889,20.799,4.92
					c3.578,1.392,7.206,3.156,10.81,5.392c22.663,14.015,60.534,68.287,65.305,68.958c4.771,0.671,57.254-58.521,62.622-59.118
					c5.368-0.596,28.031,16.699,28.031,20.278s-53.676,93.634-82.899,97.213c-29.223,3.578-68.586-36.703-68.586-36.703
					l-2.311-0.174l-112.818-9.045c0,0,0,0.025-0.025,0.05c-1.044,1.59-26.167,40.555-24.999,43.487
					c0.153,0.37,1.451,1.12,3.586,2.148c-15.781,14.607-27.166,30.611-43.968,43.809c-8.991-3.472-15.429-7.285-17.469-11.366
					C824.632,1947.185,853.259,1878.599,877.115,1841.623z"/>
			</g>
			<g>
				<g>
					<g>
						<path style="fill:#FB503A;" d="M736.614,2162.481l99.319-53.551c0,0,3.906,4.116,8.117,10.954
							c5.048,8.111,10.525,20.076,10.531,33.642l-45.943,24.772c0,0-21.531,10.26-49.046,5.529
							c-5.609-0.949-9.891-2.426-13.132-4.127C733.75,2173.021,736.614,2162.481,736.614,2162.481z"/>
					</g>
					<g>
						<path style="fill:#DE331E;" d="M736.614,2162.481l99.319-53.551c0,0,3.906,4.116,8.117,10.954
							c-24.321,15.512-70.527,44.661-97.591,59.816C733.75,2173.021,736.614,2162.481,736.614,2162.481z"/>
					</g>
				</g>
				<g>
					<path style="fill:#FB503A;" d="M777.071,2185.029c37.236-0.702,83.196-14.345,83.196-14.345s2.907-26.795-10.735-26.369
						C835.889,2144.741,777.071,2185.029,777.071,2185.029z"/>
				</g>
			</g>
			<g>
				<path style="fill:#1A6185;" d="M845.953,2180.972c0.895,3.131,216.939,4.92,232.594-7.157
					c15.655-12.077,25.048-31.311,6.262-59.043c-18.786-27.732-49.65-64.858-49.65-64.858l89.459-15.432
					c0,0,1.789,103.549,4.026,106.68s48.308,1.789,52.781-0.895c4.473-2.684,26.689-130.611,2.833-160.132
					c-23.856-29.521-171.016-4.92-171.016-4.92s15.158-25.521,17.221-76.836c0.224-5.144,0.298-10.536,0.224-16.202
					c-0.572-39.909-7.952-66.026-13.195-79.644c-7.579-3.032-14.836-4.398-20.799-4.92l8.946,63.392l-52.284,4.274l-19.507-65.777
					c-5.467,1.64-13.692,4.672-22.738,9.94c0,0,16.401,17.569,16.997,45.897c0.472,22.812-10.462,33.995-10.462,33.995
					s0,0.025-0.025,0.05c-0.373,1.218-7.082,22.663-13.32,49.228c-3.827,16.426-7.48,34.79-9.344,51.588
					c-0.696,6.237-1.118,12.251-1.242,17.867c-0.149,7.306,0.273,13.941,1.441,19.482c0.895,4.2,2.709,8.499,5.268,12.773
					c21.744,36.778,96.715,74.45,96.715,74.45c-63.964-4.026-144.477,14.761-147.161,17.892
					C847.295,2135.795,845.059,2177.841,845.953,2180.972z"/>
			</g>
			<g>
				<path style="fill:#0B4063;" d="M895.156,2027.549c0.895,4.2,2.709,8.499,5.268,12.773c34.591,0.671,35.883-39.387,35.883-39.387
					s-25.198,7.256-42.593,7.132C893.566,2015.373,893.988,2022.008,895.156,2027.549z"/>
			</g>
			<g>
				<path style="fill:#0B4063;" d="M1009.44,1892.913c-1.085-0.651-52.781,1.342-54.794,3.578
					c-2.013,2.236,2.46,37.349,30.64,34.218C1013.466,1927.578,1011.677,1894.255,1009.44,1892.913z"/>
			</g>
			<g>
				<path style="fill:#FFA72B;" d="M1091.818,1960.219c0,0-128.99,188.795-197.795,130.431
					c-66.087-56.058,133.316-184.617,133.316-184.617L1091.818,1960.219z"/>
			</g>
			<g>
				
					<ellipse transform="matrix(0.6434 -0.7656 0.7656 0.6434 -1102.0424 1500.6025)" style="fill:#F5801A;" cx="1059.579" cy="1933.126" rx="19.585" ry="42.112"/>
			</g>
			<g>
				<path style="fill:#FFFFFF;" d="M1072.634,1934.573c0,0,160.07-190.898,151.189-199.202
					c-4.839-4.525-166.367,176.124-170.053,184.549C1048.171,1932.714,1061.789,1941.315,1072.634,1934.573z"/>
			</g>
			<g>
				
					<ellipse transform="matrix(0.6797 -0.7335 0.7335 0.6797 -1174.9683 1340.8467)" style="fill:#333333;" cx="947.651" cy="2015.645" rx="63.088" ry="8.636"/>
			</g>
			<g>
				<path style="fill:#FFFFFF;" d="M1193.954,1759.653c-0.007,1.547,0.026,2.934,0.084,4.087c0.08,2.288,0.239,3.714,0.239,3.714
					l7.654,6.296c24.115,0.635,35.816-0.767,45.671-13.451s29.385-47.125,28.198-51.045c-0.364-1.162-2.465-3.272-5.405-5.621
					c-6.918-5.556-18.495-12.5-23.043-12.015c-6.498,0.683-44.641,38.531-48.782,45.722
					C1194.826,1743.841,1194.009,1753.14,1193.954,1759.653z"/>
			</g>
			<g>
				<path style="fill:#FEC6AB;" d="M963.408,1972.112c0,0,44.99-14.007,47.516-7.112s-14.623,9.527-14.623,9.527
					s47.516,3.565,44.656,16.106c-2.86,12.54-47.261,26.876-77.114,2.906C933.99,1969.568,963.408,1972.112,963.408,1972.112z"/>
			</g>
			<g>
				<path style="fill:#F5B3A2;" d="M896.208,1935.02c2.019,0.972,4.784,2.192,8.093,3.592c21.495,9.095,65.28,25.67,67.268,28.851
					c2.609,4.175-2.013,29.223-5.194,31.609c-1.74,1.292-37.523-2.162-71.418-8.871c-15.878-3.137-31.343-6.98-42.717-11.371
					C869.041,1965.631,880.427,1949.627,896.208,1935.02z"/>
			</g>
		</g>
		<g>
			<g>
				<path style="fill:#ABDEF0;" d="M183.82,1599.085c1.107,31.356-17.97,43.282-17.97,43.282l62.335,153.543
					c0,0,42.577,2.742,48.37,34.693c4.04,22.225-3.765,38.509-8.883,46.359c-1.249,1.925-4.187,1.213-4.455-1.053
					c-1.204-9.782-5.305-28.68-19.457-40.239c-15.381-12.562-42.785,0.679-44.218,22.922c-0.923,14.365,10.774,28.227,17.521,34.959
					c1.626,1.615,0.377,4.33-1.893,4.164c-11.012-0.807-32.744-5.592-39.417-30.002c-9.056-33.144,15.096-53.35,15.096-53.35
					l-20.68-53.339l-40.357-103.992c0,0-18.408,7.194-36.923-13.709c-8.787-9.906-11.79-21.839-12.189-32.65
					c-0.336-8.031,0.756-15.435,1.958-20.952c0.542-2.466,3.978-2.496,4.697-0.078c7.391,24.674,29.302,36.142,53.909,18.281
					c19.946-14.485,8.377-37.472,0.492-49.011c-1.413-2.052,0.777-4.644,3.038-3.588
					C158.24,1561.638,183.004,1576.297,183.82,1599.085z"/>
			</g>
			<g>
				<g>
					<path style="fill:#89CAE0;" d="M211.142,1809.075c-0.296,0.363-0.69,0.656-1.159,0.835c-1.435,0.55-3.043-0.169-3.591-1.602
						l-61.43-160.526c-0.547-1.434,0.169-3.041,1.604-3.591c1.435-0.55,3.043,0.169,3.591,1.602l61.43,160.526
						C211.955,1807.285,211.752,1808.329,211.142,1809.075z"/>
				</g>
			</g>
			<g>
				<path style="fill:#89CAE0;" d="M143.987,1625.672c3.667,1.352,5.544,5.421,4.192,9.088c-1.352,3.667-5.421,5.544-9.088,4.192
					c-3.667-1.352-5.544-5.421-4.192-9.089C136.25,1626.196,140.319,1624.319,143.987,1625.672z"/>
			</g>
			<g>
				<path style="fill:#89CAE0;" d="M214.636,1814.037c3.667,1.352,5.544,5.421,4.192,9.089c-1.352,3.667-5.421,5.544-9.089,4.192
					c-3.667-1.352-5.544-5.421-4.192-9.089S210.969,1812.685,214.636,1814.037z"/>
			</g>
		</g>
		<g>
			<g>
				<path style="fill:#89CAE0;" d="M2350.642,1393.998c-7.908,3.876-17.864,6.53-17.864,6.53s-1.015-1.669-2.672-3.98
					c-2.246-3.138-5.693-7.479-9.377-10.403c-1.097-0.873-2.196-1.623-3.312-2.179c-2.541-1.277-1.212-4.3,1.703-7.764
					c5.791-6.925,17.885-15.611,17.885-15.611s1.023,1.868,3.319,4.77c2.116,2.703,5.339,6.294,9.863,10.086
					c1.997,1.692,4.259,3.415,6.783,5.12C2364.036,1385.339,2358.302,1390.242,2350.642,1393.998z"/>
			</g>
			<g>
				<path style="fill:#ABDEF0;" d="M2340.323,1365.36c-3.599,4.602-8.983,10.417-14.18,15.581c-1.858,1.851-3.685,3.61-5.415,5.204
					c-4.906,4.547-8.896,7.735-9.888,7.587c-2.994-0.473-15.93-10.604-16.352-16.833c-0.165-2.488,3.608-8.496,8.563-14.845
					c7.417-9.54,17.489-19.862,20.917-20.333c5.703-0.792,20.726,14.626,20.615,16.378
					C2344.499,1359.487,2342.845,1362.121,2340.323,1365.36z"/>
			</g>
			<g>
				<path style="fill:#89CAE0;" d="M2328.359,1403.588c-2.993,8.909-13.428,24.678-26.862,30.492
					c-13.434,5.814,16.485,22.791,16.624,17.938s20.253-29.671,28.161-32.437S2328.359,1403.588,2328.359,1403.588z"/>
			</g>
			<g>
				<path style="fill:#ABDEF0;" d="M2379.839,1474.979c-3.355,0.474-2.791-14.792-18.844-36.826
					c-9.432-12.942-32.448-28.459-35.009-33.143c-0.684-1.254,1.092-4.466,4.119-8.462c2.069-2.731,4.721-5.832,7.565-8.904
					c4.185-4.515,8.766-8.983,12.515-12.198c3.897-3.331,6.89-5.299,7.57-4.552c10.88,11.867,18.469,23.087,23.589,33.453
					C2402.245,1446.552,2382.533,1474.599,2379.839,1474.979z"/>
			</g>
			<g>
				<path style="fill:#7FBFD4;" d="M2295.719,1425.855c6.444,0.794,28.343,22.234,29.839,31.83
					c1.496,9.596-140.074,154.082-147.862,155.495c-7.789,1.413-34.214-19.472-31.648-31.607
					C2148.612,1569.439,2288.848,1425.009,2295.719,1425.855z"/>
			</g>
		</g>
		<g>
			<g>
				<g>
					<path style="fill:#89CAE0;" d="M1103.505,768.46l-5.776-2.776c13.447-27.977,56.058-17.259,93.652-7.803
						c15.14,3.809,29.437,7.401,39.976,7.936c8.166,0.414,15.664-2.773,22.291-9.472c15.481-15.654,21.42-44.812,21.776-50.42
						c-4.081-3.484-27.75-14.774-49.331-24.141l2.551-5.879c52.055,22.597,52.771,26.481,53.114,28.346
						c0.687,3.731-5.129,35.717-21.393,54.274c-8.452,9.642-18.321,14.248-29.332,13.692c-11.168-0.566-25.762-4.234-41.215-8.123
						C1154.604,755.238,1114.683,745.194,1103.505,768.46z M1275.834,706.321c0,0.002,0,0.002,0,0.002L1275.834,706.321z"/>
				</g>
			</g>
			<g>
				<path style="fill:#ABDEF0;" d="M1103.225,578.594c16.751-13.101,166.55,64.86,169.254,74.815
					c2.704,9.955-25.566,80.342-41.252,84.246c-15.686,3.904-158.861-64.098-164.732-73.905
					C1060.626,653.942,1092.058,587.328,1103.225,578.594z"/>
			</g>
			<g>
				<path style="fill:#7FBFD4;" d="M1080.389,752.614c3.245-1.332,45.217,17.915,46.455,23.458
					c1.238,5.543-32.408,61.713-34.445,63.068c-2.037,1.355-31.09-9.193-34.927-16.434
					C1053.635,815.464,1076.542,754.193,1080.389,752.614z"/>
			</g>
			<g>
				<path style="fill:#333333;" d="M1230.289,644.988c-2.39,5.331-30.851-2.237-63.57-16.905s-57.304-30.88-54.915-36.211
					c2.39-5.331,30.851,2.237,63.57,16.905C1208.093,623.445,1232.679,639.657,1230.289,644.988z"/>
			</g>
		</g>
		<g>
			<g>
				<path style="fill:#89CAE0;" d="M1945.028,881.861c4.623,1.555,9.766,0.306,13.146-3.218l0.794-0.844l2.218-2.293l8.29-8.699
					l2.19-2.259l8.321-8.702l2.186-2.29l8.293-8.667l2.186-2.29l8.321-8.702l2.158-2.255l8.321-8.702l2.19-2.258l8.321-8.702
					l2.155-2.286l8.352-8.706l2.159-2.255l8.321-8.702l2.186-2.29l8.324-8.671l2.155-2.286l8.321-8.702l2.159-2.255l8.321-8.702
					l2.19-2.258l8.318-8.734l2.158-2.255l8.352-8.705l2.159-2.255l8.321-8.702l2.187-2.29l8.321-8.702l2.159-2.255l8.321-8.702
					l2.19-2.258l5.167-5.423c3.69-3.874,4.525-9.62,2.115-14.385c-2.368-4.675-7.366-7.359-12.551-6.8l-0.344,0.037
					c-65.944,8.845-173.546,22.591-189.014,22.741c-1.328-0.299-2.726-0.37-4.131-0.218c-6.904,0.744-11.892,6.938-11.148,13.842
					l17.406,161.497C1937.115,876.172,1940.402,880.274,1945.028,881.861z M2031.374,710.762c21.42-2.688,42.86-5.473,59.997-7.731
					l-132.686,138.711l-13.049-121.076C1959.986,719.53,1985.258,716.522,2031.374,710.762z M1942.96,702.879
					c-0.441-0.869-0.97-1.665-1.557-2.424C1941.988,701.183,1942.547,701.976,1942.96,702.879z"/>
			</g>
			<g>
				<g>
					<g>
						<path style="fill:#ABDEF0;" d="M1951.982,868.977c0.285-0.283,0.616-0.445,0.99-0.485c0.437-0.047,0.895,0.093,1.248,0.434
							l6.966,6.581l-2.218,2.293l-6.935-6.584C1951.432,870.616,1951.387,869.61,1951.982,868.977z"/>
					</g>
				</g>
				<g>
					<g>
						<path style="fill:#ABDEF0;" d="M1962.424,857.961c0.254-0.281,0.615-0.446,0.959-0.483c0.468-0.051,0.926,0.09,1.279,0.431
							l7.004,6.639l-2.19,2.259l-7.004-6.64C1961.839,859.572,1961.828,858.593,1962.424,857.961z"/>
					</g>
				</g>
				<g>
					<g>
						<path style="fill:#ABDEF0;" d="M1972.865,846.944c0.254-0.28,0.616-0.445,0.959-0.482c0.468-0.051,0.926,0.09,1.276,0.399
							l7.073,6.695l-2.186,2.29l-7.073-6.695C1972.281,848.555,1972.27,847.577,1972.865,846.944z"/>
					</g>
				</g>
				<g>
					<g>
						<path style="fill:#ABDEF0;" d="M1983.307,835.928c0.254-0.28,0.616-0.446,0.959-0.483c0.437-0.047,0.926,0.09,1.244,0.403
							l7.142,6.751l-2.186,2.29l-7.111-6.754C1982.722,837.54,1982.711,836.561,1983.307,835.928z"/>
					</g>
				</g>
				<g>
					<g>
						<path style="fill:#ABDEF0;" d="M1993.745,824.88c0.254-0.28,0.616-0.445,0.959-0.482c0.437-0.047,0.895,0.093,1.248,0.434
							l7.18,6.81l-2.158,2.255l-7.177-6.779C1993.164,826.523,1993.15,825.513,1993.745,824.88z"/>
					</g>
				</g>
				<g>
					<g>
						<path style="fill:#ABDEF0;" d="M2004.187,813.865c0.254-0.28,0.616-0.446,0.959-0.483c0.437-0.047,0.895,0.093,1.248,0.435
							l7.25,6.866l-2.19,2.258l-7.215-6.838C2003.605,815.507,2003.591,814.497,2004.187,813.865z"/>
					</g>
				</g>
				<g>
					<g>
						<path style="fill:#ABDEF0;" d="M2014.628,802.848c0.254-0.28,0.616-0.446,0.959-0.483c0.437-0.047,0.895,0.093,1.248,0.434
							l7.284,6.894l-2.155,2.286l-7.284-6.894C2014.047,804.491,2014.033,803.481,2014.628,802.848z"/>
					</g>
				</g>
				<g>
					<g>
						<path style="fill:#ABDEF0;" d="M2025.07,791.832c0.254-0.281,0.615-0.446,0.959-0.483c0.437-0.047,0.895,0.093,1.248,0.435
							l7.354,6.949l-2.159,2.255l-7.353-6.949C2024.485,793.443,2024.474,792.465,2025.07,791.832z"/>
					</g>
				</g>
				<g>
					<g>
						<path style="fill:#ABDEF0;" d="M2035.511,780.816c0.254-0.28,0.616-0.445,0.959-0.482c0.437-0.047,0.895,0.093,1.244,0.403
							l7.423,7.005l-2.186,2.29l-7.391-7.009C2034.927,782.427,2034.916,781.449,2035.511,780.816z"/>
					</g>
				</g>
				<g>
					<g>
						<path style="fill:#ABDEF0;" d="M2045.95,769.768c0.254-0.28,0.619-0.414,0.963-0.451c0.437-0.047,0.891,0.062,1.244,0.403
							l7.46,7.064l-2.155,2.286l-7.461-7.064C2045.368,771.411,2045.354,770.401,2045.95,769.768z"/>
					</g>
				</g>
				<g>
					<g>
						<path style="fill:#ABDEF0;" d="M2056.391,758.752c0.254-0.28,0.584-0.442,0.959-0.482c0.437-0.047,0.895,0.093,1.248,0.434
							l7.499,7.124l-2.159,2.255l-7.495-7.092C2055.81,760.395,2055.796,759.385,2056.391,758.752z"/>
					</g>
				</g>
				<g>
					<g>
						<path style="fill:#ABDEF0;" d="M2066.802,747.739c0.285-0.284,0.615-0.445,0.99-0.486c0.437-0.047,0.895,0.093,1.248,0.435
							l7.568,7.179l-2.19,2.258l-7.533-7.151C2066.251,749.379,2066.206,748.372,2066.802,747.739z"/>
					</g>
				</g>
				<g>
					<g>
						<path style="fill:#ABDEF0;" d="M2077.243,736.723c0.286-0.284,0.616-0.446,0.99-0.486c0.438-0.047,0.895,0.093,1.248,0.434
							l7.602,7.207l-2.158,2.255l-7.603-7.207C2076.689,738.331,2076.648,737.356,2077.243,736.723z"/>
					</g>
				</g>
				<g>
					<g>
						<path style="fill:#ABDEF0;" d="M2087.685,725.707c0.286-0.284,0.616-0.446,0.99-0.486c0.437-0.047,0.895,0.093,1.244,0.403
							l7.675,7.294l-2.159,2.255l-7.672-7.263C2087.131,727.315,2087.089,726.34,2087.685,725.707z"/>
					</g>
				</g>
				<g>
					<g>
						<path style="fill:#ABDEF0;" d="M2098.126,714.691c0.285-0.283,0.615-0.445,0.99-0.486c0.437-0.047,0.895,0.093,1.244,0.403
							l7.741,7.318l-2.187,2.29l-7.71-7.322C2097.573,716.299,2097.528,715.292,2098.126,714.691z"/>
					</g>
				</g>
				<g>
					<g>
						<path style="fill:#ABDEF0;" d="M2108.564,703.643c0.285-0.283,0.615-0.446,0.99-0.486c0.438-0.047,0.895,0.093,1.248,0.434
							l7.779,7.378l-2.159,2.255l-7.775-7.347C2108.014,705.282,2107.969,704.276,2108.564,703.643z"/>
					</g>
				</g>
				<g>
					<g>
						<path style="fill:#ABDEF0;" d="M2119.006,692.627c0.285-0.284,0.615-0.446,0.99-0.486c0.437-0.047,0.895,0.093,1.247,0.435
							l7.848,7.433l-2.19,2.258l-7.813-7.406C2118.456,694.267,2118.411,693.26,2119.006,692.627z"/>
					</g>
				</g>
			</g>
		</g>
		<g>
			<g>
				<path style="fill:#89CAE0;" d="M527.951,739.114c-58.989-25.89-128.674,2.739-156.048,63.985l-0.353,0.805
					c-7.535,17.168-10.967,35.06-10.713,52.505l46.577,20.442c-5.517-17.515-4.875-37.331,3.227-55.79
					c0.118-0.268,0.235-0.536,0.377-0.794c17.461-38.724,61.631-56.797,99.039-40.379c37.408,16.418,54.007,61.163,37.326,100.229
					c-0.093,0.279-0.211,0.547-0.329,0.815c-8.102,18.46-22.252,32.346-38.878,40.143l46.577,20.442
					c13.012-11.623,23.857-26.261,31.392-43.429l0.353-0.805C613.042,835.674,586.94,765.004,527.951,739.114z"/>
			</g>
			<g>
				<path style="fill:#89CAE0;" d="M354.832,795.606l-21.406,48.771l248.734,109.169l21.406-48.771L354.832,795.606z"/>
			</g>
			<g>
				<g>
					<g>
						<path style="fill:#ABDEF0;" d="M543.144,936.422l10.168-23.166c0.3-0.683,1.072-0.984,1.755-0.684
							c0.683,0.3,0.984,1.072,0.684,1.754l-10.168,23.166L543.144,936.422z"/>
					</g>
				</g>
				<g>
					<g>
						<path style="fill:#ABDEF0;" d="M504.127,919.297l10.168-23.166c0.3-0.683,1.071-0.984,1.754-0.684
							c0.683,0.3,0.984,1.072,0.684,1.754l-10.168,23.166L504.127,919.297z"/>
					</g>
				</g>
				<g>
					<g>
						<path style="fill:#ABDEF0;" d="M465.109,902.173l10.168-23.166c0.3-0.683,1.072-0.984,1.754-0.684
							c0.683,0.3,0.984,1.072,0.684,1.754l-10.168,23.166L465.109,902.173z"/>
					</g>
				</g>
				<g>
					<g>
						<path style="fill:#ABDEF0;" d="M426.092,885.048l10.168-23.166c0.3-0.683,1.072-0.984,1.754-0.684
							c0.683,0.3,0.984,1.071,0.684,1.754l-10.168,23.166L426.092,885.048z"/>
					</g>
				</g>
				<g>
					<g>
						<path style="fill:#ABDEF0;" d="M387.075,867.924l10.168-23.166c0.3-0.683,1.072-0.984,1.755-0.684
							c0.683,0.3,0.984,1.071,0.684,1.754l-10.168,23.166L387.075,867.924z"/>
					</g>
				</g>
				<g>
					<g>
						<path style="fill:#ABDEF0;" d="M348.058,850.799l10.168-23.166c0.3-0.683,1.072-0.984,1.754-0.684
							c0.683,0.3,0.984,1.072,0.684,1.754l-10.168,23.166L348.058,850.799z"/>
					</g>
				</g>
				<g>
					<g>
						<path style="fill:#ABDEF0;" d="M562.652,944.984l5.887-13.412c0.3-0.683,1.072-0.984,1.755-0.684
							c0.683,0.3,0.984,1.072,0.684,1.754l-5.887,13.412L562.652,944.984z"/>
					</g>
				</g>
				<g>
					<g>
						<path style="fill:#ABDEF0;" d="M523.635,927.86l5.887-13.412c0.3-0.683,1.072-0.984,1.754-0.684
							c0.683,0.3,0.984,1.072,0.684,1.754l-5.887,13.412L523.635,927.86z"/>
					</g>
				</g>
				<g>
					<g>
						<path style="fill:#ABDEF0;" d="M484.618,910.735l5.887-13.412c0.3-0.683,1.072-0.984,1.754-0.684
							c0.683,0.3,0.984,1.072,0.684,1.754l-5.887,13.412L484.618,910.735z"/>
					</g>
				</g>
				<g>
					<g>
						<path style="fill:#ABDEF0;" d="M445.601,893.611l5.887-13.412c0.3-0.683,1.072-0.984,1.754-0.684
							c0.683,0.3,0.984,1.072,0.684,1.754l-5.887,13.412L445.601,893.611z"/>
					</g>
				</g>
				<g>
					<g>
						<path style="fill:#ABDEF0;" d="M406.584,876.486l5.887-13.412c0.3-0.683,1.072-0.984,1.754-0.684
							c0.683,0.3,0.984,1.072,0.684,1.754l-5.887,13.412L406.584,876.486z"/>
					</g>
				</g>
				<g>
					<g>
						<path style="fill:#ABDEF0;" d="M367.567,859.362l5.887-13.412c0.3-0.683,1.072-0.984,1.754-0.684
							c0.683,0.3,0.984,1.072,0.684,1.754l-5.887,13.412L367.567,859.362z"/>
					</g>
				</g>
			</g>
		</g>
		<g>
			<g>
				<g>
					<path style="fill:#81CAEB;" d="M1917.365,1355.97c-2.064,2.569-62.686,20.389-155.661,46.256
						c-220.032,61.169-621.422,167.499-858.305,224.497c-107.973,25.993-181.78,41.748-188.689,38.294
						c-11.248-5.645-47.014-125.834-80.042-253.017c-0.758-2.907-1.517-5.856-2.275-8.762
						c-35.766-138.516-67.572-282.507-60.495-293.966c9.057-14.702,395.451-116.946,727.878-199.895
						c65.845-16.43,129.542-32.102,187.804-46.172c161.306-39.052,280.695-65.93,286.972-62.981
						C1817.017,820.151,1931.225,1338.486,1917.365,1355.97z"/>
				</g>
				<g>
					<path style="fill:#3B6BBF;" d="M1079.615,1298.297c4.625-8.093,308.373-78.863,314.439-77.852
						c6.066,1.011,18.199,47.52,16.177,50.553c-2.022,3.033-310.395,80.885-314.439,77.852S1075.571,1305.375,1079.615,1298.297z"/>
				</g>
				<g>
					<path style="fill:#3B6BBF;" d="M1761.704,1402.226c-220.032,61.169-621.422,167.499-858.305,224.497
						c-2.823-8.509-6.109-18.578-9.647-29.447c-1.264-3.918-2.612-7.962-3.918-12.048c-2.781-8.594-5.645-17.483-8.468-26.33
						c-1.306-4.044-2.57-8.046-3.834-12.006c-2.949-9.268-5.771-18.368-8.383-26.835c-1.306-4.213-2.528-8.257-3.707-12.133
						c-5.94-19.8-9.858-34.25-9.437-36.735c1.517-9.099,847.773-222.938,855.356-222.938c1.98,0,6.741,11.838,12.68,29.405
						c1.306,3.75,2.612,7.794,4.002,12.006c2.696,8.3,5.561,17.399,8.468,26.793c1.222,4.002,2.443,8.046,3.665,12.091
						c2.696,8.846,5.35,17.82,7.92,26.498c1.222,4.128,2.401,8.215,3.539,12.175
						C1755.511,1380.53,1759.008,1392.705,1761.704,1402.226z"/>
				</g>
				<g>
					<g>
						<g>
							<g>
								<path style="fill:#14469C;" d="M1728.044,1289.661l-858.895,230.395c-1.306-4.213-2.528-8.257-3.707-12.133l858.6-230.269
									C1725.348,1281.404,1726.654,1285.448,1728.044,1289.661z"/>
							</g>
						</g>
						<g>
							<g>
								<path style="fill:#14469C;" d="M1740.177,1328.545l-858.81,230.353c-1.306-4.044-2.57-8.046-3.834-12.006l858.979-230.438
									C1737.733,1320.456,1738.955,1324.5,1740.177,1328.545z"/>
							</g>
						</g>
					</g>
					<g>
						<g>
							<path style="fill:#14469C;" d="M1751.635,1367.218l-857.883,230.058c-1.264-3.918-2.612-7.962-3.918-12.048l858.263-230.184
								C1749.318,1359.171,1750.498,1363.258,1751.635,1367.218z"/>
						</g>
					</g>
				</g>
				<g>
					<path style="fill:#333333;" d="M634.668,1411.999c-0.758-2.907-1.517-5.856-2.275-8.762
						c-35.766-138.516-67.572-282.507-60.495-293.966c9.057-14.702,395.451-116.946,727.878-199.895
						C1319.408,1022.11,1048.781,1341.983,634.668,1411.999z"/>
				</g>
				<g>
					<g>
						
							<ellipse transform="matrix(0.5357 -0.8444 0.8444 0.5357 37.8006 1833.0192)" style="fill:#318FB5;" cx="1685.715" cy="882.136" rx="16.884" ry="16.884"/>
					</g>
					<g>
						
							<ellipse transform="matrix(0.5357 -0.8444 0.8444 0.5357 -0.0456 1790.1115)" style="fill:#FB503A;" cx="1627.775" cy="895.097" rx="16.884" ry="16.884"/>
					</g>
					<g>
						
							<ellipse transform="matrix(0.4615 -0.8871 0.8871 0.4615 39.7611 1881.6208)" style="fill:#F8EA42;" cx="1569.835" cy="908.058" rx="16.884" ry="16.884"/>
					</g>
				</g>
			</g>
			<g>
				<g>
					<path style="fill:#40312A;" d="M640.838,1491.298c-20.097-0.773-32.465-10.822-29.373-25.25
						c3.092-14.429,18.551-40.195,37.618-27.312C668.149,1451.619,640.838,1491.298,640.838,1491.298z"/>
				</g>
				<g>
					<path style="fill:#FEC6AB;" d="M670.068,1511.997c0,12.139,0.916,22.588,0.916,22.588s-38.649-0.773-40.195-5.153
						c-1.546-4.38,9.276-52.047,9.276-52.047s2.347-11.337,12.51-4.895c5.182,3.264,9.848,8.675,13.198,13.198
						c3.206,4.38,5.211,7.93,5.211,7.93C670.296,1499.457,670.068,1505.927,670.068,1511.997z"/>
				</g>
				<g>
					<path style="fill:#FD9B73;" d="M670.984,1493.617c-0.688,5.84-0.916,12.31-0.916,18.38
						c-10.421-3.378-25.766-17.807-26.997-34.526c0,0,8.273,2.491,22.702,8.216C668.98,1490.067,670.984,1493.617,670.984,1493.617z
						"/>
				</g>
				<g>
					<path style="fill:#FEC6AB;" d="M691.854,1423.877l1.374,9.619c0,0,14.772,16.147,15.803,20.269
						c1.031,4.122-8.589,7.901-8.589,7.901s-0.687,29.201-4.81,32.637c-4.122,3.435-22.674,4.466-35.729,0
						c-13.055-4.466-16.834-16.834-16.834-16.834s-2.491,4.81-8.245,2.405c-4.001-1.672-13.398-15.803-7.901-21.987
						s13.742-2.748,13.742-2.748L691.854,1423.877z"/>
				</g>
				<g>
					<path style="fill:#40312A;" d="M640.666,1455.14c40.882-1.718,62.01-31.606,53.765-38.305
						C686.185,1410.136,640.666,1455.14,640.666,1455.14z"/>
				</g>
				<g>
					<path style="fill:#1A6185;" d="M484.967,2083.904l-54.9-81.07c0,0,3.212-3.731,8.748-7.964
						c6.561-5.066,16.413-10.839,28.125-12.027l25.395,37.501c0,0,10.737,17.693,9.054,41.86c-0.33,4.925-1.231,8.751-2.416,11.698
						C494.316,2085.456,484.967,2083.904,484.967,2083.904z"/>
				</g>
				<g>
					<path style="fill:#0B4063;" d="M484.967,2083.904l-54.9-81.07c0,0,3.212-3.731,8.748-7.964
						c15.514,19.643,44.712,56.989,60.157,79.031C494.316,2085.456,484.967,2083.904,484.967,2083.904z"/>
				</g>
				<g>
					<path style="fill:#DE331E;" d="M670.984,1867.371c0,0-19.324,38.498-35.814,59.111
						c-16.49,20.613-133.982,89.665-143.258,90.696c-9.276,1.031-28.858-21.643-25.766-35.042
						c3.092-13.398,103.063-85.525,111.308-97.901s26.905-114.384,26.756-117.407
						C604.061,1763.804,670.984,1867.371,670.984,1867.371z"/>
				</g>
				<g>
					<path style="fill:#1A6185;" d="M717.62,2113.542h-97.91c0,0-1.288-4.752-1.689-11.709c-0.516-8.274,0.228-19.668,5.811-30.031
						h45.291c0,0,20.67,1.031,39.737,15.975c3.893,3.035,6.555,5.926,8.331,8.56C724.147,2106.671,717.62,2113.542,717.62,2113.542z
						"/>
				</g>
				<g>
					<path style="fill:#0B4063;" d="M717.62,2113.542h-97.91c0,0-1.288-4.752-1.689-11.709c24.963-1.832,72.258-5.067,99.169-5.497
						C724.147,2106.671,717.62,2113.542,717.62,2113.542z"/>
				</g>
				<g>
					<path style="fill:#FB503A;" d="M751.631,1899.714c-2.061,48.411-71.114,164.873-76.267,172.087
						c-2.232,3.092-10.478,4.667-19.868,4.981c-1.861,0.057-3.779,0.057-5.726,0.029c-10.908-0.229-21.929-2.004-25.938-5.01
						c-8.245-6.184,48.955-175.207,47.152-182.422c-1.804-7.214-58.489-49.184-65.703-109.619
						c-7.214-60.435,10.421-259.29,26.138-259.29c46.264,0,69.71,25.708,77.698,73.118c9.161,54.452-5.926,99.341,4.38,153.249
						C723.804,1800.745,753.692,1851.303,751.631,1899.714z"/>
				</g>
				<g>
					<g>
						<path style="fill:#DE331E;" d="M723.517,1892.557c-3.607,17.922-16.032,45.691-29.172,75.122
							c-17.177,38.448-36.358,81.363-38.849,109.104c-1.861,0.057-3.779,0.057-5.726,0.029
							c2.462-28.915,21.93-72.459,39.336-111.452c13.026-29.144,25.337-56.656,28.801-73.948
							c3.521-17.492-7.615-46.207-20.498-79.473c-4.352-11.251-8.961-23.132-13.341-35.5c-4.494-12.539-8.76-25.594-12.396-38.963
							c-8.359-30.919-13.169-63.613-8.76-96.164l5.669,0.744c-3.894,28.686-0.344,57.658,6.47,85.457
							c4.008,16.404,9.161,32.379,14.629,47.638c4.323,12.081,8.818,23.705,13.083,34.727
							C716.503,1845.377,727.354,1873.405,723.517,1892.557z"/>
					</g>
				</g>
				<g>
					<path style="fill:#F8EA42;" d="M777.865,1682.061c-26.224,16.146-54.853,27.77-72.03,19.754h-0.029
						c-3.378-2.548-6.585-5.182-9.591-7.901c-4.437-3.979-8.445-8.13-11.91-12.368c-26.796-32.98-83.996-119.296-39.336-142.056
						c32.293-16.461,54.08,27.426,72.488,67.449c0.029,0.057,0.057,0.143,0.086,0.2c9.419,20.47,17.95,39.908,26.539,49.671
						C752.814,1666.716,765.239,1675.075,777.865,1682.061z"/>
				</g>
				<g>
					<path style="fill:#DE331E;" d="M689.678,1775.151c-0.83,0.344-1.689,0.63-2.634,0.859c-1.03,0.258-2.061,0.401-2.977,0.429
						c-4.494-12.539-8.76-25.594-12.396-38.963c0.602-5.812,1.374-9.906,1.374-9.906c0.659,0,1.318-0.029,2.005-0.057
						c12.11-0.573,25.307-6.127,25.307-6.127S710.262,1766.362,689.678,1775.151z"/>
				</g>
				<g>
					<path style="fill:#FEC6AB;" d="M817.515,1606.109c0,0,33.495-39.422,37.618-38.391c4.123,1.031-4.38,19.153-4.38,19.153
						s35.042-28.21,45.09-19.172c10.049,9.038-14.429,56.189-62.611,60.569C785.05,1632.648,817.515,1606.109,817.515,1606.109z"/>
				</g>
				<g>
					<path style="fill:#F8EA42;" d="M838.128,1629.814c0.286,5.955-28.199,32.494-60.263,52.247
						c-26.224,16.146-54.853,27.77-72.03,19.754h-0.029c-4.208-1.975-7.358-4.667-9.591-7.901
						c-18.151-25.995,21.242-86.974,21.242-86.974c0.029,0.057,0.057,0.143,0.086,0.2c12.339,26.338,20.641,29.373,28.342,27.312
						c7.73-2.061,71.629-39.68,76.782-35.042C827.821,1604.048,837.612,1618.992,838.128,1629.814z"/>
				</g>
				<g>
					<g>
						<path style="fill:#DE331E;" d="M610.406,1467.043c84.101-28.36,114.332-57.921,110.833-67.849
							c-3.5-9.927-56.365,19.311-56.365,19.311L610.406,1467.043z"/>
					</g>
					<g>
						<path style="fill:#FB503A;" d="M690.68,1409.748l0.018,0.036c2.332,4.615,3.936,9.417,4.852,14.233l-85.144,43.027
							c-3.308-3.576-6.205-7.679-8.532-12.252l-0.067-0.133c-12.926-25.578-3.518-56.375,21.027-68.779
							C647.379,1373.475,677.754,1384.169,690.68,1409.748z"/>
					</g>
					<g>
						<path style="fill:#DE331E;" d="M610.406,1467.043c90.137-40.474,78.45-60.612,78.45-60.612s10.12,11.722,8.901,16.473
							c-1.22,4.75-26.199,19.48-36.105,23.929C651.745,1451.283,610.406,1467.043,610.406,1467.043z"/>
					</g>
				</g>
			</g>
			<g>
				<g>
					<g>
						<path style="fill:#FB503A;" d="M1883.48,1759.494l103.632-39.727c0,0-0.565-5.552-2.964-13.078
							c-2.811-8.967-8.222-20.725-18.336-29.429l-47.938,18.377c0,0-21.46,9.478-35.578,33.031
							c-2.889,4.792-4.534,8.932-5.344,12.44C1873.783,1754.87,1883.48,1759.494,1883.48,1759.494z"/>
					</g>
					<g>
						<path style="fill:#DE331E;" d="M1883.48,1759.494l103.632-39.727c0,0-0.565-5.552-2.964-13.078
							c-27.166,8.189-78.537,23.955-107.195,34.42C1873.783,1754.87,1883.48,1759.494,1883.48,1759.494z"/>
					</g>
				</g>
				<g>
					<g>
						<path style="fill:#FB503A;" d="M1917.502,1763.058h110.985c0,0,1.46-5.387,1.914-13.273
							c0.585-9.379-0.259-22.294-6.587-34.042h-51.339c0,0-23.43,1.168-45.044,18.108c-4.413,3.44-7.431,6.718-9.443,9.703
							C1910.103,1755.27,1917.502,1763.058,1917.502,1763.058z"/>
					</g>
					<g>
						<path style="fill:#DE331E;" d="M1917.502,1763.058h110.985c0,0,1.46-5.387,1.914-13.273
							c-28.297-2.077-81.908-5.744-112.413-6.231C1910.103,1755.27,1917.502,1763.058,1917.502,1763.058z"/>
					</g>
				</g>
				<g>
					<path style="fill:#FEC6AB;" d="M1797.167,1230.389c0,0-28.416-38.454-32.282-37.762c-3.866,0.692,2.838,17.936,2.838,17.936
						s-30.545-28.212-40.378-20.508c-9.833,7.704,9.782,52.72,53.939,59.781C1825.441,1256.898,1797.167,1230.389,1797.167,1230.389
						z"/>
				</g>
				<g>
					<g>
						<path style="fill:#40312A;" d="M1987.24,1136.246c18.463-0.71,29.825-9.942,26.984-23.197
							c-2.84-13.255-17.043-36.926-34.559-25.091C1962.149,1099.793,1987.24,1136.246,1987.24,1136.246z"/>
					</g>
					<g>
						<path style="fill:#FEC6AB;" d="M1960.387,1155.261c0,11.151-0.842,20.751-0.842,20.751s35.506-0.71,36.926-4.734
							c1.42-4.024-8.521-47.814-8.521-47.814s-2.156-10.415-11.493-4.497c-4.76,2.998-9.047,7.969-12.125,12.125
							c-2.945,4.024-4.787,7.285-4.787,7.285C1960.177,1143.741,1960.387,1149.685,1960.387,1155.261z"/>
					</g>
					<g>
						<path style="fill:#FD9B73;" d="M1959.545,1138.376c0.632,5.365,0.842,11.309,0.842,16.885
							c9.574-3.104,23.671-16.359,24.801-31.719c0,0-7.601,2.288-20.856,7.548
							C1961.387,1135.115,1959.545,1138.376,1959.545,1138.376z"/>
					</g>
					<g>
						<path style="fill:#FEC6AB;" d="M1940.372,1074.308l-1.262,8.837c0,0-13.571,14.833-14.518,18.621
							c-0.947,3.787,7.89,7.259,7.89,7.259s0.631,26.827,4.418,29.983c3.787,3.156,20.83,4.103,32.823,0
							s15.465-15.465,15.465-15.465s2.288,4.418,7.575,2.209c3.676-1.536,12.309-14.518,7.259-20.199
							c-5.05-5.681-12.624-2.525-12.624-2.525L1940.372,1074.308z"/>
					</g>
					<g>
						<path style="fill:#40312A;" d="M1987.398,1103.028c-37.557-1.578-56.967-29.036-49.393-35.19
							C1945.58,1061.684,1987.398,1103.028,1987.398,1103.028z"/>
					</g>
					<g>
						<g>
							<path style="fill:#DE331E;" d="M2015.197,1113.963c-77.262-26.053-105.035-53.211-101.82-62.331
								c3.215-9.12,51.782,17.74,51.782,17.74L2015.197,1113.963z"/>
						</g>
						<g>
							<path style="fill:#FB503A;" d="M1941.451,1061.327l-0.017,0.033c-2.143,4.24-3.616,8.651-4.457,13.075l78.22,39.528
								c3.039-3.285,5.7-7.055,7.838-11.255l0.062-0.122c11.875-23.498,3.232-51.791-19.317-63.186
								C1981.23,1028.005,1953.326,1037.829,1941.451,1061.327z"/>
						</g>
						<g>
							<path style="fill:#DE331E;" d="M2015.197,1113.963c-82.807-37.182-72.071-55.683-72.071-55.683s-9.297,10.769-8.177,15.133
								c1.121,4.364,24.068,17.896,33.169,21.984C1977.219,1099.485,2015.197,1113.963,2015.197,1113.963z"/>
						</g>
					</g>
				</g>
				<g>
					<path style="fill:#FFA72B;" d="M1933.68,1380.618c0,0-66.099,143.902-67.476,181.083
						c-1.377,37.181,45.474,129.116,51.67,133.936c6.197,4.82,45.978,5.836,51.084-6.558
						C1974.066,1676.685,1933.68,1380.618,1933.68,1380.618z"/>
				</g>
				<g>
					<path style="fill:#F8EA42;" d="M2036.959,1441.209c-9.639,41.312-32.361,110.853-23.41,140.46
						c8.951,29.607,15.836,126,11.705,133.574c-1.836,3.371-11.103,5.121-21.675,5.479c-1.42,0.043-2.854,0.072-4.303,0.072
						c-12.035-0.014-24.643-1.721-29.42-4.791c-9.639-6.197-43.062-123.318-48.57-157.056
						c-5.508-33.738,12.393-178.329,12.393-178.329s-23.195-57.836-20.555-114.296c2.654-56.459,32.892-91.718,40.523-99.148
						c12.221-11.92,38.127-18.102,41.097-14.502c15.922,19.307,21.904,46.088,19.91,103.322
						c-2.324,66.744-7.445,88.132,0.545,101.902C2023.189,1371.667,2046.599,1399.897,2036.959,1441.209z"/>
				</g>
				<g>
					<g>
						<path style="fill:#FFA72B;" d="M2003.58,1720.722c-1.42,0.043-2.854,0.072-4.303,0.072
							c-1.908-18.117-9.137-49.717-15.678-78.349c-4.978-21.789-9.668-42.344-11.662-55.283
							c-3.127-20.283,0.459-49.517,4.246-80.457c2.926-23.869,5.953-48.556,6.469-72.252c1.19-54.408-21.273-177.526-21.502-178.759
							l4.232-0.775c0.229,1.234,22.764,124.781,21.574,179.62c-0.516,23.912-3.557,48.713-6.498,72.697
							c-3.758,30.639-7.301,59.572-4.275,79.267c1.965,12.781,6.656,33.279,11.619,54.982
							C1994.672,1671.55,2001.73,1702.419,2003.58,1720.722z"/>
					</g>
				</g>
				<g>
					<path style="fill:#FFFFFF;" d="M1987.398,1187.142c-33.92-19.678-76.36,55.911-98.048,59.526
						c-21.689,3.615-86.49-26.993-93.203-23.378c-6.713,3.615-21.689,24.271-18.59,32.017s82.107,60.418,128.583,53.705
						C1952.615,1302.298,2034.574,1214.511,1987.398,1187.142z"/>
				</g>
				<g>
					<path style="fill:#FFA72B;" d="M1984.803,1392.151c-18.934,4.475-43.033,0-43.033,0s-1.549,21.172,14.115,32.361
						c15.664,11.188,28.918,9.984,28.918,9.984V1392.151z"/>
				</g>
			</g>
		</g>
	</g>
</g>
</svg>
