<?xml version="1.0" encoding="utf-8"?>
<!-- Generator: Adobe Illustrator 27.5.0, SVG Export Plug-In . SVG Version: 6.00 Build 0)  -->
<svg version="1.1" xmlns="http://www.w3.org/2000/svg" xmlns:xlink="http://www.w3.org/1999/xlink" x="0px" y="0px"
	 viewBox="0 0 500 500" style="enable-background:new 0 0 500 500;" xml:space="preserve">
<g id="Floor_1_">
	<path id="Floor" style="fill:#F5F5F5;" d="M91.654,416.529c-87.486-50.511-87.486-132.403,0-182.913s229.329-50.509,316.815,0
		c87.486,50.509,87.486,132.402,0,182.913C320.983,467.04,179.14,467.04,91.654,416.529z"/>
</g>
<g id="Shadows">
	<ellipse id="Shadow_10_" style="fill:#E0E0E0;" cx="137.147" cy="305.522" rx="94.132" ry="54.347"/>
	<ellipse id="Shadow_12_" style="fill:#E0E0E0;" cx="357.391" cy="310.863" rx="105.038" ry="60.644"/>
	<path id="Shadow_7_" style="fill:#E0E0E0;" d="M230.597,331.703l-89.416,51.624c-2.202,1.271-2.202,3.332,0,4.603l89.417,51.624
		c2.202,1.271,5.771,1.271,7.973,0l89.416-51.624c2.202-1.271,2.202-3.332,0-4.603l-89.417-51.625
		C236.368,330.432,232.798,330.432,230.597,331.703z"/>
</g>
<g id="Plants">
	<g id="Plants_10_">
		<g id="XMLID_434_">
			<path id="XMLID_1205_" style="fill:#27DEBF;" d="M420.512,302.843l-7.853-6.42c0,0-1.67-22.276,3.526-41.231
				c7.305-26.649,22.309-36.599,31.494-32.068c6.524,3.218,8.819,13.219-5.042,27.543
				C434.459,259.119,423.087,277.644,420.512,302.843z"/>
			<path id="XMLID_1262_" style="opacity:0.3;" d="M420.512,302.843l-7.853-6.42c0,0-1.67-22.276,3.526-41.231
				c7.305-26.649,22.309-36.599,31.494-32.068c6.524,3.218,8.819,13.219-5.042,27.543
				C434.459,259.119,423.087,277.644,420.512,302.843z"/>
			<g id="XMLID_470_">
				<path id="XMLID_471_" style="fill:#FFFFFF;" d="M417.539,288.427c0.028,0.003,0.056,0.004,0.085,0.003
					c0.336-0.009,0.602-0.288,0.593-0.625c-0.68-25.787,13.728-49.172,26.453-59.107c0.265-0.206,0.312-0.59,0.105-0.855
					c-0.208-0.263-0.59-0.312-0.855-0.105c-12.956,10.116-27.61,33.932-26.92,60.099
					C417.006,288.145,417.242,288.394,417.539,288.427z"/>
			</g>
		</g>
		<g id="XMLID_359_">
			<path id="XMLID_428_" style="fill:#27DEBF;" d="M436.386,323.451c5.404-1.765,6.629-4.858,7.563-8.714
				c0.311-1.285,0.442-2.606,0.573-3.922c0.128-1.292,0.256-2.584,0.383-3.876c0.126-1.275,0.264-2.59,0.885-3.711
				c1.25-2.258,4.024-3.084,6.515-3.758c2.755-0.745,5.799-1.964,6.926-4.833c0.869-2.213,0.541-4.72-0.138-6.999
				c-0.68-2.278-1.695-4.457-2.205-6.779c-0.367-1.672-0.446-3.496,0.328-5.023c0.481-0.948,1.258-1.713,2.075-2.395
				c2.118-1.767,4.617-3.118,6.12-5.524c0.555-0.888,0.919-1.902,0.961-2.948c0.125-3.162-2.427-4.601-4.868-5.39
				c-1.649-0.533-3.507-0.432-5.224-0.209c-5.551,0.72-10.287,5.072-15.885,5.099c-2.159,0.01-4.263-0.636-6.406-0.895
				c-2.143-0.259-4.515-0.055-6.127,1.382c-3.178,2.833-1.625,8.499-4.363,11.758c-2.014,2.398-5.163,2.741-7.692,4.324
				c-3.114,1.949-4.954,4.132-6.324,7.612c-1.394,3.541-1.869,7.453-1.276,11.217c1.243,7.893,6.903,12.516,12.342,17.651
				C422.887,319.728,430.982,325.215,436.386,323.451z"/>
			<path id="XMLID_422_" style="opacity:0.1;" d="M436.386,323.451c5.404-1.765,6.629-4.858,7.563-8.714
				c0.311-1.285,0.442-2.606,0.573-3.922c0.128-1.292,0.256-2.584,0.383-3.876c0.126-1.275,0.264-2.59,0.885-3.711
				c1.25-2.258,4.024-3.084,6.515-3.758c2.755-0.745,5.799-1.964,6.926-4.833c0.869-2.213,0.541-4.72-0.138-6.999
				c-0.68-2.278-1.695-4.457-2.205-6.779c-0.367-1.672-0.446-3.496,0.328-5.023c0.481-0.948,1.258-1.713,2.075-2.395
				c2.118-1.767,4.617-3.118,6.12-5.524c0.555-0.888,0.919-1.902,0.961-2.948c0.125-3.162-2.427-4.601-4.868-5.39
				c-1.649-0.533-3.507-0.432-5.224-0.209c-5.551,0.72-10.287,5.072-15.885,5.099c-2.159,0.01-4.263-0.636-6.406-0.895
				c-2.143-0.259-4.515-0.055-6.127,1.382c-3.178,2.833-1.625,8.499-4.363,11.758c-2.014,2.398-5.163,2.741-7.692,4.324
				c-3.114,1.949-4.954,4.132-6.324,7.612c-1.394,3.541-1.869,7.453-1.276,11.217c1.243,7.893,6.903,12.516,12.342,17.651
				C422.887,319.728,430.982,325.215,436.386,323.451z"/>
			<path style="fill:#FFFFFF;" d="M458.442,263.747c-0.124-0.313-0.477-0.466-0.79-0.345c-6.363,2.497-16.229,10.814-24.916,21.973
				c-0.134,0.078-0.232,0.201-0.276,0.356c-5.919,7.668-11.264,16.647-14.539,25.993c-0.108,0.31,0.048,0.648,0.35,0.768
				c0.008,0.003,0.015,0.006,0.015,0.006c0.326,0.114,0.673-0.054,0.785-0.37c3.225-9.207,8.474-18.048,14.282-25.596
				c8.015,0.704,16.898,3.793,16.987,3.825c0.318,0.111,0.665-0.057,0.777-0.373c0.111-0.317-0.028-0.658-0.373-0.777
				c-0.089-0.031-8.546-2.972-16.5-3.811c8.384-10.605,17.76-18.469,23.852-20.859C458.409,264.414,458.564,264.061,458.442,263.747
				z"/>
		</g>
	</g>
	<g id="Plants_3_">
		<g id="XMLID_1237_">
			<path id="XMLID_1260_" style="fill:#27DEBF;" d="M96.809,296.687c0.651-14.014,2.163-27.142-4.292-47.313
				c-5.417-16.928-21.541-34.131-31.925-33.759c-9.672,0.346-15.433,11.004-3.873,22.969c2.453,2.538,26.168,23.022,27.268,46.241
				l2.538,13.427c0.306,1.621,2.076,2.502,3.554,1.77L96.809,296.687z"/>
			<path id="XMLID_1242_" style="opacity:0.3;" d="M96.809,296.687c0.651-14.014,2.163-27.142-4.292-47.313
				c-5.417-16.928-21.541-34.131-31.925-33.759c-9.672,0.346-15.433,11.004-3.873,22.969c2.453,2.538,26.168,23.022,27.268,46.241
				l2.538,13.427c0.306,1.621,2.076,2.502,3.554,1.77L96.809,296.687z"/>
			<g id="XMLID_1238_">
				<path id="XMLID_1239_" style="fill:#FFFFFF;" d="M92.982,295.742c-0.262-0.07-0.456-0.307-0.46-0.591
					c-0.466-35.587-13.232-60.52-32.395-71.898c-0.294-0.175-0.391-0.555-0.216-0.849c0.173-0.293,0.548-0.398,0.849-0.216
					c19.408,11.522,32.531,36.914,33.002,72.947c0.005,0.342-0.269,0.622-0.611,0.627C93.092,295.763,93.036,295.756,92.982,295.742
					z"/>
			</g>
		</g>
		<g id="XMLID_1206_">
			<path id="XMLID_1236_" style="fill:#27DEBF;" d="M88.521,300.757c-2.4,1.253-5.328,0.107-6.29-2.424
				c-1.847-4.86-5.639-11.056-11.376-16.914c-8.859-9.045-21.176-14.806-23.094-20.879c-2.304-7.296,4.202-10.937,14.67-8.333
				c12.581,3.13,26.153,18.099,27.528,47.799L88.521,300.757z"/>
			<path id="XMLID_1234_" style="opacity:0.1;" d="M88.521,300.757c-2.4,1.253-5.328,0.107-6.29-2.424
				c-1.847-4.86-5.639-11.056-11.376-16.914c-8.859-9.045-21.176-14.806-23.094-20.879c-2.304-7.296,4.202-10.937,14.67-8.333
				c12.581,3.13,26.153,18.099,27.528,47.799L88.521,300.757z"/>
			<g id="XMLID_1225_">
				<path id="XMLID_1232_" style="fill:#FFFFFF;" d="M86.498,298.855c-0.227-0.063-0.408-0.254-0.446-0.504
					c-3.988-26.047-20.91-38.202-29.299-40.991c-0.325-0.108-0.5-0.459-0.393-0.784c0.108-0.326,0.446-0.504,0.784-0.393
					c9.277,3.083,26.062,15.394,30.134,41.98c0.052,0.338-0.181,0.655-0.519,0.706C86.668,298.884,86.58,298.878,86.498,298.855z"/>
			</g>
		</g>
	</g>
</g>
<g id="Character_2">
	<g id="Character_25_">
		<g id="Bottom_3_">
			<g id="XMLID_1263_">
				<g id="XMLID_1265_">
					<path id="XMLID_2030_" style="fill:#37474F;" d="M417.845,265.31c4.393,13.107,8.161,30.027,14.1,55.539
						c5.563,23.897,5.594,40.785-2.128,46.571c-7.514,5.631-29.893,2.259-43.919-27.597c-4.386-9.336-22.123-39.79-22.123-39.79
						s-6.57-1.295-12.842-4.548l-48.383,2.389c-19.804-4.058-53.088-8.773-50.579-16.046c2.662-7.716,13.555-13.84,24.438-17.648
						c23.79-8.324,40.877-10.231,65.127-11.791L417.845,265.31z"/>
					<path style="fill:#263238;" d="M349.682,287.029c-6.483-10.266-6.593-16.239-6.593-16.239s-1.358,12.74,4.866,21.59
						l-42.57,5.354l45.548-2.249c6.271,3.253,12.841,4.548,12.841,4.548S356.165,297.295,349.682,287.029z"/>
					<g id="XMLID_1431_">
						<path id="XMLID_1922_" style="fill:#874C4C;" d="M338.572,323.1c3.328,2.512,7.405,4.812,11.111,5.309
							c1.394,0.187,2.747,0.036,3.971-0.335c4.478-1.359,11.786-1.984,15.147,6.889c3.814,10.069,15.781,13.957,19.486,20.75
							c1.857,3.405,3.557,13.564,2.603,19.982c-0.784,5.273-11.105,2.317-15.359-3.646c-4.254-5.963-12.919-13.552-18.581-17.883
							c-8.933-4.029-19.001-10.223-23.276-12.696L338.572,323.1z"/>
						<path id="XMLID_1915_" style="fill:#37474F;" d="M272.871,270.395c-26.032,4.065-25.033,19.437-17.561,29.356
							c8.053,10.69,35.216,23.689,49.858,30.479c13.467,6.245,37.818,16.676,37.818,16.676s-0.739-10.169,6.696-18.497
							c-15.381-8.825-31.529-36.59-56.05-38.46L272.871,270.395z"/>
						<g>
							<path id="XMLID_1914_" style="fill:#263238;" d="M387.218,379.219c1.187,0.224,3.122-0.447,4.214-1.378
								c1.093-0.93,3.041-8.449,0.101-17.11c-2.94-8.661-8.104-13.773-11.225-16.543c-3.12-2.77-4.467-6.16-5.879-10.461
								c-1.412-4.301-5.114-9.457-7.411-9.871c-2.297-0.415-5.522,1.623-5.522,1.623L387.218,379.219z"/>
							<path id="XMLID_1912_" style="fill:#27DEBF;" d="M349.932,351.036c0.801,2.754,3.17,3.266,5.744,4.034
								c3.508,1.047,7.036,4.264,10.442,7.896c2.315,2.469,4.267,4.973,6.396,7.592c2.172,2.671,4.077,6.477,6.308,8.426
								c3.253,2.841,9.233,1.729,10.499-2.829c1.092-3.932,0.875-13.458-4.28-22.138c-2.809-4.728-9.781-8.951-12.091-15.523
								c-1.547-4.402-3.589-9.629-7.21-12.753c-2.142-1.847-3.902-1.197-6.304-0.295c-3.183,1.195-6.443,2.186-9.753,2.964
								c0.31,2.768,1.401,5.445,3.114,7.641c0.586,0.751,1.263,1.486,1.483,2.412c0.149,0.627,0.071,1.283-0.007,1.923
								c-0.109,0.888-0.341,1.941-1.179,2.254c-0.338,0.126-0.714,0.098-1.066,0.178c-1.33,0.299-1.839,1.895-2.067,3.238
								c-0.248,1.458-0.445,2.958-0.165,4.41C349.834,350.666,349.88,350.856,349.932,351.036z"/>
							<path id="XMLID_1902_" style="opacity:0.4;" d="M349.932,351.036c0.801,2.754,3.17,3.266,5.744,4.034
								c3.508,1.047,7.036,4.264,10.442,7.896c2.315,2.469,4.267,4.973,6.396,7.592c2.172,2.671,4.077,6.477,6.308,8.426
								c3.253,2.841,9.233,1.729,10.499-2.829c1.092-3.932,0.875-13.458-4.28-22.138c-2.809-4.728-9.781-8.951-12.091-15.523
								c-1.547-4.402-3.589-9.629-7.21-12.753c-2.142-1.847-3.902-1.197-6.304-0.295c-3.183,1.195-6.443,2.186-9.753,2.964
								c0.31,2.768,1.401,5.445,3.114,7.641c0.586,0.751,1.263,1.486,1.483,2.412c0.149,0.627,0.071,1.283-0.007,1.923
								c-0.109,0.888-0.341,1.941-1.179,2.254c-0.338,0.126-0.714,0.098-1.066,0.178c-1.33,0.299-1.839,1.895-2.067,3.238
								c-0.248,1.458-0.445,2.958-0.165,4.41C349.834,350.666,349.88,350.856,349.932,351.036z"/>
							<path id="XMLID_1694_" style="fill:#F5F5F5;" d="M362.738,359.597c0,0-1.801-0.178-2.948-2.591
								c-0.878-1.846-0.359-5.657,0.831-8.256c0.487-1.064,1.883-1.314,2.692-0.469l0,0c0.482,0.503,0.589,1.247,0.282,1.872
								C362.75,351.873,361.373,355.596,362.738,359.597z"/>
							<path id="XMLID_1578_" style="fill:#F5F5F5;" d="M367.709,364.72c0,0-2.295-0.733-2.918-3.223c0,0-1.203-5.11,0.889-9.027
								c0.533-0.999,1.819-1.282,2.601-0.462h0c0.465,0.487,0.567,1.205,0.262,1.806
								C367.657,355.562,365.757,359.103,367.709,364.72z"/>
							<path id="XMLID_1470_" style="fill:#F5F5F5;" d="M372.515,370.557c0,0-2.147-0.926-2.769-3.416c0,0-1.08-4.772,1.011-8.689
								c0.534-0.999,1.819-1.282,2.601-0.462l0,0c0.465,0.487,0.567,1.205,0.263,1.806
								C372.733,361.545,370.562,364.941,372.515,370.557z"/>
						</g>
					</g>
					<g id="XMLID_1269_">
						<path id="XMLID_1429_" style="fill:#9E6767;" d="M340.752,317.659c-4.659-1.176-11.499-2.847-14.327-6.575
							c-2.828-3.729-8.697-7.33-16.626-2.118c-5.028,3.305-11.025,4.393-16.932,4.782c-2.56,0.168-5.432-0.145-7.939,0.374
							c-3.016,0.624-6.19,2.464-8.782,4.066c-1.649,1.019-3.255,2.189-4.367,3.777c-1.986,2.835-2.05,6.885-0.154,9.782
							c0.339,0.518,0.739,1.005,1.238,1.371c0.609,0.447,1.341,0.697,2.079,0.86c2.741,0.604,5.034-0.253,7.613-0.967
							c2.15-0.595,4.338-1.049,6.532-1.449c4.954-0.902,9.986-1.539,15.019-1.751c2.149-0.09,6.605-0.423,8.757-0.275
							c8.976,0.618,21.661,5.667,21.661,5.667L340.752,317.659z"/>
						<path id="XMLID_1428_" style="fill:#37474F;" d="M433.99,360.616c-1.478,9.067-11.648,13.437-33.459,9.072
							c-21.81-4.365-73.715-37.044-73.715-37.044s2.031-12.529,13.96-15.893c0,0,10.853,1.964,28.564,5.821
							c6.729,1.466,15.3,3.737,23.636,6.54c11.968,16.068,24.426,9.578,28.91,15.232C429.367,353.778,433.99,360.616,433.99,360.616
							z"/>
						<g>
							<path id="XMLID_1295_" style="fill:#263238;" d="M269.356,332.246c-1.09-0.52-2.256-2.204-2.589-3.6
								c-0.333-1.396,2.533-8.615,10.018-13.871c7.485-5.256,14.671-6.334,18.825-6.729c4.154-0.395,7.242-2.336,10.921-4.975
								c3.678-2.639,9.71-4.615,11.809-3.594c2.099,1.021,3.499,4.57,3.499,4.57L269.356,332.246z"/>
							<path id="XMLID_1294_" style="fill:#27DEBF;" d="M316.089,331.505c-2.271,1.75-4.486,0.765-7.018-0.134
								c-3.449-1.226-8.196-0.712-13.09,0.21c-3.326,0.627-6.379,1.495-9.644,2.353c-3.33,0.875-7.114,2.822-10.065,3.078
								c-4.303,0.373-8.473-4.054-6.805-8.481c1.44-3.819,7.237-11.38,16.522-15.344c5.058-2.159,13.179-1.452,18.923-5.393
								c3.847-2.64,8.58-5.654,13.348-6.038c2.819-0.227,3.856,1.337,5.263,3.483c1.864,2.844,3.911,5.568,6.124,8.15
								c-1.884,2.052-4.345,3.569-7.024,4.33c-0.916,0.26-1.897,0.454-2.621,1.072c-0.49,0.419-0.815,0.994-1.13,1.557
								c-0.436,0.781-0.871,1.768-0.379,2.515c0.198,0.302,0.518,0.501,0.756,0.773c0.897,1.026,0.366,2.615-0.243,3.834
								c-0.661,1.324-1.386,2.65-2.47,3.657C316.387,331.264,316.238,331.391,316.089,331.505z"/>
							<path id="XMLID_1273_" style="opacity:0.4;" d="M316.089,331.505c-2.271,1.75-4.486,0.765-7.018-0.134
								c-3.449-1.226-8.196-0.712-13.09,0.21c-3.326,0.627-6.379,1.495-9.644,2.353c-3.33,0.875-7.114,2.822-10.065,3.078
								c-4.303,0.373-8.473-4.054-6.805-8.481c1.44-3.819,7.237-11.38,16.522-15.344c5.058-2.159,13.179-1.452,18.923-5.393
								c3.847-2.64,8.58-5.654,13.348-6.038c2.819-0.227,3.856,1.337,5.263,3.483c1.864,2.844,3.911,5.568,6.124,8.15
								c-1.884,2.052-4.345,3.569-7.024,4.33c-0.916,0.26-1.897,0.454-2.621,1.072c-0.49,0.419-0.815,0.994-1.13,1.557
								c-0.436,0.781-0.871,1.768-0.379,2.515c0.198,0.302,0.518,0.501,0.756,0.773c0.897,1.026,0.366,2.615-0.243,3.834
								c-0.661,1.324-1.386,2.65-2.47,3.657C316.387,331.264,316.238,331.391,316.089,331.505z"/>
							<path id="XMLID_1272_" style="fill:#F5F5F5;" d="M300.699,330.857c0,0,1.558,0.919,3.909-0.351
								c1.799-0.972,3.629-4.355,4.203-7.155c0.235-1.146-0.744-2.172-1.896-1.968l0,0c-0.686,0.121-1.211,0.659-1.333,1.345
								C305.248,324.615,304.163,328.433,300.699,330.857z"/>
							<path id="XMLID_1271_" style="fill:#F5F5F5;" d="M293.663,332.058c0,0,2.286,0.763,4.258-0.88c0,0,3.988-3.415,4.611-7.811
								c0.159-1.121-0.712-2.108-1.826-1.908v0c-0.663,0.119-1.169,0.638-1.278,1.303
								C299.11,324.697,298.554,328.676,293.663,332.058z"/>
							<path id="XMLID_1270_" style="fill:#F5F5F5;" d="M286.338,333.933c0,0,2.28,0.52,4.252-1.123c0,0,3.689-3.215,4.312-7.611
								c0.159-1.122-0.711-2.108-1.826-1.908l0,0c-0.663,0.119-1.169,0.638-1.278,1.303
								C291.481,326.529,291.229,330.552,286.338,333.933z"/>
						</g>
					</g>
					<path id="XMLID_1268_" style="fill:#263238;" d="M377.901,324.632c0,0,14.647,2.863,25.513,10.179
						c0,0-11.161-13.073-28.413-15.422L377.901,324.632z"/>
					<path style="fill:#263238;" d="M293.632,289.949c9.68,0.662,17.022,5.59,18.926,6.767l0.965,0.617l5.848-0.289
						c-1.265-1.1-4.44-3.659-9.299-5.646C301.112,287.733,293.632,289.949,293.632,289.949z"/>
				</g>
			</g>
		</g>
		<g id="Top_3_">
			<g>
				<path style="fill:#874C4C;" d="M311.934,243.645c11.219,2.159,17.713,2.139,23.067-9.919
					c7.027-15.826,17.955-41.376,17.955-41.376l5.544-43.292c-11.22-1.593-21.239,4.624-27.747,19.996
					c-6.68,15.78-19.522,48.168-19.522,48.168c-8.132-0.675-16.323-0.563-24.464-1.145c-3.752-0.268-7.198-0.608-10.326-2.935
					c-2.091-1.556-3.958-3.312-6.214-4.605c-1.44-0.825-2.979-1.704-4.546-2.261c-1.448-0.515-2.602-1.464-3.867-2.362
					c-0.369-0.262-0.767-0.534-1.219-0.545c-0.848-0.021-1.434,0.872-1.607,1.702c-0.239,1.149-0.025,2.363,0.462,3.431
					c0.486,1.068,1.232,2,2.065,2.827c0.281,0.279,0.589,0.716,0.337,1.021c-0.174,0.211-0.499,0.185-0.767,0.133
					c-2.966-0.581-5.709-1.315-8.613-2.24c-1.291-0.411-2.771-0.437-3.996,0.142c-2.152,1.017-2.592,3.902-2.277,6.261
					c2.096,15.69,19.643,17.151,31.889,19.817c8.912,1.94,17.825,3.877,26.754,5.741
					C307.202,242.697,309.564,243.189,311.934,243.645z"/>
				<path style="fill:#27DEBF;" d="M360.977,148.271c-7.954,0.196-16.841-0.946-24.916,9.989
					c-8.074,10.935-19.267,45.011-19.267,45.011s20.791,1.91,25.538,13.283l18.397-35.415L360.977,148.271z"/>
			</g>
			<g>
				<path id="XMLID_18849_" style="fill:#E0E0E0;" d="M389.177,148.524c15.853,2.929,26.422,6.341,29.414,9.242
					c6.743,13.808-2.028,60.103-2.028,60.103l0.282,26.752l1,20.69c-17.123,14.473-72.437,8.226-81.783-12.053
					c0,0-2.389-51.556,0.001-71.248c2.539-20.924,11.973-33.122,29.921-34.165L389.177,148.524z"/>
			</g>
			<g id="XMLID_1244_">
				<g id="XMLID_1254_">
					<circle style="fill:#263238;" cx="350.138" cy="99.966" r="21.556"/>
					<path id="XMLID_1259_" style="fill:#263238;" d="M392.842,110.272c0,0-1.746,17.648-2.902,20.645
						c-1.156,2.996-4.106,4.14-4.106,4.14l-1.096-12.155L392.842,110.272z"/>
					<path id="XMLID_1258_" style="fill:#263238;" d="M385.483,86.089c0,0,3.876-1.118,7.308,1.688
						c3.365,2.752,2.756,12.607,0.051,22.494l-6.823,1.564L385.483,86.089z"/>
					<path id="XMLID_1257_" style="fill:#9E6767;" d="M383.947,112.073c1.478,0.673,3.158-2.209,4.668-4.189
						c1.51-1.979,6.817-5.044,10.254,0.51c3.502,5.66-1.057,13.845-5.149,16.016c-4.93,2.616-7.528-1.947-7.528-1.947l2.597,27.894
						c-6.332,15.234-35.919,17.608-26.434,0.685l-0.767-7.074c0,0-5.676,1.404-10.568,1.337c-3.62-0.05-8.28-3.04-11.592-9.741
						c-4.482-9.067-6.419-18.063-6.241-37.356c0.196-21.145,25.165-23.081,39.189-16.295
						C386.4,88.702,383.947,112.073,383.947,112.073z"/>
					<path id="XMLID_1256_" style="fill:#263238;" d="M383.073,74.809c-4.727-1.605-9.8-2.195-14.794-2.709
						c-10.839-1.118-21.857-2.032-32.067-5.839c-1.259-0.47-2.606-0.99-3.911-0.669c-2.511,0.62-3.284,3.831-3.099,6.411
						c0.171,2.389,0.751,4.747,1.706,6.943c-1.554-1.479-4.329-0.94-5.683,0.724c-1.354,1.664-1.499,4.045-0.985,6.128
						c3.137,12.675,15.583,13.889,25.564,12.711c3.47-0.41,10.723-1.873,13.845-5.686c2.129,5.154,7.584,8.744,13.16,8.658
						c0.26,3.41,0.907,6.79,1.923,10.055c0.468,1.504,1.224,3.185,2.748,3.583c1.177,0.307,2.439-0.314,3.233-1.234
						c1.482-1.716,2.247-4.023,3.745-5.797c1.911-2.263,2.348-17.853,2.412-20.732c0.005-0.236,0.113-0.43,0.227-0.636
						c2.031-3.641-1.429-9.01-4.607-10.527C385.377,75.66,384.235,75.204,383.073,74.809z"/>
					<path style="fill:#263238;" d="M389.791,87.11c2.045,1.92,5.259,1.819,7.179-0.226c1.92-2.045,1.819-5.259-0.226-7.179
						L389.791,87.11z"/>
					<path id="XMLID_1255_" style="fill:#874C4C;" d="M361.588,143.969c0,0,10.554-3.199,14.642-5.993
						c2.736-1.87,4.778-7.149,5.289-8.945c0,0,0.407,5.481-2.726,10.293c-2.831,4.349-16.69,9.261-16.69,9.261L361.588,143.969z"/>
				</g>
				<g id="XMLID_1245_">
					<path id="XMLID_1253_" style="fill:#263238;" d="M359.698,112.733c0.175,1.572,1.544,2.706,3.056,2.533
						c1.513-0.173,2.596-1.587,2.421-3.16c-0.175-1.572-1.543-2.706-3.056-2.533C360.607,109.747,359.523,111.162,359.698,112.733z"
						/>
					<path id="XMLID_1252_" style="fill:#263238;" d="M367.463,104.571l-5.613-2.445c-0.643,1.607,0.092,3.458,1.642,4.132
						C365.042,106.934,366.82,106.178,367.463,104.571z"/>
					<path id="XMLID_1251_" style="fill:#874C4C;" d="M365.085,127.026l-8.722,4.431c1.192,2.508,4.11,3.551,6.519,2.327
						C365.291,132.561,366.278,129.535,365.085,127.026z"/>
					<path style="fill:#F28F8F;" d="M365.194,129.03c-2.466,0-4.465,1.999-4.465,4.465c0,0.273,0.034,0.537,0.08,0.796
						c0.699-0.008,1.405-0.167,2.073-0.506c1.775-0.902,2.769-2.784,2.696-4.715C365.45,129.058,365.326,129.03,365.194,129.03z"/>
					<path id="XMLID_1250_" style="fill:#263238;" d="M340.76,103.277l-5.066,3.522c0.928,1.447,2.814,1.831,4.212,0.859
						C341.306,106.685,341.688,104.724,340.76,103.277z"/>
					<path id="XMLID_1249_" style="fill:#263238;" d="M339.594,114.309c0.175,1.572,1.543,2.706,3.056,2.533
						c1.512-0.173,2.596-1.587,2.421-3.159c-0.175-1.572-1.543-2.706-3.056-2.533C340.502,111.322,339.418,112.737,339.594,114.309z
						"/>
					<polygon id="XMLID_1247_" style="fill:#874C4C;" points="352.103,113.015 352.955,128.082 344.839,126.289 					"/>
				</g>
			</g>
			<g>
				<path style="fill:#9E6767;" d="M418.591,157.766c9.548,6.157,13.15,17.291,8.537,33.693
					c-5.057,17.979-14.546,40.469-24.838,55.91c-4.148,6.223-6.395,8.046-25.092,5.021c-9.454-1.53-18.892-3.557-28.248-5.61
					c-11.212-2.461-24.308-5.717-33.275-10.011c-2.921-1.399-5.855-3.365-8.011-5.782c-3.241-3.635-2.951-8.488,0.522-11.796
					c9.326-8.884,11.885-1.074,18.66,1.171c0,0,4,0.026,5.914,0.258c1.734,0.21,1.853-0.079,3.302,0.857
					c2.931,1.893,4.82,3.453,6.596,3.714c11.893,1.747,39.449,3.53,39.449,3.53l17.527-42.392
					C399.635,186.328,409.468,156.173,418.591,157.766z"/>
				<path style="fill:#9E6767;" d="M339.08,223.487c-0.319-0.105-1.802-3.171-2.238-3.783c-1.025-1.44-2.085-2.871-3.326-4.135
					c-1.113-1.134-2.582-2.349-4.059-2.938c-2.226-0.887-4.722-1.364-7.027-2.029c-0.327-0.095-0.684-0.188-1.001-0.064
					c-0.361,0.142-0.57,0.542-0.588,0.929s0.12,0.764,0.279,1.118c0.593,1.319,1.512,2.478,2.644,3.375
					c0.879,0.696,3.525,3.566,4.262,4.418C328.027,220.378,339.08,224.246,339.08,223.487z"/>
				<path style="fill:#27DEBF;" d="M413.68,154.946c7.263,1.807,13.531,4.123,15.87,14.11c2.339,9.987,1.451,15.203-7.479,38.25
					c-5.432,14.021-9.766,22.446-9.766,22.446s-5.193-13.197-25.092-14.662l12.904-38.755
					C400.117,176.334,407.623,159.456,413.68,154.946z"/>
			</g>
		</g>
	</g>
</g>
<g id="Character_1">
	<g id="Character_24_">
		<g id="Top_2_">
			<g>
				<g>
					<path style="fill:#FFA8A7;" d="M145.377,325.366c0,0-32.732-11.973-36.772-15.255c-3.371-2.739-1.347-9.302-6.027-10.421
						c-5.389-1.288-9.239,1.597-12.701,4.781c-3.274,3.011-7.559,4.368-15.63,1.583c-8.071-2.785-15.856-6.762-19.128-5.183
						c-3.272,1.579-1.083,4.108,13.028,10.625c8.113,3.746,18.442,8.101,25.06,10.715c8.606,3.4,12.693,6.761,13.395,7.227
						c8.632,6.044,10.215,7.332,20.424,13.449c20.415,12.231,32.421,15.452,48.659,12.374L145.377,325.366z"/>
				</g>
				<path style="fill:#455A64;" d="M114.737,313.298c-6.506,3.747-9.649,7.886-10.029,15.092c0,0,4.395,3.401,11.338,8.21
					c8.321,5.764,28.466,18.865,41.913,20.237c20.856,2.127,27.472-4.154,27.472-4.154L114.737,313.298z"/>
				<path style="fill:#37474F;" d="M108.7,317.942c10.676,17.981,36.77,29.168,44.954,30.001c-2.9-2.376-7.149-10.44-11.177-19.19
					l-27.741-15.455C112.239,314.737,110.241,316.236,108.7,317.942z"/>
				<g id="XMLID_2415_">
					<g id="XMLID_2636_">
						<path id="XMLID_2779_" style="fill:#37474F;" d="M47.481,299.37c-0.48-1.657,0.334-3.218,0.766-3.73
							c2.878-3.415,6.562-5.213,9.069-6.479c2.858-1.443,6.562-2.014,9.759-1.823c6.393,0.381,11.898,5.155,18.291,5.527
							c4.779,0.278,9.115-2.156,13.766-3.287c1.778-0.432,3.297-0.457,4.479-0.384c1.276,0.078,3.301,0.959,3.763,2.05
							c0.607,1.435,0.796,2.754,0.348,4.104c-0.288,0.868-2.066,2.505-3.34,3.407c-1.747,1.237-3.919,1.587-6.524,2.353
							C91.305,303.034,61.937,303.727,47.481,299.37z"/>
						<path id="XMLID_2775_" style="fill:#27DEBF;" d="M108.76,308.32c0.024,0.585,0.096,1.145,0.162,1.735
							c0.087,0.782-0.345,1.036-1.007,1.489c-2.695,1.842-6.092,1.663-9.164,1.131c-2.391-0.413-4.824-1.088-7.205-0.622
							c-2.848,0.557-5.116,2.64-7.235,4.622c-0.432,0.404-0.871,0.943-1.152,1.505c0,0-16.504-7.049-24.013-11.017
							c-3.804-2.01-8.194-3.887-11.188-7.061c-0.162-0.172,0.729-1.292,0.82-1.398c0.969-1.128,2.372-1.786,3.796-2.127
							c2.339-0.56,4.885-0.839,7.253-0.488c3.696,0.549,7.284,1.52,10.943,2.245c3.334,0.661,6.568,1.093,9.935,1.393
							c3.627,0.323,7.277,0.384,10.912,0.181c3.447-0.193,6.758-0.664,9.932-2.102c1.215-0.551,2.394-1.226,3.411-2.096
							c0.634-0.542,1.081-1.324,1.558-2c0.517-0.734,0.822-1.961,1.346-0.923c1.253,2.484,1.512,6.304,1.337,9.081
							c-0.121,1.913-0.371,3.816-0.442,5.733C108.748,307.846,108.75,308.085,108.76,308.32z"/>
						<path id="XMLID_418_" style="opacity:0.2;" d="M108.76,308.32c0.024,0.585,0.096,1.145,0.162,1.735
							c0.087,0.782-0.345,1.036-1.007,1.489c-2.695,1.842-6.092,1.663-9.164,1.131c-2.391-0.413-4.824-1.088-7.205-0.622
							c-2.848,0.557-5.116,2.64-7.235,4.622c-0.432,0.404-0.871,0.943-1.152,1.505c0,0-16.504-7.049-24.013-11.017
							c-3.804-2.01-8.194-3.887-11.188-7.061c-0.162-0.172,0.729-1.292,0.82-1.398c0.969-1.128,2.372-1.786,3.796-2.127
							c2.339-0.56,4.885-0.839,7.253-0.488c3.696,0.549,7.284,1.52,10.943,2.245c3.334,0.661,6.568,1.093,9.935,1.393
							c3.627,0.323,7.277,0.384,10.912,0.181c3.447-0.193,6.758-0.664,9.932-2.102c1.215-0.551,2.394-1.226,3.411-2.096
							c0.634-0.542,1.081-1.324,1.558-2c0.517-0.734,0.822-1.961,1.346-0.923c1.253,2.484,1.512,6.304,1.337,9.081
							c-0.121,1.913-0.371,3.816-0.442,5.733C108.748,307.846,108.75,308.085,108.76,308.32z"/>
						<path style="fill:#FAFAFA;" d="M65.764,297.171c-3.085,4.225-3.066,11.723-3.066,11.723s-5.301-2.226-10.505-5.136
							c-4.983-2.786-4.712-4.388-4.712-4.388s0.225-1.126,1.456-2.199c1.322-1.153,3.752-2.251,6.727-2.016
							C61.41,295.609,65.764,297.171,65.764,297.171z"/>
						<path style="fill:#FAFAFA;" d="M65.537,306.385c-0.376,1.036-0.404,1.847-0.316,3.716c0,0,0.868,0.669,1.639,0.768
							c-0.063-0.189,0.052-2.721,0.397-3.814C67.603,305.962,65.913,305.349,65.537,306.385z"/>
						<path style="fill:#FAFAFA;" d="M70.556,308.686c-0.376,1.036-0.436,1.852-0.347,3.721c0,0,0.899,0.657,1.67,0.756
							c-0.092-0.467,0.052-2.714,0.397-3.807C72.622,308.263,70.933,307.651,70.556,308.686z"/>
						<path style="fill:#FAFAFA;" d="M75.576,310.988c-0.376,1.036-0.406,1.816-0.317,3.685c0,0,0.87,0.7,1.641,0.799
							c-0.063-0.189,0.052-2.721,0.397-3.814C77.641,310.565,75.952,309.952,75.576,310.988z"/>
						<path style="fill:#E0E0E0;" d="M107.863,292.786c-0.029-0.566-0.198-1.078-0.489-1.542c0,0-1.651,3.388-7.557,5.35
							c-5.598,1.859-13.595,2.761-25.141,0.093c-11.546-2.668-18.209-5.136-23.423-3.068c-5.214,2.068-3.772,5.752-3.772,5.752
							s2.492-4.594,9.813-3.73c7.052,0.832,17.431,4.566,27.096,4.924C94.477,300.938,104.672,299.649,107.863,292.786z"/>
					</g>
				</g>
			</g>
			<path id="XMLID_2227_" style="fill:#455A64;" d="M225.187,314.684c-4.987-15.745-18.584-24.91-30.676-35.058
				c-12.092-10.163-31.385-27.131-31.385-27.131l-0.008,0.009c0.001-0.003,0.003-0.006,0.004-0.008L95.091,238.78
				c-4.245,8.684-8.506,25.268-8.519,37.891c-0.012,11.771,3.572,27.54,24.166,42.828c12.494,9.274,22.459,16.556,31.412,22.243
				c9.457,6.007,30.337,16.593,42.653,12.432c8.475-2.863,12.372-11.367,10.275-18.71c0.005,0,0.01,0.001,0.015,0.002
				c1.443,0.137,2.886,0.213,4.223,0.228c1.564,0.046,2.992,0.03,4.117,0.03c4.071-0.015,8.188-0.395,12.001-1.823
				C223.956,330.741,228.077,323.807,225.187,314.684z"/>
			<path id="XMLID_2224_" style="fill:#37474F;" d="M198.063,334.969c-1.337-0.015-2.78-0.091-4.223-0.228
				c-7.595-16.209-49.331-49.383-49.331-49.383c3.371-1.638,11.184-5.821,13.801-10.523c-1.068,5.984-4.507,9.035-7.839,11.464
				c5.119,4.588,26.643,22.728,32.385,28.182C188.887,320.223,195.146,326.857,198.063,334.969z"/>
		</g>
		<g id="Bottom_2_">
			<path style="fill:#F28F8F;" d="M148.9,152.697c8.878,0.7,13.115,3.173,21.883,12.868c8.768,9.695,25.026,27.228,27.917,31.775
				c2.891,4.547,11.411,14.385-1.369,21.764s-40.109,9.838-40.109,9.838L148.9,152.697z"/>
			<g>
				<path style="fill:#27DEBF;" d="M164.5,207.047c11.869-9.761,7.963-22.489,3.627-31.06
					c-8.671-17.139-17.688-23.878-21.448-23.813l-23.984-3.116c-11.287,1.54-22.757,6.527-27.604,9.326
					c-9.379,5.415-6.88,11.595-5.635,17.214c3.387,15.291,7.651,24.004,8.923,28.636c1.272,4.633,3.613,11.85,1.71,19.344
					c-0.736,2.897-2.702,5.721-5.67,13.718c-2.777,7.481-3.845,10.358-6.025,20.313c0,0,19.079,17.481,52.738,12.67
					c24.782-3.542,27.927-12.589,27.927-12.589l-5.809-30.479C163.859,217.097,164.027,213.434,164.5,207.047z"/>
			</g>
			<g style="opacity:0.5;">
				<path style="fill:#FFFFFF;" d="M164.5,207.047c11.869-9.761,7.963-22.489,3.627-31.06
					c-8.671-17.139-17.688-23.878-21.448-23.813l-23.984-3.116c-11.287,1.54-22.757,6.527-27.604,9.326
					c-9.379,5.415-6.88,11.595-5.635,17.214c3.387,15.291,7.651,24.004,8.923,28.636c1.272,4.633,3.613,11.85,1.71,19.344
					c-0.736,2.897-2.702,5.721-5.67,13.718c-2.777,7.481-3.845,10.358-6.025,20.313c0,0,19.079,17.481,52.738,12.67
					c24.782-3.542,27.927-12.589,27.927-12.589l-5.809-30.479C163.859,217.097,164.027,213.434,164.5,207.047z"/>
			</g>
			<g id="XMLID_384_">
				<path style="fill:#37474F;" d="M156.992,75.688c-12.732-6.866-29.127-4.154-35.559,6.135c0,0-6.496-1.216-12.96,4.467
					c-7.349,6.462-7.285,16.203-7.383,25.145c-0.115,10.438-4.018,13.563-5.416,21.586c-1.419,8.143,3.951,13.313,9.922,13.969
					c0,0-1.985-7.344,0.111-10.745c0,0-0.635,10.512,9.361,12.297c8.056,1.439,14.103-3.988,14.103-3.988
					s-10.058-1.755-11.786-7.885l1.082-10.229l18.222,19.643c10.488,9.097,25.235,3.389,25.666-0.797c0,0-11.884-12.265,4.14-27.608
					S169.723,82.553,156.992,75.688z"/>
				<g id="XMLID_413_">
					<path style="fill:#FFA8A7;" d="M166.126,121.985c-2.283,18.315-8.702,22.247-11.82,23.248c-3.119,1-8.8-0.381-14.3-1.875
						l-0.887,8.73c0,0,8.573,8.45,6.362,10.467c-4.121,3.76-14.991,2.029-20.265-0.902c-5.625-3.126-7.469-6.099-8.919-8.221
						c-0.528-0.773-0.516-1.566-0.421-2.497l2.592-24.496c0,0-2.931,1.726-7.339-1.24c-3.963-2.667-4.844-11.015-1.135-14.59
						c2.642-2.537,7.561-2.465,10.004,2.143c1.295,3.333,0.522,6.37,2.771,6.264c2.169-0.102,3.207-2.199,3.569-3.938
						c0.362-1.741,0.574-2.981,0.977-5.272c5.56-0.519,11.73-7.946,13.019-13.379c3.663,2.146,7.578,3.875,11.471,4.069
						c6.117,0.305,9.391-0.537,12.896-4.56c0.571,0.928,1.089,2.446,1.3,3.453c0.635,3.028,0.925,4.926,1.02,7.418
						C167.215,111.875,166.755,116.964,166.126,121.985z"/>
				</g>
				<g id="XMLID_411_">
					<path id="XMLID_412_" style="fill:#F28F8F;" d="M140,143.354c-5.825-1.375-17.616-6.098-19.021-11.092
						c0,0,0.324,3.082,3.636,6.56c3.312,3.478,15.011,8.206,15.011,8.206L140,143.354z"/>
				</g>
				<g>
					<g id="XMLID_407_">
						<path id="XMLID_410_" style="fill:#263238;" d="M146.196,115.781c-0.074,1.463-1.276,2.587-2.683,2.511
							c-1.408-0.076-2.488-1.323-2.413-2.786c0.075-1.462,1.277-2.587,2.684-2.511C145.191,113.072,146.272,114.318,146.196,115.781
							z"/>
					</g>
					<g id="XMLID_402_">
						<path id="XMLID_405_" style="fill:#263238;" d="M163.449,116.732c-0.067,1.33-1.16,2.352-2.44,2.282
							c-1.407-0.076-2.268-1.07-2.193-2.532c0.068-1.33,1.161-2.351,2.44-2.282C162.534,114.269,163.517,115.402,163.449,116.732z"
							/>
					</g>
					<g id="XMLID_396_">
						<polygon id="XMLID_398_" style="fill:#F28F8F;" points="152.48,111.436 151.259,128.794 159.635,127.063 						"/>
					</g>
					<path id="XMLID_395_" style="fill:#263238;" d="M137.474,108.029l5.082-3.791c1.028,1.468,0.724,3.507-0.679,4.554
						C140.473,109.839,138.502,109.497,137.474,108.029z"/>
					<path id="XMLID_394_" style="fill:#874C4C;" d="M141.811,128.717l7.809,3.612c-1.087,2.176-3.717,3.132-5.873,2.134
						C141.59,133.466,140.723,130.893,141.811,128.717z"/>
					<path style="fill:#F28F8F;" d="M143.747,134.463c-1.527-0.706-2.389-2.204-2.387-3.789c0.457-0.115,0.939-0.161,1.435-0.102
						c2.113,0.252,3.624,2.127,3.466,4.228C145.427,134.936,144.554,134.836,143.747,134.463z"/>
					<path id="XMLID_392_" style="fill:#263238;" d="M161.892,105.126l4.603,4.431c-1.185,1.327-3.177,1.411-4.448,0.187
						C160.776,108.521,160.707,106.453,161.892,105.126z"/>
				</g>
			</g>
		</g>
		<g id="Dog">
			<g>
				<path style="fill:#455A64;" d="M173.297,171.216c-1.067-0.123-2.426-0.469-3.478-0.722c-2.811-0.678-4.269-0.972-6.542-0.779
					c-2.274,0.193-5.323,1.149-6.941,2.758c-0.665,0.662-0.91,2.223,0.197,2.615c-0.11,0.389,0.099,1.02,0.585,1.373
					c0.58,0.421,1.107,0.407,1.779,0.365c0.019,0.627,0.986,1.054,1.982,0.91c1.372-0.197,1.691-0.553,4.296-0.477
					c3.04,0.089,3.567,1.246,3.567,1.246"/>
				<path style="fill:#37474F;" d="M161.291,174.833c-0.123,0.015-2.318-0.474-3.123,1.996c0.23,0.016,0.467,0.013,0.729-0.003
					C159.046,176.011,159.59,174.981,161.291,174.833z"/>
				<path style="fill:#37474F;" d="M158.991,172.942c0,0-1.85-0.208-2.955,1.777c0.121,0.156,0.275,0.29,0.497,0.368
					C156.768,173.8,158.26,173.028,158.991,172.942z"/>
			</g>
			<path style="fill:#455A64;" d="M200.124,163.672c-1.63,0.451-3.324,0.938-4.955,1.389c-3.349,0.926-6.697,1.852-10.045,2.779
				c-0.301,0.083-0.598,0.152-0.894,0.217l-2.315,0.39c-1.603,0.211-3.189,0.358-4.854,0.818l-0.352,0.059
				c-0.597,0.074-1.574,0.12-1.875,0.316c-0.405,0.263-1.166,0.954-1.166,0.954l-1.053,1.048c-0.122,0.131-0.243,0.262-0.368,0.406
				l-3.116,5.455c0,0-1.177,1.508-2.649,1.816c-1.595,0.444-3.273,1.24-4.139,2.564c-0.248-0.332-0.603-0.563-1.017-0.557
				c-0.07-0.557-0.439-1.068-0.946-1.309c-0.507-0.242-1.179-0.276-2.002-0.043c0.037-0.516-0.865-1.178-2.605-0.787
				c-3.441,0.774-5.472,2.139-9.051,4.403c-4.464,2.824-5.903,5.387-5.829,7.497c0.088,2.532,1.89,3.36,1.89,3.36
				s-13.878,13.265,5.139,24.525c18.454,10.927,42.593-0.755,50.142-18.25c2.291-5.308,3.198-10.198,3.648-14.603
				C202.702,176.438,200.787,168.997,200.124,163.672z"/>
			<g>
				<path style="fill:#27DEBF;" d="M161.934,185.148c0,0,2.951-1.336,4.379,0.299c0,0,1.248-0.6,2.211,0.133
					c0.963,0.733,0.63,1.681,0.63,1.681s0.813,0.033,1.046,0.707c0.339,0.981-0.131,1.866-0.38,2.201
					c-0.249,0.335-1.758,3.416-5.196,4.245c0,0,3.235,1.522,3.867,5.975c0.687,4.837-0.863,7.355-0.863,7.355
					s9.078-1.619,15.961-10.461c8.458-10.865,5.398-30.029,5.398-30.029l-14.153,2.386c0,0-4.499,1.955-5.702,7.862
					c-4.358,0.54-5.96,1.723-8.129,3.029c0,0,0.182,0.244,0.325,0.793c0.412,0.058,0.75,0.227,1.017,0.557
					C162.786,182.43,163.283,183.943,161.934,185.148z"/>
				<path style="opacity:0.3;" d="M161.934,185.148c0,0,2.951-1.336,4.379,0.299c0,0,1.248-0.6,2.211,0.133
					c0.963,0.733,0.63,1.681,0.63,1.681s0.813,0.033,1.046,0.707c0.339,0.981-0.131,1.866-0.38,2.201
					c-0.249,0.335-1.758,3.416-5.196,4.245c0,0,3.235,1.522,3.867,5.975c0.687,4.837-0.863,7.355-0.863,7.355
					s9.078-1.619,15.961-10.461c8.458-10.865,5.398-30.029,5.398-30.029l-14.153,2.386c0,0-4.499,1.955-5.702,7.862
					c-4.358,0.54-5.96,1.723-8.129,3.029c0,0,0.182,0.244,0.325,0.793c0.412,0.058,0.75,0.227,1.017,0.557
					C162.786,182.43,163.283,183.943,161.934,185.148z"/>
			</g>
			<path style="opacity:0.1;" d="M182.886,180.002c-2.314-0.097-5.505,0.476-7.339,1.888c-0.754,0.581-1.201,2.121-0.136,2.658
				c-0.161,0.377-0.031,1.039,0.413,1.456c0.53,0.497,1.062,0.551,1.744,0.595c-0.061,0.634,0.858,1.187,1.879,1.17
				c1.406-0.023,1.796-0.472,4.384,0.069c1.767,0.37,3.001,1.374,3.617,1.98c0.892-2.68,1.431-5.471,1.733-8.141
				C187.195,180.758,185.07,180.094,182.886,180.002z"/>
			<g>
				<path style="fill:#455A64;" d="M189.533,180.148c-2.086-1.005-4.335-1.741-6.647-1.837c-2.313-0.097-5.505,0.476-7.339,1.888
					c-0.754,0.581-1.201,2.121-0.136,2.658c-0.161,0.377-0.031,1.039,0.413,1.456c0.53,0.497,1.062,0.551,1.744,0.595
					c-0.061,0.634,0.858,1.187,1.879,1.17c1.406-0.023,1.796-0.472,4.384,0.07c2.588,0.542,4.068,2.465,4.068,2.465l4.669-7.201
					C191.509,181.152,190.522,180.625,189.533,180.148z"/>
				<path style="fill:#37474F;" d="M179.944,183.255c0,0-1.101-0.606-2.263,0.202c-0.576,0.4-0.768,0.932-0.816,1.368
					c0.22,0.041,0.449,0.067,0.703,0.084C177.62,183.836,178.812,183.225,179.944,183.255z"/>
				<path style="fill:#37474F;" d="M174.887,182.312c0.097,0.222,0.264,0.413,0.524,0.544c0.343-0.805,1.084-1.221,1.83-1.344
					C177.241,181.513,175.705,181.222,174.887,182.312z"/>
			</g>
			<path style="opacity:0.1;" d="M201.846,176.586c-0.358-5.197-1.297-9.495-1.722-12.914c-1.63,0.451-3.324,0.938-4.955,1.39
				c-3.349,0.926-6.697,1.852-10.045,2.779c-0.301,0.083-0.598,0.152-0.894,0.217l-2.315,0.39c-1.603,0.211-3.189,0.358-4.854,0.818
				l-0.352,0.059c-0.597,0.074-1.574,0.12-1.875,0.316l0,0h0c0,0-0.371,0.166-0.919,0.528c0.659,0.82,3.142,3.457,8.634,4.664
				c6.546,1.439,13.48-0.752,13.48-0.752S197.591,177.252,201.846,176.586z"/>
			<g>
				<path style="fill:#37474F;" d="M190.379,143.694c-0.481-1.791-2.718-2.579-6.303-2.648c-2.825-0.055-5.525,0.808-9.7-1.07
					c-4.175-1.878-7.613-1.032-8.742,3.201c-1.129,4.233-0.178,9.364,4.404,11.154c4.245,1.658,11.127,0.81,15.027-1.835
					C188.967,149.849,190.379,143.694,190.379,143.694z"/>
				<path style="fill:#27DEBF;" d="M178.011,141.906c0.102-0.265,0.164-0.542,0.208-0.822c-1.151-0.147-2.408-0.464-3.842-1.109
					c-4.175-1.878-7.613-1.032-8.742,3.201c-0.379,1.422-0.517,2.944-0.368,4.408c0.865,0.509,1.823,0.847,2.705,0.936
					c0.766,0.077,1.636-0.028,2.126-0.621c0.615-0.743,0.389-1.948,1.032-2.667c0.721-0.806,2.006-0.522,3.086-0.576
					C175.867,144.574,177.419,143.449,178.011,141.906z"/>
				<path style="opacity:0.4;" d="M178.011,141.906c0.102-0.265,0.164-0.542,0.208-0.822c-1.151-0.147-2.408-0.464-3.842-1.109
					c-4.175-1.878-7.613-1.032-8.742,3.201c-0.379,1.422-0.517,2.944-0.368,4.408c0.865,0.509,1.823,0.847,2.705,0.936
					c0.766,0.077,1.636-0.028,2.126-0.621c0.615-0.743,0.389-1.948,1.032-2.667c0.721-0.806,2.006-0.522,3.086-0.576
					C175.867,144.574,177.419,143.449,178.011,141.906z"/>
				<g>
					<path style="fill:#455A64;" d="M201.7,151.684c-2.004-4.317-3.129-5.27-8.687-7.237c-5.559-1.967-8.976-1.734-13.875,1.277
						c-3.082,1.894-4.313,6.935-4.313,6.935c-1.671,0.326-3.819,1.022-5.044,2.904c-2.148,3.299-0.515,9.173,0.877,11.156
						c1.63,2.322,4.728,5.159,9.469,6.13c7.158,1.466,12.92,0.958,16.514-2.646C201.182,165.649,203.156,154.819,201.7,151.684z"/>
					<path style="fill:#27DEBF;" d="M200.649,158.67c0.105-0.512,0.151-1.038,0.143-1.555c-0.024-1.638-0.375-3.824-1.479-5.077
						c-1.138-1.291-2.106-2.344-3.821-2.863c-1.368-0.414-2.848-0.372-4.238-0.037c-1.754,0.423-3.448,1.36-4.445,2.864
						c-1,1.508-1.324,3.239,0.084,4.573c0.496,0.47,1.064,0.87,1.492,1.404c0.649,0.811,0.92,1.866,1.517,2.716
						c0.651,0.925,1.668,1.558,2.756,1.867c1.088,0.309,2.246,0.312,3.366,0.147c1.415-0.208,2.838-0.664,3.702-1.867
						C200.189,160.198,200.489,159.449,200.649,158.67z"/>
					<path style="opacity:0.3;" d="M200.649,158.67c0.105-0.512,0.151-1.038,0.143-1.555c-0.024-1.638-0.375-3.824-1.479-5.077
						c-1.138-1.291-2.106-2.344-3.821-2.863c-1.368-0.414-2.848-0.372-4.238-0.037c-1.754,0.423-3.448,1.36-4.445,2.864
						c-1,1.508-1.324,3.239,0.084,4.573c0.496,0.47,1.064,0.87,1.492,1.404c0.649,0.811,0.92,1.866,1.517,2.716
						c0.651,0.925,1.668,1.558,2.756,1.867c1.088,0.309,2.246,0.312,3.366,0.147c1.415-0.208,2.838-0.664,3.702-1.867
						C200.189,160.198,200.489,159.449,200.649,158.67z"/>
					<path style="fill:#263238;" d="M191.699,154.748c0,0.907-0.735,1.642-1.642,1.642s-1.642-0.735-1.642-1.642
						c0-0.907,0.735-1.642,1.642-1.642S191.699,153.841,191.699,154.748z"/>
					<path style="fill:#263238;" d="M180.082,151.684c0,0.907-0.735,1.642-1.642,1.642c-0.907,0-1.642-0.735-1.642-1.642
						c0-0.907,0.735-1.642,1.642-1.642C179.347,150.042,180.082,150.777,180.082,151.684z"/>
					<g>
						<g>
							<path style="fill:#263238;" d="M176.114,165.191c-0.025,0-0.049-0.002-0.075-0.007c-0.213-0.041-0.352-0.248-0.311-0.461
								l0.733-3.788c0.042-0.213,0.243-0.355,0.461-0.311c0.213,0.041,0.352,0.248,0.311,0.461l-0.733,3.788
								C176.463,165.061,176.3,165.191,176.114,165.191z"/>
						</g>
						<path style="fill:#263238;" d="M178.46,156.509c-1.996-0.61-3.554-0.513-3.926,0.246c-0.612,1.25,0.294,3.094,0.921,3.823
							c0.506,0.588,1.718,0.924,2.6,0.829c1.129-0.121,2.942-0.852,3.279-2.049C181.674,158.161,180.605,157.165,178.46,156.509z"/>
						<path style="fill:#37474F;" d="M175.299,156.659c-0.628,0.327-0.731,1.184-0.498,1.596c0.233,0.412,0.632-1.112,1.715-1.112
							c1.083,0,2.824,0.734,3.503,1.183c0.68,0.448,0.699-0.358-0.646-1.039C177.718,156.448,176.161,156.209,175.299,156.659z"/>
						<g>
							<path style="fill:#263238;" d="M178.521,165.565c-0.236,0-0.475-0.009-0.716-0.03c-1.702-0.141-3.117-0.749-3.786-1.625
								c-0.132-0.173-0.099-0.42,0.074-0.551c0.173-0.129,0.42-0.099,0.551,0.074c0.52,0.682,1.787,1.199,3.226,1.319
								c1.795,0.146,3.436-0.31,4.409-1.223c0.158-0.15,0.407-0.139,0.556,0.017c0.148,0.159,0.14,0.408-0.017,0.556
								C181.82,165.038,180.25,165.565,178.521,165.565z"/>
						</g>
					</g>
				</g>
				<g>
					<path style="fill:#37474F;" d="M198.484,147.025c2.196,0.254,6.578,1.296,7.922,3.389c1.344,2.094,5.631,9.066,4.463,15.611
						c-1.099,6.162-6.601,8.745-10.179,8.384c-3.578-0.36-5.777-2.026-3.979-7.162c1.798-5.136,3.128-12.416,1.82-15.882
						C197.331,148.183,196.04,146.743,198.484,147.025z"/>
					<path style="fill:#27DEBF;" d="M209.182,155.578c-0.914,1.318-2.152,2.411-3.592,3.118c-0.662,0.325-1.374,0.579-1.938,1.053
						c-0.565,0.475-0.958,1.254-0.721,1.953c0.295,0.869,1.338,1.173,2.221,1.424c0.883,0.251,1.905,0.775,1.923,1.693
						c0.013,0.661-0.532,1.22-0.587,1.88c-0.079,0.96,0.983,1.717,1.942,1.629c0.893-0.082,1.64-0.685,2.226-1.373
						c0.08-0.302,0.156-0.607,0.214-0.928C211.523,162.367,210.471,158.577,209.182,155.578z"/>
					<path style="opacity:0.4;" d="M209.182,155.578c-0.914,1.318-2.152,2.411-3.592,3.118c-0.662,0.325-1.374,0.579-1.938,1.053
						c-0.565,0.475-0.958,1.254-0.721,1.953c0.295,0.869,1.338,1.173,2.221,1.424c0.883,0.251,1.905,0.775,1.923,1.693
						c0.013,0.661-0.532,1.22-0.587,1.88c-0.079,0.96,0.983,1.717,1.942,1.629c0.893-0.082,1.64-0.685,2.226-1.373
						c0.08-0.302,0.156-0.607,0.214-0.928C211.523,162.367,210.471,158.577,209.182,155.578z"/>
				</g>
			</g>
			<path style="fill:#37474F;" d="M161.934,185.148c-5.894,2.578-11.51,5.449-12.581,8.837c-1.072,3.388,1.8,4.152,1.8,4.152
				s-2.939-0.132-2.939-2.829S150.653,188.453,161.934,185.148z"/>
			<g>
				<path style="fill:#37474F;" d="M166.237,188.009c0.667-0.085,1.873-0.537,1.971-1.339c0.067-0.548-0.406-0.657-0.866-0.65
					c-0.593,0.009-1.31,0.25-1.761,0.641C164.818,187.323,165.294,188.129,166.237,188.009z"/>
				<path style="fill:#37474F;" d="M167.286,189.989c0.671,0.037,1.939-0.19,2.18-0.962c0.165-0.527-0.281-0.72-0.734-0.796
					c-0.584-0.098-1.333,0.009-1.847,0.313C166.014,189.059,166.337,189.938,167.286,189.989z"/>
				<path style="fill:#37474F;" d="M163.249,186.986c0.621-0.017,1.771-0.322,1.935-1.05c0.112-0.498-0.313-0.642-0.736-0.677
					c-0.546-0.046-1.227,0.109-1.677,0.427C162.007,186.226,162.371,187.01,163.249,186.986z"/>
				<path style="fill:#37474F;" d="M163.818,188.39c-0.7-0.656-1.715-1.253-4.793-0.37c-3.079,0.883-4.154,2.305-3.41,2.95
					c1.082,0.939,2.873-0.531,2.464,1.659c-0.232,1.242,1.41,2.159,4.199,0C165.067,190.47,164.585,189.11,163.818,188.39z"/>
			</g>
			<g>
				<path style="fill:#37474F;" d="M158.027,182.623c0.667-0.085,1.873-0.537,1.971-1.339c0.067-0.548-0.406-0.657-0.866-0.65
					c-0.592,0.009-1.31,0.25-1.76,0.641C156.607,181.937,157.083,182.743,158.027,182.623z"/>
				<path style="fill:#37474F;" d="M159.076,184.603c0.671,0.037,1.939-0.19,2.18-0.962c0.165-0.527-0.281-0.72-0.734-0.796
					c-0.584-0.098-1.333,0.009-1.847,0.313C157.803,183.673,158.126,184.552,159.076,184.603z"/>
				<path style="fill:#37474F;" d="M155.038,181.6c0.621-0.017,1.771-0.322,1.935-1.05c0.112-0.498-0.313-0.642-0.736-0.677
					c-0.545-0.046-1.227,0.109-1.677,0.427C153.796,180.84,154.16,181.624,155.038,181.6z"/>
				<path style="fill:#37474F;" d="M155.608,183.004c-0.7-0.656-1.715-1.253-4.794-0.37s-4.154,2.305-3.41,2.95
					c1.082,0.939,2.873-0.531,2.464,1.659c-0.232,1.242,1.41,2.159,4.199,0C156.856,185.084,156.375,183.724,155.608,183.004z"/>
			</g>
			<path style="fill:#37474F;" d="M142.74,210.294c-0.177,0.336-0.557,0.526-0.936,0.496c-6.532-0.508-15.287-5.972-18.802-13.598
				c-3.613-7.838-0.705-17.04,0.587-17.119c1.292-0.079-1.31,5.133,0.171,11.751c1.36,6.073,6.962,13.621,18.224,15.474
				c0.366,0.06,0.675,0.309,0.793,0.661C142.975,208.55,143.162,209.492,142.74,210.294z"/>
			<path style="opacity:0.1;" d="M200.176,194.509c-1.006-0.184-1.545,0.299-2.606,1.11c-0.936,0.716-2.341,1.786-3.251,2.542
				c-1.773,1.474-3.785,2.659-5.929,3.504c-1.671,0.659-3.425,1.113-5.207,1.336c-1.765,0.221-3.599,0.432-5.371,0.25
				c-0.786-0.081-1.663-0.287-2.07-0.965c-0.411-0.683-0.177-1.557,0.086-2.309c0.521-1.495,1.114-2.978,1.38-4.539
				c0.226-1.327,0.353-4.11-0.87-5.055c-0.468-0.361-1.172-0.249-1.649,0.099c-0.612,0.447-1.055,1.25-1.514,1.848
				c-1.439,1.876-2.871,3.769-4.047,5.818c-0.954-2.471-2.75-3.64-2.75-3.64c3.678-2.699,3.442-4.34,3.442-4.34
				c-2.005,2.925-6.658,4.276-6.658,4.276c3.033,1.71,4.291,4.137,4.404,6.731c-0.666,1.366-1.359,2.712-2.315,3.887
				c-1.711,2.101-4.159,3.501-6.722,4.376c-1.829,0.625-10.724,1.472-18.77,2.139c1.512,2.456,4.074,4.971,8.165,7.393
				c18.454,10.927,42.592-0.755,50.142-18.25c0.923-2.138,1.613-4.204,2.147-6.202C200.197,194.517,200.192,194.512,200.176,194.509
				z"/>
		</g>
		<path id="Arm_5_" style="fill:#FFA8A7;" d="M131.238,236.319c5.267-0.802,10.494-1.86,15.676-3.096
			c12.448-2.969,25.203-6.929,36.599-12.856c3.549-1.846,6.964-3.967,10.124-6.423c1.533-1.191,3.03-2.344,4.122-3.957
			c1.114-1.645,2.142-3.356,2.918-5.189c0.984-2.325,1.554-4.866,1.328-7.381c-0.069-0.765-0.361-1.686-1.116-1.824
			c-1.006-0.184-1.624,1.137-2.19,1.747c-0.802,0.864-1.593,1.709-2.502,2.465c-1.773,1.474-3.785,2.659-5.929,3.504
			c-1.671,0.659-3.424,1.113-5.207,1.336c-1.765,0.221-3.598,0.432-5.371,0.25c-0.786-0.081-1.663-0.287-2.07-0.965
			c-0.411-0.683-0.177-1.557,0.085-2.309c0.521-1.495,1.114-2.978,1.38-4.539c0.226-1.327,0.352-4.11-0.87-5.055
			c-0.468-0.361-1.172-0.249-1.649,0.099c-0.612,0.447-1.055,1.25-1.514,1.848c-1.562,2.036-3.13,4.082-4.354,6.338
			c-1.167,2.15-2.026,4.497-3.57,6.394c-1.711,2.101-4.158,3.501-6.722,4.376c-3.022,1.032-25.348,2.674-31.236,3.101l-14.22-30.238
			c0,0-7.491-23.313-19.86-25.564c-6.462,3.656-8.353,6.838-9.298,13.99c-0.945,7.152,1.816,13.229,5.039,22.901
			c3.223,9.672,18.236,32.808,22.489,37.416c4.253,4.608,6.498,4.608,13.705,4.135C128.436,236.732,129.84,236.531,131.238,236.319z
			"/>
	</g>
</g>
<g id="Box_1_">
	<g id="Box">
		<g id="XMLID_1231_">
			<polygon id="XMLID_3930_" style="fill:#27DEBF;" points="316.853,316.541 234.583,269.042 152.313,316.54 234.583,364.039 			"/>
			<polygon id="XMLID_416_" style="opacity:0.4;fill:#FFFFFF;" points="316.853,316.541 234.583,269.042 152.313,316.54 
				234.583,364.039 			"/>
			<polygon id="XMLID_419_" style="opacity:0.1;" points="316.853,316.541 234.583,269.042 152.313,316.54 234.583,364.039 			"/>
			<polygon style="opacity:0.1;" points="234.583,338.13 234.583,269.042 152.313,316.54 152.313,385.629 			"/>
			<polygon style="opacity:0.2;" points="234.583,338.13 152.313,385.629 234.584,433.127 316.853,385.629 			"/>
		</g>
		<g id="Dog_1_">
			<g id="Body">
				<path style="fill:#37474F;" d="M276.423,180.828c-3.732-1.15-5.735-0.49-9.003,2.284c-3.268,2.775-4.121,3.464-4.406,6.886
					c-0.284,3.423,0.709,10.678,4.406,9.538C271.118,198.397,276.423,180.828,276.423,180.828z"/>
				<path style="fill:#27DEBF;" d="M233.004,287.343c-0.691,7.777,5.066,25.072,4.502,29.379c-0.564,4.308-3.789,11.721-6.065,15.31
					c-2.015,3.178-2.567,4.646,0,11.125c2.567,6.479,7.448,16.015,8.548,17.946c1.1,1.931,4.564,0.803,8.048-0.543
					c3.484-1.345,8.009-4.146,5.245-7.415c-1.278-1.512-8.771,0.995-8.771,0.995s-3.731-11.034-3.099-14.711
					c0.658-3.826,10.323-11.826,15.402-19.529c5.079-7.704-1.741-30.246-1.741-30.246L233.004,287.343z"/>
				<path style="opacity:0.55;" d="M233.004,287.343c-0.691,7.777,5.066,25.072,4.502,29.379c-0.564,4.308-3.789,11.721-6.065,15.31
					c-2.015,3.178-2.567,4.646,0,11.125c2.567,6.479,7.448,16.015,8.548,17.946c1.1,1.931,4.564,0.803,8.048-0.543
					c3.484-1.345,8.009-4.146,5.245-7.415c-1.278-1.512-8.771,0.995-8.771,0.995s-3.731-11.034-3.099-14.711
					c0.658-3.826,10.323-11.826,15.402-19.529c5.079-7.704-1.741-30.246-1.741-30.246L233.004,287.343z"/>
				<path style="fill:#27DEBF;" d="M292.788,232.058c-0.168-0.71-0.357-1.386-0.556-2.042c1.199,4.421-3.268,16.63-11.595,26.049
					c-8.34,9.434-4.683,16.595-2.511,26.625c-1.305-6.885-0.9-9.129,1.078-14.78C283.164,256.592,296.072,256.064,292.788,232.058z"
					/>
				<path style="fill:#27DEBF;" d="M321.728,214.45c-5.444-3.143-8.973-1.19-13.499,3.504c-2.987,3.097-6.61,6.709-11.104,9.366
					c-0.622-4.149-1.461-8.099-1.595-10.058c-0.256-3.758-0.091-7.722,2.411-10.631c2.467-2.868,3.56-4.625,6.562-6.84
					c1.097-0.809,2.143-1.675,3.07-2.671c0.882-0.948,2.575-3.353,1.762-4.726c-1.627,1.142-3.44,1.948-5.481,1.779
					c-0.742-0.062-1.647-0.419-2.233-0.879c-0.096-0.075-0.197-0.175-0.187-0.297c0.012-0.146,0.171-0.228,0.311-0.274
					c0.492-0.163,1.008-0.239,1.517-0.336c1.538-0.294,3.071-0.812,4.294-1.791c0.876-0.701,1.577-1.661,1.888-2.746
					c0.251-0.877,0.049-0.992-0.047-1.881c-0.076-0.699-0.198-1.399-0.472-2.051c-0.742-1.767-2.286-2.24-3.938-3.049
					c-3.742-1.83-5.05,0.196-10.402,0.759c-4.03,0.424-13.294-4.146-20.478,0.386c-7.811,4.928-8.33,12.973-9.819,20.936
					c-0.363,1.938-0.849,3.636-1.405,5.184c-2.335,5.208-4.928,6.248-8.256,16.946c-4.905,15.764-3.738,24.357-12.323,36.303
					c-7.738,10.767-9.791,19.035-9.81,24.868c-0.032,9.966,1.76,12.674,9.901,19.697c5.872,5.065,8.672,5.919,14.418,13.953
					c1.855,2.594,1.998,12.826,0.615,17.436c-1.383,4.61-2.612,6.915-1.229,10.534c1.383,3.62,7.886,18.715,10.264,22.403
					c2.377,3.688,4.975,2.738,12.878,0.371c7.735-2.318,4.056-7.186,1.291-6.878c-2.766,0.307-7.034,1.412-7.034,1.412
					s-5.652-13.309-5.651-16.583c0.001-3.275,6.734-16.864,12.063-24.042c5.329-7.179,3.284-18.605,0-33.119
					c-3.284-14.513-3.444-15.988-0.806-23.525c2.498-7.138,8.553-9.989,11.862-17.142c4.113-1.799,7.993-3.551,9.53-5.674
					c3.128-4.319,9.581-15.104,12.271-18.748c3.63-4.918,6.14-7.761,9.986-6.382c3.526,1.264,3.994,0.398,3.994,0.398
					C327.34,218.468,324.911,216.288,321.728,214.45z"/>
				<path style="opacity:0.4;" d="M321.728,214.45c-5.444-3.143-8.973-1.19-13.499,3.504c-2.987,3.097-6.61,6.709-11.104,9.366
					c-0.622-4.149-1.461-8.099-1.595-10.058c-0.256-3.758-0.091-7.722,2.411-10.631c2.467-2.868,3.56-4.625,6.562-6.84
					c1.097-0.809,2.143-1.675,3.07-2.671c0.882-0.948,2.575-3.353,1.762-4.726c-1.627,1.142-3.44,1.948-5.481,1.779
					c-0.742-0.062-1.647-0.419-2.233-0.879c-0.096-0.075-0.197-0.175-0.187-0.297c0.012-0.146,0.171-0.228,0.311-0.274
					c0.492-0.163,1.008-0.239,1.517-0.336c1.538-0.294,3.071-0.812,4.294-1.791c0.876-0.701,1.577-1.661,1.888-2.746
					c0.251-0.877,0.049-0.992-0.047-1.881c-0.076-0.699-0.198-1.399-0.472-2.051c-0.742-1.767-2.286-2.24-3.938-3.049
					c-3.742-1.83-5.05,0.196-10.402,0.759c-4.03,0.424-13.294-4.146-20.478,0.386c-7.811,4.928-8.33,12.973-9.819,20.936
					c-0.363,1.938-0.849,3.636-1.405,5.184c-2.335,5.208-4.928,6.248-8.256,16.946c-4.905,15.764-3.738,24.357-12.323,36.303
					c-7.738,10.767-9.791,19.035-9.81,24.868c-0.032,9.966,1.76,12.674,9.901,19.697c5.872,5.065,8.672,5.919,14.418,13.953
					c1.855,2.594,1.998,12.826,0.615,17.436c-1.383,4.61-2.612,6.915-1.229,10.534c1.383,3.62,7.886,18.715,10.264,22.403
					c2.377,3.688,4.975,2.738,12.878,0.371c7.735-2.318,4.056-7.186,1.291-6.878c-2.766,0.307-7.034,1.412-7.034,1.412
					s-5.652-13.309-5.651-16.583c0.001-3.275,6.734-16.864,12.063-24.042c5.329-7.179,3.284-18.605,0-33.119
					c-3.284-14.513-3.444-15.988-0.806-23.525c2.498-7.138,8.553-9.989,11.862-17.142c4.113-1.799,7.993-3.551,9.53-5.674
					c3.128-4.319,9.581-15.104,12.271-18.748c3.63-4.918,6.14-7.761,9.986-6.382c3.526,1.264,3.994,0.398,3.994,0.398
					C327.34,218.468,324.911,216.288,321.728,214.45z"/>
				<path style="fill:#FAFAFA;" d="M279.204,267.911c-1.979,5.653-2.384,7.89-1.077,14.776c-2.099-9.703-5.597-16.727,1.749-25.722
					c2.421-2.43,6.932-4.336,11.195-6.196C287.756,257.922,281.699,260.776,279.204,267.911z"/>
				<path style="fill:#263238;" d="M236.424,287.291c-2.724,3.229-6.416,3.72-16.316,9.846c-9.039,5.594-11.264,16.748-7.313,23.811
					c3.395,6.067,7.201,10.697,7.818,14.898c1.009,6.868-2.354,9.753-2.354,9.753s6.595-2.284,7.78-7.104
					c0,0,1.294,5.876-4.155,11.918c0,0,12.629,2.888,15.212-10.473c1.986-10.273-1.06-16.241-7.38-21.86
					c-4.858-4.319-7.038-11.646,0.278-17.338c8.64-6.723,9.578-10.222,9.578-10.222S240.169,287.343,236.424,287.291z"/>
			</g>
			<g id="Head_3_">
				<path style="fill:#F28F8F;" d="M308.242,189.951c2.23,0.162,3.456,0.937,4.26,1.713c0.804,0.776,3.363,5.478,1.849,7.095
					c-1.515,1.617-5.346,0.524-6.104-3.049c0,0-5.732,0.686-7.651-1.592c-1.919-2.278,0.809-3.278,3.369-3.613
					S308.242,189.951,308.242,189.951z"/>
				<path style="fill:#874C4C;" d="M309.335,192.394c0,0-2.229,1.892-1.738,3.371c0.4-0.026,0.649-0.055,0.649-0.055
					c0.227,1.069,0.731,1.911,1.363,2.529c0.761,0.584,1.653,0.967,2.628,0.887c2-0.164,1.038-1.789,0.438-3.653
					C312.075,193.609,310.394,191.987,309.335,192.394z"/>
				<path style="fill:#FAFAFA;" d="M309.335,192.394c0.81,1.372-0.884,3.774-1.758,4.723c-0.93,1.003-1.979,1.869-3.075,2.679
					c-3.001,2.209-4.097,3.968-6.564,6.84c-2.495,2.909-2.661,6.868-2.412,10.624c0.138,1.961,0.976,5.91,1.602,10.062
					c-0.322,0.193-0.644,0.377-0.976,0.552c-1.629-5.358-4.078-10.302-5.293-12.622c-1.97-3.802-3.774-7.31-1.381-13.413
					c1.666-4.226,1.225-7.024,8.322-9.51c6.352-2.219,3.296-6.214,1.381-7.346c-1.906-1.142-3.305-2.762-2.43-3.692
					c3.066-1.003,5.422-1.85,8.037-0.571c1.657,0.81,3.397,1.427,4.134,3.195c0.276,0.654,0.396,1.353,0.479,2.053
					c0.092,0.893,0.295,1.003,0.046,1.887c-0.313,1.077-1.013,2.044-1.887,2.743c-1.224,0.976-2.762,1.491-4.299,1.786
					c-0.506,0.101-1.022,0.175-1.519,0.341c-0.138,0.046-0.295,0.129-0.304,0.276c-0.009,0.12,0.092,0.221,0.184,0.295
					c0.589,0.46,1.51,0.626,2.246,0.654C306.131,194.032,307.706,193.535,309.335,192.394z"/>
				<path style="fill:#263238;" d="M304.063,182.081c-0.018-0.015-0.036-0.03-0.054-0.045c-0.225-0.198-0.404-0.454-0.663-0.606
					c-0.33-0.194-0.727-0.189-1.084-0.305c-0.277-0.09-0.615-0.368-0.539-0.7c0.045-0.195,0.195-0.285,0.363-0.375
					c0.582-0.31,1.115-0.678,1.794-0.733c0.777-0.063,1.554,0.183,2.255,0.496c1.997,0.894,2.899,1.448,3.321,2.128
					c0.422,0.679-0.278,2.964-0.278,2.965c0.074-0.243-0.182-0.77-0.275-0.98c-0.526-1.196-2.14-1.164-3.219-1.281
					C305.108,182.583,304.511,182.446,304.063,182.081z"/>
				<path style="opacity:0.1;" d="M295.53,217.262c-0.256-3.758-0.091-7.722,2.411-10.631c2.467-2.868,3.56-4.625,6.562-6.84
					c0.398-0.293,0.786-0.598,1.167-0.91c-5.202,3.614-9.383,1.769-12.215,4.194c-2.835,2.428-0.904,8.474,1.03,11.402
					C294.864,215.05,295.53,217.262,295.53,217.262z"/>
				<path style="fill:#37474F;" d="M282.757,192.535c1.19-1.655,6.522-5.56,8.898-6.503c2.376-0.944,6.64,4.613,6.635,9.177
					c-0.006,4.563-3.168,13.386-6.676,13.146c-3.508-0.24-7.067-13.294-8.7-11.757C281.381,198.039,280.589,195.548,282.757,192.535
					z"/>
			</g>
		</g>
		<g>
			<g id="XMLID_1213_">
				<polygon id="XMLID_1221_" style="fill:#27DEBF;" points="234.584,433.127 316.853,385.629 316.853,316.54 234.584,364.038 				
					"/>
				<polygon id="XMLID_1220_" style="opacity:0.6;fill:#FFFFFF;" points="234.584,433.127 316.853,385.629 316.853,316.54 
					234.584,364.038 				"/>
				<polygon style="opacity:0.1;" points="234.584,364.038 249.477,394.213 316.853,355.402 316.853,316.54 				"/>
			</g>
			<g id="XMLID_1180_">
				<polygon id="XMLID_1212_" style="fill:#27DEBF;" points="234.583,433.127 152.313,385.629 152.313,316.54 234.583,364.039 				
					"/>
				<polygon id="XMLID_1208_" style="opacity:0.4;fill:#FFFFFF;" points="234.583,433.127 152.313,385.629 152.313,316.54 
					234.583,364.039 				"/>
				<polygon style="opacity:0.1;" points="234.583,364.038 219.69,394.213 152.314,355.402 152.314,316.54 				"/>
			</g>
			<path style="opacity:0.1;" d="M157.922,370.398l0,8.067c0,2.542,1.785,5.633,3.986,6.904l18.206,10.51
				c2.202,1.271,3.986,0.241,3.986-2.302l-0.001-8.067c0-2.542-1.785-5.633-3.987-6.905l-18.204-10.51
				C159.707,366.825,157.922,367.855,157.922,370.398z"/>
		</g>
		<g>
			<g>
				<polygon style="fill:#27DEBF;" points="152.314,316.54 133.615,340.289 215.951,387.736 234.584,364.038 				"/>
				<polygon style="opacity:0.6;fill:#FFFFFF;" points="152.314,316.54 133.615,340.289 215.951,387.736 234.584,364.038 				"/>
			</g>
			<g>
				<polygon style="fill:#27DEBF;" points="316.853,316.54 335.551,340.289 253.216,387.736 234.584,364.038 				"/>
				<polygon style="opacity:0.4;fill:#FFFFFF;" points="316.853,316.54 335.551,340.289 253.216,387.736 234.584,364.038 				"/>
			</g>
		</g>
		<g id="Kittena">
			<path style="fill:#F0F0F0;" d="M195.122,320.702c1.72,4.987,9.877,7.268,15.389,16.925c3.919,6.866,2.288,13.835,2.288,13.835
				l-48.093-27.766l-3.283-7.456L195.122,320.702z"/>
			<g>
				<g id="Paw">
					<path style="fill:#F0F0F0;" d="M146.547,332.378c0.092-2.284,1.477-5.357,3.265-7.886c2.983-4.218,7.28-6.832,11.611-8.253
						l11.143,6.965c-11.906-0.401-16.005,5.868-17.107,9.365c-0.761,2.415-1.403,4.279-2.813,4.28
						c-1.381,0.001-1.524-1.206-1.524-1.206c-0.975,0.923-2.431,0.377-2.492-0.811c-0.536,0.237-1.08,0.17-1.497-0.269
						C146.578,333.98,146.515,333.184,146.547,332.378z"/>
					<path style="fill:#E0E0E0;" d="M147.133,334.563c-0.008-0.008-0.013-0.018-0.021-0.026c0.47,0.16,0.898-0.034,1.141-0.619
						c0.378-0.909,0.493-1.336,0.698-1.541c0,0-0.434,1.416-0.321,2.454C148.094,335.068,147.55,335.002,147.133,334.563z"/>
					<path style="fill:#E0E0E0;" d="M149.484,336.008c0.569-0.022,1.009-0.433,1.211-1.116c0.285-0.959,0.458-1.257,0.664-1.462
						c0,0-0.349,1.174-0.237,2.212C150.618,336.121,149.986,336.203,149.484,336.008z"/>
				</g>
				<g id="Paw_2_">
					<path style="fill:#F0F0F0;" d="M168.006,342.182c0.23-2.327,1.502-5.724,3.368-8.285c3.187-4.374,5.689-6.421,9.554-8.584
						v-3.042c0,0,13.935,2.85,14.194,12.088c-12.134-1.116-16.693,5.041-18.026,8.547c-0.921,2.421-1.687,4.286-3.127,4.204
						c-1.41-0.081-1.485-1.322-1.485-1.322c-1.051,0.885-2.505,0.241-2.497-0.976c-0.562,0.21-1.113,0.109-1.513-0.363
						C167.942,343.82,167.925,343.003,168.006,342.182z"/>
					<path style="fill:#E0E0E0;" d="M168.474,344.449c-0.008-0.009-0.013-0.019-0.02-0.028c0.47,0.191,0.919,0.018,1.202-0.564
						c0.44-0.905,0.583-1.335,0.805-1.532c0,0-0.527,1.42-0.474,2.487C169.425,345.021,168.874,344.921,168.474,344.449z"/>
					<path style="fill:#E0E0E0;" d="M170.789,346.064c0.583,0.011,1.056-0.383,1.303-1.067c0.348-0.963,0.543-1.256,0.764-1.453
						c0,0-0.426,1.178-0.373,2.245C171.94,346.246,171.29,346.292,170.789,346.064z"/>
				</g>
				<path style="fill:#E0E0E0;" d="M161.44,316.241l-0.016-0.002c-0.727,0.239-1.45,0.524-2.169,0.832
					c4.071,4.255,9.497,7.102,13.693,8.511c5.245,1.761,13.063,2.791,19.99,0.275c1.544-0.561,2.815-1.435,3.848-2.52
					c-0.629-0.706-1.144-1.431-1.484-2.222"/>
				<g>
					<g>
						<path style="fill:#E0E0E0;" d="M177.086,292.225c-1.745-4.324-8.303-9.442-13.333-7.417
							c-2.835,1.141-0.834,11.762-0.834,11.762S172.404,296.557,177.086,292.225z"/>
						<path style="fill:#FFA8A7;" d="M172.872,294.741c-4.637,1.822-9.954,1.83-9.954,1.83s-2.001-10.621,0.834-11.762
							C165.613,284.383,170.396,286.895,172.872,294.741z"/>
						<path style="fill:#F28F8F;" d="M166.469,291.274c0.348-1.227-0.623-2.695-0.623-2.695c1.738-0.135,4.145,1.473,4.575,4.336
							c0,0-2.583,4.811-6.392,2.833c-0.232-0.71-1.176-1.508-1.517-1.909c-0.088-0.737-0.17-1.567-0.223-2.42
							C164.14,290.852,166.469,291.274,166.469,291.274z"/>
					</g>
					<g>
						<path style="fill:#E0E0E0;" d="M189.988,296.047c3.874-2.596,12.175-3.143,15.197,1.359
							c1.703,2.537-7.171,11.158-7.171,11.158S191.427,302.261,189.988,296.047z"/>
						<path style="fill:#FFA8A7;" d="M192.06,300.496c2.812,4.113,5.954,8.068,5.954,8.068s8.875-8.621,7.171-11.158
							C203.885,296.009,198.517,295.399,192.06,300.496z"/>
						<path style="fill:#F28F8F;" d="M197.651,306.474c0.521-0.403,1.018-0.646,1.477-0.796c0.531-0.562,1.137-1.224,1.746-1.937
							c-1.208-1.514-3.379-2.479-3.379-2.479c0.402-1.211,2.03-1.879,2.03-1.879c-1.362-1.089-4.468-0.838-5.991,1.32
							c0,0-0.045,1.657,0.667,3.201c0.671,0.79,1.291,1.48,1.807,2.035C196.468,306.201,197.003,306.397,197.651,306.474z"/>
					</g>
					<g>
						<path style="fill:#F5F5F5;" d="M173.545,323.725c4.675,1.569,11.645,2.488,17.82,0.245c7.36-2.673,7.774-13.329,5.993-18.165
							s-5.457-9.702-13.869-12.525c-8.412-2.824-14.255-1.153-18.565,1.638c-4.31,2.791-10.337,11.564-6.046,18.147
							C162.478,318.589,168.87,322.155,173.545,323.725z"/>
						<path style="fill:#E0E0E0;" d="M173.586,322.611c-9.321-3.129-8.829-8.91-6.47-11.29s6.263-3.035,10.723-1.538
							c4.46,1.497,7.191,4.379,7.657,7.708C185.963,320.819,182.907,325.739,173.586,322.611z"/>
						<g>
							<g>
								<path style="fill:#455A64;" d="M176.198,314.742l2.192-0.336c0.165-0.025,0.285-0.187,0.267-0.361
									c-0.018-0.174-0.168-0.29-0.333-0.268l-1.909,0.292l-1.384-1.372c-0.118-0.119-0.31-0.11-0.426,0.021
									c-0.116,0.13-0.114,0.331,0.005,0.449L176.198,314.742z"/>
							</g>
							<g>
								<path style="fill:#455A64;" d="M177.78,319.458c0.366-0.013,0.73-0.112,1.069-0.296c0.598-0.322,1.049-0.867,1.27-1.533
									c0.055-0.167-0.027-0.346-0.184-0.399c-0.157-0.052-0.329,0.041-0.385,0.208c-0.167,0.504-0.508,0.917-0.96,1.161
									c-0.452,0.244-0.962,0.292-1.435,0.132c-0.473-0.159-0.852-0.504-1.068-0.973c-0.216-0.469-0.243-1.004-0.077-1.508
									l0.58-1.749c0.056-0.167-0.027-0.346-0.184-0.398c-0.157-0.054-0.329,0.04-0.385,0.207l-0.58,1.749
									c-0.221,0.666-0.185,1.374,0.1,1.993c0.286,0.62,0.787,1.076,1.412,1.285C177.224,319.427,177.502,319.468,177.78,319.458z"
									/>
							</g>
							<g>
								<path style="fill:#455A64;" d="M173.671,318.078c0.366-0.013,0.73-0.112,1.07-0.295c0.598-0.323,1.049-0.867,1.269-1.533
									l0.58-1.749c0.056-0.167-0.027-0.346-0.184-0.398c-0.157-0.054-0.329,0.04-0.385,0.207l-0.58,1.749
									c-0.167,0.504-0.508,0.916-0.961,1.16c-0.453,0.244-0.962,0.29-1.435,0.133c-0.976-0.328-1.489-1.441-1.144-2.482
									c0.055-0.167-0.027-0.346-0.184-0.399c-0.158-0.052-0.33,0.04-0.385,0.208c-0.455,1.375,0.223,2.846,1.512,3.279
									C173.115,318.049,173.393,318.088,173.671,318.078z"/>
							</g>
						</g>
						<path style="fill:#455A64;" d="M167.168,305.027c-0.4,1.207,0.193,2.494,1.325,2.874c1.132,0.38,2.375-0.29,2.775-1.498
							c0.4-1.207-0.193-2.494-1.326-2.874C168.81,303.15,167.568,303.82,167.168,305.027z"/>
						<path style="fill:#455A64;" d="M189.21,312.426c-0.4,1.207-1.643,1.878-2.775,1.498c-1.132-0.38-1.726-1.667-1.326-2.874
							c0.4-1.207,1.643-1.878,2.775-1.498C189.016,309.932,189.61,311.219,189.21,312.426z"/>
						<g>
							<g>
								<path style="fill:#455A64;" d="M195.169,315.787c0.117-0.004,0.235-0.056,0.323-0.154c1.662-1.844,4.466-3.771,8.375-2.476
									c0.238,0.079,0.494-0.063,0.577-0.314c0.082-0.252-0.042-0.519-0.278-0.597c-4.36-1.442-7.473,0.695-9.319,2.742
									c-0.175,0.195-0.173,0.496,0.006,0.674C194.941,315.75,195.055,315.791,195.169,315.787z"/>
							</g>
							<g>
								<path style="fill:#455A64;" d="M196.174,316.938c0.081-0.003,0.163-0.029,0.237-0.08c1.501-1.029,4.23-1.127,5.666-0.527
									c0.228,0.096,0.496-0.025,0.595-0.27c0.099-0.245-0.007-0.522-0.236-0.618c-1.643-0.686-4.716-0.6-6.499,0.621
									c-0.213,0.146-0.279,0.442-0.148,0.661C195.875,316.868,196.022,316.943,196.174,316.938z"/>
							</g>
							<g>
								<path style="fill:#455A64;" d="M203.173,320.702c0.129-0.005,0.256-0.066,0.346-0.181c0.161-0.207,0.138-0.507-0.054-0.669
									c-2.684-2.291-6.163-2.608-8.254-1.936c-0.241,0.078-0.384,0.345-0.319,0.596c0.065,0.252,0.317,0.392,0.555,0.316
									c1.874-0.603,4.999-0.304,7.434,1.774C202.967,320.673,203.07,320.706,203.173,320.702z"/>
							</g>
						</g>
						<g>
							<g>
								<path style="fill:#455A64;" d="M161.3,304.552c0.015,0,0.029-0.002,0.045-0.004c0.249-0.034,0.43-0.274,0.406-0.535
									c-0.255-2.752-1.471-6.344-5.817-7.823c-0.234-0.081-0.495,0.058-0.578,0.309c-0.085,0.251,0.038,0.519,0.273,0.599
									c3.899,1.328,4.992,4.562,5.221,7.041C160.874,304.384,161.07,304.56,161.3,304.552z"/>
							</g>
							<g>
								<path style="fill:#455A64;" d="M159.811,304.865c0.05-0.002,0.101-0.013,0.151-0.033c0.236-0.096,0.36-0.372,0.276-0.618
									c-0.697-2.054-3.102-3.979-4.826-4.422c-0.241-0.063-0.49,0.095-0.557,0.351c-0.067,0.255,0.073,0.513,0.314,0.575
									c1.506,0.387,3.629,2.114,4.216,3.844C159.451,304.756,159.625,304.872,159.811,304.865z"/>
							</g>
							<g>
								<path style="fill:#455A64;" d="M159.348,306.902c0.092-0.003,0.185-0.036,0.266-0.1c0.202-0.162,0.247-0.462,0.1-0.669
									c-1.273-1.803-4.234-3.639-7.756-3.438c-0.25,0.015-0.448,0.24-0.442,0.503c0.005,0.259,0.207,0.458,0.452,0.449
									c0.003,0,0.007,0,0.01,0c3.199-0.187,5.864,1.459,7.003,3.072C159.07,306.844,159.208,306.907,159.348,306.902z"/>
							</g>
						</g>
					</g>
					<path style="fill:#F5F5F5;" d="M170.812,292.571c-0.411-1.883-2.189-4.194-3.932-4.194c0,0,0.855,1.538,0.412,2.735
						c0,0-4.446-1.17-6.053,0.894c0,0,2.525,0.702,3.18,3.392C168.062,297.665,170.812,292.571,170.812,292.571z"/>
					<path style="fill:#F5F5F5;" d="M194.012,300.688c1.497-1.214,4.017-1.518,5.378-0.429c0,0-1.628,0.668-2.03,1.879
						c0,0,4.203,1.863,4.169,4.478c0,0-1.916-0.902-4.107,0.79C193.16,306.901,194.012,300.688,194.012,300.688z"/>
				</g>
			</g>
			<g>
				<path style="fill:#F0F0F0;" d="M249.236,335.849c-0.101,0.755-0.792,1.28-1.547,1.188c-0.764-0.101-1.289-0.801-1.188-1.556
					c0.516-3.931-0.939-6.886-4.004-8.101c-2.836-1.123-7.015-0.433-9.51,3.047c-1.703,2.375-1.556,5.128-1.39,8.313
					c0.221,3.986,0.46,8.516-3.176,12.916c-1.86,2.246-4.714,3.655-7.706,4.373l-3.82-2.2c3.498-0.23,7.365-1.464,9.399-3.931
					c2.946-3.572,2.753-7.19,2.55-11.01c-0.184-3.397-0.377-6.905,1.897-10.071c2.937-4.087,8.304-5.772,12.778-4.005
					C246.815,326.118,250.046,329.709,249.236,335.849z"/>
			</g>
		</g>
		<g>
			<path style="fill:#455A64;" d="M248.562,406.667c0.139-0.202,0.352-0.449,0.641-0.737c0.288-0.289,0.58-0.528,0.876-0.719
				c0.424-0.274,0.802-0.436,1.134-0.486c0.332-0.049,0.552,0.066,0.658,0.348c0.175,0.476,0.367,1.037,0.574,1.684
				c0.208,0.646,0.417,1.317,0.627,2.013c0.209,0.697,0.415,1.385,0.616,2.065c0.2,0.681,0.376,1.282,0.527,1.808
				c-0.095,0.219-0.244,0.441-0.443,0.668c-0.199,0.225-0.438,0.426-0.717,0.608c-0.203,0.131-0.376,0.219-0.517,0.266
				c-0.142,0.045-0.258,0.054-0.351,0.022c-0.093-0.031-0.169-0.1-0.23-0.208c-0.061-0.108-0.116-0.241-0.165-0.403l-0.274-0.994
				l-2.298,1.485c-0.054,0.374-0.109,0.76-0.163,1.156c-0.053,0.398-0.108,0.785-0.162,1.158c-0.117,0.132-0.24,0.261-0.369,0.384
				c-0.13,0.123-0.288,0.245-0.474,0.364c-0.431,0.28-0.756,0.39-0.97,0.331c-0.216-0.058-0.33-0.259-0.343-0.602
				c-0.005-0.155,0.005-0.32,0.032-0.496c0.028-0.176,0.058-0.383,0.093-0.619c0.049-0.337,0.116-0.76,0.204-1.269
				c0.088-0.51,0.187-1.063,0.293-1.658c0.107-0.596,0.221-1.209,0.344-1.843c0.122-0.634,0.237-1.234,0.345-1.794
				c0.109-0.563,0.208-1.065,0.298-1.509C248.439,407.244,248.51,406.903,248.562,406.667z M250.17,407.819
				c-0.1,0.539-0.214,1.142-0.339,1.807c-0.126,0.663-0.235,1.327-0.332,1.988l1.575-1.018c-0.143-0.519-0.285-1.024-0.43-1.513
				c-0.145-0.489-0.279-0.926-0.397-1.313L250.17,407.819z"/>
			<path style="fill:#455A64;" d="M258.201,410.695c-0.144,0.093-0.309,0.193-0.496,0.302c-0.187,0.11-0.38,0.212-0.581,0.307
				c-0.199,0.095-0.4,0.183-0.601,0.262c-0.202,0.078-0.389,0.129-0.562,0.149c-0.475,0.07-0.723-0.182-0.746-0.757l-0.305-7.732
				c-0.009-0.232,0.033-0.442,0.125-0.632c0.092-0.189,0.221-0.378,0.387-0.565c0.358-0.39,0.74-0.742,1.144-1.054
				c0.405-0.312,0.768-0.572,1.09-0.78c0.66-0.426,1.264-0.708,1.81-0.846c0.545-0.136,1.019-0.112,1.423,0.075
				c0.402,0.187,0.722,0.543,0.959,1.07c0.237,0.525,0.375,1.24,0.411,2.145c0.035,0.883-0.037,1.719-0.214,2.507
				c-0.177,0.788-0.445,1.528-0.805,2.217c-0.359,0.691-0.798,1.317-1.314,1.875C259.412,409.799,258.837,410.285,258.201,410.695z
				 M257.395,408.737c0.094-0.039,0.209-0.093,0.344-0.164c0.137-0.072,0.263-0.146,0.382-0.222
				c0.288-0.186,0.551-0.412,0.788-0.678c0.237-0.267,0.438-0.571,0.601-0.914c0.165-0.344,0.289-0.733,0.371-1.166
				c0.084-0.431,0.114-0.909,0.094-1.427c-0.039-0.994-0.246-1.625-0.622-1.899c-0.375-0.273-0.859-0.218-1.451,0.165
				c-0.119,0.076-0.24,0.16-0.363,0.25c-0.121,0.091-0.245,0.187-0.371,0.293L257.395,408.737z"/>
			<path style="fill:#455A64;" d="M269.792,398.81c0.027,0.684-0.03,1.346-0.169,1.985c-0.14,0.639-0.349,1.235-0.627,1.788
				c-0.277,0.553-0.616,1.055-1.015,1.504c-0.399,0.449-0.848,0.837-1.347,1.16c-0.5,0.322-0.957,0.516-1.371,0.579
				c-0.414,0.064-0.776,0.007-1.082-0.175c-0.307-0.182-0.551-0.485-0.733-0.911c-0.182-0.426-0.287-0.969-0.313-1.631
				c-0.025-0.652,0.032-1.295,0.173-1.928c0.139-0.634,0.349-1.23,0.626-1.788c0.277-0.557,0.616-1.068,1.014-1.53
				c0.398-0.46,0.848-0.852,1.348-1.176c0.499-0.322,0.956-0.512,1.37-0.57c0.414-0.059,0.776,0.002,1.082,0.183
				c0.307,0.182,0.551,0.485,0.733,0.91C269.664,397.637,269.767,398.169,269.792,398.81z M265.347,401.682
				c0.027,0.673,0.147,1.126,0.36,1.354c0.213,0.23,0.497,0.232,0.853,0.002c0.355-0.23,0.621-0.589,0.797-1.076
				c0.176-0.486,0.25-1.062,0.224-1.723c-0.026-0.663-0.143-1.11-0.352-1.343c-0.209-0.234-0.491-0.234-0.846-0.005
				c-0.356,0.23-0.625,0.587-0.806,1.072C265.398,400.446,265.321,401.018,265.347,401.682z"/>
			<path style="fill:#455A64;" d="M273.39,400.543c-0.091,0.093-0.236,0.221-0.433,0.383c-0.199,0.162-0.394,0.305-0.589,0.431
				c-0.195,0.126-0.368,0.218-0.517,0.275c-0.15,0.057-0.278,0.068-0.383,0.034c-0.105-0.032-0.187-0.121-0.245-0.264
				c-0.058-0.146-0.093-0.361-0.104-0.648l-0.307-7.797c-0.009-0.232,0.032-0.442,0.125-0.632c0.092-0.19,0.221-0.378,0.387-0.565
				c0.282-0.318,0.608-0.628,0.973-0.926c0.367-0.298,0.735-0.569,1.108-0.809c1.169-0.754,2.075-1.005,2.719-0.754
				c0.644,0.254,0.987,0.935,1.031,2.05c0.022,0.541-0.024,1.073-0.138,1.593c-0.115,0.521-0.295,1.021-0.541,1.503
				c-0.245,0.482-0.562,0.935-0.948,1.361c-0.387,0.424-0.84,0.804-1.356,1.138l-0.902,0.582L273.39,400.543z M273.842,394.802
				c0.356-0.23,0.624-0.514,0.806-0.852c0.182-0.339,0.265-0.728,0.247-1.17c-0.016-0.419-0.129-0.677-0.336-0.775
				c-0.209-0.097-0.503-0.023-0.884,0.222c-0.136,0.087-0.247,0.164-0.336,0.227c-0.088,0.063-0.179,0.135-0.271,0.218l0.102,2.566
				L273.842,394.802z"/>
			<path style="fill:#455A64;" d="M280.433,393.227c0.011,0.286,0.089,0.445,0.234,0.477c0.145,0.031,0.344-0.036,0.598-0.2
				c0.128-0.082,0.258-0.18,0.392-0.295c0.134-0.116,0.252-0.228,0.351-0.338c0.081,0.072,0.152,0.165,0.213,0.279
				c0.06,0.113,0.095,0.274,0.103,0.484c0.017,0.421-0.091,0.841-0.322,1.26c-0.231,0.422-0.651,0.828-1.26,1.222
				c-0.745,0.481-1.329,0.632-1.748,0.45c-0.42-0.182-0.649-0.77-0.689-1.764l-0.28-7.085c0.092-0.093,0.224-0.215,0.396-0.366
				c0.173-0.15,0.355-0.289,0.549-0.414c0.373-0.241,0.667-0.343,0.88-0.305c0.215,0.036,0.333,0.331,0.354,0.883l0.041,1.059
				l1.664-1.075c0.057,0.09,0.11,0.21,0.165,0.361c0.053,0.153,0.085,0.339,0.094,0.56c0.015,0.386-0.04,0.707-0.164,0.963
				c-0.125,0.255-0.297,0.455-0.517,0.597l-1.156,0.746L280.433,393.227z"/>
			<path style="fill:#455A64;" d="M291.393,386.452c-0.105,0.192-0.244,0.381-0.414,0.565c-0.171,0.185-0.37,0.35-0.6,0.498
				c-0.304,0.196-0.558,0.309-0.76,0.338c-0.203,0.03-0.339-0.058-0.408-0.263c-0.275-0.818-0.501-1.478-0.677-1.981
				c-0.176-0.503-0.315-0.953-0.418-1.351l-0.064,0.04c0.001,0.667,0.005,1.273,0.014,1.817c0.009,0.544,0.021,1.072,0.037,1.581
				c0.015,0.511,0.027,1.029,0.035,1.556c0.008,0.526,0.012,1.113,0.011,1.758c-0.108,0.127-0.25,0.266-0.426,0.42
				c-0.177,0.154-0.353,0.287-0.531,0.402c-0.372,0.241-0.666,0.351-0.878,0.33c-0.214-0.019-0.328-0.234-0.344-0.643l0.034-8.681
				c0.062-0.187,0.204-0.437,0.426-0.751c0.222-0.314,0.54-0.603,0.956-0.871c0.449-0.29,0.804-0.426,1.065-0.408
				c0.261,0.018,0.459,0.192,0.593,0.525c0.086,0.216,0.182,0.466,0.284,0.75c0.101,0.285,0.204,0.582,0.307,0.887
				c0.103,0.307,0.204,0.613,0.304,0.916c0.098,0.305,0.187,0.579,0.266,0.822l0.063-0.041c0.167-1.059,0.335-2.087,0.504-3.085
				c0.169-0.997,0.326-1.844,0.473-2.538c0.124-0.17,0.283-0.35,0.48-0.539c0.196-0.189,0.418-0.363,0.663-0.521
				c0.414-0.268,0.756-0.406,1.025-0.415c0.269-0.011,0.431,0.12,0.485,0.39c0.042,0.2,0.092,0.516,0.148,0.948
				c0.056,0.434,0.116,0.925,0.182,1.47c0.065,0.547,0.13,1.127,0.199,1.74c0.067,0.612,0.132,1.203,0.193,1.769
				c0.062,0.565,0.115,1.085,0.16,1.56c0.044,0.476,0.076,0.841,0.095,1.1c-0.14,0.204-0.288,0.381-0.441,0.532
				c-0.155,0.151-0.355,0.306-0.601,0.464c-0.322,0.208-0.595,0.311-0.822,0.31c-0.226-0.001-0.355-0.206-0.388-0.614
				c-0.099-1.171-0.173-2.231-0.223-3.184c-0.05-0.951-0.102-1.746-0.153-2.38l-0.063,0.04c-0.068,0.486-0.17,1.106-0.305,1.861
				C291.744,384.331,291.581,385.29,291.393,386.452z"/>
			<path style="fill:#455A64;" d="M299.35,384.115c-0.5,0.322-0.967,0.531-1.402,0.625c-0.434,0.093-0.818,0.062-1.15-0.097
				c-0.332-0.16-0.6-0.456-0.804-0.891c-0.204-0.433-0.32-1.021-0.35-1.76c-0.029-0.728,0.038-1.414,0.2-2.055
				c0.161-0.642,0.383-1.228,0.666-1.755c0.282-0.528,0.611-0.996,0.985-1.402c0.376-0.406,0.762-0.738,1.161-0.995
				c0.449-0.289,0.86-0.466,1.235-0.527c0.375-0.061,0.703-0.023,0.981,0.113c0.28,0.137,0.502,0.372,0.666,0.708
				c0.165,0.334,0.258,0.756,0.278,1.263c0.014,0.376-0.054,0.715-0.207,1.018c-0.154,0.302-0.373,0.574-0.659,0.815l-3.112,2.64
				c0.108,0.304,0.309,0.453,0.604,0.45c0.295-0.004,0.629-0.127,1.002-0.367c0.347-0.224,0.673-0.494,0.977-0.809
				c0.306-0.316,0.551-0.614,0.74-0.895c0.139,0.023,0.261,0.104,0.361,0.243c0.102,0.138,0.157,0.318,0.165,0.538
				c0.02,0.497-0.144,0.981-0.489,1.453c-0.264,0.363-0.565,0.688-0.9,0.972C299.961,383.685,299.646,383.923,299.35,384.115z
				 M298.737,377.838c-0.203,0.131-0.378,0.289-0.522,0.473c-0.145,0.183-0.261,0.375-0.349,0.574
				c-0.087,0.198-0.151,0.397-0.191,0.599c-0.039,0.201-0.06,0.393-0.061,0.574l2.153-1.865c-0.034-0.205-0.137-0.366-0.306-0.482
				C299.291,377.593,299.049,377.636,298.737,377.838z"/>
			<path style="fill:#455A64;" d="M305.075,373.438c-0.018-0.464,0.077-0.921,0.284-1.372c0.209-0.451,0.503-0.8,0.884-1.047
				c0.382-0.246,0.688-0.286,0.92-0.119c0.234,0.167,0.359,0.482,0.377,0.946c0.018,0.464-0.076,0.921-0.285,1.372
				c-0.208,0.451-0.502,0.8-0.884,1.046c-0.38,0.246-0.687,0.286-0.92,0.119C305.219,374.216,305.093,373.902,305.075,373.438z
				 M305.28,378.636c-0.018-0.463,0.077-0.921,0.284-1.372c0.209-0.451,0.503-0.8,0.884-1.046c0.382-0.246,0.689-0.286,0.92-0.12
				c0.234,0.167,0.359,0.482,0.377,0.946c0.018,0.464-0.076,0.921-0.285,1.372c-0.207,0.451-0.502,0.8-0.884,1.046
				c-0.38,0.246-0.686,0.286-0.92,0.119C305.423,379.415,305.299,379.1,305.28,378.636z"/>
			<path style="fill:#455A64;" d="M311.883,372.038c0.046,1.159,0.008,2.225-0.114,3.198c-0.123,0.973-0.294,1.837-0.516,2.592
				c-0.146,0.49-0.33,0.948-0.552,1.375c-0.222,0.426-0.506,0.752-0.854,0.976c-0.228,0.147-0.434,0.196-0.619,0.146
				c-0.185-0.05-0.326-0.14-0.428-0.268c0.188-0.529,0.351-1.056,0.491-1.582c0.141-0.526,0.254-1.06,0.342-1.604
				c0.086-0.543,0.147-1.102,0.181-1.678c0.033-0.577,0.038-1.186,0.013-1.826c-0.025-0.64-0.076-1.213-0.153-1.718
				c-0.076-0.505-0.176-0.96-0.3-1.368c-0.126-0.405-0.274-0.77-0.449-1.094c-0.173-0.324-0.369-0.619-0.588-0.884
				c0.086-0.248,0.214-0.513,0.386-0.793c0.172-0.28,0.371-0.494,0.6-0.642c0.348-0.225,0.643-0.273,0.886-0.147
				c0.244,0.126,0.454,0.327,0.63,0.61c0.269,0.438,0.498,1.042,0.69,1.813C311.719,369.914,311.837,370.879,311.883,372.038z"/>
		</g>
	</g>
</g>
<g id="Hearts">
	<path id="Heart_4_" style="fill:#27DEBF;" d="M81.721,113.892c-0.509-1.358-1.479-2.399-2.666-3.028l0.002-0.005l-0.025-0.014
		c-1.383-0.724-3.065-0.879-4.643-0.287c-2.71,1.011-3.836,4.819-3.194,7.565c-1.321-2.491-4.672-4.62-7.38-3.601
		c-1.579,0.592-2.743,1.815-3.31,3.269l-0.01,0.027l0.005,0.003c-0.48,1.254-0.527,2.677-0.018,4.034
		c1.578,4.208,6.352,5.07,10.657,6.605l4.532,1.603l2.361-4.188C80.268,121.888,83.299,118.1,81.721,113.892z"/>
	<path id="Heart_3_" style="fill:#27DEBF;" d="M315.314,145.123c-0.509-1.358-1.479-2.399-2.666-3.028l0.002-0.005l-0.025-0.014
		c-1.383-0.724-3.065-0.879-4.643-0.287c-2.71,1.011-3.836,4.819-3.194,7.565c-1.321-2.491-4.672-4.62-7.38-3.601
		c-1.579,0.592-2.743,1.815-3.31,3.269l-0.01,0.027l0.005,0.003c-0.48,1.254-0.527,2.677-0.018,4.034
		c1.578,4.208,6.352,5.07,10.657,6.605l4.532,1.603l2.361-4.188C313.86,153.119,316.891,149.332,315.314,145.123z"/>
	<path id="Heart_2_" style="fill:#27DEBF;" d="M204.176,119.673c0.618-1.292,0.694-2.695,0.329-3.97l0.005-0.002l-0.008-0.027
		c-0.432-1.479-1.473-2.782-2.975-3.5c-2.575-1.236-6.056,0.57-7.57,2.907c0.868-2.645,0.088-6.488-2.491-7.716
		c-1.502-0.718-3.17-0.71-4.592-0.117l-0.026,0.011l0.001,0.006c-1.221,0.517-2.266,1.458-2.883,2.75
		c-1.914,4.004,0.742,7.991,2.597,12.105l1.962,4.323l4.596-1.187C197.491,124.114,202.261,123.677,204.176,119.673z"/>
	<path id="Heart_1_" style="fill:#27DEBF;" d="M440.602,122.454c0.618-1.292,0.694-2.695,0.329-3.97l0.005-0.002l-0.008-0.027
		c-0.432-1.479-1.473-2.782-2.975-3.5c-2.576-1.236-6.056,0.57-7.57,2.907c0.868-2.645,0.088-6.488-2.491-7.716
		c-1.502-0.718-3.17-0.71-4.592-0.117l-0.026,0.011l0.001,0.006c-1.221,0.517-2.266,1.458-2.883,2.75
		c-1.914,4.004,0.742,7.991,2.597,12.105l1.962,4.323l4.596-1.187C433.917,126.895,438.688,126.458,440.602,122.454z"/>
</g>
</svg>
