<?xml version="1.0" encoding="utf-8"?>
<!-- Generator: Adobe Illustrator 27.5.0, SVG Export Plug-In . SVG Version: 6.00 Build 0)  -->
<svg version="1.1" xmlns="http://www.w3.org/2000/svg" xmlns:xlink="http://www.w3.org/1999/xlink" x="0px" y="0px"
	 viewBox="0 0 500 500" style="enable-background:new 0 0 500 500;" xml:space="preserve">
<g id="Floor">
	<g id="Floor_00000093146958423773593910000004879784253911727009_">
		<path id="Floor_00000013876646643919197920000017874447876317227658_" style="fill:#F5F5F5;" d="M167.133,218.602
			c-0.937,0.215-1.874,0.42-2.801,0.644c-27.969,6.47-54.182,16.239-76.832,29.316c-89.655,51.771-89.655,135.698,0.01,187.459
			c89.665,51.771,235.034,51.771,324.699,0c22.631-13.067,39.553-28.184,50.747-44.315c0.38-0.537,0.751-1.083,1.112-1.63
			L167.133,218.602z"/>
		<path style="fill:#E0E0E0;" d="M466.661,393.688c-0.166,0-0.334-0.042-0.487-0.131L154.696,213.692
			c-0.467-0.27-0.627-0.866-0.357-1.333c0.27-0.468,0.867-0.627,1.333-0.357L467.15,391.867c0.467,0.27,0.627,0.866,0.357,1.333
			C467.326,393.513,466.998,393.688,466.661,393.688z"/>
	</g>
</g>
<g id="Wall_00000059290117652859338630000006439475313734642326_">
	<g id="Wall">
		<g>
			<g>
				<g id="Tile_00000149377186435787269280000010935638954292592056_">
					<polygon style="fill:#BA68C8;" points="337.502,321.526 338.101,321.18 338.101,257.391 282.857,225.496 282.258,225.842 
						337.502,257.737 					"/>
					<path style="fill:#C8856A;" d="M338.101,321.18L338.101,321.18c0.817-0.471,1.32-1.343,1.32-2.286V258.04
						c0-0.873-0.466-1.68-1.222-2.117l-52.702-30.427c-0.817-0.471-1.823-0.471-2.639,0l0,0l55.244,31.895V321.18z"/>
					<path style="fill:#AF6152;" d="M338.101,257.391L338.101,257.391l0,63.789c0.817-0.471,1.32-1.343,1.32-2.286l0-60.854
						c0-0.437-0.116-0.857-0.327-1.222L338.101,257.391z"/>
					<g>
						<polygon style="fill:#BA68C8;" points="282.258,225.842 337.502,257.737 337.502,321.526 282.258,289.631 						"/>
						<polygon style="opacity:0.75;fill:#FFFFFF;" points="282.258,225.842 337.502,257.737 337.502,321.526 282.258,289.631 						
							"/>
					</g>
				</g>
				<g id="Tile_00000060003962183894980650000013354593057413930921_">
					<polygon style="fill:#BA68C8;" points="337.502,255.519 338.101,255.173 338.101,191.384 282.857,159.489 282.258,159.835 
						337.502,191.73 					"/>
					<path style="fill:#C8856A;" d="M338.101,255.173L338.101,255.173c0.817-0.471,1.32-1.343,1.32-2.286v-60.854
						c0-0.873-0.466-1.68-1.222-2.117l-52.702-30.427c-0.817-0.471-1.823-0.471-2.639,0l0,0l55.244,31.895V255.173z"/>
					<path style="fill:#AF6152;" d="M338.101,191.384L338.101,191.384l0,63.79c0.817-0.471,1.32-1.343,1.32-2.286l0-60.854
						c0-0.437-0.116-0.857-0.327-1.222L338.101,191.384z"/>
					<g>
						<polygon style="fill:#BA68C8;" points="282.258,159.835 337.502,191.73 337.502,255.519 282.258,223.624 						"/>
						<polygon style="opacity:0.75;fill:#FFFFFF;" points="282.258,159.835 337.502,191.73 337.502,255.519 282.258,223.624 						
							"/>
						<path style="fill:#E0E0E0;" d="M287.676,96.961l51.744,29.875v63.79l-55.244-31.895V98.982
							C284.177,97.186,286.121,96.063,287.676,96.961z"/>
					</g>
				</g>
				<polygon style="fill:#455A64;" points="339.421,190.621 284.177,158.73 282.857,159.489 338.101,191.384 338.101,255.173 
					337.502,255.519 282.857,223.97 282.857,225.496 338.101,257.391 338.101,321.18 339.421,320.365 				"/>
			</g>
			<g>
				<g id="Tile_00000105397916663613118880000008147826923228676783_">
					<polygon style="fill:#BA68C8;" points="394.664,354.53 395.263,354.184 395.263,290.395 340.02,258.5 339.421,258.846 
						394.664,290.741 					"/>
					<path style="fill:#C8856A;" d="M395.263,354.184L395.263,354.184c0.817-0.471,1.32-1.343,1.32-2.286v-60.854
						c0-0.873-0.466-1.68-1.222-2.117L342.659,258.5c-0.817-0.471-1.823-0.471-2.639,0l0,0l55.244,31.895V354.184z"/>
					<path style="fill:#AF6152;" d="M395.263,290.395L395.263,290.395l0,63.789c0.817-0.471,1.32-1.343,1.32-2.286v-60.854
						c0-0.437-0.116-0.857-0.327-1.222L395.263,290.395z"/>
					<g>
						<polygon style="fill:#BA68C8;" points="339.421,258.846 394.664,290.741 394.664,354.53 339.421,322.635 						"/>
						<polygon style="opacity:0.75;fill:#FFFFFF;" points="339.421,258.846 394.664,290.741 394.664,354.53 339.421,322.635 						
							"/>
					</g>
				</g>
				<g id="Tile_00000117661086139672331140000009653666344323519367_">
					<polygon style="fill:#BA68C8;" points="394.664,288.523 395.263,288.177 395.263,224.388 340.02,192.493 339.421,192.839 
						394.664,224.734 					"/>
					<path style="fill:#C8856A;" d="M395.263,288.177L395.263,288.177c0.817-0.471,1.32-1.343,1.32-2.286v-60.855
						c0-0.873-0.466-1.68-1.222-2.117l-52.702-30.428c-0.817-0.471-1.823-0.471-2.639,0l0,0l55.244,31.895V288.177z"/>
					<path style="fill:#AF6152;" d="M395.263,224.387L395.263,224.387l0,63.79c0.817-0.471,1.32-1.343,1.32-2.286v-60.855
						c0-0.437-0.116-0.857-0.327-1.222L395.263,224.387z"/>
					<g>
						<polygon style="fill:#BA68C8;" points="339.421,192.839 394.664,224.734 394.664,288.523 339.421,256.628 						"/>
						<polygon style="opacity:0.75;fill:#FFFFFF;" points="339.421,192.839 394.664,224.734 394.664,288.523 339.421,256.628 						
							"/>
					</g>
				</g>
				<g id="Tile_00000057105671649693121660000014617720696744957318_">
					<polygon style="fill:#BA68C8;" points="394.664,222.516 395.263,222.17 395.263,158.38 340.02,126.486 339.421,126.831 
						394.664,158.726 					"/>
					<path style="fill:#C8856A;" d="M395.263,222.17L395.263,222.17c0.817-0.471,1.32-1.343,1.32-2.286V159.03
						c0-0.873-0.466-1.68-1.222-2.117l-52.702-30.427c-0.817-0.472-1.823-0.472-2.639,0l0,0l55.244,31.895V222.17z"/>
					<path style="fill:#AF6152;" d="M395.263,158.38L395.263,158.38l0,63.79c0.817-0.471,1.32-1.343,1.32-2.286V159.03
						c0-0.437-0.116-0.857-0.327-1.222L395.263,158.38z"/>
					<g>
						<polygon style="fill:#BA68C8;" points="339.421,126.831 394.664,158.726 394.664,222.516 339.421,190.621 						"/>
						<polygon style="opacity:0.75;fill:#FFFFFF;" points="339.421,126.831 394.664,158.726 394.664,222.516 339.421,190.621 						
							"/>
					</g>
				</g>
				<g id="Tile_00000152239611325529469630000006945189174190413466_">
					<polygon style="fill:#BA68C8;" points="394.664,156.509 395.263,156.163 395.263,92.373 340.02,60.479 339.421,60.825 
						394.664,92.719 					"/>
					<path style="fill:#C8856A;" d="M395.263,156.163L395.263,156.163c0.817-0.471,1.32-1.343,1.32-2.286V93.023
						c0-0.873-0.466-1.68-1.222-2.117l-52.702-30.427c-0.817-0.472-1.823-0.472-2.639,0l0,0l55.244,31.895V156.163z"/>
					<path style="fill:#AF6152;" d="M395.263,92.373L395.263,92.373l0,63.79c0.817-0.471,1.32-1.343,1.32-2.286V93.022
						c0-0.437-0.116-0.857-0.327-1.222L395.263,92.373z"/>
					<g>
						<polygon style="fill:#BA68C8;" points="339.421,60.825 394.664,92.719 394.664,156.509 339.421,124.614 						"/>
						<polygon style="opacity:0.75;fill:#FFFFFF;" points="339.421,60.825 394.664,92.719 394.664,156.509 339.421,124.614 						
							"/>
					</g>
				</g>
				<polygon style="fill:#455A64;" points="340.02,58.954 340.02,60.48 395.263,92.375 395.263,92.375 395.263,156.165 
					394.664,156.511 340.02,124.962 340.02,126.488 395.263,158.383 395.263,222.17 394.664,222.516 339.421,190.626 
					339.421,192.839 340.02,192.492 395.263,224.387 395.263,288.177 394.664,288.523 339.421,256.628 339.421,258.846 
					340.02,258.5 395.263,290.395 395.263,354.184 396.583,353.369 396.583,91.611 				"/>
			</g>
			<g>
				<g id="Tile_00000053524051148566040370000011095506022008026555_">
					<polygon style="fill:#BA68C8;" points="451.827,387.532 452.426,387.186 452.426,323.397 397.182,291.502 396.583,291.848 
						451.827,323.743 					"/>
					<path style="fill:#C8856A;" d="M452.426,387.186L452.426,387.186c0.817-0.472,1.32-1.343,1.32-2.286v-60.854
						c0-0.873-0.466-1.68-1.222-2.117l-52.702-30.427c-0.817-0.471-1.823-0.471-2.64,0l0,0l55.244,31.895V387.186z"/>
					<path style="fill:#AF6152;" d="M452.426,323.397L452.426,323.397l0,63.79c0.817-0.471,1.32-1.343,1.32-2.286v-60.854
						c0-0.437-0.116-0.857-0.327-1.222L452.426,323.397z"/>
					<g>
						<polygon style="fill:#BA68C8;" points="396.583,291.848 451.827,323.743 451.827,387.532 396.583,355.637 						"/>
						<polygon style="opacity:0.75;fill:#FFFFFF;" points="396.583,291.848 451.827,323.743 451.827,387.532 396.583,355.637 						
							"/>
					</g>
				</g>
				<g id="Tile_00000060006110880020510730000009571359074948887952_">
					<polygon style="fill:#BA68C8;" points="451.827,321.525 452.426,321.179 452.426,257.39 397.182,225.495 396.583,225.841 
						451.827,257.736 					"/>
					<path style="fill:#C8856A;" d="M452.426,321.179L452.426,321.179c0.817-0.471,1.32-1.343,1.32-2.286v-60.854
						c0-0.873-0.466-1.68-1.222-2.117l-52.702-30.427c-0.817-0.472-1.823-0.472-2.64,0l0,0l55.244,31.895V321.179z"/>
					<path style="fill:#AF6152;" d="M452.426,257.39L452.426,257.39l0,63.79c0.817-0.471,1.32-1.343,1.32-2.286v-60.854
						c0-0.437-0.116-0.857-0.327-1.222L452.426,257.39z"/>
					<g>
						<polygon style="fill:#BA68C8;" points="396.583,225.841 451.827,257.736 451.827,321.525 396.583,289.63 						"/>
						<polygon style="opacity:0.75;fill:#FFFFFF;" points="396.583,225.841 451.827,257.736 451.827,321.525 396.583,289.63 						
							"/>
					</g>
				</g>
				<g id="Tile_00000096762134683120103010000017592838044183013276_">
					<polygon style="fill:#BA68C8;" points="451.827,255.518 452.426,255.172 452.426,191.383 397.182,159.488 396.583,159.834 
						451.827,191.729 					"/>
					<path style="fill:#C8856A;" d="M452.426,255.172L452.426,255.172c0.817-0.471,1.32-1.343,1.32-2.286v-60.855
						c0-0.873-0.466-1.68-1.222-2.116l-52.702-30.428c-0.817-0.471-1.823-0.471-2.64,0l0,0l55.244,31.895V255.172z"/>
					<path style="fill:#AF6152;" d="M452.426,191.383L452.426,191.383l0,63.79c0.817-0.471,1.32-1.343,1.32-2.286v-60.855
						c0-0.437-0.116-0.857-0.327-1.222L452.426,191.383z"/>
					<g>
						<polygon style="fill:#BA68C8;" points="396.583,159.834 451.827,191.729 451.827,255.518 396.583,223.623 						"/>
						<polygon style="opacity:0.75;fill:#FFFFFF;" points="396.583,159.834 451.827,191.729 451.827,255.518 396.583,223.623 						
							"/>
					</g>
				</g>
				<g id="Tile_00000019646262358717017720000010755703671055242374_">
					<polygon style="fill:#BA68C8;" points="451.827,189.511 452.426,189.165 452.426,125.376 397.182,93.481 396.583,93.827 
						451.827,125.721 					"/>
					<path style="fill:#C8856A;" d="M452.426,189.165L452.426,189.165c0.817-0.472,1.32-1.343,1.32-2.286v-60.854
						c0-0.873-0.466-1.68-1.222-2.117l-52.702-30.427c-0.817-0.471-1.823-0.471-2.64,0l0,0l55.244,31.895V189.165z"/>
					<path style="fill:#AF6152;" d="M452.426,125.376L452.426,125.376l0,63.79c0.817-0.471,1.32-1.343,1.32-2.286v-60.854
						c0-0.437-0.116-0.857-0.327-1.222L452.426,125.376z"/>
					<g>
						<polygon style="fill:#BA68C8;" points="396.583,93.827 451.827,125.721 451.827,189.511 396.583,157.616 						"/>
						<polygon style="opacity:0.75;fill:#FFFFFF;" points="396.583,93.827 451.827,125.721 451.827,189.511 396.583,157.616 						
							"/>
					</g>
				</g>
				<polygon style="fill:#455A64;" points="396.583,91.611 396.583,93.827 397.182,93.482 452.426,125.377 452.426,125.377 
					452.426,189.167 451.827,189.513 396.583,157.616 396.583,159.834 397.182,159.49 452.426,191.385 452.426,255.172 
					451.827,255.518 396.583,223.623 396.583,225.841 397.182,225.495 452.426,257.389 452.426,321.179 451.827,321.525 
					396.583,289.63 396.583,291.848 397.182,291.502 452.426,323.397 452.426,387.186 453.746,386.371 453.746,124.613 				"/>
			</g>
			<g>
				<path style="opacity:0.15;" d="M336.088,136.314c-0.579-0.133-1.041-0.73-1.19-1.283c-0.083-0.308-0.083-0.632-0.083-0.952
					c0-1.676,0.326-3.391-0.63-4.878c-0.632-0.983-1.764-1.688-2.93-1.61c-2.129,0.143-5.201,4.554-7.17,2.065
					c-0.548-0.693-0.599-1.889-0.679-2.739c-0.101-1.069-0.09-2.172-0.469-3.166c-0.688-1.804-2.079-3.082-4.088-3.051
					c-1.483,0.023-2.555,0.84-3.728,1.627c-0.705,0.473-1.866,1.044-2.749,0.742c-0.771-0.264-1.161-1.484-1.311-2.203
					c-0.24-1.151-0.133-2.323-0.475-3.46c-0.343-1.138-0.961-2.196-1.8-3.04c-1.238-1.244-3.626-0.951-4.958,0.004
					c-0.818,0.586-1.479,1.78-2.467,2.074c-0.649,0.193-1.325-0.206-1.769-0.65c-0.605-0.604-0.844-1.434-0.954-2.261
					c-0.214-1.612,0.013-3.25-0.624-4.789c-0.564-1.363-1.819-2.319-3.332-2.241c-1.41,0.073-2.302,1.067-3.16,2.065
					c-0.832,0.968-2.066,2.096-3.28,0.949c-0.511-0.483-0.836-1.175-0.815-1.882c0.011-0.381-0.706-0.674-0.748-0.23
					c-0.128,1.361,0.627,2.73,1.93,3.224c1.295,0.491,2.458-0.215,3.318-1.149c0.889-0.966,1.826-2.431,3.353-2.137
					c1.698,0.327,2.081,2.401,2.154,3.84c0.086,1.672-0.039,3.563,1.093,4.938c0.62,0.754,1.578,1.318,2.577,1.288
					c1.214-0.037,1.793-0.852,2.579-1.643c0.88-0.885,2.321-1.649,3.594-1.224c0.249,0.083,0.467,0.238,0.667,0.407
					c1.268,1.067,1.67,2.522,1.892,4.093c0.229,1.624,0.153,3.164,1.4,4.435c1.209,1.233,2.548,0.997,3.932,0.169
					c0.56-0.335,1.071-0.751,1.642-1.067c1.274-0.703,2.973-0.849,4.131,0.164c1.078,0.942,1.312,2.407,1.39,3.763
					c0.079,1.365,0.135,2.856,1.034,3.886c0.32,0.367,0.73,0.648,1.173,0.849c0.446,0.203,0.936,0.327,1.424,0.295
					c2.142-0.141,3.038-2.587,5.068-2.831c0.312-0.038,0.63,0.016,0.927,0.12c1.76,0.618,1.923,2.37,1.907,3.969
					c-0.011,1.097-0.03,2.331,0.537,3.312c0.273,0.473,0.731,0.943,1.261,1.122c0.37,0.125,1.413,0.162,1.716-0.09
					c0.219-0.182,0.132-0.566-0.099-0.733c-0.384-0.279-0.681-0.031-1.066-0.071C336.17,136.331,336.129,136.324,336.088,136.314z"
					/>
				<path style="opacity:0.15;" d="M336.088,147.92c-0.579-0.133-1.041-0.73-1.19-1.283c-0.083-0.308-0.083-0.632-0.083-0.952
					c0-1.676,0.326-3.391-0.63-4.878c-0.632-0.983-1.764-1.688-2.93-1.61c-2.129,0.143-5.201,4.554-7.17,2.065
					c-0.548-0.693-0.599-1.889-0.679-2.739c-0.101-1.069-0.09-2.172-0.469-3.166c-0.688-1.804-2.079-3.082-4.088-3.051
					c-1.483,0.023-2.555,0.84-3.728,1.627c-0.705,0.473-1.866,1.044-2.749,0.742c-0.771-0.264-1.161-1.484-1.311-2.203
					c-0.24-1.151-0.133-2.323-0.475-3.46c-0.343-1.138-0.961-2.196-1.8-3.04c-1.238-1.244-3.626-0.951-4.958,0.004
					c-0.818,0.586-1.479,1.78-2.467,2.074c-0.649,0.193-1.325-0.206-1.769-0.65c-0.605-0.604-0.844-1.434-0.954-2.261
					c-0.214-1.612,0.013-3.25-0.624-4.789c-0.564-1.363-1.819-2.319-3.332-2.241c-1.41,0.073-2.302,1.066-3.16,2.065
					c-0.832,0.968-2.066,2.096-3.28,0.949c-0.511-0.483-0.836-1.175-0.815-1.882c0.011-0.381-0.706-0.674-0.748-0.23
					c-0.128,1.361,0.627,2.73,1.93,3.224c1.295,0.491,2.458-0.215,3.318-1.149c0.889-0.966,1.826-2.431,3.353-2.137
					c1.698,0.327,2.081,2.401,2.154,3.84c0.086,1.672-0.039,3.563,1.093,4.938c0.62,0.754,1.578,1.318,2.577,1.288
					c1.214-0.037,1.793-0.853,2.579-1.643c0.88-0.885,2.321-1.649,3.594-1.224c0.249,0.083,0.467,0.238,0.667,0.407
					c1.268,1.067,1.67,2.522,1.892,4.093c0.229,1.624,0.153,3.165,1.4,4.435c1.209,1.233,2.548,0.997,3.932,0.169
					c0.56-0.335,1.071-0.751,1.642-1.067c1.274-0.703,2.973-0.848,4.131,0.164c1.078,0.942,1.312,2.407,1.39,3.763
					c0.079,1.365,0.135,2.856,1.034,3.885c0.32,0.367,0.73,0.648,1.173,0.849c0.446,0.203,0.936,0.327,1.424,0.295
					c2.142-0.141,3.038-2.587,5.068-2.831c0.312-0.037,0.63,0.016,0.927,0.12c1.76,0.618,1.923,2.37,1.907,3.969
					c-0.011,1.097-0.03,2.331,0.537,3.312c0.273,0.472,0.731,0.943,1.261,1.122c0.37,0.125,1.413,0.162,1.716-0.09
					c0.219-0.182,0.132-0.566-0.099-0.733c-0.384-0.279-0.681-0.031-1.066-0.071C336.17,147.937,336.129,147.93,336.088,147.92z"/>
				<path style="opacity:0.15;" d="M336.088,159.527c-0.579-0.133-1.041-0.73-1.19-1.283c-0.083-0.309-0.083-0.632-0.083-0.952
					c0-1.676,0.326-3.391-0.63-4.878c-0.632-0.983-1.764-1.688-2.93-1.61c-2.129,0.143-5.201,4.554-7.17,2.064
					c-0.548-0.693-0.599-1.889-0.679-2.739c-0.101-1.069-0.09-2.172-0.469-3.166c-0.688-1.804-2.079-3.082-4.088-3.051
					c-1.483,0.023-2.555,0.84-3.728,1.627c-0.705,0.473-1.866,1.044-2.749,0.742c-0.771-0.264-1.161-1.484-1.311-2.203
					c-0.24-1.151-0.133-2.323-0.475-3.46c-0.343-1.138-0.961-2.196-1.8-3.04c-1.238-1.245-3.626-0.951-4.958,0.004
					c-0.818,0.586-1.479,1.78-2.467,2.074c-0.649,0.193-1.325-0.206-1.769-0.65c-0.605-0.604-0.844-1.434-0.954-2.261
					c-0.214-1.612,0.013-3.25-0.624-4.789c-0.564-1.363-1.819-2.319-3.332-2.241c-1.41,0.073-2.302,1.066-3.16,2.065
					c-0.832,0.968-2.066,2.096-3.28,0.949c-0.511-0.483-0.836-1.175-0.815-1.882c0.011-0.381-0.706-0.674-0.748-0.23
					c-0.128,1.361,0.627,2.73,1.93,3.224c1.295,0.491,2.458-0.215,3.318-1.149c0.889-0.966,1.826-2.431,3.353-2.137
					c1.698,0.327,2.081,2.401,2.154,3.84c0.086,1.672-0.039,3.563,1.093,4.938c0.62,0.754,1.578,1.318,2.577,1.288
					c1.214-0.037,1.793-0.853,2.579-1.643c0.88-0.885,2.321-1.649,3.594-1.224c0.249,0.083,0.467,0.238,0.667,0.407
					c1.268,1.067,1.67,2.522,1.892,4.093c0.229,1.624,0.153,3.164,1.4,4.435c1.209,1.233,2.548,0.997,3.932,0.168
					c0.56-0.335,1.071-0.751,1.642-1.067c1.274-0.703,2.973-0.849,4.131,0.164c1.078,0.942,1.312,2.407,1.39,3.763
					c0.079,1.365,0.135,2.856,1.034,3.885c0.32,0.367,0.73,0.648,1.173,0.85c0.446,0.203,0.936,0.327,1.424,0.295
					c2.142-0.141,3.038-2.587,5.068-2.831c0.312-0.037,0.63,0.016,0.927,0.12c1.76,0.618,1.923,2.37,1.907,3.969
					c-0.011,1.097-0.03,2.331,0.537,3.311c0.273,0.473,0.731,0.943,1.261,1.122c0.37,0.125,1.413,0.162,1.716-0.09
					c0.219-0.182,0.132-0.566-0.099-0.733c-0.384-0.279-0.681-0.031-1.066-0.071C336.17,159.543,336.129,159.536,336.088,159.527z"
					/>
				<path style="opacity:0.15;" d="M336.088,171.133c-0.579-0.133-1.041-0.73-1.19-1.283c-0.083-0.309-0.083-0.632-0.083-0.952
					c0-1.676,0.326-3.391-0.63-4.878c-0.632-0.983-1.764-1.688-2.93-1.61c-2.129,0.143-5.201,4.554-7.17,2.065
					c-0.548-0.693-0.599-1.889-0.679-2.739c-0.101-1.069-0.09-2.172-0.469-3.166c-0.688-1.804-2.079-3.082-4.088-3.051
					c-1.483,0.023-2.555,0.84-3.728,1.627c-0.705,0.473-1.866,1.044-2.749,0.742c-0.771-0.264-1.161-1.484-1.311-2.203
					c-0.24-1.151-0.133-2.323-0.475-3.46c-0.343-1.138-0.961-2.196-1.8-3.04c-1.238-1.245-3.626-0.951-4.958,0.004
					c-0.818,0.586-1.479,1.78-2.467,2.074c-0.649,0.193-1.325-0.206-1.769-0.65c-0.605-0.604-0.844-1.434-0.954-2.261
					c-0.214-1.612,0.013-3.25-0.624-4.789c-0.564-1.363-1.819-2.319-3.332-2.241c-1.41,0.073-2.302,1.066-3.16,2.065
					c-0.832,0.968-2.066,2.096-3.28,0.949c-0.511-0.483-0.836-1.175-0.815-1.882c0.011-0.381-0.706-0.674-0.748-0.23
					c-0.128,1.361,0.627,2.73,1.93,3.224c1.295,0.491,2.458-0.215,3.318-1.149c0.889-0.966,1.826-2.431,3.353-2.137
					c1.698,0.327,2.081,2.401,2.154,3.84c0.086,1.672-0.039,3.563,1.093,4.938c0.62,0.754,1.578,1.318,2.577,1.288
					c1.214-0.037,1.793-0.852,2.579-1.643c0.88-0.885,2.321-1.649,3.594-1.225c0.249,0.083,0.467,0.238,0.667,0.407
					c1.268,1.067,1.67,2.522,1.892,4.093c0.229,1.624,0.153,3.165,1.4,4.435c1.209,1.233,2.548,0.997,3.932,0.169
					c0.56-0.336,1.071-0.751,1.642-1.067c1.274-0.703,2.973-0.848,4.131,0.164c1.078,0.942,1.312,2.407,1.39,3.763
					c0.079,1.365,0.135,2.856,1.034,3.885c0.32,0.367,0.73,0.648,1.173,0.849c0.446,0.203,0.936,0.327,1.424,0.295
					c2.142-0.141,3.038-2.587,5.068-2.831c0.312-0.038,0.63,0.016,0.927,0.12c1.76,0.618,1.923,2.37,1.907,3.969
					c-0.011,1.097-0.03,2.331,0.537,3.312c0.273,0.473,0.731,0.943,1.261,1.122c0.37,0.125,1.413,0.162,1.716-0.09
					c0.219-0.182,0.132-0.566-0.099-0.733c-0.384-0.279-0.681-0.031-1.066-0.071C336.17,171.149,336.129,171.142,336.088,171.133z"
					/>
				<path style="opacity:0.15;" d="M336.088,182.739c-0.579-0.133-1.041-0.73-1.19-1.283c-0.083-0.308-0.083-0.632-0.083-0.952
					c0-1.676,0.326-3.391-0.63-4.878c-0.632-0.983-1.764-1.688-2.93-1.61c-2.129,0.143-5.201,4.554-7.17,2.065
					c-0.548-0.693-0.599-1.889-0.679-2.739c-0.101-1.069-0.09-2.172-0.469-3.166c-0.688-1.804-2.079-3.082-4.088-3.051
					c-1.483,0.023-2.555,0.84-3.728,1.627c-0.705,0.473-1.866,1.044-2.749,0.742c-0.771-0.264-1.161-1.484-1.311-2.203
					c-0.24-1.151-0.133-2.323-0.475-3.46c-0.343-1.138-0.961-2.196-1.8-3.04c-1.238-1.245-3.626-0.951-4.958,0.004
					c-0.818,0.586-1.479,1.78-2.467,2.074c-0.649,0.193-1.325-0.206-1.769-0.65c-0.605-0.604-0.844-1.434-0.954-2.261
					c-0.214-1.612,0.013-3.25-0.624-4.789c-0.564-1.363-1.819-2.319-3.332-2.241c-1.41,0.073-2.302,1.066-3.16,2.065
					c-0.832,0.968-2.066,2.096-3.28,0.949c-0.511-0.483-0.836-1.175-0.815-1.882c0.011-0.381-0.706-0.674-0.748-0.23
					c-0.128,1.361,0.627,2.73,1.93,3.224c1.295,0.491,2.458-0.215,3.318-1.149c0.889-0.966,1.826-2.431,3.353-2.137
					c1.698,0.327,2.081,2.401,2.154,3.84c0.086,1.672-0.039,3.563,1.093,4.938c0.62,0.754,1.578,1.318,2.577,1.288
					c1.214-0.037,1.793-0.853,2.579-1.643c0.88-0.885,2.321-1.649,3.594-1.225c0.249,0.083,0.467,0.238,0.667,0.407
					c1.268,1.067,1.67,2.522,1.892,4.093c0.229,1.624,0.153,3.164,1.4,4.435c1.209,1.233,2.548,0.997,3.932,0.169
					c0.56-0.335,1.071-0.751,1.642-1.067c1.274-0.703,2.973-0.849,4.131,0.164c1.078,0.942,1.312,2.407,1.39,3.763
					c0.079,1.365,0.135,2.856,1.034,3.885c0.32,0.367,0.73,0.648,1.173,0.849c0.446,0.203,0.936,0.327,1.424,0.295
					c2.142-0.141,3.038-2.587,5.068-2.831c0.312-0.038,0.63,0.016,0.927,0.12c1.76,0.618,1.923,2.37,1.907,3.969
					c-0.011,1.097-0.03,2.331,0.537,3.312c0.273,0.473,0.731,0.943,1.261,1.122c0.37,0.125,1.413,0.162,1.716-0.09
					c0.219-0.182,0.132-0.566-0.099-0.733c-0.384-0.279-0.681-0.031-1.066-0.071C336.17,182.755,336.129,182.748,336.088,182.739z"
					/>
			</g>
			<path style="opacity:0.4;fill:#FFFFFF;" d="M337.502,255.519v-10.004l-8.486,5.104L337.502,255.519z M337.502,321.526
				L337.502,321.526l-1.763-1.018h0L337.502,321.526z M328.523,316.342l-20.901-12.067L328.523,316.342L328.523,316.342z
				 M339.421,244.361L339.421,244.361v12.267l24.213,13.979l31.031-18.652v-27.222l-11.537-6.661L339.421,244.361z M322.264,246.721
				l15.238-9.165V226.12l-24.936,15.003L322.264,246.721z M391.751,286.841l2.913-1.751v0v-8.503l-10.129,6.088L391.751,286.841z
				 M382.653,283.806l-43.233,25.986l0,0v8.503l50.449-30.323L382.653,283.806z M367.043,272.575l-3.409-1.968l0,0L367.043,272.575z
				 M367.043,338.582l11.055,6.383l16.567-9.958v0v-41.962l-52.175,31.361L367.043,338.582z M282.258,278.743v10.889l25.363,14.643
				l29.88-17.96v-28.578l-10.368-5.986L282.258,278.743z M414.454,104.144l-17.871,10.742v37.293l49.492-29.778L414.454,104.144z
				 M396.583,225.841v24.962l21.182-12.732L396.583,225.841z M438.667,250.138l-42.083,25.295v8.503l49.299-29.633L438.667,250.138z
				 M396.583,93.827l17.871,10.318L396.583,93.827L396.583,93.827z M302.428,171.48l-20.17,12.124v37.362l51.848-31.196
				L302.428,171.48z M337.502,319.449v-8.503l-8.979,5.397l7.216,4.166L337.502,319.449z M310.685,242.254l-28.427,17.104v11.425
				l38.124-22.93L310.685,242.254z M367.043,76.772l-27.622-15.947v39.552l33.553-20.181L367.043,76.772z M339.421,258.846v26.315
				l22.331-13.423L339.421,258.846z M358.44,137.813l-19.02,11.432l0,0v37.327l50.669-30.487l-23.047-13.307L358.44,137.813z
				 M447.765,253.173l4.062-2.442v-8.503l-11.278,6.779L447.765,253.173z M396.583,209.98v13.643l23.064,13.316l32.18-19.342
				v-25.868l-12.704-7.335L396.583,209.98z M434.111,311.297l17.715-10.648v-41.962l-53.324,32.052L434.111,311.297z
				 M396.583,190.571v11.449l35.788-21.525l-9.717-5.61L396.583,190.571z M424.534,173.754l9.718,5.611l17.575-10.571v-11.461
				L424.534,173.754z M451.827,189.511v-12.758l-10.823,6.51L451.827,189.511z M451.827,387.532v-48.51l-41.166,24.743
				L451.827,387.532z M432.371,180.496l6.752,3.898L432.371,180.496L432.371,180.496z M396.583,159.834l26.07,15.052
				L396.583,159.834L396.583,159.834z M396.621,291.87l-0.038,0.023v41.962l35.646-21.426L396.621,291.87z M390.09,156.085
				l4.574,2.641L390.09,156.085L390.09,156.085z M394.664,222.516v-11.382l-9.655,5.807L394.664,222.516z M378.257,213.043
				l16.407-9.868v-11.449l-26.115,15.713L378.257,213.043z M376.376,214.175l6.752,3.898L376.376,214.175L376.376,214.175z
				 M366.669,208.57l-27.248,16.395v11.437l36.955-22.227l-9.333-5.389L366.669,208.57z M393.552,92.077l1.113,0.642L393.552,92.077
				L393.552,92.077z M367.043,140.561l24.928,14.392l2.694-1.621v-37.294l-34.342,20.642L367.043,140.561z M396.583,291.848
				l0.038,0.022L396.583,291.848L396.583,291.848z M339.421,108.336L339.421,108.336v16.278l54.131-32.537l-13.826-7.983
				L339.421,108.336z"/>
		</g>
		<g>
			<g>
				<path style="fill:#FFFFFF;" d="M335.895,225.21l1.509-1.141l-1.509-2.882c-0.261-0.499-0.261-1.063,0-1.261
					c0.261-0.197,0.685,0.047,0.946,0.546l1.509,2.882l1.509-1.14c0.261-0.197,0.685,0.047,0.946,0.546
					c0.261,0.499,0.261,1.064,0,1.261l-1.509,1.141l1.509,2.882c0.261,0.499,0.261,1.063,0,1.261
					c-0.261,0.197-0.685-0.047-0.946-0.546l-1.509-2.882l-1.509,1.141c-0.261,0.197-0.685-0.047-0.946-0.546
					C335.634,225.971,335.634,225.407,335.895,225.21z"/>
				<path style="fill:#FFFFFF;" d="M393.215,258.217l1.509-1.141l-1.509-2.882c-0.261-0.499-0.261-1.063,0-1.261
					c0.261-0.197,0.685,0.047,0.946,0.546l1.508,2.882l1.509-1.14c0.261-0.197,0.685,0.047,0.946,0.546
					c0.261,0.499,0.261,1.063,0,1.261l-1.509,1.141l1.509,2.882c0.261,0.499,0.261,1.063,0,1.261
					c-0.261,0.197-0.685-0.047-0.946-0.546l-1.509-2.882l-1.508,1.14c-0.261,0.197-0.685-0.047-0.946-0.546
					C392.954,258.978,392.954,258.414,393.215,258.217z"/>
			</g>
			<g>
				<path style="fill:#FFFFFF;" d="M336.228,224.772l1.509-1.141l-1.509-2.882c-0.261-0.499-0.261-1.063,0-1.261
					c0.261-0.197,0.684,0.047,0.946,0.546l1.509,2.882l1.509-1.14c0.261-0.197,0.684,0.047,0.946,0.546
					c0.261,0.499,0.261,1.064,0,1.261l-1.509,1.14l1.509,2.882c0.261,0.499,0.261,1.064,0,1.261
					c-0.261,0.197-0.685-0.047-0.946-0.546l-1.509-2.882l-1.509,1.141c-0.261,0.197-0.684-0.047-0.946-0.546
					C335.967,225.534,335.967,224.969,336.228,224.772z"/>
				<path style="fill:#FFFFFF;" d="M393.548,257.779l1.508-1.141l-1.509-2.882c-0.261-0.499-0.261-1.063,0-1.261
					c0.261-0.197,0.685,0.047,0.946,0.546l1.509,2.882l1.508-1.14c0.261-0.197,0.685,0.047,0.946,0.546
					c0.261,0.499,0.261,1.063,0,1.261l-1.509,1.14l1.509,2.882c0.261,0.499,0.261,1.063,0,1.261
					c-0.261,0.197-0.685-0.047-0.946-0.546l-1.508-2.882l-1.509,1.141c-0.261,0.197-0.685-0.047-0.946-0.546
					C393.287,258.541,393.287,257.976,393.548,257.779z"/>
			</g>
			<g>
				<path style="fill:#FFFFFF;" d="M393.548,191.202l1.508-1.14l-1.509-2.882c-0.261-0.499-0.261-1.063,0-1.261
					c0.261-0.198,0.685,0.047,0.946,0.546l1.509,2.882l1.508-1.14c0.261-0.197,0.685,0.047,0.946,0.546
					c0.261,0.499,0.261,1.063,0,1.261l-1.509,1.141l1.509,2.882c0.261,0.499,0.261,1.064,0,1.261
					c-0.261,0.197-0.685-0.047-0.946-0.546l-1.508-2.882l-1.509,1.141c-0.261,0.197-0.685-0.047-0.946-0.546
					C393.287,191.964,393.287,191.4,393.548,191.202z"/>
			</g>
			<path style="fill:#FFFFFF;" d="M393.548,124.626l1.508-1.141l-1.509-2.882c-0.261-0.499-0.261-1.063,0-1.261
				c0.261-0.198,0.685,0.047,0.946,0.546l1.509,2.882l1.508-1.14c0.261-0.197,0.685,0.047,0.946,0.546
				c0.261,0.499,0.261,1.063,0,1.261l-1.509,1.141l1.509,2.882c0.261,0.499,0.261,1.064,0,1.261
				c-0.261,0.197-0.685-0.047-0.946-0.546l-1.508-2.882l-1.509,1.141c-0.261,0.197-0.685-0.047-0.946-0.546
				C393.287,125.387,393.287,124.823,393.548,124.626z"/>
			<g>
				<path style="fill:#FFFFFF;" d="M366.123,143.127l1.509-1.141l-1.509-2.882c-0.261-0.499-0.261-1.064,0-1.261
					c0.261-0.197,0.685,0.047,0.946,0.546l1.509,2.882l1.509-1.141c0.261-0.197,0.685,0.047,0.946,0.546
					c0.261,0.499,0.261,1.063,0,1.261l-1.509,1.14l1.509,2.882c0.261,0.499,0.261,1.063,0,1.261
					c-0.261,0.197-0.685-0.047-0.946-0.546l-1.509-2.882l-1.509,1.14c-0.261,0.197-0.685-0.047-0.946-0.546
					C365.862,143.889,365.862,143.324,366.123,143.127z"/>
				<path style="fill:#FFFFFF;" d="M366.123,209.165l1.509-1.14l-1.509-2.882c-0.261-0.499-0.261-1.063,0-1.261
					c0.261-0.197,0.685,0.047,0.946,0.546l1.509,2.882l1.509-1.14c0.261-0.198,0.685,0.047,0.946,0.546
					c0.261,0.499,0.261,1.063,0,1.261l-1.509,1.14l1.509,2.882c0.261,0.499,0.261,1.064,0,1.261
					c-0.261,0.197-0.685-0.047-0.946-0.546l-1.509-2.882l-1.509,1.141c-0.261,0.197-0.685-0.047-0.946-0.546
					C365.862,209.927,365.862,209.362,366.123,209.165z"/>
				<path style="fill:#FFFFFF;" d="M366.123,275.203l1.509-1.141l-1.509-2.882c-0.261-0.499-0.261-1.063,0-1.261
					c0.261-0.197,0.685,0.047,0.946,0.546l1.509,2.882l1.509-1.141c0.261-0.197,0.685,0.047,0.946,0.546
					c0.261,0.499,0.261,1.063,0,1.261l-1.509,1.141l1.509,2.882c0.261,0.499,0.261,1.063,0,1.261
					c-0.261,0.197-0.685-0.047-0.946-0.546l-1.509-2.882l-1.509,1.14c-0.261,0.197-0.685-0.047-0.946-0.546
					C365.862,275.965,365.862,275.4,366.123,275.203z"/>
				<path style="fill:#FFFFFF;" d="M307.725,241.275l1.509-1.141l-1.509-2.882c-0.261-0.499-0.261-1.063,0-1.261
					c0.261-0.197,0.684,0.047,0.946,0.546l1.509,2.882l1.509-1.14c0.261-0.197,0.684,0.047,0.946,0.546
					c0.261,0.499,0.261,1.063,0,1.261l-1.509,1.141l1.509,2.882c0.261,0.499,0.261,1.063,0,1.261
					c-0.261,0.197-0.685-0.047-0.946-0.546l-1.509-2.882l-1.509,1.14c-0.261,0.197-0.685-0.047-0.946-0.546
					C307.464,242.037,307.464,241.473,307.725,241.275z"/>
			</g>
			<g>
				<path style="fill:#FFFFFF;" d="M423.01,176.087l1.509-1.14l-1.509-2.882c-0.261-0.499-0.261-1.063,0-1.261
					c0.261-0.197,0.685,0.047,0.946,0.546l1.508,2.882l1.509-1.14c0.261-0.197,0.685,0.047,0.946,0.546
					c0.261,0.499,0.261,1.064,0,1.261l-1.509,1.14l1.509,2.882c0.261,0.499,0.261,1.063,0,1.261
					c-0.261,0.197-0.685-0.047-0.946-0.546l-1.509-2.882l-1.508,1.141c-0.261,0.197-0.685-0.047-0.946-0.546
					C422.749,176.849,422.749,176.285,423.01,176.087z"/>
				<path style="fill:#FFFFFF;" d="M423.01,242.126l1.509-1.141l-1.509-2.882c-0.261-0.499-0.261-1.063,0-1.261
					c0.261-0.197,0.685,0.047,0.946,0.546l1.508,2.882l1.509-1.14c0.261-0.197,0.685,0.047,0.946,0.546
					c0.261,0.499,0.261,1.063,0,1.261l-1.509,1.141l1.509,2.882c0.261,0.499,0.261,1.063,0,1.261
					c-0.261,0.197-0.685-0.047-0.946-0.546l-1.509-2.882l-1.508,1.14c-0.261,0.197-0.685-0.047-0.946-0.546
					C422.749,242.887,422.749,242.323,423.01,242.126z"/>
				<path style="fill:#FFFFFF;" d="M423.01,308.164l1.509-1.14l-1.509-2.882c-0.261-0.499-0.261-1.064,0-1.261
					c0.261-0.197,0.685,0.047,0.946,0.546l1.508,2.882l1.509-1.141c0.261-0.197,0.685,0.047,0.946,0.546
					c0.261,0.499,0.261,1.064,0,1.261l-1.509,1.14l1.509,2.882c0.261,0.499,0.261,1.064,0,1.261
					c-0.261,0.197-0.685-0.047-0.946-0.546l-1.509-2.882l-1.508,1.141c-0.261,0.197-0.685-0.047-0.946-0.546
					C422.749,308.926,422.749,308.361,423.01,308.164z"/>
			</g>
			<g>
				<path style="fill:#FFFFFF;" d="M336.228,292.193l1.509-1.141l-1.509-2.882c-0.261-0.499-0.261-1.064,0-1.261
					c0.261-0.197,0.684,0.047,0.946,0.546l1.509,2.882l1.509-1.141c0.261-0.197,0.684,0.047,0.946,0.546
					c0.261,0.499,0.261,1.063,0,1.261l-1.509,1.141l1.509,2.882c0.261,0.499,0.261,1.063,0,1.261
					c-0.261,0.198-0.685-0.047-0.946-0.546l-1.509-2.882l-1.509,1.14c-0.261,0.197-0.684-0.047-0.946-0.546
					C335.967,292.955,335.967,292.39,336.228,292.193z"/>
				<path style="fill:#FFFFFF;" d="M393.548,325.2l1.508-1.14l-1.509-2.882c-0.261-0.499-0.261-1.064,0-1.261
					c0.261-0.197,0.685,0.047,0.946,0.546l1.509,2.882l1.508-1.14c0.261-0.197,0.685,0.047,0.946,0.546
					c0.261,0.499,0.261,1.063,0,1.261l-1.509,1.14l1.509,2.882c0.261,0.499,0.261,1.063,0,1.261
					c-0.261,0.197-0.685-0.047-0.946-0.546l-1.508-2.882l-1.509,1.14c-0.261,0.198-0.685-0.047-0.946-0.546
					C393.287,325.962,393.287,325.397,393.548,325.2z"/>
			</g>
		</g>
	</g>
</g>
<g id="Shadows">
	<path id="Shadow_00000033327475966528135490000004008975169628699779_" style="fill:#E0E0E0;" d="M235.881,353.181
		c-40.348,23.048-105.765,23.048-146.113,0c-40.348-23.049-40.347-60.418,0.001-83.467s105.764-23.049,146.112,0
		S276.229,330.131,235.881,353.181z"/>
	<polygon id="Shadow" style="fill:#E0E0E0;" points="404.596,408.015 335.699,447.793 266.802,408.016 335.699,368.238 	"/>
	<path id="Shadow_00000148634451032388340930000018251467338788989313_" style="fill:#E0E0E0;" d="M163.03,427.761
		c-16.151,9.324-42.336,9.324-58.487,0c-16.151-9.325-16.151-24.443,0-33.768c16.151-9.325,42.336-9.325,58.487,0
		C179.181,403.318,179.181,418.436,163.03,427.761z"/>
	<path id="Shadow_45_" style="fill:#E0E0E0;" d="M266.157,390.395l-6.109-3.527c-0.739-0.427-1.937-0.427-2.676,0l-24.934,14.396
		c-0.739,0.427-0.739,1.118,0,1.545l1.046,0.604l-14.01,8.089l-17.231-9.949c-0.71-0.41-1.527-0.627-2.361-0.627
		c-1.628,0-3.126,0.792-4.009,2.117l-19.436,29.176c-0.919,1.379-0.758,2.33-0.462,2.883c0.213,0.399,0.765,1.068,2.056,1.068
		c0.316,0,0.662-0.042,1.028-0.123l53.729-11.931c1.859-0.413,2.279-1.401,2.363-1.952c0.085-0.552-0.019-1.62-1.667-2.573
		l-10.226-5.904l14.01-8.089l1.278,0.738c0.739,0.427,1.937,0.427,2.676,0l24.934-14.395
		C266.896,391.513,266.896,390.822,266.157,390.395z"/>
</g>
<g id="Pile_of_Tiles_00000142173835824292766320000008828654304452200628_">
	<g id="Pile_of_Tiles">
		<g id="Tile">
			<polygon style="fill:#BA68C8;" points="280.456,406.263 280.456,406.955 335.699,438.85 390.943,406.955 390.943,406.263 
				335.699,438.158 			"/>
			<path style="fill:#C8856A;" d="M280.456,406.955L280.456,406.955c0,0.943,0.503,1.814,1.32,2.286l52.701,30.427
				c0.756,0.437,1.688,0.437,2.444,0l52.702-30.427c0.817-0.471,1.32-1.343,1.32-2.286l0,0l-55.244,31.895L280.456,406.955z"/>
			<path style="fill:#AF6152;" d="M335.699,438.85L335.699,438.85l-55.243-31.895c0,0.943,0.503,1.814,1.32,2.286l52.701,30.427
				c0.378,0.218,0.8,0.327,1.222,0.327V438.85z"/>
			<g>
				<polygon style="fill:#BA68C8;" points="390.943,406.263 335.699,438.158 280.456,406.263 335.699,374.368 				"/>
				<polygon style="opacity:0.7;fill:#FFFFFF;" points="390.943,406.263 335.699,438.158 280.456,406.263 335.699,374.368 				"/>
			</g>
			<path style="opacity:0.4;fill:#FFFFFF;" d="M306.978,390.95l-7.338,26.389l13.532,7.813l12.513-45.003L306.978,390.95z
				 M357.972,387.227l-12.61,45.352l21.503-12.415l6.661-23.957L357.972,387.227z M316.686,427.181l2.82,1.628l14.936-53.715
				l-3.898,2.251L316.686,427.181z"/>
		</g>
		<g id="Tile_00000155856859601368035040000017259341963497902728_">
			<polygon style="fill:#BA68C8;" points="280.456,402.398 280.456,403.09 335.699,434.985 390.943,403.09 390.943,402.398 
				335.699,434.293 			"/>
			<path style="fill:#C8856A;" d="M280.456,403.09L280.456,403.09c0,0.943,0.503,1.814,1.32,2.286l52.701,30.427
				c0.756,0.437,1.688,0.437,2.444,0l52.702-30.427c0.817-0.471,1.32-1.343,1.32-2.286l0,0l-55.244,31.895L280.456,403.09z"/>
			<path style="fill:#AF6152;" d="M335.699,434.985L335.699,434.985l-55.243-31.895c0,0.943,0.503,1.814,1.32,2.286l52.701,30.427
				c0.378,0.218,0.8,0.328,1.222,0.328V434.985z"/>
			<g>
				<polygon style="fill:#BA68C8;" points="390.943,402.398 335.699,434.293 280.456,402.398 335.699,370.503 				"/>
				<polygon style="opacity:0.7;fill:#FFFFFF;" points="390.943,402.398 335.699,434.293 280.456,402.398 335.699,370.503 				"/>
			</g>
			<path style="opacity:0.4;fill:#FFFFFF;" d="M306.978,387.085l-7.338,26.389l13.532,7.813l12.513-45.003L306.978,387.085z
				 M357.972,383.362l-12.61,45.352l21.503-12.415l6.661-23.957L357.972,383.362z M316.686,423.316l2.82,1.628l14.936-53.715
				l-3.898,2.251L316.686,423.316z"/>
		</g>
		<g id="Tile_00000055709209542809545880000007929866900498536112_">
			<polygon style="fill:#BA68C8;" points="280.456,398.533 280.456,399.225 335.699,431.12 390.943,399.225 390.943,398.533 
				335.699,430.428 			"/>
			<path style="fill:#C8856A;" d="M280.456,399.225L280.456,399.225c0,0.943,0.503,1.814,1.32,2.286l52.701,30.427
				c0.756,0.437,1.688,0.437,2.444,0l52.702-30.427c0.817-0.471,1.32-1.343,1.32-2.286l0,0l-55.244,31.895L280.456,399.225z"/>
			<path style="fill:#AF6152;" d="M335.699,431.12L335.699,431.12l-55.243-31.895c0,0.943,0.503,1.814,1.32,2.286l52.701,30.427
				c0.378,0.218,0.8,0.327,1.222,0.327V431.12z"/>
			<g>
				<polygon style="fill:#BA68C8;" points="390.943,398.533 335.699,430.428 280.456,398.533 335.699,366.638 				"/>
				<polygon style="opacity:0.7;fill:#FFFFFF;" points="390.943,398.533 335.699,430.428 280.456,398.533 335.699,366.638 				"/>
			</g>
			<path style="opacity:0.4;fill:#FFFFFF;" d="M306.978,383.22l-7.338,26.389l13.532,7.813l12.513-45.003L306.978,383.22z
				 M357.972,379.497l-12.61,45.352l21.503-12.415l6.661-23.957L357.972,379.497z M316.686,419.451l2.82,1.628l14.936-53.715
				l-3.898,2.251L316.686,419.451z"/>
		</g>
		<g id="Tile_00000139294127945135071560000009165397810911635873_">
			<polygon style="fill:#BA68C8;" points="280.456,394.668 280.456,395.36 335.699,427.255 390.943,395.36 390.943,394.668 
				335.699,426.563 			"/>
			<path style="fill:#C8856A;" d="M280.456,395.36L280.456,395.36c0,0.943,0.503,1.814,1.32,2.286l52.701,30.427
				c0.756,0.437,1.688,0.437,2.444,0l52.702-30.427c0.817-0.472,1.32-1.343,1.32-2.286l0,0l-55.244,31.895L280.456,395.36z"/>
			<path style="fill:#AF6152;" d="M335.699,427.255L335.699,427.255l-55.243-31.895c0,0.943,0.503,1.814,1.32,2.286l52.701,30.427
				c0.378,0.218,0.8,0.327,1.222,0.327V427.255z"/>
			<g>
				<polygon style="fill:#BA68C8;" points="390.943,394.668 335.699,426.563 280.456,394.668 335.699,362.773 				"/>
				<polygon style="opacity:0.7;fill:#FFFFFF;" points="390.943,394.668 335.699,426.563 280.456,394.668 335.699,362.773 				"/>
			</g>
			<path style="opacity:0.4;fill:#FFFFFF;" d="M306.978,379.355l-7.338,26.389l13.532,7.813l12.513-45.003L306.978,379.355z
				 M357.972,375.632l-12.61,45.352l21.503-12.415l6.661-23.957L357.972,375.632z M316.686,415.586l2.82,1.628l14.936-53.714
				l-3.898,2.251L316.686,415.586z"/>
		</g>
		<g id="Tile_00000084493617340396620760000014112395297177305993_">
			<polygon style="fill:#BA68C8;" points="280.456,390.803 280.456,391.495 335.699,423.39 390.943,391.495 390.943,390.803 
				335.699,422.698 			"/>
			<path style="fill:#C8856A;" d="M280.456,391.495L280.456,391.495c0,0.943,0.503,1.814,1.32,2.286l52.701,30.427
				c0.756,0.436,1.688,0.436,2.444,0l52.702-30.427c0.817-0.472,1.32-1.343,1.32-2.286l0,0l-55.244,31.895L280.456,391.495z"/>
			<path style="fill:#AF6152;" d="M335.699,423.39L335.699,423.39l-55.243-31.895c0,0.943,0.503,1.814,1.32,2.286l52.701,30.427
				c0.378,0.218,0.8,0.327,1.222,0.327V423.39z"/>
			<g>
				<polygon style="fill:#BA68C8;" points="390.943,390.803 335.699,422.698 280.456,390.803 335.699,358.909 				"/>
				<polygon style="opacity:0.85;fill:#FFFFFF;" points="390.943,390.803 335.699,422.698 280.456,390.803 335.699,358.909 				"/>
			</g>
			<path style="opacity:0.4;fill:#FFFFFF;" d="M306.978,375.491l-7.338,26.389l13.532,7.813l12.513-45.003L306.978,375.491z
				 M357.972,371.767l-12.61,45.352l21.503-12.415l6.661-23.957L357.972,371.767z M316.686,411.721l2.82,1.628l14.936-53.714
				l-3.898,2.251L316.686,411.721z"/>
		</g>
		<g id="Tile_00000054982275352027414770000000007787560615781273_">
			<polygon style="fill:#BA68C8;" points="280.456,386.939 280.456,387.63 335.699,419.525 390.943,387.63 390.943,386.938 
				335.699,418.833 			"/>
			<path style="fill:#C8856A;" d="M280.456,387.63L280.456,387.63c0,0.943,0.503,1.814,1.32,2.286l52.701,30.427
				c0.756,0.437,1.688,0.437,2.444,0l52.702-30.427c0.817-0.471,1.32-1.343,1.32-2.286l0,0l-55.244,31.895L280.456,387.63z"/>
			<path style="fill:#AF6152;" d="M335.699,419.525L335.699,419.525l-55.243-31.895c0,0.943,0.503,1.814,1.32,2.286l52.701,30.427
				c0.378,0.218,0.8,0.327,1.222,0.327V419.525z"/>
			<g>
				<polygon style="fill:#BA68C8;" points="390.943,386.938 335.699,418.833 280.456,386.939 335.699,355.043 				"/>
				<polygon style="opacity:0.85;fill:#FFFFFF;" points="390.943,386.938 335.699,418.833 280.456,386.939 335.699,355.043 				"/>
			</g>
			<path style="opacity:0.4;fill:#FFFFFF;" d="M306.978,371.626l-7.338,26.389l13.532,7.813l12.513-45.003L306.978,371.626z
				 M357.972,367.902l-12.61,45.352l21.503-12.415l6.661-23.957L357.972,367.902z M316.686,407.856l2.82,1.628l14.936-53.714
				l-3.898,2.251L316.686,407.856z"/>
		</g>
		<g id="Tile_00000029045848231074760280000000602395586996142487_">
			<polygon style="fill:#BA68C8;" points="280.456,383.073 280.456,383.765 335.699,415.66 390.943,383.765 390.943,383.073 
				335.699,414.968 			"/>
			<path style="fill:#C8856A;" d="M280.456,383.765L280.456,383.765c0,0.943,0.503,1.814,1.32,2.286l52.701,30.427
				c0.756,0.437,1.688,0.437,2.444,0l52.702-30.427c0.817-0.471,1.32-1.343,1.32-2.286l0,0l-55.244,31.895L280.456,383.765z"/>
			<path style="fill:#AF6152;" d="M335.699,415.66L335.699,415.66l-55.243-31.895c0,0.943,0.503,1.814,1.32,2.286l52.701,30.427
				c0.378,0.218,0.8,0.327,1.222,0.327V415.66z"/>
			<g>
				<polygon style="fill:#BA68C8;" points="390.943,383.073 335.699,414.968 280.456,383.073 335.699,351.179 				"/>
				<polygon style="opacity:0.85;fill:#FFFFFF;" points="390.943,383.073 335.699,414.968 280.456,383.073 335.699,351.179 				"/>
			</g>
			<path style="opacity:0.4;fill:#FFFFFF;" d="M306.978,367.761l-7.338,26.389l13.532,7.813l12.513-45.003L306.978,367.761z
				 M357.972,364.038l-12.61,45.352l21.503-12.415l6.661-23.957L357.972,364.038z M316.686,403.991l2.82,1.628l14.936-53.715
				l-3.898,2.251L316.686,403.991z"/>
		</g>
		<g id="Tile_00000013878489733767580710000009311664016262140058_">
			<polygon style="fill:#BA68C8;" points="280.456,379.209 280.456,379.9 335.699,411.795 390.943,379.9 390.943,379.208 
				335.699,411.103 			"/>
			<path style="fill:#C8856A;" d="M280.456,379.9L280.456,379.9c0,0.943,0.503,1.814,1.32,2.286l52.701,30.427
				c0.756,0.437,1.688,0.437,2.444,0l52.702-30.427c0.817-0.471,1.32-1.343,1.32-2.286l0,0l-55.244,31.895L280.456,379.9z"/>
			<path style="fill:#AF6152;" d="M335.699,411.795L335.699,411.795L280.456,379.9c0,0.943,0.503,1.814,1.32,2.286l52.701,30.427
				c0.378,0.218,0.8,0.327,1.222,0.327V411.795z"/>
			<g>
				<polygon style="fill:#BA68C8;" points="390.943,379.208 335.699,411.103 280.456,379.209 335.699,347.314 				"/>
				<polygon style="opacity:0.85;fill:#FFFFFF;" points="390.943,379.208 335.699,411.103 280.456,379.209 335.699,347.314 				"/>
			</g>
			<path style="opacity:0.4;fill:#FFFFFF;" d="M306.978,363.896l-7.338,26.389l13.532,7.813l12.513-45.003L306.978,363.896z
				 M357.972,360.173l-12.61,45.352l21.503-12.415l6.661-23.957L357.972,360.173z M316.686,400.126l2.82,1.628l14.936-53.715
				l-3.898,2.251L316.686,400.126z"/>
		</g>
		<g id="Tile_00000054251449777056445580000016633281811763667619_">
			<polygon style="fill:#BA68C8;" points="280.456,375.344 280.456,376.035 335.699,407.93 390.943,376.035 390.943,375.344 
				335.699,407.238 			"/>
			<path style="fill:#C8856A;" d="M280.456,376.035L280.456,376.035c0,0.943,0.503,1.814,1.32,2.286l52.701,30.427
				c0.756,0.437,1.688,0.437,2.444,0l52.702-30.427c0.817-0.471,1.32-1.343,1.32-2.286l0,0l-55.244,31.895L280.456,376.035z"/>
			<path style="fill:#AF6152;" d="M335.699,407.93L335.699,407.93l-55.243-31.895c0,0.943,0.503,1.814,1.32,2.286l52.701,30.427
				c0.378,0.218,0.8,0.328,1.222,0.327V407.93z"/>
			<g>
				<polygon style="fill:#BA68C8;" points="390.943,375.344 335.699,407.238 280.456,375.344 335.699,343.449 				"/>
				<polygon style="opacity:0.85;fill:#FFFFFF;" points="390.943,375.344 335.699,407.238 280.456,375.344 335.699,343.449 				"/>
			</g>
			<path style="opacity:0.4;fill:#FFFFFF;" d="M306.978,360.031l-7.338,26.389l13.532,7.813l12.513-45.003L306.978,360.031z
				 M357.972,356.308l-12.61,45.352l21.503-12.415l6.661-23.957L357.972,356.308z M316.686,396.261l2.82,1.628l14.936-53.715
				l-3.898,2.251L316.686,396.261z"/>
		</g>
		<g id="Tile_00000145028511998256546660000004677627555979230605_">
			<polygon style="fill:#BA68C8;" points="280.456,371.479 280.456,372.171 335.699,404.065 390.943,372.17 390.943,371.478 
				335.699,403.374 			"/>
			<path style="fill:#C8856A;" d="M280.456,372.171L280.456,372.171c0,0.943,0.503,1.814,1.32,2.286l52.701,30.427
				c0.756,0.437,1.688,0.437,2.444,0l52.702-30.427c0.817-0.471,1.32-1.343,1.32-2.286l0,0l-55.244,31.895L280.456,372.171z"/>
			<path style="fill:#AF6152;" d="M335.699,404.065L335.699,404.065l-55.243-31.895c0,0.943,0.503,1.814,1.32,2.286l52.701,30.427
				c0.378,0.218,0.8,0.327,1.222,0.327V404.065z"/>
			<g>
				<polygon style="fill:#BA68C8;" points="390.943,371.478 335.699,403.374 280.456,371.479 335.699,339.584 				"/>
				<polygon style="opacity:0.85;fill:#FFFFFF;" points="390.943,371.478 335.699,403.374 280.456,371.479 335.699,339.584 				"/>
			</g>
			<path style="opacity:0.4;fill:#FFFFFF;" d="M306.978,356.166l-7.338,26.389l13.532,7.813l12.513-45.003L306.978,356.166z
				 M357.972,352.443l-12.61,45.352l21.503-12.415l6.661-23.957L357.972,352.443z M316.686,392.396l2.82,1.628l14.936-53.715
				l-3.898,2.251L316.686,392.396z"/>
		</g>
	</g>
</g>
<g id="Trowel_00000106846407015268295410000008171225768386027677_">
	<g id="Trowel">
		<g id="Trowel_1_">
			<path style="fill:#BA68C8;" d="M261.391,373.436c-0.008,1.262-0.463,2.139-1.188,2.538l-21.236,12.088
				c-2.746,1.563-6.197,0.678-7.707-1.979c-1.51-2.656-0.508-6.077,2.239-7.64l21.22-12.079c0.714-0.427,1.703-0.375,2.798,0.266
				C259.671,367.892,261.406,370.939,261.391,373.436z"/>
			<path style="opacity:0.15;" d="M261.391,373.436c0.012-1.92-1.015-4.158-2.468-5.667c1.589,2.274,1.81,4.441-2.957,7.2
				c-4.782,2.768-15.333,8.817-17.381,9.97c-2.042,1.15-5.963,2.405-8-1.232c0.043,0.814,0.248,1.625,0.675,2.375
				c1.51,2.656,4.961,3.542,7.708,1.979l21.236-12.088C260.928,375.575,261.383,374.699,261.391,373.436z"/>
			<g>
				<path style="fill:#455A64;" d="M232.412,383.246c1.042,0.61,1.88,2.083,1.873,3.291c-0.004,0.61-0.224,1.034-0.574,1.227
					l-1.599,0.896l-2.644-4.65l1.592-0.892C231.404,382.911,231.883,382.936,232.412,383.246z"/>
				<path style="fill:#263238;" d="M232.672,387.44c-0.007,1.207-0.858,1.692-1.9,1.082c-1.042-0.61-1.88-2.083-1.873-3.291
					c0.007-1.207,0.858-1.691,1.9-1.081C231.841,384.76,232.68,386.233,232.672,387.44z"/>
			</g>
			<path style="fill:#37474F;" d="M231.999,387.046c0.005-0.776-0.534-1.723-1.204-2.115c-0.36-0.211-0.681-0.213-0.905-0.054
				l-3.899,2.251c-3.551,2.05-5.756,5.868-5.756,9.967v3.352c0,3.768-2.026,7.278-5.288,9.161l-3.149,1.818l1.717,2.973l3.149-1.818
				c4.321-2.494,7.005-7.144,7.005-12.134v-3.352c0-2.876,1.548-5.556,4.039-6.994l3.929-2.268c0.001-0.001,0.002-0.001,0.003-0.002
				l0.005-0.003l-0.001-0.001C231.861,387.699,231.996,387.43,231.999,387.046z"/>
			<path style="fill:#263238;" d="M232.925,419.247l-31.243-18.038c-1.642-0.948-3.826-0.437-4.877,1.141l-19.436,29.176
				c-0.343,0.515-0.503,0.961-0.5,1.315c0.001,0.18,0.013,0.866,0.012,1.037c-0.004,0.738,0.686,1.085,1.936,0.807l53.729-11.931
				c0.992-0.22,1.497-0.64,1.5-1.127c0.001-0.18-0.005-0.882-0.004-1.059C234.045,420.15,233.68,419.683,232.925,419.247z"/>
			<path style="fill:#455A64;" d="M201.682,401.209l31.243,18.038c1.642,0.948,1.473,2.05-0.378,2.461l-53.729,11.931
				c-1.851,0.411-2.499-0.535-1.448-2.113l19.436-29.176C197.856,400.772,200.04,400.261,201.682,401.209z"/>
		</g>
	</g>
</g>
<g id="Character">
	<g id="Character_00000119112119800264840980000008358481059532059548_">
		<g id="Top_00000015355424600156205980000010328212068830724736_">
			<g id="Arm_00000076574240709623457040000001754293868128307093_">
				<g id="Arm_00000042700485071935858880000001838892987232620451_">
					<path style="fill:#FFA8A7;" d="M237.798,167.702c-6.443,4.314-17.373,8.573-17.373,8.573s-7.618-13.399-12.114-21.351
						c-11.413-20.187-13.433-25.374-28.036-26.469l-0.989,37.37c0,0,3.794,6.263,15.66,22.236c3.441,4.632,4.86,6.236,11.212,13.074
						c4.375,4.71,8.372,7.129,12.672,6.511c3.164-0.455,7.467-2.352,13.216-6.511c10.721-7.754,15.751-13.339,18.861-16.325
						L237.798,167.702z"/>
					<path style="fill:#E0E0E0;" d="M179.682,127.951c8.462,0.503,12.434,1.163,16.994,5.87c4.56,4.707,9.267,13.45,12.651,19.523
						c3.383,6.073,8.535,16.178,8.535,16.178s-7.524,1.344-14.527,6.485c-7.003,5.141-8.63,12.293-8.63,12.293l-16.269-19.321
						L179.682,127.951z"/>
					<g>
						<path style="fill:#F28F8F;" d="M220.424,176.274c0,0-7.066,2.192-10.305,12.553c0,0-0.839-9.13,9.286-14.359L220.424,176.274z
							"/>
					</g>
				</g>
				<path id="Hand_00000049926677753754714520000002020508835387859902_" style="fill:#F28F8F;" d="M270.424,170.164
					c-5.228,5.256-9.866,6.447-13.676,9.232c-3.055,2.233-4.164,3.926-7.396,6.906c0,0-13.279-8.55-11.554-18.6
					c2.89-2.671,5.401-4.121,6.912-6.576c0.974-1.583,0.753-6.467,0.908-8.257c0.262-3.031,1.723-5.904,2.916-8.651
					c0.809-1.862,1.336-3.827,2.063-5.72c0.242-0.63,0.414-1.524,1.217-1.519c0.755,0.005,1.707,0.565,2.227,1.689
					c1.379,2.978,0.295,5.905,0.214,9.05c-0.006,0.239,0.014,0.519,0.212,0.652c0.256,0.171,0.59-0.028,0.83-0.221
					c2.028-1.629,4.394-3.568,6.906-4.388c0.281-0.092,0.573-0.166,0.868-0.158c1.87,0.048,3.407,2.419,4.234,3.852
					c1.214,2.101,1.844,4.491,1.918,6.912C269.469,162.287,270.424,170.164,270.424,170.164z"/>
				<g>
					<path style="fill:#E0E0E0;" d="M213.568,161.154c-2.01-1.323-8.369-2.097-17.233,5.133c-8.865,7.23-9.495,13.411-9.542,14.525
						c-0.111,2.606,3.33,4.787,4.324,5.832c0.994,1.045,1.866,3.673,3.167,4.24c1.3,0.567,2.742-0.101,2.742-0.101l-1.637-2.252
						c0,0,0.296-5.173,9.275-11.879c8.978-6.706,12.663-5.777,12.663-5.777l1.165,2.002c0,0,1.398-1.053,0.655-2.839
						c-0.743-1.786-1.41-2.549-2.526-4.034C215.503,164.518,216.667,163.194,213.568,161.154z"/>
					<path style="opacity:0.15;" d="M213.568,161.154c-2.01-1.323-8.369-2.097-17.233,5.133c-8.865,7.23-9.495,13.411-9.542,14.525
						c-0.111,2.606,3.33,4.787,4.324,5.832c0.994,1.045,1.866,3.673,3.167,4.24c1.3,0.567,2.742-0.101,2.742-0.101l-1.637-2.252
						c0,0,0.296-5.173,9.275-11.879c8.978-6.706,12.663-5.777,12.663-5.777l1.165,2.002c0,0,1.398-1.053,0.655-2.839
						c-0.743-1.786-1.41-2.549-2.526-4.034C215.503,164.518,216.667,163.194,213.568,161.154z"/>
				</g>
			</g>
			<path id="Chest_00000160191415053518276110000018387114654407509910_" style="fill:#F0F0F0;" d="M194.398,172.382
				c1.501-17.254-0.01-32.462-11.989-44.707c0,0-15.794-2.022-22.879-1.423c-5.295,0.448-10.879-0.986-19.064,1.668
				c-6.358,2.062-14.465,4.325-23.389,7.713c-2.221,1.213-13.361,9.418-12.567,24.514c0.833,15.855,1.329,21.538,1.971,37.1
				c0.585,14.19-1.369,18.793-4.273,35.319c8.392,16.079,67.033,24.39,90.329-4.942
				C189.911,220.031,192.762,191.189,194.398,172.382z"/>
			<g id="Head_00000084525940335718286990000007448405174990377617_">
				<g id="Head_00000092449408346701751670000018437607256414252965_">
					<g>
						<g id="XMLID_00000083054013794666176450000017798237730188565434_">
							<g id="XMLID_00000091016783379386119830000002910023965370260902_">
								<path style="fill:#263238;" d="M142.59,72.377c0,0-5.028-0.319-7.812,3.214c-2.784,3.533-5.007,10.305-2.919,18.407
									c2.298,8.916,7.738,17.881,8.857,20.439c1.12,2.558,3.727,3.437,3.727,3.437l0.481-10.6l0.132-7.4
									c0,0,6.329-4.971,7.22-10.232c1.145-6.77-1.24-10.822-1.24-10.822L142.59,72.377z"/>
								<path style="fill:#263238;" d="M177.877,87.325c-2.756-1.569-6.365-2.326-9.458-2.743c-2.943-0.397-5.885-0.808-8.827-1.212
									c-3.151-0.433-6.302-0.865-9.452-1.298c0,0-10.006-2.412-9.496-9.581c0.251-3.528,2.15-5.764,2.557-6.246
									c1.439-1.704,3.667-3.587,5.617-4.654c4.637-2.539,8.766-3.713,14.186-3.708c3.907,0.004,7.767,0.83,11.54,1.845
									c2.553,0.686,5.156,1.469,7.789,1.228c1.887-0.172,3.957-1.137,4.41-2.976c1.833,2.575,1.925,6.27,0.222,8.933
									c2.551,0.068,4.81,2.202,5.297,4.708c0.545,2.803-0.888,4.919-2.661,6.871c0.219-0.241,1.093,1.859,1.161,2.035
									c0.473,1.224,0.565,2.585,0.224,3.873c-0.484,1.826-2.237,3.024-3.99,3.727C183.907,89.364,180.73,88.949,177.877,87.325z"
									/>
								<path style="fill:#FFA8A7;" d="M135.032,109.681c5.293,3.057,8.104-1.102,8.104-1.102l-2.939,21.295
									c7.105,16.48,35.803,16.129,29.097,2.997l0.542-6.128c0,0,1.844,0.188,4.781-0.125c7.734-0.823,10.015-5.223,11.584-10.458
									c2.439-8.138,2.985-19.65,0.999-33.098c-0.383-2.596-1.287-5.465-3.552-6.792c-5.62-3.295-11.304,0.472-19.645,3.057
									c-3.455,1.07-11.646,1.065-13.725-0.097c2.61,3.327,1.88,13.2-2.578,16.912c-0.829,1.338-1.655,2.096-2.284,2.573
									c-1.885,1.418-3.054-2.671-4.435-4.339c-1.396-1.656-6.89-3.449-9.667,1.51
									C128.505,100.936,130.127,106.849,135.032,109.681z"/>
								<path style="fill:#F28F8F;" d="M169.835,126.742c-6.366-0.491-11.722-1.631-15.926-4.269
									c-3.463-2.174-8.091-7.86-8.823-12.98c-0.479,8.085,2.234,12.097,7.718,15.493c5.484,3.396,12.587,4.501,16.747,4.888
									L169.835,126.742z"/>
							</g>
							<g id="XMLID_00000157999255300971761730000009251422743587708853_">
								<path id="XMLID_00000174598904557015316010000011740060059703540646_" style="fill:#263238;" d="M164.233,86.411
									l-5.111,2.856c-0.764-1.469-0.238-3.299,1.173-4.088C161.706,84.391,163.47,84.942,164.233,86.411z"/>
								<path id="XMLID_00000080172705350319195440000008004536130444768935_" style="fill:#263238;" d="M184.771,89.536
									l-5.089-2.985c0.778-1.448,2.548-1.953,3.953-1.129C185.04,86.247,185.549,88.088,184.771,89.536z"/>
								<path style="fill:#263238;" d="M161.082,93.785c-0.047,1.317,0.983,2.422,2.3,2.469c1.317,0.047,2.422-0.983,2.469-2.3
									c0.047-1.317-0.983-2.422-2.3-2.469C162.234,91.438,161.129,92.468,161.082,93.785z"/>
								<path style="fill:#263238;" d="M178.941,94.312c-0.047,1.317,0.983,2.423,2.3,2.469c1.317,0.046,2.422-0.983,2.469-2.3
									c0.046-1.317-0.983-2.423-2.3-2.469C179.896,91.958,178.995,92.798,178.941,94.312z"/>
								<path id="XMLID_00000109743632976476466890000016408216679986606489_" style="fill:#F28F8F;" d="M171.447,90.739
									l0.883,15.288l8.213-2.384C178.075,98.099,175.043,93.797,171.447,90.739z"/>
								<path id="XMLID_00000137117849675345861920000011137325096045867916_" style="fill:#B16668;" d="M164.059,106.77
									l9.493,3.445c-1.053,2.654-4.034,4.034-6.656,3.083C164.275,112.346,163.005,109.424,164.059,106.77z"/>
								<path style="fill:#F28F8F;" d="M169.239,113.538c-0.567-2.746-2.706-4.944-5.485-5.552
									c-0.316,2.277,0.918,4.505,3.144,5.312C167.667,113.577,168.465,113.634,169.239,113.538z"/>
							</g>
						</g>
					</g>
				</g>
			</g>
		</g>
		<g id="Bottom_00000006702770459845329520000005321786943851883141_">
			<g>
				<path style="fill:#37474F;" d="M155.619,308.852c-1.296,1.23-6.467-0.916-9.613-3.355c-3.146-2.44-11.678-6.373-15.04-8.161
					c-3.361-1.788-11.255-4.524-14.27-5.235c-7.791-1.838-11.2-2.1-15.001-6.029c-2.912-3.009-2.401-6.536-2.401-6.536
					s2.99,3.648,14.724,1.843c11.734-1.804,17.952-5.124,22.197-4.499s15.327,3.837,22.634-1.923
					c2.273-1.792,1.323-4.548,0.346-4.869c1.848,1.024,2.384,2.535,2.899,4.099c0.331,1.006,0.733,2.396,1.029,3.324
					c0.758,2.372,1.997,6.843,5.163,9.038c1.733,1.201,2.344,1.564,1.718,2.977L155.619,308.852z"/>
				<path style="fill:#263238;" d="M101.848,274.481c-3.476,2.922-3.069,4.481-2.665,6.741c0.405,2.26,1.381,2.929,3.684,3.747
					c2.881,1.024,8.075,1.031,13.179-0.018c5.104-1.049,15.697-5.135,18.911-4.828c3.213,0.307,8.575,2.479,15.053,1.849
					c6.479-0.63,9.127-2.42,10.769-4.029c1.789-1.754,1.334-3.698,1.334-3.698s-0.071-4.024-5.257-5.284
					C152.362,267.87,101.848,274.481,101.848,274.481z"/>
				<path style="fill:#FFA8A7;" d="M169.336,289.263c-4.979-1.957-7.474,4.828-9.957,7.688c-2.505,2.885-3.971,3.043-9.182,1.57
					c-4.343-1.228-8.216-1.122-8.216-1.122s4.34,1.536,6.054,3.444c1.714,1.908-0.544,3.183,1.882,4.617
					c3.794,2.243,7.671,4.567,10.075,6.005l5.916,3.915l14.737,9.306l6.956-28.237L169.336,289.263z"/>
				<path d="M99.295,279.536c-1.11-3.985,9.58-12.213,22.082-12.607c12.502-0.394,11.375,2.315,20.197,1.688
					c8.822-0.627,12.846-1.348,17.622,1.472c2.335,1.351,3.025,6.112-5.49,8.157c-8.515,2.044-14.602-0.821-18.586-1.053
					c-3.984-0.233-11.071,3.357-22.547,5.159C103.337,283.801,100.231,282.898,99.295,279.536z"/>
			</g>
			<g>
				<path style="fill:#455A64;" d="M104.502,319.827c-1.296,1.23-6.467-0.915-9.613-3.355c-3.146-2.439-11.678-6.373-15.04-8.161
					c-3.361-1.788-11.255-4.524-14.27-5.235c-7.791-1.838-11.2-2.1-15.001-6.029c-2.912-3.01-2.401-6.536-2.401-6.536
					s2.99,3.648,14.724,1.843c11.734-1.804,17.952-5.124,22.197-4.499c4.245,0.626,15.326,3.837,22.634-1.923
					c2.273-1.792,1.323-4.548,0.346-4.869c1.848,1.024,2.384,2.535,2.899,4.099c0.331,1.006,0.732,2.396,1.029,3.324
					c0.758,2.372,1.996,6.843,5.162,9.038c1.733,1.202,2.344,1.564,1.718,2.977L104.502,319.827z"/>
				<path style="fill:#263238;" d="M50.731,285.457c-3.476,2.922-3.07,4.481-2.665,6.741c0.405,2.26,1.381,2.929,3.684,3.747
					c2.881,1.024,8.075,1.031,13.179-0.018c5.104-1.049,15.697-5.135,18.911-4.828c3.213,0.307,8.575,2.479,15.054,1.849
					c6.479-0.63,9.127-2.42,10.769-4.029c1.789-1.754,1.334-3.698,1.334-3.698s-0.071-4.024-5.257-5.284
					C101.245,278.846,50.731,285.457,50.731,285.457z"/>
				<path style="fill:#FFA8A7;" d="M118.219,300.238c-4.979-1.957-7.474,4.829-9.957,7.688c-2.505,2.885-3.971,3.044-9.182,1.57
					c-4.343-1.228-8.216-1.121-8.216-1.121s4.34,1.536,6.054,3.444c1.714,1.908-0.544,3.183,1.882,4.617
					c3.794,2.243,7.671,4.567,10.075,6.005l5.915,3.916l14.737,9.306l6.956-28.237L118.219,300.238z"/>
				<path d="M48.178,290.511c-1.109-3.985,9.58-12.213,22.082-12.607c12.502-0.394,11.375,2.315,20.197,1.687
					c8.822-0.627,12.846-1.348,17.622,1.472c2.335,1.351,3.025,6.112-5.49,8.157c-8.515,2.045-14.602-0.821-18.586-1.053
					c-3.984-0.233-11.071,3.357-22.547,5.159C52.22,294.776,49.114,293.874,48.178,290.511z"/>
			</g>
			<g id="Legs">
				<path style="fill:#BA68C8;" d="M245.705,298.522c-6.727-15.259-32.697-49.246-45.748-65.889
					c-4.933-6.29-6.685-14.063-6.298-22.048c1.817-37.569,0.47-63.034-10.448-83.124l-8.242-0.625
					c5.93,12.254,7.883,22.335,8.743,36.934l-38.763,2.284c-3.138-19.764-5.614-26.055-9.082-36.955
					c-3.811,0.6-7.547,2.01-11.204,3.468c11.861,26.791,10.076,43.717,6.448,68.119c-1.752,11.782-15.405,18.009-26.321,13.243l0,0
					c-8.98,30.984-4.539,51.866,7.756,69.09c7.364,10.315,18.457,22.102,18.457,22.102l-4.479-1.696c0,0-5.117,4.337-6.827,11.295
					c-2.484,10.111-0.726,14.383-0.726,14.383s19.139,13.767,37.935,23.483c19.826,10.249,34.172,7.994,43.309-1.751
					c4.358-4.648,5.731-12.409,3.353-22.104c0.467,0.148,0.936,0.297,1.392,0.441c21.271,6.756,33.857,7.436,42.081-3.091
					C251.899,319.861,251.066,310.68,245.705,298.522z"/>
				<path style="opacity:0.35;fill:#FFFFFF;" d="M245.705,298.522c-6.727-15.259-32.697-49.246-45.748-65.889
					c-4.933-6.29-6.685-14.063-6.298-22.048c1.817-37.569,0.47-63.034-10.448-83.124l-8.242-0.625
					c5.93,12.254,7.883,22.335,8.743,36.934l-38.763,2.284c-3.138-19.764-5.614-26.055-9.082-36.955
					c-3.811,0.6-7.547,2.01-11.204,3.468c11.861,26.791,10.076,43.717,6.448,68.119c-1.752,11.782-15.405,18.009-26.321,13.243l0,0
					c-8.98,30.984-4.539,51.866,7.756,69.09c7.364,10.315,18.457,22.102,18.457,22.102l-4.479-1.696c0,0-5.117,4.337-6.827,11.295
					c-2.484,10.111-0.726,14.383-0.726,14.383s19.139,13.767,37.935,23.483c19.826,10.249,34.172,7.994,43.309-1.751
					c4.358-4.648,5.731-12.409,3.353-22.104c0.467,0.148,0.936,0.297,1.392,0.441c21.271,6.756,33.857,7.436,42.081-3.091
					C251.899,319.861,251.066,310.68,245.705,298.522z"/>
				<path style="opacity:0.5;fill:#BA68C8;" d="M196.742,228.376c0.107-0.101,0.201-0.215,0.306-0.317
					c-0.139-0.273-0.274-0.547-0.404-0.824c-0.359,0.302-0.716,0.607-1.077,0.906c-0.075-0.27-0.163-0.537-0.235-0.794
					c-0.146-0.521-0.302-1.04-0.474-1.553c-0.314-0.935-0.674-1.874-1.128-2.754c0.362-0.28,0.713-0.573,1.067-0.861
					c-0.097-0.362-0.185-0.728-0.269-1.094c-1.378,1.097-2.787,2.154-4.264,3.133c-2.766,1.834-5.688,3.426-8.716,4.783
					c-6.259,2.804-12.915,4.627-19.68,5.698c-7.556,1.196-15.226,1.467-22.865,1.299c-6.848-0.15-13.795-0.429-20.552-1.628
					c-6.013-1.068-11.972-2.998-16.906-6.622c-0.073,0.417-0.135,0.825-0.201,1.237c4.277,2.98,9.251,4.84,14.35,5.951
					c6.571,1.432,13.347,1.806,20.052,2.049c-0.11,0.466-0.098,1.002-0.106,1.449c-0.012,0.678,0.004,1.357,0.048,2.034
					c0.044,0.676,0.115,1.35,0.221,2.019c0.082,0.519,0.145,1.107,0.314,1.626c-6.052-0.169-12.153-0.51-18.108-1.568
					c-6.296-1.118-12.531-3.188-17.594-7.152c-0.042,0.454-0.077,0.903-0.111,1.352c4.347,3.187,9.474,5.147,14.736,6.315
					c-1.162,5.898,0.592,11.978,3.05,17.333c2.762,6.018,6.409,11.631,9.785,17.314c7.144,12.026,14.288,24.053,21.432,36.079
					c3.95,6.65,7.925,13.285,11.85,19.95c-2.929,1.126-6.173,0.054-8.904-1.192c-3.261-1.487-6.389-3.315-9.554-4.995
					c-6.463-3.43-12.925-6.859-19.388-10.289c-1.278-0.678-2.557-1.357-3.835-2.035c-0.084,0.358-0.167,0.713-0.241,1.055
					l12.641,6.712c3.375,1.792,6.751,3.584,10.126,5.376c3.226,1.713,6.415,3.558,9.734,5.085c3.306,1.521,7.083,2.55,10.546,0.927
					c0.191-0.09,0.297-0.385,0.186-0.572c-7.173-11.957-14.25-23.973-21.374-35.959c-2.372-3.991-4.744-7.981-7.116-11.972
					c2.413-0.268,4.342-2.16,5.094-4.448c0.95-2.892,0.487-6.167-0.033-9.101c-1.088-6.14-3.467-11.937-5.575-17.775
					c-1.144-3.168-2.17-6.38-3.121-9.611c1.747,0.095,3.493,0.166,5.235,0.228c7.868,0.282,15.773,0.153,23.587-0.874
					c3.699-0.486,7.373-1.19,10.981-2.138c0.569,2.053,1.328,4.059,2.014,6.071c0.732,2.118,1.474,4.235,2.166,6.373
					c1.132,3.533,2.079,7.231,1.932,10.969c0.293-0.322,0.605-0.673,0.907-1.034c-0.205-5.084-2.176-10.296-3.816-14.912
					c-0.9-2.529-1.712-5.112-2.749-7.59c0.872-0.235,1.739-0.484,2.602-0.749c0.29,0.992,0.792,1.961,1.163,2.914
					c0.371,0.937,0.751,1.874,1.103,2.82c0.742,2.001,1.425,4.03,2.089,6.06c0.673,2.03,1.366,4.06,1.805,6.158
					c0.146,0.703,0.254,1.425,0.322,2.147c0.254-0.341,0.507-0.693,0.751-1.054c-0.039-0.302-0.098-0.615-0.166-0.927
					c-0.449-2.147-1.171-4.235-1.864-6.314c-0.712-2.127-1.444-4.245-2.245-6.343c-0.4-1.034-0.81-2.069-1.259-3.084
					c-0.378-0.844-0.74-1.731-1.236-2.521c2.007-0.63,3.991-1.334,5.938-2.14C185.9,236.437,191.846,232.982,196.742,228.376z
					 M134.941,261.494c0.948,2.738,1.845,5.494,2.501,8.318c0.647,2.784,1.191,5.739,1.045,8.609
					c-0.142,2.797-1.638,6.524-4.999,6.456c-0.982-1.652-1.964-3.304-2.946-4.956c-1.786-3.005-3.573-6.011-5.359-9.016
					c-1.645-2.768-3.294-5.536-4.757-8.407c-1.6-3.138-3.02-6.419-3.846-9.854c-0.743-3.092-0.921-6.247-0.499-9.39
					c4.538,0.934,9.167,1.388,13.799,1.654C130.75,250.631,133.057,256.05,134.941,261.494z M193.193,223.465
					c0.273,0.801,0.568,1.596,0.827,2.402c0.162,0.504,0.318,1.009,0.458,1.519c0.121,0.441,0.202,0.918,0.351,1.355
					c-0.529,0.429-1.064,0.85-1.603,1.266c-0.064-0.165-0.127-0.33-0.191-0.495c-0.208-0.54-0.416-1.081-0.625-1.621
					c-0.219-0.568-0.446-1.133-0.671-1.698c-0.17-0.429-0.331-0.882-0.546-1.299C191.871,224.434,192.538,223.957,193.193,223.465z
					 M138.666,244.172c-0.53-0.012-1.061-0.026-1.592-0.04c-0.04-0.241-0.098-0.482-0.145-0.719
					c-0.066-0.33-0.124-0.661-0.176-0.993c-0.095-0.614-0.173-1.23-0.224-1.849c-0.051-0.618-0.079-1.238-0.082-1.858
					c-0.003-0.542,0.067-1.161-0.03-1.708c1.054,0.036,2.109,0.063,3.164,0.083c-0.034,0.415-0.013,0.846-0.011,1.232
					c0.004,0.69,0.044,1.378,0.108,2.065c0.119,1.284,0.339,2.554,0.624,3.811C139.757,244.189,139.211,244.184,138.666,244.172z
					 M161.531,242.873c-6.796,1.076-13.684,1.4-20.559,1.333c-0.277-1.212-0.495-2.436-0.617-3.674
					c-0.067-0.679-0.109-1.361-0.139-2.042c-0.02-0.459-0.006-0.93-0.042-1.393c6.492,0.101,12.995-0.129,19.435-0.976
					c6.998-0.92,13.91-2.591,20.44-5.296c3.686-1.527,7.281-3.379,10.625-5.593c0.098,0.319,0.229,0.634,0.331,0.926
					c0.202,0.576,0.404,1.151,0.614,1.724c0.202,0.55,0.403,1.1,0.605,1.651c0.101,0.275,0.202,0.55,0.303,0.826
					c0.017,0.046,0.034,0.097,0.051,0.146c-0.865,0.65-1.741,1.288-2.648,1.889c-2.766,1.834-5.688,3.426-8.716,4.783
					C174.952,239.978,168.296,241.802,161.531,242.873z"/>
				<g style="opacity:0.4;">
					<path style="fill:#BA68C8;" d="M126.523,303.423l4.477,1.696l0.002,0.001c0,0,22.195,26.731,32.777,29.326
						c0,0-13.288-1.656-23.261-11.882C134.003,315.882,126.523,303.423,126.523,303.423z"/>
					<path style="fill:#BA68C8;" d="M247.04,326.085c-8.227,10.52-20.806,9.847-42.08,3.084c-0.459-0.146-0.927-0.293-1.396-0.449
						c-0.556-2.303-1.337-4.723-2.342-7.241c-5.543-13.867-29.345-51.566-29.345-51.566s14.238-11.164,16.932-29.794
						c2.918,15.322-7.768,29.111-7.768,29.111s25.978,32.312,35.971,46.901c7.856,11.447,18.23,12.921,25.803,9.047
						c6.753-3.445,7.348-9.388,7.407-10.179C250.387,319.38,249.382,323.079,247.04,326.085z"/>
					<path style="fill:#BA68C8;" d="M194.38,333.699c-1.924-5.612-4.45-10.983-7.204-16.206c-2.795-5.205-5.835-10.267-9.104-15.171
						c-3.26-4.91-6.713-9.687-10.419-14.267l9.09,15.102c2.98,5.049,5.921,10.114,8.652,15.283c1.39,2.572,2.699,5.183,3.964,7.813
						c0.61,1.324,1.262,2.633,1.84,3.97l0.858,2.011c0.29,0.669,0.598,1.332,0.848,2.015c2.148,5.411,3.954,10.984,4.553,16.853
						l0.014-2.211c-0.004-0.37,0.003-0.742-0.012-1.111l-0.107-1.103l-0.231-2.213l-0.396-2.188
						C196.176,339.356,195.33,336.506,194.38,333.699z M238.011,313.299c-0.881-2.836-2.051-5.569-3.32-8.248
						c-2.56-5.352-5.691-10.394-9.031-15.263c-3.379-4.846-6.984-9.523-10.799-14.016c-3.807-4.499-7.789-8.845-12-12.965
						l10.777,13.948c3.544,4.671,7.051,9.361,10.362,14.179c1.679,2.393,3.281,4.836,4.841,7.302
						c0.76,1.244,1.558,2.469,2.287,3.731l1.085,1.898c0.365,0.631,0.749,1.253,1.076,1.903c2.76,5.127,5.198,10.453,6.472,16.213
						l-0.242-2.198c-0.046-0.367-0.084-0.737-0.142-1.102l-0.234-1.083l-0.486-2.172L238.011,313.299z"/>
				</g>
			</g>
		</g>
		<g id="Tile_00000102536573343277020180000016693816006030402960_">
			<polygon style="fill:#BA68C8;" points="263.395,195.81 263.995,195.464 263.995,131.675 208.751,99.78 208.152,100.126 
				263.395,132.021 			"/>
			<path style="fill:#C8856A;" d="M263.995,195.464L263.995,195.464c0.817-0.471,1.32-1.343,1.32-2.286v-60.854
				c0-0.873-0.466-1.68-1.222-2.117L211.39,99.78c-0.817-0.471-1.823-0.471-2.639,0l0,0l55.244,31.895V195.464z"/>
			<path style="fill:#AF6152;" d="M263.994,131.675L263.994,131.675l0,63.79c0.817-0.471,1.32-1.343,1.32-2.286v-60.854
				c0-0.437-0.116-0.857-0.328-1.222L263.994,131.675z"/>
			<g>
				<polygon style="fill:#BA68C8;" points="208.152,100.126 263.395,132.021 263.395,195.81 208.152,163.915 				"/>
				<polygon style="opacity:0.75;fill:#FFFFFF;" points="208.152,100.126 263.395,132.021 263.395,195.81 208.152,163.915 				"/>
				<path style="opacity:0.4;fill:#FFFFFF;" d="M235.774,116.073l-27.622-15.947v39.553l33.553-20.181L235.774,116.073z
					 M229.053,175.983l6.72,3.88l24.928,14.392l2.694-1.621v-37.294L229.053,175.983z M248.456,123.396l-40.305,24.242l0,0v16.278
					l54.131-32.537L248.456,123.396z"/>
			</g>
			<g id="Hand_00000082341346552957824860000014401985775296287878_">
				<g>
					<path style="fill:#FFA8A7;" d="M270.266,145.254c0.549-3.469,0.21-3.723-1.434-4.529c-1.644-0.807-4.936-1.841-8.226-0.068
						c-2.213,1.193-4.503,2.286-5.362,3.464c-0.859,1.178,1.348,3.117,4.604,2.306c5.131-1.278,5.729-0.012,5.729-0.012
						s-4.723,1.182-6.477,1.942c-1.754,0.759-4.461,3.13-6.251,4.411c-1.791,1.281-0.918,3.98,2.812,3.19
						c0,0-2.257,1.623-3.278,2.356c-2.295,1.649-2.478,3.4,0.255,3.961c0.65,0.133,1.508,0.233,2.684-0.285
						c0,0-2.659,1.33-2.271,2.24c1.112,2.609,3.087,2.45,9.239,1.315c1.727-0.318,4.595,0.612,5.67,0.857
						c1.368,0.571,2.024,2.032,2.465,3.763l3.257-4.846c0.88-1.603,1.003-3.86-0.656-5.653c0,0,2.954-1.41,2.226-3.306
						c-0.727-1.896-2.65-3.519-2.65-3.519s1.293-1.707,0.108-3.807c-1.185-2.1-2.658-2.642-2.658-2.642L270.266,145.254z"/>
					<path style="fill:#F28F8F;" d="M255.661,155.958c0.993-0.7,1.884-1.441,3.06-1.972c1.233-0.486,2.455-0.492,3.633-0.578
						c2.38-0.099,4.768-0.117,7.159,0.188c-2.36,0.53-4.725,0.738-7.097,0.865c-1.185,0.059-2.386,0.044-3.426,0.3
						C257.943,155.087,256.812,155.631,255.661,155.958z"/>
					<path style="fill:#F28F8F;" d="M255.322,161.989c0.945-0.887,2.17-1.534,3.449-1.861c1.273-0.359,2.574-0.509,3.862-0.621
						c2.579-0.174,5.156-0.165,7.732,0.201c-2.557,0.469-5.111,0.649-7.652,0.851C260.168,160.767,257.677,160.865,255.322,161.989z
						"/>
				</g>
			</g>
		</g>
		<g id="Arm_00000142138731519928056840000000935681912325245842_">
			<g id="Arm_00000124873114434469078370000005727690174961538996_">
				<path style="fill:#FFA8A7;" d="M104.123,148.446c2.213-3.674,7.072-9.91,12.729-11.124c5.41,4.74,8.679,14.201,12.09,17.912
					c6.424,6.989,28.758,30.091,28.758,30.091s32.322-14.526,35.442-17.925c1.366-1.487,2.537-6.961,3.11-8.897
					c0.93-3.143,1.773-5.441,3.302-8.341c0.4-0.758,0.808-1.525,1.395-2.149c0.389-0.413,0.892-0.798,1.443-0.963
					c0.387-0.116,0.768-0.012,1.166,0.153c0,0,1.422-3.064,1.95-3.971c1.373-2.359,3.305-5.786,4.848-8.038
					c0.222-0.323,1.235-1.432,1.606-1.719c0.811-0.626,1.943-0.393,2.593,0.634c0.526,0.83,0.156,2.545-0.204,3.439
					c-0.471,1.17-1.788,3.79-2.259,4.961c1.299-2.111,2.663-4.702,3.802-6.289c0.636-0.886,1.522-1.938,2.348-2.65
					c0.735-0.634,1.783-1.445,2.753-1.697c1.625-0.421,3.023,1.069,2.87,2.219c1.516-0.055,2.602,0.906,3.033,1.923
					c0.513,1.209-0.574,3.697-1.7,5.351c1.814-0.849,3.58,0.919,3.505,2.571c-0.065,1.422-1.915,4.338-2.56,5.608
					c-2.581,5.085-4.752,9.323-5.674,13.033c-0.529,2.127-1.959,6.893-2.589,8.992c-1.368,4.558-3.304,7.548-6.727,10.196
					c-1.487,1.15-3.228,2.158-6.477,4.404c-6.536,4.518-15.995,11.148-19.323,13.584c-4.722,3.456-11.13,8.468-18.339,12.451
					c-10.443,5.77-15.47,4.96-22.332,0.476c-7.003-4.576-22.597-18.272-33.181-28.769
					C101.779,174.273,100.137,155.063,104.123,148.446z"/>
				<g>
					<path style="fill:#F28F8F;" d="M225.197,141.366c1.939-0.988,4.162,1.311,3.476,3.274c-0.56,1.888-1.685,3.549-2.525,5.298
						l-1.706,3.51c-2.451,4.645-3.838,9.575-5.172,14.641c0,0-1.056,3.77-1.056,3.77c-1.084,3.826-3.195,7.438-6.356,9.908
						c-3.655,2.713-9.117,6.218-12.826,8.964c-7.616,5.129-18.01,12.952-25.555,17.985c-9.429,5.816-18.461,11.709-28.798,3.964
						c2.209,1.36,4.538,2.613,7.074,3.144c7.869,1.421,14.963-3.79,21.313-7.736c7.366-5.105,17.883-12.996,25.407-18.155
						c0,0,6.41-4.472,6.41-4.472c4.258-2.857,8.979-5.402,11.16-10.268c3.043-7.107,4.033-15.158,7.973-21.957
						c0,0,1.806-3.465,1.806-3.465c0.606-1.166,1.309-2.258,1.897-3.414c0.543-1.127,1.272-2.408,0.654-3.613
						C227.858,141.566,226.433,140.779,225.197,141.366L225.197,141.366z"/>
				</g>
				<g>
					<path style="fill:#F28F8F;" d="M224.82,141.701c-0.764,0.766-1.429,1.514-2.066,2.392c-0.649,0.894-1.917,3.268-2.471,4.223
						c-0.616,1.063-1.171,2.148-1.662,3.275c-0.476,1.093-0.991,2.249-1.173,3.431c-0.017,0.111,0.109,0.304,0.211,0.159
						c0.643-0.918,1.041-2.063,1.54-3.067c0.478-0.962,0.981-1.917,1.502-2.856c0.517-0.93,1.766-3.264,2.331-4.166
						c0.656-1.047,1.298-2.1,1.95-3.147C225.053,141.831,224.97,141.551,224.82,141.701z"/>
					<path style="fill:#F28F8F;" d="M223.391,134.255c-1.106,1.018-2.021,2.34-2.949,3.519c-1.003,1.276-2.55,4.116-3.374,5.513
						c-0.798,1.354-1.544,2.738-2.236,4.149c-0.68,1.388-1.612,2.966-1.786,4.52c-0.014,0.128,0.135,0.497,0.303,0.299
						c0.428-0.503,0.673-1.158,0.944-1.755c0.326-0.715,0.64-1.435,0.981-2.143c0.662-1.374,1.375-2.724,2.137-4.045
						c0.737-1.275,2.208-3.958,3.015-5.19c0.521-0.795,0.996-1.622,1.553-2.393c0.53-0.733,1.108-1.438,1.589-2.205
						C223.65,134.396,223.562,134.097,223.391,134.255z"/>
					<path style="fill:#F28F8F;" d="M214.35,137.549c0.317-0.787,0.64-2.206,0.355-3.102c-0.343,2.053-2.847,6.616-4.591,9.708
						c-2.004,3.551-1.962,5.59-1.962,5.59s0.749-1.631,3.939-7.235C212.562,141.339,213.879,138.719,214.35,137.549z"/>
					<path style="fill:#F28F8F;" d="M202.391,147.051c-0.189,0.057-0.369,0.146-0.545,0.247c-1.129,3.736-1.745,9.347-1.745,9.347
						s1.885-5.88,3.456-9.441C203.158,147.039,202.777,146.935,202.391,147.051z"/>
				</g>
			</g>
			<g>
				<path style="fill:#E0E0E0;" d="M117.077,135.632c-7.164,2.436-15.623,10.154-16.376,19.046
					c-0.754,8.892,1.558,19.86,8.491,27.927c6.933,8.068,19.155,18.528,19.155,18.528s0.904-7.686,9.646-15.674
					c8.741-7.988,12.961-8.44,12.961-8.44c-16-18.652-15.59-18.135-18.641-21.634C127.189,149.508,123.243,142.273,117.077,135.632z
					"/>
				<g>
					<path style="fill:#E0E0E0;" d="M148.91,172.889c-2.167-1.111-8.652-1.199-16.791,7.025c-8.138,8.224-8.383,17.037-8.31,18.161
						c0.171,2.63,3.255,3.255,4.369,4.198c1.114,0.942,2.827,3.255,4.198,3.684c1.371,0.428,2.917-0.621,2.917-0.621l-2.061-1.863
						c0,0,0.086-6.339,8.395-14.049c8.31-7.71,12.506-7.791,12.506-7.791l2.017,2.09c0,0,1.326-1.41,0.383-3.123
						c-0.942-1.713-2.741-1.799-4.026-3.17C151.223,176.059,152.251,174.602,148.91,172.889z"/>
					<path style="opacity:0.15;" d="M148.91,172.889c-2.167-1.111-8.652-1.199-16.791,7.025c-8.138,8.224-8.383,17.037-8.31,18.161
						c0.171,2.63,3.255,3.255,4.369,4.198c1.114,0.942,2.827,3.255,4.198,3.684c1.371,0.428,2.917-0.621,2.917-0.621l-2.061-1.863
						c0,0,0.086-6.339,8.395-14.049c8.31-7.71,12.506-7.791,12.506-7.791l2.017,2.09c0,0,1.326-1.41,0.383-3.123
						c-0.942-1.713-2.741-1.799-4.026-3.17C151.223,176.059,152.251,174.602,148.91,172.889z"/>
				</g>
			</g>
		</g>
	</g>
</g>
<g id="Bucket">
	<g id="Bucket_00000016043050614949287130000001656472907112402323_">
		<g id="Bucket_00000155864952275898976120000011883160887224514192_">
			<path id="XMLID_00000068654749054670276700000015473383516736260789_" style="fill:#37474F;" d="M99.715,360.597h66.617
				l-1.315,47.039l0,0c0.055,4.924-2.657,9.884-9.122,13.711c-12.925,7.651-32.705,7.37-45.798,0
				c-6.605-3.719-9.073-8.744-9.068-13.711L99.715,360.597z"/>
			<path style="fill:#263238;" d="M99.99,370.429c1.577,3.034,4.402,5.885,8.574,8.233c13.58,7.644,35.46,7.936,48.866,0
				c4.114-2.435,7.014-5.314,8.632-8.355l0.271-9.71H99.715L99.99,370.429z"/>
			<path id="XMLID_00000181779512876237774420000003444193012167601283_" style="fill:#455A64;" d="M156.581,346.486
				c12.999,7.526,12.987,19.706-0.027,27.204c-13.014,7.498-34.108,7.477-47.113-0.047c-13.005-7.524-12.993-19.704,0.027-27.204
				C122.488,338.938,143.581,338.96,156.581,346.486z"/>
			<path id="XMLID_00000074443394884322016540000004259602064590287762_" style="fill:#37474F;" d="M98.476,351.551h69.096v9.009
				l0,0c0.057,5.107-3.438,10.252-10.143,14.221c-13.406,7.936-35.285,7.644-48.866,0c-6.851-3.857-10.092-9.069-10.087-14.221
				V351.551z"/>
			<path id="XMLID_00000101089503510555795480000001882690122441220022_" style="fill:#455A64;" d="M157.457,336.915
				c13.483,7.806,13.471,20.439-0.029,28.216c-13.498,7.777-35.376,7.755-48.866-0.049c-13.489-7.804-13.476-20.437,0.028-28.216
				C122.096,329.087,143.974,329.109,157.457,336.915z"/>
			<path id="XMLID_00000176747599242386741380000001882602333062510466_" style="fill:#263238;" d="M101.446,351.326
				c0,0.902,0.188,1.805,0.489,2.707c1.053,3.233,3.872,6.24,8.271,8.721c6.128,3.421,14.285,5.263,23.007,5.188
				c8.684-0.113,16.804-2.105,22.857-5.677c4.248-2.519,7.03-5.564,8.007-8.721c0.338-0.94,0.489-1.918,0.489-2.895
				c-0.075-4.21-3.158-8.271-8.759-11.391c-6.09-3.458-14.285-5.301-22.969-5.188c-8.722,0.075-16.842,2.105-22.894,5.676
				C104.416,343.017,101.408,347.115,101.446,351.326z"/>
			<path id="XMLID_00000041258458266003068420000002489212471546693817_" style="fill:#E0E0E0;" d="M101.935,354.032
				c1.053,3.233,3.872,6.24,8.271,8.721c6.128,3.421,14.285,5.263,23.007,5.188c8.684-0.113,16.804-2.105,22.857-5.677
				c4.248-2.519,7.03-5.564,8.007-8.721c-1.053-3.233-3.872-6.241-8.271-8.684c-6.09-3.459-14.285-5.301-22.969-5.225
				c-8.722,0.113-16.842,2.143-22.894,5.714C105.694,347.867,102.95,350.875,101.935,354.032z"/>
			<path id="XMLID_00000135658526924648843600000017375114523701867168_" style="opacity:0.15;" d="M101.935,354.032
				c1.053,3.233,3.872,6.24,8.271,8.721c6.128,3.421,14.285,5.263,23.007,5.188c8.684-0.113,16.804-2.105,22.857-5.677
				c4.248-2.519,7.03-5.564,8.007-8.721c-1.053-3.233-3.872-6.241-8.271-8.684c-6.09-3.459-14.285-5.301-22.969-5.225
				c-8.722,0.113-16.842,2.143-22.894,5.714C105.694,347.867,102.95,350.875,101.935,354.032z"/>
			<path style="opacity:0.15;" d="M110.205,362.754c-1.162-0.655-2.205-1.349-3.143-2.072c12.613,6.766,34.305,3.927,41.07-1.397
				c6.755-5.316,7.667-14.396-3.323-18.457c4.081,0.882,7.827,2.233,10.996,4.032c4.398,2.443,7.218,5.451,8.271,8.684
				c-0.977,3.157-3.759,6.203-8.007,8.721c-6.053,3.571-14.173,5.564-22.857,5.677C124.491,368.017,116.333,366.175,110.205,362.754
				z"/>
			<path id="XMLID_00000002383446041511418360000002540003257983046286_" style="fill:#263238;" d="M118.295,371.121
				c-1.514-0.853-2.727-0.136-2.708,1.603c0.019,1.739,1.263,3.84,2.778,4.694c1.516,0.854,2.728,0.137,2.708-1.602
				C121.053,374.077,119.809,371.975,118.295,371.121z"/>
			<g id="XMLID_00000024697451895055946860000015441641053752202659_">
				<path id="XMLID_00000150823170465513314010000012463327016689527995_" style="fill:#263238;" d="M167.685,358.965
					c3.797,7.481,11.353,25.3,1.542,32.556c-0.414,0.301-0.79,0.564-1.203,0.827l0.038,3.609c0.977-0.601,1.992-1.278,2.97-1.992
					c14.661-10.865-1.88-38.759-2.594-39.924c-0.188-0.339-0.489-0.526-0.827-0.639L167.685,358.965z"/>
				<path id="XMLID_00000011720229008301964950000007439017851834539650_" style="fill:#263238;" d="M117.01,374.98
					c0.413,0.865,11.09,21.278,28.646,25.375c2.03,0.489,4.023,0.714,6.053,0.714c5.451,0,10.902-1.692,16.353-5.113l-0.038-3.609
					c-7.255,5.037-14.548,6.767-21.691,5.113c-16.203-3.797-26.578-23.684-26.653-23.872c-0.376-0.752-1.316-1.015-2.03-0.639
					C116.896,373.325,116.596,374.228,117.01,374.98z"/>
			</g>
		</g>
		<g id="Trowel_00000036948182509979628530000018168939817430624403_">
			<g id="Trowel_00000183930469870069340530000014938095956320898183_">
				<path style="fill:#BA68C8;" d="M165.308,290.848c0.624,1.097,0.668,2.084,0.24,2.792l-12.347,21.086
					c-1.597,2.727-5.028,3.685-7.664,2.14c-2.636-1.545-3.478-5.009-1.882-7.736l12.338-21.071c0.405-0.727,1.288-1.177,2.557-1.169
					C161.047,286.906,164.073,288.677,165.308,290.848z"/>
				<path style="opacity:0.15;" d="M165.308,290.848c-0.95-1.669-2.958-3.093-4.971-3.673c2.513,1.175,3.788,2.941,1.039,7.714
					c-2.757,4.788-8.87,15.302-10.067,17.325c-1.193,2.017-3.962,5.065-7.545,2.933c0.444,0.683,1.028,1.283,1.772,1.72
					c2.636,1.545,6.068,0.587,7.664-2.14l12.347-21.086C165.977,292.931,165.933,291.945,165.308,290.848z"/>
				<g>
					<path style="fill:#455A64;" d="M145.117,313.832c1.207,0.007,2.67,0.864,3.267,1.913c0.302,0.53,0.323,1.007,0.116,1.35
						l-0.937,1.576l-4.615-2.705l0.933-1.568C144.077,314.046,144.503,313.828,145.117,313.832z"/>
					<path style="fill:#263238;" d="M147.439,317.335c0.597,1.049,0.103,1.894-1.105,1.887c-1.207-0.007-2.67-0.864-3.267-1.913
						c-0.597-1.049-0.103-1.894,1.105-1.886C145.379,315.429,146.842,316.286,147.439,317.335z"/>
				</g>
				<path style="fill:#37474F;" d="M146.658,317.33c-0.384-0.675-1.324-1.225-2.1-1.23c-0.417-0.003-0.697,0.156-0.811,0.406
					l-2.251,3.899c-2.05,3.55-2.05,7.96-0.001,11.509l1.676,2.903c1.884,3.263,1.884,7.316,0.001,10.578l-1.818,3.149
					c-0.762,0.972,2.321,1.704,3.9-0.057l0.891-1.376c2.495-4.321,2.495-9.689,0-14.011l-1.676-2.903
					c-1.438-2.49-1.437-5.585,0.001-8.076l2.268-3.929c0.001-0.001,0.001-0.002,0.002-0.004l0.003-0.005l-0.001,0
					C146.865,317.965,146.848,317.664,146.658,317.33z"/>
			</g>
		</g>
	</g>
</g>
<g id="Speech_Bubble">
	<g id="Speech_Bubble_1_">
		<g id="Speech_Bubble_2_">
			<path style="fill:#FFFFFF;" d="M101.453,59.99c5.015,6.318,7.111,14.023,6.505,21.494l-0.484,3.467
				c-1.358,6.871-5.057,13.319-10.963,18.007c-13.206,10.484-32.481,8.269-42.965-4.937c-4.688-5.906-6.829-13.025-6.593-20.025
				l0.315-3.486c1.105-7.414,4.894-14.443,11.212-19.458C71.691,44.564,90.965,46.779,101.453,59.99z"/>
			<path style="fill:#455A64;" d="M56.826,53.058c-14.308,11.399-16.674,32.316-5.275,46.624
				c10.228,12.837,28.11,16.049,42.012,8.343l8.9,5.196c1.52,0.887,3.336-0.56,2.811-2.24l-3.076-9.837
				c10.615-11.83,11.478-29.976,1.251-42.812C92.05,44.025,71.134,41.658,56.826,53.058z M101.423,59.948
				c5.026,6.309,7.136,14.01,6.543,21.483l-0.478,3.468c-1.346,6.873-5.034,13.328-10.932,18.027
				c-13.188,10.507-32.466,8.326-42.973-4.862c-4.699-5.898-6.852-13.013-6.628-20.013l0.309-3.487
				c1.091-7.416,4.868-14.451,11.177-19.478C71.633,44.574,90.912,46.755,101.423,59.948z"/>
		</g>
		<g id="Check_00000055676643165305313500000000768211692079624883_">
			<path style="fill:#BA68C8;" d="M72.683,96.568c-1.323,0-2.592-0.547-3.501-1.517L58.31,83.442
				c-1.81-1.933-1.711-4.968,0.222-6.78c1.934-1.811,4.969-1.709,6.779,0.223l7.06,7.539l16.705-21.159
				c1.639-2.079,4.654-2.435,6.736-0.793c2.08,1.642,2.434,4.658,0.793,6.736L76.447,94.743c-0.865,1.097-2.166,1.761-3.562,1.82
				C72.818,96.566,72.75,96.568,72.683,96.568z"/>
		</g>
	</g>
</g>
</svg>
