<?xml version="1.0" encoding="utf-8"?>
<!-- Generator: Adobe Illustrator 27.5.0, SVG Export Plug-In . SVG Version: 6.00 Build 0)  -->
<svg version="1.1" xmlns="http://www.w3.org/2000/svg" xmlns:xlink="http://www.w3.org/1999/xlink" x="0px" y="0px"
	 viewBox="0 0 750 500" style="enable-background:new 0 0 750 500;" xml:space="preserve">

<g id="OBJECTS">
	<g>
		<circle style="fill:#54F5BF;" cx="383.054" cy="160.161" r="17.544"/>
		<circle style="fill:#54F5BF;" cx="386.583" cy="206.454" r="11.295"/>
		<circle style="fill:#54F5BF;" cx="422.451" cy="241.685" r="8.436"/>
		<circle style="fill:#54F5BF;" cx="60.385" cy="194.829" r="8.436"/>
		<path style="fill:#54F5BF;" d="M46.939,227.205c0,3.049-2.472,5.521-5.521,5.521c-3.049,0-5.521-2.472-5.521-5.521
			c0-3.049,2.472-5.521,5.521-5.521C44.467,221.685,46.939,224.156,46.939,227.205z"/>
		<path style="fill:#54F5BF;" d="M328.567,336.872c0,3.049-2.472,5.521-5.521,5.521s-5.521-2.472-5.521-5.521
			c0-3.049,2.472-5.521,5.521-5.521S328.567,333.823,328.567,336.872z"/>
		<circle style="fill:#54F5BF;" cx="352.908" cy="183.96" r="5.521"/>
		<path style="fill:#54F5BF;" d="M657.057,419.112c0,3.049-2.472,5.521-5.521,5.521c-3.049,0-5.521-2.472-5.521-5.521
			c0-3.049,2.472-5.521,5.521-5.521C654.585,413.591,657.057,416.063,657.057,419.112z"/>
		<circle style="fill:#54F5BF;" cx="317.526" cy="310.547" r="8.436"/>
	</g>
	<g>
		<g>
			<path style="fill:#54F5BF;" d="M260.721,88.308c-25.105-7.07-52.758-2.23-75.231,9.092
				c-22.473,11.323-40.352,28.594-55.732,47.025c-15.38,18.431-28.613,38.252-44.097,56.612
				c-18.309,21.711-39.838,41.488-54.106,65.539c-14.268,24.051-20.338,54.277-6.06,79.021
				c14.904,25.827,49.143,39.679,81.39,39.839c32.247,0.16,62.821-11.142,90.924-24.546c34.897-16.644,67.462-36.757,99.942-56.823
				c22.55-13.931,46.66-29.81,53.318-53.679c5.163-18.51-1.38-38.21-9.31-56.254c-9.446-21.493-21.81-41.792-32.594-62.76
				C299.033,111.674,284.829,95.097,260.721,88.308z"/>
			<g style="opacity:0.3;">
				<g>
					
						<ellipse transform="matrix(0.6711 -0.7414 0.7414 0.6711 -35.0861 273.244)" style="fill:none;stroke:#000000;stroke-width:0.3716;stroke-linecap:round;stroke-miterlimit:10;" cx="290.409" cy="176.165" rx="7.795" ry="7.795"/>
					
						<ellipse transform="matrix(0.6979 -0.7162 0.7162 0.6979 -68.4627 174.4482)" style="fill:none;stroke:#000000;stroke-width:0.3716;stroke-linecap:round;stroke-miterlimit:10;" cx="172.534" cy="168.37" rx="7.795" ry="7.795"/>
					
						<ellipse transform="matrix(0.1602 -0.9871 0.9871 0.1602 -123.1106 388.2997)" style="fill:none;stroke:#000000;stroke-width:0.3716;stroke-linecap:round;stroke-miterlimit:10;" cx="166.64" cy="266.499" rx="7.795" ry="7.795"/>
					
						<ellipse transform="matrix(0.1602 -0.9871 0.9871 0.1602 -267.5142 380.2144)" style="fill:none;stroke:#000000;stroke-width:0.3716;stroke-linecap:round;stroke-miterlimit:10;" cx="89.687" cy="347.32" rx="7.795" ry="7.795"/>
					
						<circle style="fill:none;stroke:#000000;stroke-width:0.3716;stroke-linecap:round;stroke-miterlimit:10;" cx="230.513" cy="219.267" r="4.5"/>
					
						<circle style="fill:none;stroke:#000000;stroke-width:0.3716;stroke-linecap:round;stroke-miterlimit:10;" cx="196.561" cy="131.056" r="4.5"/>
					
						<circle style="fill:none;stroke:#000000;stroke-width:0.3716;stroke-linecap:round;stroke-miterlimit:10;" cx="144.189" cy="219.267" r="4.5"/>
					
						<circle style="fill:none;stroke:#000000;stroke-width:0.3716;stroke-linecap:round;stroke-miterlimit:10;" cx="318.546" cy="220.638" r="4.5"/>
					
						<circle style="fill:none;stroke:#000000;stroke-width:0.3716;stroke-linecap:round;stroke-miterlimit:10;" cx="282.614" cy="144.476" r="4.5"/>
					
						<circle style="fill:none;stroke:#000000;stroke-width:0.3716;stroke-linecap:round;stroke-miterlimit:10;" cx="52.625" cy="332.145" r="4.5"/>
					
						<circle style="fill:none;stroke:#000000;stroke-width:0.3716;stroke-linecap:round;stroke-miterlimit:10;" cx="246.029" cy="300.244" r="4.5"/>
					
						<ellipse transform="matrix(0.2342 -0.9722 0.9722 0.2342 -39.4148 470.6598)" style="fill:none;stroke:#000000;stroke-width:0.3716;stroke-linecap:round;stroke-miterlimit:10;" cx="279.05" cy="260.349" rx="7.795" ry="7.795"/>
					
						<circle style="fill:none;stroke:#000000;stroke-width:0.3716;stroke-linecap:round;stroke-miterlimit:10;" cx="94.066" cy="240.354" r="7.795"/>
				</g>
				<g>
					<g>
						<polygon style="fill:none;stroke:#000000;stroke-width:0.3716;stroke-linecap:round;stroke-miterlimit:10;" points="
							204.193,238.409 197.341,246.023 200.509,255.764 210.529,257.89 217.381,250.276 214.212,240.535 						"/>
					</g>
					<g>
						<polygon style="fill:none;stroke:#000000;stroke-width:0.3716;stroke-linecap:round;stroke-miterlimit:10;" points="
							101.738,199.12 94.886,206.734 98.055,216.475 108.075,218.601 114.926,210.987 111.758,201.246 						"/>
					</g>
					<g>
						<polygon style="fill:none;stroke:#000000;stroke-width:0.3716;stroke-linecap:round;stroke-miterlimit:10;" points="
							149.21,142.465 142.392,142.716 139.199,148.746 142.826,154.525 149.644,154.275 152.836,148.245 						"/>
					</g>
					<g>
						<polygon style="fill:none;stroke:#000000;stroke-width:0.3716;stroke-linecap:round;stroke-miterlimit:10;" points="
							312.924,188.048 307.657,192.386 308.78,199.115 315.169,201.508 320.436,197.171 319.313,190.441 						"/>
					</g>
					<g>
						<polygon style="fill:none;stroke:#000000;stroke-width:0.3716;stroke-linecap:round;stroke-miterlimit:10;" points="
							36.169,274.648 30.902,278.985 32.025,285.715 38.415,288.107 43.681,283.77 42.558,277.04 						"/>
					</g>
				</g>
				<g>
					<g>
						<path style="fill:none;stroke:#000000;stroke-width:0.3716;stroke-linecap:round;stroke-miterlimit:10;" d="M223.362,293.373
							c0,1.286-1.043,2.329-2.329,2.329c-1.286,0-2.329-1.043-2.329-2.329c0-1.286,1.043-2.329,2.329-2.329
							C222.319,291.043,223.362,292.086,223.362,293.373z"/>
						<path style="fill:none;stroke:#000000;stroke-width:0.3716;stroke-linecap:round;stroke-miterlimit:10;" d="M221.033,280.322
							c0,1.286-1.043,2.329-2.329,2.329c-1.286,0-2.329-1.043-2.329-2.329c0-1.286,1.043-2.329,2.329-2.329
							C219.99,277.993,221.033,279.035,221.033,280.322z"/>
						<path style="fill:none;stroke:#000000;stroke-width:0.3716;stroke-linecap:round;stroke-miterlimit:10;" d="M233.956,280.966
							c0,1.286-1.043,2.329-2.329,2.329c-1.286,0-2.329-1.043-2.329-2.329c0-1.286,1.043-2.329,2.329-2.329
							C232.914,278.637,233.956,279.68,233.956,280.966z"/>
						
							<line style="fill:none;stroke:#000000;stroke-width:0.3716;stroke-linecap:round;stroke-miterlimit:10;" x1="221.033" y1="280.322" x2="229.298" y2="280.966"/>
						
							<line style="fill:none;stroke:#000000;stroke-width:0.3716;stroke-linecap:round;stroke-miterlimit:10;" x1="218.704" y1="282.651" x2="221.033" y2="291.043"/>
					</g>
					<g>
						<path style="fill:none;stroke:#000000;stroke-width:0.3716;stroke-linecap:round;stroke-miterlimit:10;" d="M100.058,322.822
							c0,1.286-1.043,2.329-2.329,2.329c-1.286,0-2.329-1.043-2.329-2.329c0-1.286,1.043-2.329,2.329-2.329
							C99.015,320.493,100.058,321.536,100.058,322.822z"/>
						<path style="fill:none;stroke:#000000;stroke-width:0.3716;stroke-linecap:round;stroke-miterlimit:10;" d="M97.728,309.771
							c0,1.286-1.043,2.329-2.329,2.329c-1.286,0-2.329-1.043-2.329-2.329c0-1.286,1.043-2.329,2.329-2.329
							C96.686,307.442,97.728,308.485,97.728,309.771z"/>
						<path style="fill:none;stroke:#000000;stroke-width:0.3716;stroke-linecap:round;stroke-miterlimit:10;" d="M110.652,310.415
							c0,1.286-1.043,2.329-2.329,2.329c-1.286,0-2.329-1.043-2.329-2.329c0-1.286,1.043-2.329,2.329-2.329
							C109.609,308.086,110.652,309.129,110.652,310.415z"/>
						
							<line style="fill:none;stroke:#000000;stroke-width:0.3716;stroke-linecap:round;stroke-miterlimit:10;" x1="97.728" y1="309.771" x2="105.994" y2="310.415"/>
						
							<line style="fill:none;stroke:#000000;stroke-width:0.3716;stroke-linecap:round;stroke-miterlimit:10;" x1="95.399" y1="312.1" x2="97.728" y2="320.493"/>
					</g>
					<g>
						<path style="fill:none;stroke:#000000;stroke-width:0.3716;stroke-linecap:round;stroke-miterlimit:10;" d="M249.085,155.183
							c0.685-1.089,2.123-1.416,3.212-0.732c1.089,0.685,1.417,2.123,0.732,3.212c-0.685,1.089-2.123,1.416-3.212,0.732
							C248.728,157.71,248.4,156.272,249.085,155.183z"/>
						<path style="fill:none;stroke:#000000;stroke-width:0.3716;stroke-linecap:round;stroke-miterlimit:10;" d="M244.108,167.47
							c0.685-1.089,2.123-1.416,3.212-0.732c1.089,0.685,1.416,2.123,0.732,3.212c-0.685,1.089-2.123,1.417-3.212,0.732
							C243.751,169.997,243.424,168.559,244.108,167.47z"/>
						<path style="fill:none;stroke:#000000;stroke-width:0.3716;stroke-linecap:round;stroke-miterlimit:10;" d="M233.512,160.045
							c0.685-1.089,2.123-1.416,3.212-0.732c1.089,0.685,1.416,2.123,0.732,3.212c-0.685,1.089-2.123,1.416-3.212,0.732
							C233.154,162.572,232.827,161.134,233.512,160.045z"/>
						
							<line style="fill:none;stroke:#000000;stroke-width:0.3716;stroke-linecap:round;stroke-miterlimit:10;" x1="244.108" y1="167.47" x2="237.455" y2="162.525"/>
						
							<line style="fill:none;stroke:#000000;stroke-width:0.3716;stroke-linecap:round;stroke-miterlimit:10;" x1="247.32" y1="166.739" x2="249.817" y2="158.394"/>
					</g>
					<g>
						
							<circle style="fill:none;stroke:#000000;stroke-width:0.3716;stroke-linecap:round;stroke-miterlimit:10;" cx="282.018" cy="214.007" r="2.329"/>
						
							<circle style="fill:none;stroke:#000000;stroke-width:0.3716;stroke-linecap:round;stroke-miterlimit:10;" cx="284.58" cy="227.015" r="2.329"/>
						
							<circle style="fill:none;stroke:#000000;stroke-width:0.3716;stroke-linecap:round;stroke-miterlimit:10;" cx="271.647" cy="226.602" r="2.329"/>
						
							<line style="fill:none;stroke:#000000;stroke-width:0.3716;stroke-linecap:round;stroke-miterlimit:10;" x1="282.252" y1="227.056" x2="273.976" y2="226.56"/>
						
							<line style="fill:none;stroke:#000000;stroke-width:0.3716;stroke-linecap:round;stroke-miterlimit:10;" x1="284.539" y1="224.686" x2="282.06" y2="216.336"/>
					</g>
					<g>
						<path style="fill:none;stroke:#000000;stroke-width:0.3716;stroke-linecap:round;stroke-miterlimit:10;" d="M272.689,134.725
							c0.961,0.856,1.046,2.328,0.19,3.288c-0.856,0.961-2.328,1.046-3.288,0.19c-0.961-0.856-1.046-2.328-0.19-3.288
							C270.256,133.955,271.728,133.87,272.689,134.725z"/>
						<path style="fill:none;stroke:#000000;stroke-width:0.3716;stroke-linecap:round;stroke-miterlimit:10;" d="M261.394,127.784
							c0.961,0.856,1.046,2.328,0.19,3.288c-0.856,0.961-2.328,1.046-3.289,0.19c-0.961-0.855-1.046-2.328-0.19-3.288
							C258.961,127.014,260.433,126.929,261.394,127.784z"/>
						<path style="fill:none;stroke:#000000;stroke-width:0.3716;stroke-linecap:round;stroke-miterlimit:10;" d="M270.47,118.562
							c0.961,0.856,1.046,2.328,0.19,3.288c-0.856,0.961-2.328,1.046-3.288,0.19c-0.961-0.855-1.046-2.328-0.19-3.288
							C268.038,117.791,269.51,117.706,270.47,118.562z"/>
						
							<line style="fill:none;stroke:#000000;stroke-width:0.3716;stroke-linecap:round;stroke-miterlimit:10;" x1="261.394" y1="127.784" x2="267.372" y2="122.04"/>
						
							<line style="fill:none;stroke:#000000;stroke-width:0.3716;stroke-linecap:round;stroke-miterlimit:10;" x1="261.584" y1="131.073" x2="269.4" y2="134.915"/>
					</g>
				</g>
			</g>
		</g>
		<g>
			<g>
				<rect x="209.495" y="194.395" style="fill:#47B8FF;" width="49.405" height="2.741"/>
				<rect x="202.903" y="219.267" style="fill:#47B8FF;" width="62.589" height="2.741"/>
				<rect x="196.561" y="244.139" style="fill:#47B8FF;" width="75.274" height="2.741"/>
				<rect x="189.345" y="269.011" style="fill:#47B8FF;" width="89.704" height="2.741"/>
				<rect x="182.265" y="297.503" style="fill:#47B8FF;" width="103.865" height="2.741"/>
				<rect x="174.451" y="325.994" style="fill:#47B8FF;" width="119.492" height="2.741"/>
				<rect x="166.64" y="354.486" style="fill:#47B8FF;" width="135.114" height="2.741"/>
				<rect x="159.51" y="382.978" style="fill:#47B8FF;" width="149.375" height="2.741"/>
				<polygon style="fill:#47B8FF;" points="156.762,397.154 211.333,194.856 208.913,194.22 154.343,396.519 				"/>
				<polygon style="fill:#47B8FF;" points="311.439,395.73 257.24,194.809 259.848,194.124 314.046,395.045 				"/>
			</g>
			<g>
				<g>
					<path style="fill:#C4F7FF;" d="M118.673,318.866c7.2,0.599,12.709,5.133,20.142,5.173c8.115,0.045,13.502-3.392,21.126-5.157
						c9.506-2.201,19.728-1.91,29.268-0.586c4.48,0.622,18.651,1.49,26.101-0.652l-29.734-42.652v-93.612H131.41v93.612
						l-32.968,47.291C105.534,320.049,115.302,318.585,118.673,318.866z"/>
					<path style="fill:#C4F7FF;" d="M57.969,393.035c2.042,3.275,5.627,5.607,10.084,5.607h63.357h54.167h63.357
						c4.457,0,8.042-2.332,10.084-5.607H57.969z"/>
					<path style="fill:#47B8FF;" d="M258.713,379.904l-43.402-62.259c-7.451,2.142-21.621,1.274-26.101,0.652
						c-9.54-1.324-19.762-1.615-29.268,0.586c-7.624,1.765-13.011,5.202-21.126,5.157c-7.434-0.041-12.942-4.574-20.142-5.173
						c-3.371-0.281-13.139,1.183-20.231,3.417l-40.169,57.621c-2.961,4.247-2.677,9.328-0.305,13.132h201.049
						C261.39,389.231,261.674,384.15,258.713,379.904z"/>
				</g>
				<g>
					<path style="fill:#47B8FF;" d="M169.489,250.627c-1.666,2.897-7.166,13.906,0.233,14.251
						C175.277,265.137,171.174,253.333,169.489,250.627"/>
					<path style="fill:none;stroke:#000000;stroke-width:0.4258;stroke-linecap:round;stroke-miterlimit:10;" d="M169.489,263.325
						c1.653-1.434,1.177-3.864,1.191-5.952"/>
					<path style="fill:#47B8FF;" d="M177.426,273.246c-1.434,2.368-3.805,6.594-3.592,9.415c0.166,2.199,2.393,5.605,4.878,3.708
						c2.485-1.896,0.031-11.016-1.286-12.727"/>
					<path style="fill:none;stroke:#000000;stroke-width:0.4258;stroke-linecap:round;stroke-miterlimit:10;" d="M176.236,284.357
						c1.263-0.761,1.8-2.038,1.587-3.572"/>
					<path style="fill:#C4F7FF;" d="M182.822,349.526c0,3.326-2.696,6.022-6.022,6.022c-3.326,0-6.022-2.696-6.022-6.022
						c0-3.326,2.696-6.022,6.022-6.022C180.126,343.504,182.822,346.2,182.822,349.526z"/>
					<circle style="fill:#C4F7FF;" cx="125.726" cy="352.965" r="11.011"/>
					<circle style="fill:#C4F7FF;" cx="158.493" cy="371.417" r="6.751"/>
				</g>
			</g>
			<g>
				<path style="fill:#9948B2;" d="M186.852,77.262c-0.894,4.943,1.539,13.423,2.121,14.284c4.705,6.963,11.049,4.202,12.744,0.798
					c2.317-4.655,2.732-2.827,2.458-6.108c-0.297-3.563-5.604-12.346-5.604-12.346S187.241,75.109,186.852,77.262z"/>
				<g>
					<path style="fill:#3770E2;" d="M199.014,88.486c0,0,2.505,25.366,2.145,26.235c-0.36,0.869-8.109,12.524-8.109,12.524
						l3.786,3.811c0.78-0.899,10.637-15.088,11.417-15.987c0.78-0.899-2.71-20.358-2.71-20.358L199.014,88.486z"/>
					<g>
						<path style="fill:none;stroke:#000000;stroke-width:0.4258;stroke-linecap:round;stroke-miterlimit:10;" d="M201.076,114.968
							c0.855-1.182,1.711-2.364,2.566-3.545"/>
						<path style="fill:none;stroke:#000000;stroke-width:0.4258;stroke-linecap:round;stroke-miterlimit:10;" d="M201.158,114.721
							c0.396-1.439,0.632-2.733,1.028-4.171"/>
						<path style="fill:none;stroke:#000000;stroke-width:0.4258;stroke-linecap:round;stroke-miterlimit:10;" d="M193.881,126.678
							c1.2,1.281,1.994,2.13,3.194,3.411"/>
					</g>
				</g>
			</g>
			<g>
				<g>
					<path style="fill:#C4F7FF;" d="M283.78,46.855l9.928,10.565c3.9,4.15,3.697,10.675-0.453,14.574l-102.227,96.07l-24.05-25.592
						l102.227-96.069C273.356,42.502,279.881,42.705,283.78,46.855z"/>
					<g>
						<path style="fill:#47B8FF;" d="M282.349,49.436c-19.706-1.984-5.252,20.13-9.179,28.175
							c-4.455,9.128-14.978,10.14-21.934,16.249c-3.412,2.997-5.17,6.789-7.327,10.57c-2.661,4.666-6.842,9.643-10.62,13.568
							c-7.818,8.123-18.264,13.176-26.701,20.773c-4.461,4.017-7.207,8.054-9.619,13.53c-2.546,5.781-6.475,7.761-11.064,11.63
							c-7.235,6.1-8.385,13.372-8.479,22.41c-0.114,10.973-1.872,22.852-3.567,33.701c-0.615,3.936-3.723,8.445-3.179,12.332
							c0.468,3.344,4.129,4.984,6.712,2.148c3.003-3.299,2.007-11.862,1.523-15.708c-1.125-8.938-1.36-15.199,1.286-24.157
							c2.439-8.254,3.369-19.524,9.08-26.172c1.896-2.207,93.383-85.488,99.599-98.56C293.291,60.647,287.243,49.929,282.349,49.436
							z"/>
						<path style="fill:none;stroke:#000000;stroke-width:0.4258;stroke-linecap:round;stroke-miterlimit:10;" d="M275.839,52.611
							c2.89,5.992,5.357,12.121,3.13,18.812c-3.372,10.128-11.923,15.658-19.4,22.855"/>
						<path style="fill:none;stroke:#000000;stroke-width:0.4258;stroke-linecap:round;stroke-miterlimit:10;" d="M200.839,151.817
							c1.241-4.184,4.01-6.626,7.562-8.839c2.29-1.427,5.98-2.631,5.931-5.844"/>
						<path style="fill:none;stroke:#000000;stroke-width:0.4258;stroke-linecap:round;stroke-miterlimit:10;" d="M173.855,233.563
							c2.469-1.805,3.13-7.464,1.984-9.921"/>
					</g>
					
						<line style="fill:none;stroke:#000000;stroke-width:0.4031;stroke-linecap:round;stroke-miterlimit:10;" x1="133.269" y1="183.96" x2="183.718" y2="183.96"/>
				</g>
				<g>
					<g>
						<g>
							<path style="fill:#FFE447;" d="M212.19,156.381c0.851-0.298,31.208,0,31.208,0l-9.524-43.434c0,0-15.514,3.392-16.239,4.961
								C216.91,119.476,212.19,156.381,212.19,156.381z"/>
							<polygon style="fill:#FFE447;" points="245.631,90.715 248.758,96.379 252.693,98.252 253.078,97.443 250.87,95.225 
								252.182,95.1 255.462,96.661 257.254,99.875 258.413,99.414 256.784,95.572 247.954,89.546 							"/>
							<polygon style="fill:#FFE447;" points="254.183,189.666 254.183,195.222 256.492,198 262.642,198 255.896,189.666 							"/>
							<path style="fill:#FFE447;" d="M216.355,191.154c-1.488,0-10.813,3.076-10.813,3.076v0.992h13.294v-5.556L216.355,191.154z"
								/>
						</g>
						<polygon style="fill:#A0B2FC;" points="211.627,76.475 202.638,83.861 199.014,88.486 218.434,112.947 239.307,111.222 						
							"/>
						<path style="fill:#9948B2;" d="M237.854,111.342l20.238,79.977h-3.869l-24.851-70.751h-2.232l-7.367,33.497l-0.559,37.254
							h-4.762l-2.25-38.604c-0.029-0.497-0.006-0.996,0.07-1.488l6.162-38.28L237.854,111.342z"/>
						<g>
							<path style="fill:#3770E2;" d="M219.16,86.992c0,0,13.317-2.273,14.14-1.818c0.824,0.455,13.437,7.619,13.437,7.619
								l5.034-3.237c0,0-16.527-10.518-17.334-11.394c-0.807-0.876-23.242-2.002-23.242-2.002L219.16,86.992z"/>
							<polygon style="fill:#3770E2;" points="208.465,79.487 226.731,109.771 235.141,159.654 249.735,158.295 239.307,108.166 
								211.196,76.161 							"/>
							<polygon style="fill:#3770E2;" points="199.014,88.486 201.717,85.087 207.59,94.711 222.267,112.947 216.017,159.654 
								208.465,159.654 214.529,114.416 							"/>
						</g>
						<g>
							<polygon style="fill:#FFE447;" points="197.573,77.655 207.961,81.061 210.156,87.579 195.334,83.518 							"/>
							<path style="fill:#FFE447;" d="M189.604,83.484c2.58,3.407,7.748,5.083,10.806,2.768s2.846-7.745,0.267-11.152
								c-2.58-3.407-7.868-5.242-10.926-2.927C186.693,74.488,187.024,80.076,189.604,83.484z"/>
						</g>
						<g>
							<path style="fill:#9948B2;" d="M191.596,72.158c0.237,0.263,5.485,5.07,10.401,4.177c1.218-0.222,1.15,5.361,1.318,5.701
								c0.167,0.34,3.926,7.834,7.326,7.78c3.399-0.054,2.922-8.776,0.556-11.818c-1.118-1.437-6.175-6.001-8.452-7.589
								c-2.213-1.543-7.149-3.997-9.695-2.718C190.504,68.969,191.596,72.158,191.596,72.158z"/>
							<path style="fill:#9948B2;" d="M191.596,72.158c0,0-3.467,5.385-4.524,6.18c-0.901-3.264-0.468-6.106,0.491-7.198
								c1.792-2.042,3.201-3.291,4.241-2.814C192.304,68.554,191.596,72.158,191.596,72.158z"/>
						</g>
						<path style="fill:#FFE447;" d="M201.556,80.433c1.052,0.895,2.63,0.769,3.526-0.283c0.895-1.052,0.769-2.63-0.283-3.526
							c-1.052-0.895-2.63-0.769-3.525,0.283C200.377,77.959,200.504,79.537,201.556,80.433z"/>
					</g>
					<g>
						<g>
							<path style="fill:none;stroke:#000000;stroke-width:0.4258;stroke-linecap:round;stroke-miterlimit:10;" d="M197.611,80.548
								c0.083,0.946-0.306,1.921-1.017,2.55c-0.711,0.629-1.726,0.897-2.655,0.7"/>
							<path style="fill:none;stroke:#000000;stroke-width:0.4258;stroke-linecap:round;stroke-miterlimit:10;" d="M203.041,81.002
								c0.158,2.318-0.625,3.579-1.323,4.085"/>
							<path style="fill:none;stroke:#000000;stroke-width:0.4258;stroke-linecap:round;stroke-miterlimit:10;" d="M204.335,77.645
								c-0.494-0.52-1.404-0.567-1.949-0.1c-0.545,0.467-0.639,1.373-0.202,1.941"/>
							<path style="fill:none;stroke:#000000;stroke-width:0.4258;stroke-linecap:round;stroke-miterlimit:10;" d="M203.195,78.746
								c-0.211-0.358-0.752-0.463-1.082-0.211"/>
							<path style="fill:none;stroke:#000000;stroke-width:0.4258;stroke-linecap:round;stroke-miterlimit:10;" d="M192.726,77.412
								c-0.764,1.297-1.196,3.66,0.181,4.267c0.654,0.288,1.323-0.689,1.427-1.396"/>
							<path style="fill:none;stroke:#000000;stroke-width:0.4258;stroke-linecap:round;stroke-miterlimit:10;" d="M195.583,75.742
								c0.91-0.128,1.876,0.276,2.425,1.013"/>
							<path style="fill:none;stroke:#000000;stroke-width:0.4258;stroke-linecap:round;stroke-miterlimit:10;" d="M190.791,76.394
								c-0.546,0.124-1.046,0.446-1.385,0.892"/>
							<path style="fill:none;stroke:#000000;stroke-width:0.4258;stroke-linecap:round;stroke-miterlimit:10;" d="M203.041,81.002
								c1.033,0.295,1.987-0.659,2.226-1.249"/>
							<path style="fill:none;stroke:#000000;stroke-width:0.4258;stroke-linecap:round;stroke-miterlimit:10;" d="M193.05,69.924
								c2.742,3.019,5.107,5.113,9.063,6.103"/>
							<path style="fill:none;stroke:#000000;stroke-width:0.4258;stroke-linecap:round;stroke-miterlimit:10;" d="M205.266,80.993
								c0.719,2.957,2.366,5.684,4.189,8.121"/>
							<path style="fill:none;stroke:#000000;stroke-width:0.4258;stroke-linecap:round;stroke-miterlimit:10;" d="M189.693,84.411
								c1.708,3.632,1.475,8.627,3.48,10.809"/>
							<path style="fill:none;stroke:#000000;stroke-width:0.4258;stroke-linecap:round;stroke-miterlimit:10;" d="M196.325,94.197
								c-0.795-2.122-0.944-4.481-0.423-6.686"/>
							<path style="fill:none;stroke:#000000;stroke-width:0.4258;stroke-linecap:round;stroke-miterlimit:10;" d="M187.025,77.068
								c0.317-2.865,2.186-5.511,4.78-6.769"/>
							<path style="fill:none;stroke:#000000;stroke-width:0.4258;stroke-linecap:round;stroke-miterlimit:10;" d="M200.086,87.511
								c2.933,4.965,6.403,8.815,11.038,12.246"/>
							<path style="fill:none;stroke:#000000;stroke-width:0.4258;stroke-linecap:round;stroke-miterlimit:10;" d="M213.192,83.044
								c2.633,3.129,3.303,6.574,4.264,10.836"/>
							<path style="fill:none;stroke:#000000;stroke-width:0.4258;stroke-linecap:round;stroke-miterlimit:10;" d="M233.57,85.111
								c-1.093-0.741-2.187-1.481-3.281-2.222"/>
							<path style="fill:none;stroke:#000000;stroke-width:0.4258;stroke-linecap:round;stroke-miterlimit:10;" d="M229.715,83.741
								c1.24,0.447,2.48,0.893,3.72,1.339"/>
							<path style="fill:none;stroke:#000000;stroke-width:0.4258;stroke-linecap:round;stroke-miterlimit:10;" d="M246.029,92.171
								c1.645-1.079,2.795-1.832,4.44-2.911"/>
							<path style="fill:none;stroke:#000000;stroke-width:0.4258;stroke-linecap:round;stroke-miterlimit:10;" d="M235.6,158.698
								c4.881-0.172,8.676-0.532,13.502-1.282"/>
							<path style="fill:none;stroke:#000000;stroke-width:0.4258;stroke-linecap:round;stroke-miterlimit:10;" d="M209.073,158.918
								c2.43-0.059,4.216-0.102,6.647-0.161"/>
							<path style="fill:none;stroke:#000000;stroke-width:0.4258;stroke-linecap:round;stroke-miterlimit:10;" d="M225.25,114.347
								c0.554,0.056,0.895,0.806,0.572,1.26c-0.323,0.454-1.143,0.379-1.378-0.126c-0.235-0.505,0.237-1.181,0.792-1.134"/>
							<path style="fill:none;stroke:#000000;stroke-width:0.4258;stroke-linecap:round;stroke-miterlimit:10;" d="M214.631,190.303
								c1.587-0.049,2.775-0.085,4.363-0.134"/>
							<path style="fill:none;stroke:#000000;stroke-width:0.4258;stroke-linecap:round;stroke-miterlimit:10;" d="M254.261,190.309
								c1.091,0,2.183,0,3.274,0"/>
							<path style="fill:none;stroke:#000000;stroke-width:0.4258;stroke-linecap:round;stroke-miterlimit:10;" d="M255.758,194.778
								c0.502-0.993,1.758-1.535,2.825-1.218"/>
							<path style="fill:none;stroke:#000000;stroke-width:0.4258;stroke-linecap:round;stroke-miterlimit:10;" d="M257.112,195.539
								c0.515-0.556,1.328-0.818,2.071-0.668"/>
							<path style="fill:none;stroke:#000000;stroke-width:0.4258;stroke-linecap:round;stroke-miterlimit:10;" d="M210.512,192.538
								c0.647,0.182,1.136,0.821,1.143,1.492"/>
							<path style="fill:none;stroke:#000000;stroke-width:0.4258;stroke-linecap:round;stroke-miterlimit:10;" d="M211.85,192.241
								c0.679-0.133,1.394,0.503,1.341,1.193"/>
							<path style="fill:none;stroke:#000000;stroke-width:0.4258;stroke-linecap:round;stroke-miterlimit:10;" d="M220.679,86.739
								c-1.091,0.298-1.636,0.446-2.727,0.744"/>
							<path style="fill:none;stroke:#000000;stroke-width:0.4258;stroke-linecap:round;stroke-miterlimit:10;" d="M236.255,137.482
								c0,0.447,0.744,11.161,1.191,11.012c0.446-0.149,8.185-0.893,8.185-0.893l-2.233-10.863L236.255,137.482z"/>
						</g>
						<path d="M195.782,78.035c0.037,0.523,0.308,0.93,0.607,0.91c0.299-0.021,0.511-0.462,0.475-0.985
							c-0.037-0.523-0.308-0.93-0.607-0.91C195.958,77.071,195.745,77.511,195.782,78.035z"/>
						<path d="M190.215,78.834c0.037,0.523,0.308,0.931,0.607,0.91c0.299-0.021,0.511-0.462,0.475-0.985s-0.308-0.93-0.607-0.91
							C190.391,77.87,190.179,78.311,190.215,78.834z"/>
					</g>
				</g>
			</g>
			<g>
				<g>
					<path style="fill:#FFE447;" d="M69.842,315.88c0,0-5.68-0.47-5.794,1.266c-0.114,1.735-5.54,41.319-5.54,41.319l25.098-1.19
						l-4.467-41.394H69.842z"/>
					<polygon style="fill:#FFE447;" points="46.134,319.042 47.782,325.297 46.227,329.369 45.39,329.05 45.457,325.921 
						44.422,326.736 43.126,330.129 44.048,333.693 42.892,334.159 41.418,330.254 43.646,319.8 					"/>
					<polygon style="fill:#FFE447;" points="53.941,395.666 53.941,401.222 51.632,404 45.482,404 52.228,395.666 					"/>
					<polygon style="fill:#FFE447;" points="84.817,397.154 94.886,400.23 94.886,401.222 81.593,401.222 81.593,395.666 					"/>
					<polygon style="fill:#FFE447;" points="88.368,247.055 88.368,243.667 85.094,242.095 83.606,235.944 85.094,235.944 
						85.987,238.127 87.077,235.944 88.182,234.754 94.066,237.168 91.064,247.684 					"/>
				</g>
				<polygon style="fill:#A0B2FC;" points="58.776,282.869 75.145,270.666 79.907,310.547 60.86,313.226 				"/>
				<polygon style="fill:#9948B2;" points="60.86,313.226 50.741,397.154 54.61,397.154 70.537,322.452 71.574,322.452 
					81.395,397.154 85.562,397.154 79.907,310.547 				"/>
				<g>
					<path style="fill:#3770E2;" d="M75.145,270.666c0,0,10.119-10.524,10.417-11.416c0.298-0.893,2.083-14.774,2.083-14.774
						l5.357-0.397c0,1.191-1.854,18.367-1.854,19.558c0,1.19-16.003,17.149-16.003,17.149V270.666z"/>
					<path style="fill:#3770E2;" d="M60.063,292.878c0,0-9.185,11.348-9.406,12.263c-0.221,0.915-3.452,15.056-3.452,15.056
						l-5.787,1.528c0,0,3.4-19.293,3.298-20.479c-0.101-1.186,14.215-18.497,14.215-18.497L60.063,292.878z"/>
					<path style="fill:#3770E2;" d="M58.776,282.869c0,1.488-4.835,78.869-4.835,78.869s11.382,0.298,11.382,0
						s4.018-64.583,4.018-64.583l-7.252-16.756L58.776,282.869z"/>
					<polygon style="fill:#3770E2;" points="69.342,274.993 76.299,295.316 80.006,361.093 88.935,361.093 75.145,270.666 					"/>
				</g>
				<g>
					<path style="fill:#FFE447;" d="M71.87,263.544c0.922,4.173-1.153,9.195-4.898,10.023c-3.745,0.827-7.742-2.854-8.664-7.027
						c-0.922-4.173,1.11-9.389,4.855-10.216C66.908,255.497,70.948,259.371,71.87,263.544z"/>
					<polygon style="fill:#FFE447;" points="60.385,268.91 63.409,279.415 69.842,281.846 66.325,266.886 					"/>
					<path style="fill:#FFE447;" d="M61.799,270.666c0,1.381-1.12,2.501-2.501,2.501s-2.501-1.12-2.501-2.501
						c0-1.381,1.12-2.501,2.501-2.501S61.799,269.285,61.799,270.666z"/>
				</g>
				<path style="fill:#9948B2;" d="M59.268,268.271c-1.612-2.467-1.583-5.902,0.07-8.342c1.653-2.44,4.833-3.74,7.722-3.156
					c-0.139-0.803-0.282-1.617-0.63-2.355c-0.348-0.737-0.933-1.4-1.706-1.657c-1.227-0.408-2.532,0.277-3.593,1.015
					c-2.284,1.589-4.313,3.543-5.985,5.767c-0.879,1.169-1.696,2.608-1.325,4.023c0.549,2.09,3.38,2.984,3.821,5.1"/>
				<g>
					<path style="fill:none;stroke:#000000;stroke-width:0.4258;stroke-linecap:round;stroke-miterlimit:10;" d="M41.885,320.787
						c1.852-0.593,3.125-0.965,5.004-1.465"/>
					<path style="fill:none;stroke:#000000;stroke-width:0.4258;stroke-linecap:round;stroke-miterlimit:10;" d="M69.784,281.56
						c1.964,9.724,3.504,19.533,4.615,29.39"/>
					<path style="fill:none;stroke:#000000;stroke-width:0.4258;stroke-linecap:round;stroke-miterlimit:10;" d="M62.933,279.998
						c1.198,1.617,2.397,3.234,3.595,4.85c0.113,0.153,0.26,0.322,0.45,0.31c0.136-0.009,0.246-0.11,0.342-0.207
						c1.033-1.044,1.852-2.057,2.464-3.392"/>
					<path style="fill:none;stroke:#000000;stroke-width:0.4258;stroke-linecap:round;stroke-miterlimit:10;" d="M70.035,281.579
						c0.859,0.333,0.931,0.578,1.79,0.911"/>
					<path d="M63.345,263.071c0.296,0.433,0.336,0.921,0.088,1.09s-0.688-0.045-0.984-0.478c-0.296-0.433-0.336-0.921-0.088-1.09
						S63.049,262.638,63.345,263.071z"/>
					<path d="M68.206,260.244c0.296,0.433,0.336,0.921,0.088,1.09s-0.688-0.045-0.984-0.478c-0.296-0.433-0.336-0.921-0.088-1.09
						C67.47,259.597,67.91,259.811,68.206,260.244z"/>
					<path style="fill:none;stroke:#000000;stroke-width:0.4258;stroke-linecap:round;stroke-miterlimit:10;" d="M64.048,267.218
						c0.522,0.793,1.432,1.316,2.38,1.368c0.948,0.052,1.91-0.368,2.516-1.099"/>
					<path style="fill:none;stroke:#000000;stroke-width:0.4258;stroke-linecap:round;stroke-miterlimit:10;" d="M61.271,272.061
						c1.663,1.623,4.261,1.975,6.559,1.225"/>
					<path style="fill:none;stroke:#000000;stroke-width:0.4258;stroke-linecap:round;stroke-miterlimit:10;" d="M57.874,270.975
						c-0.076-0.714,0.479-1.437,1.187-1.549c0.709-0.113,1.459,0.403,1.609,1.105"/>
					<path style="fill:none;stroke:#000000;stroke-width:0.4258;stroke-linecap:round;stroke-miterlimit:10;" d="M59.452,270.821
						c-0.136-0.392,0.135-0.873,0.541-0.96"/>
					<path style="fill:none;stroke:#000000;stroke-width:0.4258;stroke-linecap:round;stroke-miterlimit:10;" d="M65.607,256.409
						c0.219-0.848,0.009-1.795-0.548-2.47c-0.557-0.675-1.447-1.061-2.321-1.006"/>
					<path style="fill:none;stroke:#000000;stroke-width:0.4258;stroke-linecap:round;stroke-miterlimit:10;" d="M63.074,256.972
						c-0.097-0.74-0.558-1.423-1.208-1.788s-2.092-0.133-2.775,0.168"/>
					<path style="fill:none;stroke:#000000;stroke-width:0.4258;stroke-linecap:round;stroke-miterlimit:10;" d="M60.674,258.308
						c-0.316-0.608-0.93-1.053-1.606-1.164c-0.676-0.112-2.232,0.452-2.727,0.927"/>
					<path style="fill:none;stroke:#000000;stroke-width:0.4258;stroke-linecap:round;stroke-miterlimit:10;" d="M58.412,261.848
						c-0.323-0.862-1.027-1.49-1.943-1.406c-0.916,0.084-1.743,0.912-2.519,1.406"/>
					<path style="fill:none;stroke:#000000;stroke-width:0.4258;stroke-linecap:round;stroke-miterlimit:10;" d="M58.071,264.007
						c-1.125-0.457-2.562,0.123-3.056,1.233"/>
					<path style="fill:none;stroke:#000000;stroke-width:0.4258;stroke-linecap:round;stroke-miterlimit:10;" d="M57.098,266.848
						c0.226-0.474,0.508-0.325,1.033-0.33"/>
					<path style="fill:none;stroke:#000000;stroke-width:0.4258;stroke-linecap:round;stroke-miterlimit:10;" d="M87.893,235.065
						c-1.335,1.062-1.861,5.096-1.217,5.887c0.395,0.486,1.03,0.654,1.655,0.695c0.992,0.065,2.064,0.11,2.897-0.432
						c0.419-0.273,0.739-0.674,1.01-1.094c0.405-0.63,0.715-1.32,0.916-2.041"/>
					<path style="fill:none;stroke:#000000;stroke-width:0.4258;stroke-linecap:round;stroke-miterlimit:10;" d="M88.173,241.647
						c0.167-1.905,0.683-3.779,1.514-5.5"/>
					<path style="fill:none;stroke:#000000;stroke-width:0.4258;stroke-linecap:round;stroke-miterlimit:10;" d="M90.07,241.587
						c0.864-1.355,1.51-2.848,1.906-4.405"/>
					<path style="fill:none;stroke:#000000;stroke-width:0.4258;stroke-linecap:round;stroke-miterlimit:10;" d="M87.893,245.184
						c0,0,4.662-0.708,4.662-0.46"/>
					<path style="fill:none;stroke:#000000;stroke-width:0.4258;stroke-linecap:round;stroke-miterlimit:10;" d="M85.713,258.984
						c-0.031,1.34-0.062,2.679-0.093,4.019"/>
					<path style="fill:none;stroke:#000000;stroke-width:0.4258;stroke-linecap:round;stroke-miterlimit:10;" d="M85.72,259.056
						c-0.311,1.212-0.799,3.11-1.111,4.322"/>
					<path style="fill:none;stroke:#000000;stroke-width:0.4258;stroke-linecap:round;stroke-miterlimit:10;" d="M50.657,305.14
						c0.091-1.39-0.289-2.628-0.199-4.018"/>
					
						<line style="fill:none;stroke:#000000;stroke-width:0.4258;stroke-linecap:round;stroke-miterlimit:10;" x1="50.741" y1="304.793" x2="51.612" y2="301.987"/>
					<path style="fill:none;stroke:#000000;stroke-width:0.4258;stroke-linecap:round;stroke-miterlimit:10;" d="M59.993,282.511
						c3.352,5.966,6.151,11.646,8.891,17.917"/>
					<path style="fill:none;stroke:#000000;stroke-width:0.4258;stroke-linecap:round;stroke-miterlimit:10;" d="M72.179,273.362
						c1.272,6.7,3.032,14.861,4.304,21.561"/>
					<polyline style="fill:none;stroke:#000000;stroke-width:0.4258;stroke-linecap:round;stroke-miterlimit:10;" points="
						56.111,333.166 62.09,333.166 61.391,343.137 55.601,343.137 					"/>
					<path style="fill:none;stroke:#000000;stroke-width:0.4258;stroke-linecap:round;stroke-miterlimit:10;" d="M72.285,312.972
						c-0.528,0.216-0.663,1.038-0.231,1.412c0.432,0.374,1.226,0.122,1.364-0.431s-0.445-1.149-1.001-1.022"/>
					<path style="fill:none;stroke:#000000;stroke-width:0.4258;stroke-linecap:round;stroke-miterlimit:10;" d="M71.796,321.988
						c0.916-1.774,1.586-3.07,2.503-4.843"/>
					<path style="fill:none;stroke:#000000;stroke-width:0.4258;stroke-linecap:round;stroke-miterlimit:10;" d="M54.46,360.809
						c3.754-0.05,6.862-0.092,10.616-0.142"/>
					<path style="fill:none;stroke:#000000;stroke-width:0.4258;stroke-linecap:round;stroke-miterlimit:10;" d="M80.452,360.299
						c2.977,0.073,5.061-0.073,8.038,0"/>
					<path style="fill:none;stroke:#000000;stroke-width:0.4258;stroke-linecap:round;stroke-miterlimit:10;" d="M50.989,396.282
						c1.29-0.091,1.982,0.071,3.272-0.02"/>
					<path style="fill:none;stroke:#000000;stroke-width:0.4258;stroke-linecap:round;stroke-miterlimit:10;" d="M81.593,396.37
						c1.488-0.149,2.019-0.202,3.507-0.351"/>
					<path style="fill:none;stroke:#000000;stroke-width:0.4258;stroke-linecap:round;stroke-miterlimit:10;" d="M87.013,397.758
						c-0.299,0.496-0.597,0.991-0.896,1.486"/>
					<path style="fill:none;stroke:#000000;stroke-width:0.4258;stroke-linecap:round;stroke-miterlimit:10;" d="M88.339,398.047
						c-0.149,0.496-0.298,0.992-0.446,1.488"/>
					<path style="fill:none;stroke:#000000;stroke-width:0.4258;stroke-linecap:round;stroke-miterlimit:10;" d="M49.651,399.103
						c0.868-0.18,1.812,0.055,2.495,0.62"/>
					<path style="fill:none;stroke:#000000;stroke-width:0.4258;stroke-linecap:round;stroke-miterlimit:10;" d="M49.063,400.447
						c0.724-0.379,1.697-0.199,2.236,0.415"/>
					<path style="fill:none;stroke:#000000;stroke-width:0.4258;stroke-linecap:round;stroke-miterlimit:10;" d="M66.195,261.514
						c1.404,0.543,3.209,2.128,2.506,3.458c-0.334,0.632-1.465,0.281-1.986-0.209"/>
					<path style="fill:none;stroke:#000000;stroke-width:0.4258;stroke-linecap:round;stroke-miterlimit:10;" d="M62.078,261.15
						c-0.793,0.465-1.3,1.381-1.273,2.3"/>
					<path style="fill:none;stroke:#000000;stroke-width:0.4258;stroke-linecap:round;stroke-miterlimit:10;" d="M66.241,258.688
						c0.506-0.242,1.097-0.299,1.64-0.16"/>
				</g>
			</g>
		</g>
	</g>
	<g>
		<g>
			<path style="fill:#54F5BF;" d="M619.912,426.263c39.759-42.816,66.945-97.17,77.356-154.664
				c3.102-17.128,4.586-35.549-2.883-51.272c-10.685-22.49-37.573-33.555-62.463-32.888c-24.89,0.667-48.425,10.793-71.246,20.752
				c-55.906,24.398-111.812,48.797-167.717,73.195c-16.139,7.044-33.69,15.454-40.66,31.626c-8.5,19.719,2.419,42.333,15.593,59.29
				c23.626,30.411,55.838,53.831,91.619,67.898c28.977,11.392,67.924,23.513,99.439,19.779
				C584.472,456.955,602.675,444.824,619.912,426.263z"/>
			<g style="opacity:0.3;">
				<g>
					<path style="fill:none;stroke:#000000;stroke-width:0.3716;stroke-linecap:round;stroke-miterlimit:10;" d="M558.672,304.171
						c0,3.158-2.56,5.718-5.718,5.718s-5.718-2.56-5.718-5.718c0-3.158,2.56-5.718,5.718-5.718S558.672,301.013,558.672,304.171z"/>
					<path style="fill:none;stroke:#000000;stroke-width:0.3716;stroke-linecap:round;stroke-miterlimit:10;" d="M500.12,280.237
						c0,3.158-2.56,5.718-5.718,5.718c-3.158,0-5.718-2.56-5.718-5.718c0-3.158,2.56-5.718,5.718-5.718
						C497.56,274.519,500.12,277.079,500.12,280.237z"/>
					
						<circle style="fill:none;stroke:#000000;stroke-width:0.3716;stroke-linecap:round;stroke-miterlimit:10;" cx="457.353" cy="313.615" r="5.718"/>
					
						<circle style="fill:none;stroke:#000000;stroke-width:0.3716;stroke-linecap:round;stroke-miterlimit:10;" cx="558.672" cy="248.64" r="2.5"/>
					
						<circle style="fill:none;stroke:#000000;stroke-width:0.3716;stroke-linecap:round;stroke-miterlimit:10;" cx="644.989" cy="262.657" r="2.5"/>
					
						<circle style="fill:none;stroke:#000000;stroke-width:0.3716;stroke-linecap:round;stroke-miterlimit:10;" cx="597.159" cy="318.01" r="2.5"/>
					
						<circle style="fill:none;stroke:#000000;stroke-width:0.3716;stroke-linecap:round;stroke-miterlimit:10;" cx="511.566" cy="429.557" r="2.5"/>
					
						<circle style="fill:none;stroke:#000000;stroke-width:0.3716;stroke-linecap:round;stroke-miterlimit:10;" cx="599.659" cy="421.612" r="2.5"/>
					
						<circle style="fill:none;stroke:#000000;stroke-width:0.3716;stroke-linecap:round;stroke-miterlimit:10;" cx="514.066" cy="311.902" r="2.5"/>
					
						<circle style="fill:none;stroke:#000000;stroke-width:0.3716;stroke-linecap:round;stroke-miterlimit:10;" cx="447.221" cy="280.838" r="2.5"/>
					<path style="fill:none;stroke:#000000;stroke-width:0.3716;stroke-linecap:round;stroke-miterlimit:10;" d="M617.556,240.929
						c0,3.158-2.56,5.718-5.718,5.718c-3.158,0-5.718-2.56-5.718-5.718c0-3.158,2.56-5.718,5.718-5.718
						C614.996,235.211,617.556,237.771,617.556,240.929z"/>
					<path style="fill:none;stroke:#000000;stroke-width:0.3716;stroke-linecap:round;stroke-miterlimit:10;" d="M683.474,255.177
						c0,3.158-2.56,5.718-5.718,5.718c-3.158,0-5.718-2.56-5.718-5.718c0-3.158,2.56-5.718,5.718-5.718
						C680.914,249.459,683.474,252.019,683.474,255.177z"/>
					<path style="fill:none;stroke:#000000;stroke-width:0.3716;stroke-linecap:round;stroke-miterlimit:10;" d="M558.672,437.776
						c0,3.158-2.56,5.718-5.718,5.718s-5.718-2.56-5.718-5.718s2.56-5.718,5.718-5.718S558.672,434.617,558.672,437.776z"/>
				</g>
				<g>
					<g>
						<polygon style="fill:none;stroke:#000000;stroke-width:0.3716;stroke-linecap:round;stroke-miterlimit:10;" points="
							560.028,260.235 553.177,267.849 556.345,277.59 566.365,279.716 573.216,272.102 570.048,262.361 						"/>
					</g>
					<g>
						<polygon style="fill:none;stroke:#000000;stroke-width:0.3716;stroke-linecap:round;stroke-miterlimit:10;" points="
							481.213,414.372 474.362,421.986 477.53,431.727 487.55,433.853 494.401,426.239 491.233,416.498 						"/>
					</g>
					<g>
						<polygon style="fill:none;stroke:#000000;stroke-width:0.3716;stroke-linecap:round;stroke-miterlimit:10;" points="
							464.205,281.212 457.353,288.826 460.521,298.567 470.541,300.694 477.393,293.079 474.225,283.339 						"/>
					</g>
					<g>
						<polygon style="fill:none;stroke:#000000;stroke-width:0.3716;stroke-linecap:round;stroke-miterlimit:10;" points="
							504.195,253.381 497.377,253.632 494.185,259.662 497.811,265.441 504.629,265.191 507.822,259.161 						"/>
					</g>
					<g>
						<polygon style="fill:none;stroke:#000000;stroke-width:0.3716;stroke-linecap:round;stroke-miterlimit:10;" points="
							650.414,228.059 645.147,232.397 646.27,239.126 652.659,241.519 657.926,237.182 656.803,230.452 						"/>
					</g>
				</g>
				<g>
					<g>
						<path style="fill:none;stroke:#000000;stroke-width:0.3716;stroke-linecap:round;stroke-miterlimit:10;" d="M525.856,288.919
							c0,1.286-1.043,2.329-2.329,2.329c-1.286,0-2.329-1.043-2.329-2.329c0-1.286,1.043-2.329,2.329-2.329
							C524.813,286.59,525.856,287.633,525.856,288.919z"/>
						<path style="fill:none;stroke:#000000;stroke-width:0.3716;stroke-linecap:round;stroke-miterlimit:10;" d="M523.527,275.868
							c0,1.286-1.043,2.329-2.329,2.329c-1.286,0-2.329-1.043-2.329-2.329c0-1.286,1.043-2.329,2.329-2.329
							C522.484,273.539,523.527,274.582,523.527,275.868z"/>
						<path style="fill:none;stroke:#000000;stroke-width:0.3716;stroke-linecap:round;stroke-miterlimit:10;" d="M536.45,276.512
							c0,1.286-1.043,2.329-2.329,2.329c-1.286,0-2.329-1.043-2.329-2.329c0-1.286,1.043-2.329,2.329-2.329
							C535.407,274.183,536.45,275.226,536.45,276.512z"/>
						
							<line style="fill:none;stroke:#000000;stroke-width:0.3716;stroke-linecap:round;stroke-miterlimit:10;" x1="523.527" y1="275.868" x2="531.792" y2="276.512"/>
						
							<line style="fill:none;stroke:#000000;stroke-width:0.3716;stroke-linecap:round;stroke-miterlimit:10;" x1="521.198" y1="278.197" x2="523.527" y2="286.59"/>
					</g>
					<g>
						<path style="fill:none;stroke:#000000;stroke-width:0.3716;stroke-linecap:round;stroke-miterlimit:10;" d="M579.286,221.262
							c0.685-1.089,2.123-1.416,3.212-0.732c1.089,0.685,1.417,2.123,0.732,3.212c-0.685,1.089-2.123,1.417-3.212,0.732
							C578.929,223.788,578.601,222.35,579.286,221.262z"/>
						<path style="fill:none;stroke:#000000;stroke-width:0.3716;stroke-linecap:round;stroke-miterlimit:10;" d="M574.31,233.549
							c0.685-1.089,2.123-1.416,3.212-0.732c1.089,0.685,1.416,2.123,0.732,3.212c-0.685,1.089-2.123,1.417-3.212,0.732
							C573.952,236.076,573.625,234.638,574.31,233.549z"/>
						<path style="fill:none;stroke:#000000;stroke-width:0.3716;stroke-linecap:round;stroke-miterlimit:10;" d="M563.713,226.124
							c0.685-1.089,2.123-1.417,3.212-0.732c1.089,0.685,1.416,2.123,0.732,3.212c-0.685,1.089-2.123,1.416-3.212,0.732
							C563.355,228.65,563.028,227.212,563.713,226.124z"/>
						
							<line style="fill:none;stroke:#000000;stroke-width:0.3716;stroke-linecap:round;stroke-miterlimit:10;" x1="574.31" y1="233.549" x2="567.656" y2="228.604"/>
						
							<line style="fill:none;stroke:#000000;stroke-width:0.3716;stroke-linecap:round;stroke-miterlimit:10;" x1="577.521" y1="232.818" x2="580.018" y2="224.473"/>
					</g>
					<g>
						<path style="fill:none;stroke:#000000;stroke-width:0.3716;stroke-linecap:round;stroke-miterlimit:10;" d="M483.203,309.565
							c-0.023-1.286,1.001-2.348,2.287-2.37c1.286-0.023,2.347,1.001,2.37,2.287c0.023,1.286-1.001,2.348-2.287,2.371
							C484.287,311.875,483.226,310.851,483.203,309.565z"/>
						
							<circle style="fill:none;stroke:#000000;stroke-width:0.3716;stroke-linecap:round;stroke-miterlimit:10;" cx="488.094" cy="322.531" r="2.329"/>
						<path style="fill:none;stroke:#000000;stroke-width:0.3716;stroke-linecap:round;stroke-miterlimit:10;" d="M472.832,322.159
							c-0.023-1.286,1.001-2.348,2.287-2.37c1.286-0.023,2.347,1.001,2.37,2.287c0.023,1.286-1.001,2.348-2.287,2.371
							C473.916,324.47,472.855,323.445,472.832,322.159z"/>
						
							<line style="fill:none;stroke:#000000;stroke-width:0.3716;stroke-linecap:round;stroke-miterlimit:10;" x1="485.765" y1="322.572" x2="477.489" y2="322.076"/>
						
							<line style="fill:none;stroke:#000000;stroke-width:0.3716;stroke-linecap:round;stroke-miterlimit:10;" x1="488.052" y1="320.202" x2="485.573" y2="311.852"/>
					</g>
					<g>
						<path style="fill:none;stroke:#000000;stroke-width:0.3716;stroke-linecap:round;stroke-miterlimit:10;" d="M578.179,325.638
							c0.961,0.856,1.046,2.328,0.19,3.288c-0.856,0.961-2.328,1.046-3.288,0.19c-0.961-0.856-1.046-2.328-0.19-3.289
							C575.746,324.868,577.219,324.783,578.179,325.638z"/>
						<path style="fill:none;stroke:#000000;stroke-width:0.3716;stroke-linecap:round;stroke-miterlimit:10;" d="M566.884,318.697
							c0.961,0.855,1.046,2.328,0.19,3.288c-0.855,0.96-2.328,1.046-3.288,0.19c-0.961-0.856-1.046-2.328-0.19-3.288
							C564.452,317.927,565.924,317.841,566.884,318.697z"/>
						<path style="fill:none;stroke:#000000;stroke-width:0.3716;stroke-linecap:round;stroke-miterlimit:10;" d="M575.961,309.475
							c0.961,0.855,1.046,2.328,0.19,3.288c-0.856,0.96-2.328,1.046-3.288,0.19c-0.961-0.856-1.046-2.328-0.19-3.288
							C573.528,308.704,575,308.619,575.961,309.475z"/>
						
							<line style="fill:none;stroke:#000000;stroke-width:0.3716;stroke-linecap:round;stroke-miterlimit:10;" x1="566.884" y1="318.697" x2="572.863" y2="312.953"/>
						
							<line style="fill:none;stroke:#000000;stroke-width:0.3716;stroke-linecap:round;stroke-miterlimit:10;" x1="567.074" y1="321.985" x2="574.891" y2="325.828"/>
					</g>
				</g>
			</g>
		</g>
		<g>
			<g>
				<ellipse style="fill:#C4F7FF;" cx="534.121" cy="357.086" rx="136.607" ry="19.738"/>
				<rect x="397.514" y="355.981" style="fill:#C4F7FF;" width="273.214" height="30.952"/>
				<ellipse style="fill:#47B8FF;" cx="534.121" cy="388.617" rx="136.607" ry="19.738"/>
				
					<path style="fill:none;stroke:#C4F7FF;stroke-width:3.4061;stroke-linecap:round;stroke-linejoin:round;stroke-miterlimit:10;" d="
					M447.221,389.017c4.252,2.778,11.092,3.275,15.982,3.277c2.091,0.001,4.897-0.193,2.434-2.682
					c3.364-3.85,16.275,0.025,20.299,0.595c10.119,1.434,24.624,3.477,34.464-0.661c-0.502-2.071-4.889-1.601-5.027-2.976
					c-0.194-1.935,8.407-1.179,9.621-1.112c5.771,0.315,11.236,2.366,17.017,2.641c3.857,0.184,7.89-0.085,11.73-0.323
					c-4.448-4.457,12.255-2.423,14.338-2.035c5.844,1.087,11.843,2.425,17.831,2.087"/>
				<path style="fill:none;stroke:#000000;stroke-width:0.4258;stroke-linecap:round;stroke-miterlimit:10;" d="M397.514,388.617
					c0-10.901,61.161-19.738,136.607-19.738s136.607,8.837,136.607,19.738"/>
			</g>
			<g>
				<g>
					<path style="fill:#FFE447;" d="M410.461,300.998c0.223-0.076,4.836-3.35,4.836-3.35s1.856,1.787,1.895,2.158
						c0.039,0.37,0.018,4.167,0.018,4.167l-6.749,0.298V300.998z"/>
					<g>
						<polygon style="fill:#FFE447;" points="411.846,300.195 411.846,298.825 413.158,297.114 413.498,298.007 413.158,299.277 
													"/>
						<polygon style="fill:#FFE447;" points="415.297,297.648 413.498,300.195 414.398,302.261 417.21,303.972 417.193,299.806 
													"/>
					</g>
					<g>
						
							<line style="fill:none;stroke:#A37447;stroke-width:1.703;stroke-miterlimit:10;" x1="411.074" y1="288.701" x2="436.681" y2="386.934"/>
						
							<line style="fill:none;stroke:#A37447;stroke-width:1.703;stroke-miterlimit:10;" x1="424.455" y1="384.428" x2="448.066" y2="389.439"/>
					</g>
					<g>
						<polygon style="fill:#FFE447;" points="412.995,319.672 416.081,320.118 421.03,318.928 421.983,320.425 422.451,325.326 
							415.857,324.263 412.386,321.47 						"/>
						<polygon style="fill:#FFE447;" points="416.081,320.118 416.753,318.928 416.391,317.484 417.562,316.818 418.352,319.949 
													"/>
					</g>
				</g>
				<g>
					<g>
						<path style="fill:#FFE447;" d="M405.156,278.417c-0.528,4.241-4.164,8.279-7.97,7.805c-3.806-0.474-6.34-5.281-5.812-9.521
							c0.528-4.241,4.189-8.476,7.995-8.002C403.174,269.173,405.684,274.177,405.156,278.417z"/>
						<polygon style="fill:#FFE447;" points="397.21,276.889 387.76,282.386 386.973,289.219 400.623,282.156 						"/>
					</g>
					<g>
						<path style="fill:#9948B2;" d="M402.671,270.482c0.428-1.905,3.627-6.912-3.289-6.801c-0.616-2.006-2.984-3.282-4.998-2.693
							c-2.014,0.588-3.323,2.939-2.763,4.961c-1.49-0.242-3.154-0.157-4.316,0.807c-1.162,0.964-1.438,3.028-0.224,3.926
							c-1.574-0.552-3.51,0.463-3.951,2.071c-0.442,1.608,0.704,3.469,2.339,3.799c-0.664,0.075-0.843,1.066-0.424,1.586
							c0.419,0.52,1.135,0.673,1.792,0.792c1.26,0.229,2.748,0.391,3.646-0.522c0.592-0.602,0.734-1.497,0.962-2.309
							c0.807-2.872,3.865-7.104,6.82-7.235C401.539,268.717,402.132,270.482,402.671,270.482z"/>
						<path style="fill:#9948B2;" d="M391.824,271.216c1.097,0.786,2.659,0.859,3.824,0.18c1.166-0.68,1.871-2.075,1.727-3.417"/>
					</g>
					<path style="fill:#FFE447;" d="M391.966,279.677c-0.462,1.301-1.892,1.982-3.194,1.52c-1.301-0.462-1.982-1.892-1.52-3.194
						c0.462-1.302,1.892-1.982,3.194-1.52C391.748,276.945,392.428,278.375,391.966,279.677z"/>
				</g>
				<path style="fill:#3770E2;" d="M386.711,292.974c0,0,8.564,8.646,9.455,8.949c0.891,0.303,13.916-2.882,13.916-2.882
					l0.992,5.902c0,0-16.244,4.085-17.435,4.077c-1.191-0.008-17.118-15.848-17.118-15.848L386.711,292.974z"/>
				<g>
					<path style="fill:#FFE447;" d="M392.075,288.333c-1.104,2.767-4.967,83.825-4.967,83.825l-22.81-2.784l11.219-65.402
						L392.075,288.333z"/>
					<polygon style="fill:#FFE447;" points="346.689,395.862 346.689,401.418 344.38,404.195 338.229,404.195 344.975,395.862 					
						"/>
					<path style="fill:#FFE447;" d="M377.304,397.822c1.488,0,10.813,3.076,10.813,3.076v0.992h-13.294v-5.556L377.304,397.822z"/>
				</g>
				<path style="fill:#A0B2FC;" d="M388.943,281.127l5.099,11.729c0,0-10.982,10.328-10.323,27.093l-19.42-1.605
					C364.298,318.344,367.459,289.219,388.943,281.127z"/>
				<polygon style="fill:#9948B2;" points="363.988,318.01 342.459,397.987 346.328,397.987 374.703,327.236 374.703,327.236 
					374.141,397.987 378.902,397.987 383.408,319.614 				"/>
				<g>
					<path style="fill:#3770E2;" d="M388.943,281.127c0,0,12.751,21.915,13.562,22.43s12.683,15.387,12.683,15.387l-0.947,5.095
						c-1.181-0.317-16.306-16.131-17.487-16.448c-1.181-0.317-12.727-12.324-12.727-12.324L388.943,281.127z"/>
					<path style="fill:#3770E2;" d="M388.943,281.127l3.132,7.206c-2.759-2.313-7.815,11.561-8.667,14.25
						c-5.271,16.639-15.056,69.574-15.056,69.574s-19.605-1.053-19.246-2.387C349.465,368.437,361.319,284.844,388.943,281.127z"/>
				</g>
				<g>
					<path style="fill:none;stroke:#000000;stroke-width:0.4258;stroke-linecap:round;stroke-miterlimit:10;" d="M390.957,280.838
						c0.726,1.837,2.131,3.397,3.883,4.309"/>
					<path style="fill:none;stroke:#000000;stroke-width:0.4258;stroke-linecap:round;stroke-miterlimit:10;" d="M401.986,274.086
						c0.79,0.755,1.351,1.748,1.59,2.814c0.116,0.517,0.124,1.14-0.279,1.484c-0.354,0.302-0.917,0.252-1.296-0.018
						c-0.379-0.27-0.602-0.71-0.738-1.156"/>
					<path d="M398.811,275.177c0,0.603-0.244,1.091-0.546,1.091c-0.301,0-0.546-0.489-0.546-1.091s0.244-1.091,0.546-1.091
						C398.566,274.086,398.811,274.574,398.811,275.177z"/>
					<path d="M404.19,274.777c0,0.603-0.244,1.091-0.546,1.091c-0.301,0-0.546-0.489-0.546-1.091s0.244-1.091,0.546-1.091
						C403.946,273.685,404.19,274.174,404.19,274.777z"/>
					<path style="fill:none;stroke:#000000;stroke-width:0.4258;stroke-linecap:round;stroke-miterlimit:10;" d="M396.035,274.436
						c0.448-1.095,1.503-1.917,2.674-2.084"/>
					<path style="fill:none;stroke:#000000;stroke-width:0.4258;stroke-linecap:round;stroke-miterlimit:10;" d="M402.478,271.56
						c0.507,0.096,0.976,0.38,1.296,0.785"/>
					<path style="fill:none;stroke:#000000;stroke-width:0.4258;stroke-linecap:round;stroke-miterlimit:10;" d="M387.861,278.812
						c0.021-0.615,0.82-0.949,1.401-0.746c0.581,0.203,0.971,0.737,1.324,1.242"/>
					<path style="fill:none;stroke:#000000;stroke-width:0.4258;stroke-linecap:round;stroke-miterlimit:10;" d="M389.161,279.277
						c0.233-0.33,0.465-0.66,0.698-0.989"/>
					<path style="fill:none;stroke:#000000;stroke-width:0.4258;stroke-linecap:round;stroke-miterlimit:10;" d="M397.124,278.951
						c0.808,1.485,2.578,2.384,4.254,2.16"/>
					<path style="fill:none;stroke:#000000;stroke-width:0.4258;stroke-linecap:round;stroke-miterlimit:10;" d="M414.539,318.672
						c-0.265,1.413-0.53,2.825-0.795,4.238c0.015-0.153,0.029-0.307,0.044-0.46"/>
					<path style="fill:none;stroke:#000000;stroke-width:0.4258;stroke-linecap:round;stroke-miterlimit:10;" d="M381.351,297.86
						c1.428-0.302,2.856-0.603,4.284-0.905"/>
					<path style="fill:none;stroke:#000000;stroke-width:0.4258;stroke-linecap:round;stroke-miterlimit:10;" d="M382.133,299.225
						c0.727-0.629,1.454-1.257,2.182-1.886"/>
					<path style="fill:none;stroke:#000000;stroke-width:0.4258;stroke-linecap:round;stroke-miterlimit:10;" d="M400.352,300.355
						c1.372,2.125,2.926,4.133,4.639,5.994"/>
					<path style="fill:none;stroke:#000000;stroke-width:0.4258;stroke-linecap:round;stroke-miterlimit:10;" d="M389.133,300.47
						c2.975,2.573,5.95,5.146,8.926,7.719c-0.081-0.074-0.161-0.149-0.242-0.223"/>
					<path style="fill:none;stroke:#000000;stroke-width:0.4258;stroke-linecap:round;stroke-miterlimit:10;" d="M380.312,320.772
						c0.307,1.449,0.829,2.853,1.542,4.152"/>
					<path style="fill:none;stroke:#000000;stroke-width:0.4258;stroke-linecap:round;stroke-miterlimit:10;" d="M342.955,397.251
						c1.091,0,2.182,0,3.274,0"/>
					<path style="fill:none;stroke:#000000;stroke-width:0.4258;stroke-linecap:round;stroke-miterlimit:10;" d="M374.403,397.15
						c1.411-0.209,2.847-0.247,4.268-0.114"/>
					<path style="fill:none;stroke:#000000;stroke-width:0.4258;stroke-linecap:round;stroke-miterlimit:10;" d="M378.389,400.234
						c0.335-0.804,1.032-1.448,1.86-1.718"/>
					<path style="fill:none;stroke:#000000;stroke-width:0.4258;stroke-linecap:round;stroke-miterlimit:10;" d="M380.437,399.912
						c0.358-0.369,0.717-0.738,1.075-1.107"/>
					<path style="fill:none;stroke:#000000;stroke-width:0.4258;stroke-linecap:round;stroke-miterlimit:10;" d="M341.96,400.118
						c0.733-0.207,1.576,0.039,2.082,0.608"/>
					<path style="fill:none;stroke:#000000;stroke-width:0.4258;stroke-linecap:round;stroke-miterlimit:10;" d="M341.169,401.115
						c0.66-0.039,1.331,0.141,1.883,0.504"/>
					<path style="fill:none;stroke:#000000;stroke-width:0.4258;stroke-linecap:round;stroke-miterlimit:10;" d="M349.296,369.131
						c6.191,0.932,12.418,1.622,18.663,2.069"/>
					<path style="fill:none;stroke:#000000;stroke-width:0.3716;stroke-linecap:round;stroke-miterlimit:10;" d="M382.065,299.225
						c-0.567,3.453-0.852,6.974-0.852,10.496c0.005-0.181,0.01-0.363,0.015-0.544"/>
					<path style="fill:none;stroke:#000000;stroke-width:0.4258;stroke-linecap:round;stroke-miterlimit:10;" d="M358.628,346.656
						c0.399-0.198,9.346,1.29,9.346,1.29l-2.598,11.607l-9.127-1.555L358.628,346.656z"/>
					<path style="fill:none;stroke:#000000;stroke-width:0.3716;stroke-linecap:round;stroke-miterlimit:10;" d="M386.721,276.293
						c0.703,0.44,1.673,0.172,2.279-0.395c0.606-0.567,0.932-1.363,1.241-2.133"/>
					<path style="fill:none;stroke:#000000;stroke-width:0.3716;stroke-linecap:round;stroke-miterlimit:10;" d="M386.583,270.072
						c0.186,1.182,0.802,2.292,1.707,3.074"/>
					<path style="fill:none;stroke:#000000;stroke-width:0.3716;stroke-linecap:round;stroke-miterlimit:10;" d="M397.016,269.669
						c0.469-1.085,0.616-2.306,0.417-3.471"/>
					<path style="fill:none;stroke:#000000;stroke-width:0.3716;stroke-linecap:round;stroke-miterlimit:10;" d="M391.181,271.046
						c0.754,0.608,1.893,0.741,2.86,0.803"/>
					<path style="fill:none;stroke:#000000;stroke-width:0.3716;stroke-linecap:round;stroke-miterlimit:10;" d="M413.744,300.559
						c0.868-0.471,1.737-0.942,2.605-1.413"/>
					<path style="fill:none;stroke:#000000;stroke-width:0.3716;stroke-linecap:round;stroke-miterlimit:10;" d="M414.336,301.675
						c0.868-0.199,1.736-0.398,2.604-0.596"/>
					<path style="fill:none;stroke:#000000;stroke-width:0.3716;stroke-linecap:round;stroke-miterlimit:10;" d="M414.632,302.482
						c0.817,0.112,1.633,0.224,2.45,0.336"/>
				</g>
			</g>
			<g>
				<g>
					<polygon style="fill:#FFE447;" points="691.903,327.605 673.639,349.832 674.863,366.693 717.3,363.518 706.387,327.605 					
						"/>
					<path style="fill:#FFE447;" d="M717.679,305.524c1.173,0.875,3.745,2.215,3.745,2.215l-1.025,3.417l2.193,2.819l1.634-0.306
						l1.718,1.495l2.865-1.95l1.006-3.62l-4.547-2.804l-4.486-2.477L717.679,305.524z"/>
					<polygon style="fill:#FFE447;" points="728.182,391.743 724.145,396.058 732.051,396.058 731.418,390.502 					"/>
					<path style="fill:#FFE447;" d="M681.361,391.743c-1.488,0-10.252,3.322-10.252,3.322v0.992h13.294v-5.556L681.361,391.743z"/>
					<g>
						<path style="fill:#FFE447;" d="M664.471,331.784c-0.047,0.025-2.976,1.483-2.976,1.483s-1.481-0.479-1.743-0.423
							c-1.706,0.363-4.2,0.864-4.2,0.864s0.029,2.576,0.271,2.859c0.243,0.283,3.021,2.87,3.021,2.87l7.016-5.345L664.471,331.784z"
							/>
						<polygon style="fill:#FFE447;" points="660.012,332.942 659.015,332.003 656.87,331.784 657.286,332.644 658.444,333.268 
													"/>
					</g>
				</g>
				<path style="fill:#A0B2FC;" d="M681.073,292.262l-10.215,15.294c0,0,18.168,1.524,20.295,17.203l19.42-1.605
					C710.573,323.154,710.573,303.465,681.073,292.262z"/>
				<polygon style="fill:#9948B2;" points="710.882,322.82 716.777,361.755 732.051,391.743 728.182,391.743 707.368,362.392 
					700.168,332.046 700.168,332.046 683.566,354.059 685.141,391.743 680.379,391.743 674.863,351.886 691.462,324.424 				"/>
				<g>
					
						<line style="fill:none;stroke:#3770E2;stroke-width:5.1091;stroke-miterlimit:10;" x1="651.286" y1="327.705" x2="670.271" y2="351.874"/>
					<path style="fill:none;stroke:#3770E2;stroke-width:4.5772;stroke-miterlimit:10;" d="M641.757,297.298
						c9.988,13.832,14.792,27.422,10.732,30.354c-4.061,2.932-15.449-5.904-25.437-19.735
						c-9.987-13.832-14.792-27.421-10.732-30.354C620.381,274.63,631.769,283.466,641.757,297.298z"/>
				</g>
				<g>
					<polygon style="fill:#3770E2;" points="670.857,307.556 673.932,324.928 661.656,331.897 664.38,337.453 680.562,329.15 
						677.709,303.911 					"/>
					<path style="fill:#3770E2;" d="M677.756,297.228c0,0,24.228,1.583,25.018,2.131c0.79,0.548,16.584,8.107,16.584,8.107
						l4.389-2.678c-0.751-0.966-20.963-12.136-20.963-12.136l-21.711-0.389L677.756,297.228z"/>
					<path style="fill:#3770E2;" d="M673.711,302.607c0,0,12.041,8.845,14.422,12.061c2.381,3.215,5.357,10.953,5.357,10.953
						s-18.687,24.876-18.627,26.265c0.059,1.389,0,15.799,0,15.799h-0.867l-1.387-16.468l16.119-26.457
						c0,0-1.191-7.868-4.325-10.091c-2.288-1.623-13.546-7.112-13.546-7.112L673.711,302.607z"/>
					<path style="fill:#3770E2;" d="M677.756,297.228c1.287,0.091,18.512,15.695,20.694,20.457
						c2.182,4.762,5.006,49.008,5.006,49.008l19.597-1.984c0,0-8.333-38.492-13.534-50.041
						c-3.243-7.201-12.855-18.345-20.491-19.168C684.863,295.05,677.756,297.228,677.756,297.228z"/>
				</g>
				<g>
					<path style="fill:#9948B2;" d="M657.33,290.657c0,0-1.171,10.613,1.111,13.787c2.282,3.175,10.33,1.534,11.144-2.632
						C670.087,299.237,660.93,287.241,657.33,290.657z"/>
					<g>
						<path style="fill:#FFE447;" d="M659.186,298.738c1.946,3.805,6.743,6.358,10.158,4.612s4.154-7.129,2.209-10.935
							c-1.946-3.805-6.833-6.534-10.248-4.788C657.889,289.374,657.24,294.934,659.186,298.738z"/>
						<polygon style="fill:#FFE447;" points="668.904,294.573 678.284,298.079 679.387,305.47 665.67,299.951 						"/>
					</g>
					<path style="fill:#9948B2;" d="M658.1,287.501c-0.5,0.544-1.407,3.156-1.231,4.761l3.836-1.31v-2.961l1.179,2.666l4.893-0.552
						l-0.426-2.445c0,0,3.253,5.115,5.573,5.115c0.913,1.34,1.534,2.859,1.421,4.451c1.187,2.117,3.954,4.267,6.203,0.129
						c1.083-1.992,1.625-5.781,0.598-7.128c-1.322-1.733-3.545-0.718-7.538-3.14C671.166,284.674,665.008,279.986,658.1,287.501z"/>
					<path style="fill:#FFE447;" d="M672.06,295.915c0.798,1.127,2.359,1.395,3.486,0.597c1.128-0.798,1.395-2.359,0.597-3.486
						c-0.798-1.127-2.359-1.395-3.486-0.597C671.529,293.226,671.262,294.787,672.06,295.915z"/>
				</g>
				<g>
					<path style="fill:none;stroke:#000000;stroke-width:0.4258;stroke-linecap:round;stroke-miterlimit:10;" d="M673.345,296.759
						c-0.2,1.965-1.13,3.847-2.57,5.2"/>
					<path style="fill:none;stroke:#000000;stroke-width:0.4258;stroke-linecap:round;stroke-miterlimit:10;" d="M660.9,293.25
						c-0.556,0.941-0.826,2.048-0.767,3.14c0.029,0.529,0.19,1.131,0.671,1.352c0.423,0.194,0.951-0.006,1.243-0.369
						c0.292-0.363,0.387-0.847,0.397-1.312"/>
					<path d="M664.252,293.439c0.163,0.58,0.531,0.984,0.821,0.902c0.29-0.082,0.393-0.618,0.229-1.198
						c-0.163-0.58-0.531-0.984-0.821-0.902C664.191,292.323,664.088,292.859,664.252,293.439z"/>
					<path d="M658.965,294.513c0.163,0.58,0.531,0.984,0.821,0.902c0.29-0.082,0.393-0.618,0.229-1.198s-0.531-0.984-0.821-0.902
						C658.904,293.396,658.802,293.933,658.965,294.513z"/>
					<path style="fill:none;stroke:#000000;stroke-width:0.4258;stroke-linecap:round;stroke-miterlimit:10;" d="M659.741,290.953
						c-0.462,0.23-0.836,0.631-1.035,1.107"/>
					<path style="fill:none;stroke:#000000;stroke-width:0.4258;stroke-linecap:round;stroke-miterlimit:10;" d="M675.776,293.97
						c-0.187-0.587-1.046-0.691-1.55-0.338s-0.735,0.973-0.937,1.554"/>
					<path style="fill:none;stroke:#000000;stroke-width:0.4258;stroke-linecap:round;stroke-miterlimit:10;" d="M674.652,294.77
						c-0.314-0.254-0.314-0.254-0.627-0.509"/>
					<path style="fill:none;stroke:#000000;stroke-width:0.4258;stroke-linecap:round;stroke-miterlimit:10;" d="M661.884,290.657
						c1.399,0.592,2.98,0.745,4.467,0.432"/>
					<path style="fill:none;stroke:#000000;stroke-width:0.4258;stroke-linecap:round;stroke-miterlimit:10;" d="M664.105,300.001
						c0.521-0.388,1.157-0.62,1.805-0.657"/>
					<path style="fill:none;stroke:#000000;stroke-width:0.4258;stroke-linecap:round;stroke-miterlimit:10;" d="M679.4,305.479
						c1.031-0.534,2.128-0.939,3.259-1.202c0.141-1.389-0.128-2.817-0.765-4.059"/>
					<path style="fill:none;stroke:#000000;stroke-width:0.4258;stroke-linecap:round;stroke-miterlimit:10;" d="M679.387,305.47
						c-0.118,0.499-0.042,0.854,0.166,1.323"/>
					<path style="fill:none;stroke:#000000;stroke-width:0.4258;stroke-linecap:round;stroke-miterlimit:10;" d="M662.427,331.678
						c0.77,1.682,1.539,3.365,2.309,5.047"/>
					<path style="fill:none;stroke:#000000;stroke-width:0.4258;stroke-linecap:round;stroke-miterlimit:10;" d="M718.981,306.666
						c1.194-0.725,3.512-2.11,3.477-2.078"/>
					<path style="fill:none;stroke:#000000;stroke-width:0.4258;stroke-linecap:round;stroke-miterlimit:10;" d="M673.289,303.911
						c2.348,3.586,5.438,6.207,9.709,6.57"/>
					<path style="fill:none;stroke:#000000;stroke-width:0.4258;stroke-linecap:round;stroke-miterlimit:10;" d="M680.697,295.438
						c2.785,3.22,4.674,5.925,6.737,9.649"/>
					<path style="fill:none;stroke:#000000;stroke-width:0.4258;stroke-linecap:round;stroke-miterlimit:10;" d="M679.365,305.775
						c7.803,3.069,13.963,10.028,16.061,18.146"/>
					<path style="fill:none;stroke:#000000;stroke-width:0.4258;stroke-linecap:round;stroke-miterlimit:10;" d="M696.453,325.163
						c-0.367,0.079-0.591,0.545-0.424,0.881c0.168,0.336,0.675,0.438,0.959,0.192c0.242-0.392-0.063-0.993-0.523-1.028"/>
					<path style="fill:none;stroke:#000000;stroke-width:0.4258;stroke-linecap:round;stroke-miterlimit:10;" d="M664.221,290.205
						c-0.746-1.557-0.683-3.477,0.165-4.981"/>
					<path style="fill:none;stroke:#000000;stroke-width:0.4258;stroke-linecap:round;stroke-miterlimit:10;" d="M657.7,291.506
						c0.2-2.458,0.702-3.483,1.908-4.917"/>
					<path style="fill:none;stroke:#000000;stroke-width:0.4258;stroke-linecap:round;stroke-miterlimit:10;" d="M671.923,292.776
						c-0.444-1.761-0.98-3.059-1.849-4.654"/>
					<path style="fill:none;stroke:#000000;stroke-width:0.4258;stroke-linecap:round;stroke-miterlimit:10;" d="M671.539,288.126
						c0.31,1.497,0.579,2.764,1.75,3.746"/>
					<path style="fill:none;stroke:#000000;stroke-width:0.4258;stroke-linecap:round;stroke-miterlimit:10;" d="M676.897,295.537
						c0.863,0.543,1.053,1.321,1.307,2.309"/>
					<path style="fill:none;stroke:#000000;stroke-width:0.4258;stroke-linecap:round;stroke-miterlimit:10;" d="M659.223,299.672
						c0,2.796,0.91,4.74,2.291,5.955"/>
					<polygon style="fill:none;stroke:#000000;stroke-width:0.4258;stroke-linecap:round;stroke-miterlimit:10;" points="
						706.683,345.363 708.072,358.558 717.3,357.863 715.017,344.272 					"/>
					<path style="fill:none;stroke:#000000;stroke-width:0.4258;stroke-linecap:round;stroke-miterlimit:10;" d="M704.203,365.33
						c5.878-0.012,11.754-0.499,17.553-1.455"/>
					<path style="fill:none;stroke:#000000;stroke-width:0.4258;stroke-linecap:round;stroke-miterlimit:10;" d="M728.31,390.998
						c1.091-0.05,1.737-0.079,2.828-0.129"/>
					<path style="fill:none;stroke:#000000;stroke-width:0.4258;stroke-linecap:round;stroke-miterlimit:10;" d="M680.692,390.973
						c1.141,0.049,2.282,0.099,3.423,0.148"/>
					<path style="fill:none;stroke:#000000;stroke-width:0.4258;stroke-linecap:round;stroke-miterlimit:10;" d="M675.63,393.389
						c0.62,0.105,1.162,0.578,1.349,1.178"/>
					<path style="fill:none;stroke:#000000;stroke-width:0.4258;stroke-linecap:round;stroke-miterlimit:10;" d="M677.756,392.99
						c0.597,0.543,0.984,0.457,1.581,1.001"/>
					<path style="fill:none;stroke:#000000;stroke-width:0.4258;stroke-linecap:round;stroke-miterlimit:10;" d="M726.102,393.913
						c1.165-0.312,2.429-0.241,3.552,0.199"/>
					<path style="fill:none;stroke:#000000;stroke-width:0.4258;stroke-linecap:round;stroke-miterlimit:10;" d="M726.971,392.872
						c1.141-0.006,2.282-0.012,3.422-0.018"/>
					<path style="fill:none;stroke:#000000;stroke-width:0.4258;stroke-linecap:round;stroke-miterlimit:10;" d="M722.075,311.358
						c1.029,0.561,1.943,1.335,2.666,2.257"/>
					<path style="fill:none;stroke:#000000;stroke-width:0.4258;stroke-linecap:round;stroke-miterlimit:10;" d="M725.634,313.323
						c1.319-0.762,2.523-1.724,3.556-2.843"/>
				</g>
			</g>
			<g>
				<path style="fill:none;stroke:#000000;stroke-width:0.4258;stroke-linecap:round;stroke-miterlimit:10;" d="M670.728,357.086
					c0,10.901-61.161,19.738-136.607,19.738s-136.607-8.837-136.607-19.738"/>
				<path style="fill:none;stroke:#000000;stroke-width:0.4258;stroke-linecap:round;stroke-miterlimit:10;" d="M669.697,361.588
					c0,10.901-61.161,19.738-136.607,19.738s-136.607-8.837-136.607-19.738"/>
			</g>
		</g>
	</g>
</g>
</svg>
