<?xml version="1.0" encoding="utf-8"?>
<!-- Generator: Adobe Illustrator 27.5.0, SVG Export Plug-In . SVG Version: 6.00 Build 0)  -->
<svg version="1.1" xmlns="http://www.w3.org/2000/svg" xmlns:xlink="http://www.w3.org/1999/xlink" x="0px" y="0px"
	 viewBox="0 0 750 500" style="enable-background:new 0 0 750 500;" xml:space="preserve">
<g id="Background_Simple">
	<g>
		<path style="fill:#92E3A9;" d="M614.534,452.473c-10.827-3.261-21.814-5.896-32.958-7.67
			c-50.555-8.05-167.094-10.848-223.577-8.371c-73.325,3.216-305.692,57.123-323.249,7.816
			C17.194,394.941,22.358,33.714,56.438,26.211c34.081-7.503,154.912,22.024,226.171,24.168
			c71.259,2.144,241.662-26.312,311.889-29.528c70.227-3.216,76.423,8.575,92.947,71.817
			c16.524,63.241,34.081,271.188,30.982,319.423C715.794,453.091,640.783,460.379,614.534,452.473z"/>
		<path style="opacity:0.7;fill:#FFFFFF;" d="M614.534,452.473c-10.827-3.261-21.814-5.896-32.958-7.67
			c-50.555-8.05-167.094-10.848-223.577-8.371c-73.325,3.216-305.692,57.123-323.249,7.816
			C17.194,394.941,22.358,33.714,56.438,26.211c34.081-7.503,154.912,22.024,226.171,24.168
			c71.259,2.144,241.662-26.312,311.889-29.528c70.227-3.216,76.423,8.575,92.947,71.817
			c16.524,63.241,34.081,271.188,30.982,319.423C715.794,453.091,640.783,460.379,614.534,452.473z"/>
	</g>
</g>
<g id="Clouds">
	<path style="fill:none;stroke:#263238;stroke-miterlimit:10;" d="M213.9,160.146c-3.181-1.454-5.654-4.095-7.216-7.225
		c-2.749-5.512-9.932-16.609-23.409-17.195c-22.178-0.964-29.804,19.199-35.747,23.359c-5.943,4.16-7.132-4.16-21.989-2.971
		s-18.423,8.32-23.177,10.103c-4.754,1.783-9.509-4.754-18.423-2.972c-8.914,1.783-14.263,8.914-16.046,8.914
		c-1.783,0-17.234,5.349-17.234,5.349h201.464c0,0-3.566-17.829-12.48-21.394C232.026,153.066,224.754,165.106,213.9,160.146z"/>
	<path style="fill:none;stroke:#263238;stroke-miterlimit:10;" d="M613.551,58.931c-2.884-1.318-5.125-3.711-6.54-6.549
		c-2.492-4.996-9.002-15.054-21.218-15.585c-20.102-0.874-27.014,17.401-32.4,21.172c-5.387,3.771-6.464-3.771-19.93-2.693
		c-13.466,1.077-16.698,7.541-21.008,9.157c-4.309,1.616-8.618-4.309-16.698-2.693c-8.08,1.616-12.928,8.08-14.544,8.08
		c-1.616,0-15.621,4.848-15.621,4.848h182.605c0,0-3.232-16.16-11.312-19.392C629.98,52.514,623.389,63.427,613.551,58.931z"/>
</g>
<g id="Tree_1_">
	<g>
		<g>
			<path style="fill:#92E3A9;" d="M452.807,104.485c0,0,6.166-7.245-0.196-19.396c0,0-15.307,10.483-14.016,8.634
				c1.292-1.848,7.049-13.23,7.916-15.65c0.161-0.45,0.155-1.084,0.039-1.816c-2.046-2.387-4.134-4.416-5.982-6.039
				c-3.201,2.509-7.88,5.981-7.303,4.371c0.395-1.102,1.657-4.504,2.915-7.885c-0.992-0.717-1.59-1.094-1.59-1.094l-55.654,69.764
				L452.807,104.485z"/>
			<g>
				<path style="fill:#92E3A9;" d="M392.865,113.031c0,0-8.317-3.322-22.236-2.152c-1.888,3.765-3.706,7.355-4.233,8.285
					c-0.97,1.709-5.334-3.49-8.785-6.051c-1.405,0.36-2.844,0.769-4.314,1.226c-0.161,2.415,0.355,5.92-0.352,7.685
					c-1.024,2.558-2.534-1.998-5.39-5.689c-4.189,1.606-8.591,3.614-13.189,6.139c-13.284,7.295-23.378,14.828-30.956,23.181
					c0.304,2.392,0.428,5.348-0.421,7.154c-0.908,1.931-4.668,2.989-8.715,5.317c-6.039,10.488-9.242,22.386-10.552,36.555
					c-0.554,5.992,0.024,12.056,1.332,17.964c3.024,2.739,8.561,1.445,9.745,3.315c1.318,2.081-6.221,4.798-6.221,4.798
					l-1.222,0.129c7.588,22.661,23.769,41.154,23.769,41.154l82.115-63.673c0,0-21.756,26.299-18.419,24.529
					c3.337-1.771,36.219-39.747,36.219-39.747l0.255-41.834l-11.105,12.521L392.865,113.031z"/>
				<path style="fill:#FFFFFF;" d="M329.201,223.431c0,0-5.217,2.768-7.149,4.796c-1.932,2.028-2.803,7.003-2.803,7.003
					s3.606-1.078,6.199-3.122C328.04,230.064,329.201,223.431,329.201,223.431z"/>
				<path style="fill:#FFFFFF;" d="M346.314,221.035c0,0-5.217,2.768-7.149,4.796c-1.932,2.028-2.803,7.003-2.803,7.003
					s3.607-1.078,6.199-3.122C345.154,227.668,346.314,221.035,346.314,221.035z"/>
				<path style="fill:#FFFFFF;" d="M320.896,203.576c0,0-5.851,0.799-8.365,2.036c-2.513,1.237-5.046,5.606-5.046,5.606
					s3.757,0.232,6.895-0.792C317.519,209.401,320.896,203.576,320.896,203.576z"/>
				<path style="fill:#FFFFFF;" d="M342.952,200.731c0,0-5.851,0.799-8.365,2.036c-2.513,1.237-5.046,5.606-5.046,5.606
					s3.757,0.232,6.895-0.792C339.575,206.556,342.952,200.731,342.952,200.731z"/>
				<path style="fill:#FFFFFF;" d="M362.72,186.207c0,0-5.851,0.799-8.365,2.036c-2.513,1.237-5.046,5.606-5.046,5.606
					s3.757,0.232,6.895-0.792C359.343,192.033,362.72,186.207,362.72,186.207z"/>
				<path style="fill:#FFFFFF;" d="M321.672,183.98c0,0-5.512-2.119-8.311-2.246c-2.798-0.127-7.123,2.481-7.123,2.481
					s3.18,2.014,6.424,2.628C315.906,187.457,321.672,183.98,321.672,183.98z"/>
				<path style="fill:#FFFFFF;" d="M332.319,160.242c0,0-3.419-4.815-5.68-6.469c-2.261-1.654-7.306-1.874-7.306-1.874
					s1.535,3.437,3.897,5.743C325.592,159.949,332.319,160.242,332.319,160.242z"/>
				<path style="fill:#FFFFFF;" d="M346.274,180.769c0,0-4.527-3.793-7.133-4.82c-2.606-1.028-7.542,0.037-7.542,0.037
					s2.355,2.936,5.224,4.57C339.692,182.188,346.274,180.769,346.274,180.769z"/>
				<path style="fill:#FFFFFF;" d="M351.189,150.347c0,0-0.585-5.877-1.73-8.433c-1.145-2.557-5.418-5.247-5.418-5.247
					s-0.369,3.746,0.541,6.919C345.49,146.76,351.189,150.347,351.189,150.347z"/>
				<path style="fill:#FFFFFF;" d="M373.222,146.78c0,0,2.165-5.494,2.315-8.292c0.15-2.797-2.422-7.143-2.422-7.143
					s-2.04,3.163-2.681,6.402C369.793,140.985,373.222,146.78,373.222,146.78z"/>
				<path style="fill:#FFFFFF;" d="M365.391,166.27c0,0,2.165-5.494,2.315-8.292s-2.422-7.143-2.422-7.143s-2.04,3.163-2.681,6.402
					C361.962,160.476,365.391,166.27,365.391,166.27z"/>
				<path style="fill:#FFFFFF;" d="M388.184,162.107c0,0,3.721-4.586,4.708-7.207c0.987-2.622-0.155-7.541-0.155-7.541
					s-2.899,2.401-4.487,5.295C386.662,155.548,388.184,162.107,388.184,162.107z"/>
			</g>
			<g>
				<path style="fill:#92E3A9;" d="M427.951,60.762c0,0-4.092-9.876-16.694-20.795c-4.79,1.524-9.374,2.963-10.608,3.287
					c-2.269,0.596-1.463-7.468-2.152-12.551c-1.478-0.9-3.027-1.789-4.643-2.665c-2.198,1.876-4.763,5.237-6.86,6.105
					c-3.039,1.257-0.404-3.831,0.369-9.348c-4.864-2.241-10.248-4.33-16.238-6.154c-17.306-5.272-32.155-7.619-45.609-7.134
					c-1.791,2.254-4.213,4.823-6.464,5.603c-2.407,0.834-6.445-1.498-11.807-3.017c-13.995,3.58-26.833,10.76-40.033,21.45
					c-5.582,4.521-10.282,10.069-14.241,16.111c0.18,4.867,5.9,8.52,5.289,11.091c-0.68,2.86-9.285-1.318-9.285-1.318l-1.129-0.937
					c-13.041,25.371-15.358,54.611-15.358,54.611l122.851,17.105c0,0-40.607,3.327-36.313,4.703
					c4.295,1.376,64.152-2.176,64.152-2.176l35.962-34.648l-19.955,0.946L427.951,60.762z"/>
				<path style="fill:#FFFFFF;" d="M280.547,98.369c0,0-6.713-2.151-10.057-2.112c-3.344,0.039-8.32,3.441-8.32,3.441
					s3.927,2.184,7.834,2.695C273.911,102.906,280.547,98.369,280.547,98.369z"/>
				<path style="fill:#FFFFFF;" d="M296.857,110.998c0,0-6.713-2.151-10.057-2.112c-3.344,0.039-8.32,3.441-8.32,3.441
					s3.927,2.184,7.834,2.695C290.222,115.534,296.857,110.998,296.857,110.998z"/>
				<path style="fill:#FFFFFF;" d="M290.592,74.724c0,0-5.559-4.334-8.711-5.451c-3.152-1.117-8.996,0.36-8.996,0.36
					s2.933,3.404,6.424,5.232C282.799,76.693,290.592,74.724,290.592,74.724z"/>
				<path style="fill:#FFFFFF;" d="M311.406,91.201c0,0-5.559-4.335-8.711-5.451c-3.152-1.117-8.996,0.36-8.996,0.36
					s2.933,3.404,6.424,5.232C303.614,93.171,311.406,91.201,311.406,91.201z"/>
				<path style="fill:#FFFFFF;" d="M340.293,95.99c0,0-5.559-4.335-8.711-5.451c-3.152-1.117-8.996,0.36-8.996,0.36
					s2.933,3.404,6.424,5.232C332.5,97.959,340.293,95.99,340.293,95.99z"/>
				<path style="fill:#FFFFFF;" d="M307.985,59.056c0,0-2.783-6.477-5.007-8.974c-2.224-2.497-8.057-4.019-8.057-4.019
					s0.93,4.396,3.108,7.68C300.208,57.026,307.985,59.056,307.985,59.056z"/>
				<path style="fill:#FFFFFF;" d="M337.144,48.37c0,0,1.265-6.935,0.794-10.245c-0.471-3.311-4.488-7.805-4.488-7.805
					s-1.658,4.176-1.66,8.117C331.788,42.377,337.144,48.37,337.144,48.37z"/>
				<path style="fill:#FFFFFF;" d="M331.233,77.403c0,0-0.532-7.029-1.825-10.113c-1.294-3.083-6.318-6.415-6.318-6.415
					s-0.546,4.46,0.449,8.273C324.535,72.961,331.233,77.403,331.233,77.403z"/>
				<path style="fill:#FFFFFF;" d="M361.327,56.248c0,0,4.534-5.398,5.765-8.507c1.231-3.109-0.032-9.004-0.032-9.004
					s-3.509,2.807-5.463,6.229C359.643,48.389,361.327,56.248,361.327,56.248z"/>
				<path style="fill:#FFFFFF;" d="M382.739,72.104c0,0,6.5-2.729,9.015-4.932s4.086-8.023,4.086-8.023s-4.404,0.893-7.705,3.044
					C384.833,64.344,382.739,72.104,382.739,72.104z"/>
				<path style="fill:#FFFFFF;" d="M359.556,81.656c0,0,6.5-2.729,9.015-4.932c2.516-2.203,4.086-8.023,4.086-8.023
					s-4.404,0.893-7.706,3.044S359.556,81.656,359.556,81.656z"/>
				<path style="fill:#FFFFFF;" d="M382.111,97.664c0,0,7.02-0.642,10.083-1.983c3.063-1.342,6.315-6.417,6.315-6.417
					s-4.468-0.477-8.265,0.578C386.447,90.897,382.111,97.664,382.111,97.664z"/>
			</g>
		</g>
		<polygon style="fill:#263238;stroke:#263238;stroke-linecap:round;stroke-linejoin:round;stroke-miterlimit:10;" points="
			425.281,198.419 397.671,154.53 387.73,139.19 413.877,109.073 384.257,133.831 345.386,73.849 373.809,126.285 303.719,108.564 
			374.605,133.407 398.684,180.189 323.512,154.683 		"/>
	</g>
	<g>
		<g>
			<path style="fill:#92E3A9;" d="M392.061,161.039c0,0-4.429-5.204,0.141-13.933c0,0,10.996,7.53,10.068,6.203
				s-5.064-9.504-5.686-11.243c-0.116-0.323-0.111-0.779-0.028-1.305c1.47-1.715,2.97-3.172,4.297-4.338
				c2.3,1.802,5.66,4.296,5.246,3.14c-0.283-0.792-1.19-3.236-2.094-5.664c0.713-0.515,1.142-0.786,1.142-0.786l39.98,50.116
				L392.061,161.039z"/>
			<g>
				<path style="fill:#92E3A9;" d="M435.122,167.178c0,0,5.974-2.387,15.974-1.546c1.356,2.704,2.662,5.284,3.041,5.952
					c0.697,1.228,3.832-2.507,6.311-4.347c1.009,0.258,2.043,0.552,3.099,0.881c0.115,1.735-0.255,4.253,0.253,5.521
					c0.735,1.837,1.82-1.435,3.872-4.087c3.009,1.154,6.171,2.596,9.474,4.41c9.543,5.24,16.794,10.652,22.238,16.652
					c-0.219,1.718-0.308,3.842,0.302,5.139c0.652,1.387,3.354,2.147,6.261,3.82c4.338,7.534,6.639,16.082,7.58,26.26
					c0.398,4.305-0.018,8.661-0.957,12.905c-2.172,1.967-6.15,1.038-7.001,2.382c-0.947,1.495,4.469,3.447,4.469,3.447l0.878,0.093
					c-5.451,16.279-17.075,29.563-17.075,29.563l-58.989-45.74c0,0,15.629,18.893,13.232,17.62
					c-2.397-1.272-26.018-28.553-26.018-28.553l-0.183-30.052l7.977,8.995L435.122,167.178z"/>
				<path style="fill:#FFFFFF;" d="M480.856,246.486c0,0,3.748,1.988,5.135,3.445c1.388,1.457,2.013,5.03,2.013,5.03
					s-2.591-0.774-4.453-2.243C481.69,251.251,480.856,246.486,480.856,246.486z"/>
				<path style="fill:#FFFFFF;" d="M468.562,244.765c0,0,3.747,1.989,5.136,3.445c1.388,1.457,2.013,5.031,2.013,5.031
					s-2.591-0.774-4.453-2.243C469.396,249.53,468.562,244.765,468.562,244.765z"/>
				<path style="fill:#FFFFFF;" d="M486.822,232.223c0,0,4.203,0.574,6.009,1.463c1.806,0.889,3.625,4.027,3.625,4.027
					s-2.699,0.167-4.953-0.569C489.248,236.408,486.822,232.223,486.822,232.223z"/>
				<path style="fill:#FFFFFF;" d="M470.977,230.179c0,0,4.203,0.574,6.009,1.463c1.805,0.889,3.625,4.027,3.625,4.027
					s-2.699,0.167-4.953-0.569C473.403,234.364,470.977,230.179,470.977,230.179z"/>
				<path style="fill:#FFFFFF;" d="M456.777,219.746c0,0,4.203,0.574,6.009,1.463c1.805,0.889,3.625,4.027,3.625,4.027
					s-2.699,0.167-4.953-0.569S456.777,219.746,456.777,219.746z"/>
				<path style="fill:#FFFFFF;" d="M486.264,218.146c0,0,3.96-1.522,5.97-1.614c2.01-0.091,5.117,1.782,5.117,1.782
					s-2.285,1.447-4.615,1.888C490.406,220.644,486.264,218.146,486.264,218.146z"/>
				<path style="fill:#FFFFFF;" d="M478.616,201.094c0,0,2.456-3.459,4.08-4.647c1.624-1.188,5.249-1.346,5.249-1.346
					s-1.103,2.469-2.8,4.126C483.448,200.883,478.616,201.094,478.616,201.094z"/>
				<path style="fill:#FFFFFF;" d="M468.591,215.839c0,0,3.252-2.725,5.124-3.463c1.872-0.738,5.418,0.026,5.418,0.026
					s-1.692,2.109-3.753,3.283C473.32,216.859,468.591,215.839,468.591,215.839z"/>
				<path style="fill:#FFFFFF;" d="M465.061,193.985c0,0,0.42-4.222,1.243-6.058c0.822-1.837,3.892-3.769,3.892-3.769
					s0.265,2.691-0.388,4.971C469.154,191.408,465.061,193.985,465.061,193.985z"/>
				<path style="fill:#FFFFFF;" d="M449.232,191.423c0,0-1.555-3.947-1.663-5.956c-0.108-2.01,1.74-5.132,1.74-5.132
					s1.466,2.272,1.926,4.599C451.696,187.26,449.232,191.423,449.232,191.423z"/>
				<path style="fill:#FFFFFF;" d="M454.858,205.424c0,0-1.556-3.947-1.663-5.956c-0.108-2.009,1.74-5.132,1.74-5.132
					s1.466,2.272,1.926,4.599C457.322,201.261,454.858,205.424,454.858,205.424z"/>
				<path style="fill:#FFFFFF;" d="M438.484,202.434c0,0-2.673-3.294-3.382-5.178c-0.709-1.883,0.111-5.417,0.111-5.417
					s2.083,1.725,3.224,3.804S438.484,202.434,438.484,202.434z"/>
			</g>
			<g>
				<path style="fill:#92E3A9;" d="M409.917,129.63c0,0,2.94-7.095,11.992-14.939c3.441,1.095,6.734,2.129,7.62,2.361
					c1.63,0.428,1.051-5.365,1.546-9.016c1.062-0.647,2.175-1.285,3.336-1.914c1.579,1.347,3.422,3.762,4.928,4.385
					c2.183,0.903,0.29-2.752-0.265-6.715c3.494-1.61,7.362-3.11,11.665-4.421c12.432-3.787,23.099-5.474,32.764-5.125
					c1.286,1.619,3.027,3.465,4.644,4.025c1.729,0.599,4.63-1.076,8.482-2.167c10.054,2.572,19.276,7.73,28.758,15.409
					c4.01,3.248,7.387,7.233,10.23,11.573c-0.129,3.496-4.238,6.12-3.799,7.967c0.488,2.055,6.67-0.947,6.67-0.947l0.811-0.673
					c9.368,18.226,11.033,39.231,11.033,39.231l-88.252,12.288c0,0,29.171,2.39,26.086,3.378
					c-3.085,0.989-46.085-1.563-46.085-1.563l-25.834-24.89l14.335,0.68L409.917,129.63z"/>
				<path style="fill:#FFFFFF;" d="M515.807,156.646c0,0,4.823-1.545,7.225-1.517c2.402,0.028,5.977,2.472,5.977,2.472
					s-2.821,1.569-5.628,1.936C520.574,159.905,515.807,156.646,515.807,156.646z"/>
				<path style="fill:#FFFFFF;" d="M504.091,165.718c0,0,4.822-1.545,7.224-1.517c2.402,0.028,5.977,2.472,5.977,2.472
					s-2.821,1.569-5.628,1.936C508.857,168.977,504.091,165.718,504.091,165.718z"/>
				<path style="fill:#FFFFFF;" d="M508.591,139.66c0,0,3.994-3.114,6.258-3.916c2.264-0.802,6.463,0.259,6.463,0.259
					s-2.107,2.445-4.615,3.758C514.189,141.075,508.591,139.66,508.591,139.66z"/>
				<path style="fill:#FFFFFF;" d="M493.639,151.497c0,0,3.994-3.114,6.258-3.916c2.264-0.802,6.463,0.259,6.463,0.259
					s-2.107,2.445-4.615,3.758C499.237,152.912,493.639,151.497,493.639,151.497z"/>
				<path style="fill:#FFFFFF;" d="M472.887,154.937c0,0,3.994-3.114,6.258-3.916c2.264-0.802,6.463,0.259,6.463,0.259
					s-2.107,2.445-4.615,3.758C478.486,156.351,472.887,154.937,472.887,154.937z"/>
				<path style="fill:#FFFFFF;" d="M496.097,128.404c0,0,1.999-4.653,3.597-6.447c1.598-1.794,5.788-2.887,5.788-2.887
					s-0.668,3.158-2.233,5.517S496.097,128.404,496.097,128.404z"/>
				<path style="fill:#FFFFFF;" d="M475.15,120.728c0,0-0.909-4.982-0.57-7.36c0.338-2.378,3.224-5.607,3.224-5.607
					s1.191,3,1.192,5.831C478.997,116.423,475.15,120.728,475.15,120.728z"/>
				<path style="fill:#FFFFFF;" d="M479.396,141.585c0,0,0.382-5.05,1.311-7.265c0.929-2.215,4.538-4.608,4.538-4.608
					s0.393,3.204-0.323,5.943C484.208,138.394,479.396,141.585,479.396,141.585z"/>
				<path style="fill:#FFFFFF;" d="M457.778,126.387c0,0-3.257-3.878-4.141-6.111c-0.884-2.233,0.023-6.468,0.023-6.468
					s2.521,2.016,3.924,4.475C458.987,120.742,457.778,126.387,457.778,126.387z"/>
				<path style="fill:#FFFFFF;" d="M442.396,137.778c0,0-4.669-1.96-6.476-3.543c-1.807-1.583-2.935-5.763-2.935-5.763
					s3.163,0.642,5.535,2.187C440.892,132.203,442.396,137.778,442.396,137.778z"/>
				<path style="fill:#FFFFFF;" d="M459.05,144.64c0,0-4.669-1.96-6.476-3.543c-1.807-1.583-2.935-5.764-2.935-5.764
					s3.163,0.642,5.535,2.187C457.546,139.065,459.05,144.64,459.05,144.64z"/>
				<path style="fill:#FFFFFF;" d="M442.847,156.14c0,0-5.043-0.461-7.243-1.425c-2.2-0.964-4.537-4.61-4.537-4.61
					s3.21-0.342,5.937,0.416C439.732,151.278,442.847,156.14,442.847,156.14z"/>
			</g>
		</g>
		<polygon style="fill:#263238;stroke:#263238;stroke-linecap:round;stroke-linejoin:round;stroke-miterlimit:10;" points="
			411.835,228.518 431.669,196.99 438.811,185.971 420.027,164.335 441.305,182.121 469.229,139.032 448.811,176.7 499.161,163.97 
			448.239,181.816 430.942,215.423 484.943,197.1 		"/>
	</g>
	<g>
		<g>
			<path style="fill:#92E3A9;" d="M541.813,157.425c0,0-5.354-0.958-6.959-8.633c0,0,10.565-0.933,9.324-1.28
				c-1.242-0.346-7.918-3.28-9.18-4.033c-0.235-0.14-0.462-0.422-0.677-0.788c0.036-1.797,0.221-3.451,0.447-4.839
				c2.324-0.055,5.651-0.222,4.812-0.723c-0.574-0.343-2.367-1.386-4.151-2.422c0.177-0.677,0.305-1.06,0.305-1.06l49.911,10.58
				L541.813,157.425z"/>
			<g>
				<path style="fill:#92E3A9;" d="M571.379,139.422c0,0,2.464-4.488,9.034-9.028c2.201,0.976,4.307,1.901,4.878,2.119
					c1.049,0.402,1.087-3.479,1.68-5.862c0.751-0.351,1.535-0.694,2.35-1.026c0.948,1.008,1.994,2.742,2.947,3.265
					c1.381,0.757,0.393-1.803,0.313-4.47c2.433-0.813,5.105-1.525,8.052-2.081c8.514-1.605,15.706-1.947,22.086-1.012
					c0.735,1.167,1.754,2.516,2.785,3.005c1.102,0.523,3.146-0.376,5.779-0.819c6.476,2.436,12.212,6.525,17.937,12.304
					c2.421,2.444,4.369,5.331,5.938,8.414c-0.34,2.308-3.254,3.748-3.097,5.004c0.174,1.397,4.489-0.142,4.489-0.142l0.586-0.387
					c4.882,12.76,4.457,26.802,4.457,26.802l-59.38,1.722c0,0,19.158,3.706,17.042,4.137c-2.116,0.431-30.427-4.389-30.427-4.389
					l-15.31-18.375l9.451,1.493L571.379,139.422z"/>
				<path style="fill:#FFFFFF;" d="M639.588,165.03c0,0,3.308-0.673,4.898-0.48c1.59,0.193,3.781,2.073,3.781,2.073
					s-1.984,0.834-3.871,0.874C642.51,167.536,639.588,165.03,639.588,165.03z"/>
				<path style="fill:#FFFFFF;" d="M631.163,170.189c0,0,3.308-0.673,4.898-0.48c1.59,0.193,3.781,2.073,3.781,2.073
					s-1.984,0.834-3.871,0.874C634.085,172.696,631.163,170.189,631.163,170.189z"/>
				<path style="fill:#FFFFFF;" d="M636.042,153.248c0,0,2.873-1.773,4.432-2.14c1.559-0.367,4.264,0.642,4.264,0.642
					s-1.574,1.467-3.332,2.155C639.649,154.593,636.042,153.248,636.042,153.248z"/>
				<path style="fill:#FFFFFF;" d="M625.272,160.005c0,0,2.873-1.773,4.432-2.14c1.559-0.367,4.264,0.642,4.264,0.642
					s-1.574,1.467-3.332,2.155C628.878,161.349,625.272,160.005,625.272,160.005z"/>
				<path style="fill:#FFFFFF;" d="M611.269,160.774c0,0,2.873-1.773,4.432-2.14c1.559-0.367,4.264,0.642,4.264,0.642
					s-1.574,1.467-3.332,2.155C614.876,162.119,611.269,160.774,611.269,160.774z"/>
				<path style="fill:#FFFFFF;" d="M628.581,144.88c0,0,1.663-2.938,2.853-4.011c1.189-1.073,4.046-1.492,4.046-1.492
					s-0.672,2.044-1.881,3.494C632.389,144.32,628.581,144.88,628.581,144.88z"/>
				<path style="fill:#FFFFFF;" d="M615.257,138.269c0,0-0.24-3.368,0.158-4.919c0.397-1.551,2.545-3.481,2.545-3.481
					s0.571,2.075,0.366,3.951C618.12,135.695,615.257,138.269,615.257,138.269z"/>
				<path style="fill:#FFFFFF;" d="M616.554,152.399c0,0,0.621-3.319,1.398-4.719c0.777-1.4,3.343-2.724,3.343-2.724
					s0.027,2.152-0.646,3.915C619.975,150.635,616.554,152.399,616.554,152.399z"/>
				<path style="fill:#FFFFFF;" d="M603.333,140.755c0,0-1.876-2.807-2.3-4.351s0.486-4.285,0.486-4.285s1.524,1.52,2.275,3.251
					C604.545,137.102,603.333,140.755,603.333,140.755z"/>
				<path style="fill:#FFFFFF;" d="M592.31,147.184c0,0-2.952-1.639-4.034-2.819c-1.082-1.18-1.526-4.033-1.526-4.033
					s2.05,0.655,3.509,1.852C591.719,143.381,592.31,147.184,592.31,147.184z"/>
				<path style="fill:#FFFFFF;" d="M602.848,152.944c0,0-2.952-1.639-4.034-2.819c-1.082-1.18-1.526-4.033-1.526-4.033
					s2.05,0.655,3.509,1.852C602.256,149.14,602.848,152.944,602.848,152.944z"/>
				<path style="fill:#FFFFFF;" d="M591.274,159.386c0,0-3.308-0.672-4.696-1.471c-1.388-0.799-2.671-3.385-2.671-3.385
					s2.152,0.007,3.904,0.707C589.563,155.938,591.274,159.386,591.274,159.386z"/>
			</g>
			<g>
				<path style="fill:#92E3A9;" d="M536.903,129.094c0,0-1.781-5.846-0.185-15.244c2.668-1.067,5.214-2.097,5.877-2.403
					c1.218-0.561-2.067-3.828-3.609-6.322c0.325-0.934,0.686-1.89,1.082-2.863c1.652,0.029,4.005,0.582,5.246,0.203
					c1.798-0.549-1.213-1.838-3.559-3.993c1.333-2.756,2.951-5.634,4.933-8.616c5.724-8.614,11.427-15.044,17.542-19.717
					c1.609,0.344,3.612,0.599,4.889,0.125c1.365-0.506,2.301-3.002,4.116-5.621c7.479-3.504,15.754-4.998,25.464-5.074
					c4.107-0.032,8.197,0.71,12.139,1.939c1.689,2.214,0.49,5.904,1.694,6.817c1.339,1.016,3.62-3.955,3.62-3.955l0.158-0.824
					c14.973,6.462,26.618,18.528,26.618,18.528l-48.018,52.179c0,0,19.134-13.283,17.738-11.115
					c-1.396,2.168-29.11,22.344-29.11,22.344l-28.462-2.231l9.153-6.832L536.903,129.094z"/>
				<path style="fill:#FFFFFF;" d="M615.635,92.148c0,0,2.182-3.388,3.672-4.586c1.49-1.197,4.923-1.503,4.923-1.503
					s-0.94,2.391-2.479,4.036C620.212,91.74,615.635,92.148,615.635,92.148z"/>
				<path style="fill:#FFFFFF;" d="M613.023,103.648c0,0,2.182-3.388,3.672-4.586c1.49-1.197,4.923-1.503,4.923-1.503
					s-0.94,2.39-2.479,4.036C617.6,103.24,613.023,103.648,613.023,103.648z"/>
				<path style="fill:#FFFFFF;" d="M602.611,85.359c0,0,0.88-3.933,1.865-5.571c0.986-1.638,4.102-3.109,4.102-3.109
					s-0.058,2.568-0.935,4.643C606.767,83.398,602.611,85.359,602.611,85.359z"/>
				<path style="fill:#FFFFFF;" d="M599.409,100.194c0,0,0.88-3.933,1.865-5.571c0.986-1.638,4.102-3.109,4.102-3.109
					s-0.058,2.568-0.935,4.643C603.564,98.233,599.409,100.194,599.409,100.194z"/>
				<path style="fill:#FFFFFF;" d="M588.396,112.802c0,0,0.88-3.933,1.865-5.571c0.986-1.638,4.102-3.109,4.102-3.109
					s-0.058,2.568-0.935,4.643C592.552,110.84,588.396,112.802,588.396,112.802z"/>
				<path style="fill:#FFFFFF;" d="M589.241,84.761c0,0-1.124-3.87-1.05-5.78c0.075-1.91,2.097-4.701,2.097-4.701
					s1.186,2.278,1.418,4.519C591.937,81.04,589.241,84.761,589.241,84.761z"/>
				<path style="fill:#FFFFFF;" d="M572.488,90.636c0,0-3.078-2.602-4.072-4.234c-0.995-1.632-0.854-5.076-0.854-5.076
					s2.249,1.242,3.681,2.98C572.675,86.045,572.488,90.636,572.488,90.636z"/>
				<path style="fill:#FFFFFF;" d="M585.644,101.305c0,0-2.319-3.296-2.868-5.127s0.458-5.127,0.458-5.127s1.861,1.77,2.807,3.815
					C586.987,96.911,585.644,101.305,585.644,101.305z"/>
				<path style="fill:#FFFFFF;" d="M564.674,102.899c0,0-3.963-0.736-5.635-1.661c-1.673-0.925-3.257-3.986-3.257-3.986
					s2.568-0.035,4.674,0.765C562.562,98.817,564.674,102.899,564.674,102.899z"/>
				<path style="fill:#FFFFFF;" d="M560.982,117.676c0,0-3.861,1.157-5.771,1.098c-1.911-0.059-4.718-2.057-4.718-2.057
					s2.268-1.205,4.507-1.455S560.982,117.676,560.982,117.676z"/>
				<path style="fill:#FFFFFF;" d="M574.686,113.472c0,0-3.861,1.156-5.771,1.098c-1.911-0.059-4.718-2.057-4.718-2.057
					s2.268-1.205,4.507-1.455C570.942,110.807,574.686,113.472,574.686,113.472z"/>
				<path style="fill:#FFFFFF;" d="M570.544,128.732c0,0-3.332,2.267-5.172,2.787c-1.839,0.52-5.119-0.539-5.119-0.539
					s1.799-1.833,3.859-2.747C566.172,127.32,570.544,128.732,570.544,128.732z"/>
			</g>
		</g>
		<polygon style="fill:#263238;stroke:#263238;stroke-linecap:round;stroke-linejoin:round;stroke-miterlimit:10;" points="
			588.088,188.891 584.333,159.487 583.149,149.105 560.666,145.308 582.735,145.477 578.105,104.878 584.606,138.351 
			609.109,105.066 586.842,141.784 593.207,171.182 617.126,132.615 		"/>
	</g>
</g>
<g id="Roof">
	<g>
		<g>
			<polyline style="fill:#B0B0B0;stroke:#263238;stroke-miterlimit:10;" points="721.645,339.07 154.795,339.07 154.795,482.826 
				721.73,482.826 			"/>
			<rect x="154.795" y="339.07" style="fill:#263238;stroke:#263238;stroke-miterlimit:10;" width="566.85" height="27.189"/>
			<g>
				<g>
					<rect x="201.387" y="353.7" style="fill:#B0B0B0;stroke:#263238;stroke-miterlimit:10;" width="135.419" height="129.24"/>
					<rect x="207.199" y="353.7" style="fill:#92E3A9;stroke:#263238;stroke-miterlimit:10;" width="131.932" height="129.24"/>
					<g>
						<rect x="279.267" y="363.289" style="fill:#FFFFFF;stroke:#263238;stroke-miterlimit:10;" width="55.214" height="63.932"/>
						<polygon style="fill:#FFFFFF;stroke:#263238;stroke-miterlimit:10;" points="279.267,437.683 279.267,482.726 
							271.712,482.726 271.712,437.683 215.336,437.683 215.336,482.94 334.481,482.94 334.481,437.683 						"/>
						<rect x="215.336" y="363.289" style="fill:#FFFFFF;stroke:#263238;stroke-miterlimit:10;" width="56.376" height="63.932"/>
					</g>
				</g>
				<line style="fill:#FFFFFF;stroke:#263238;stroke-miterlimit:10;" x1="326.926" y1="381.37" x2="296.994" y2="411.302"/>
				<line style="fill:#FFFFFF;stroke:#263238;stroke-miterlimit:10;" x1="321.695" y1="374.396" x2="313.558" y2="382.533"/>
				<line style="fill:#FFFFFF;stroke:#263238;stroke-miterlimit:10;" x1="262.994" y1="447.046" x2="237.712" y2="472.328"/>
				<line style="fill:#FFFFFF;stroke:#263238;stroke-miterlimit:10;" x1="253.695" y1="381.37" x2="241.199" y2="393.866"/>
				<line style="fill:#FFFFFF;stroke:#263238;stroke-miterlimit:10;" x1="243.233" y1="386.02" x2="226.96" y2="402.293"/>
				<line style="fill:#FFFFFF;stroke:#263238;stroke-miterlimit:10;" x1="321.114" y1="454.601" x2="308.037" y2="467.678"/>
				<line style="fill:#FFFFFF;stroke:#263238;stroke-miterlimit:10;" x1="303.678" y1="440.652" x2="294.379" y2="449.952"/>
			</g>
		</g>
		<g>
			<g>
				<g>
					<polyline style="fill:#FFFFFF;stroke:#263238;stroke-miterlimit:10;" points="723.628,175.981 300.587,175.981 
						155.301,315.085 721.333,315.085 					"/>
					<line style="fill:none;stroke:#263238;stroke-miterlimit:10;" x1="291.695" y1="185.339" x2="722.591" y2="185.339"/>
					<line style="fill:none;stroke:#263238;stroke-miterlimit:10;" x1="275.348" y1="200.154" x2="722.073" y2="200.154"/>
					<line style="fill:none;stroke:#263238;stroke-miterlimit:10;" x1="255.935" y1="218.545" x2="722.073" y2="218.545"/>
					<line style="fill:none;stroke:#263238;stroke-miterlimit:10;" x1="234.85" y1="239.49" x2="725.184" y2="239.49"/>
					<line style="fill:none;stroke:#263238;stroke-miterlimit:10;" x1="209.155" y1="263.501" x2="723.628" y2="263.501"/>
					<line style="fill:none;stroke:#263238;stroke-miterlimit:10;" x1="182.022" y1="289.903" x2="723.94" y2="289.903"/>
				</g>
				<polygon style="fill:#FFFFFF;stroke:#263238;stroke-miterlimit:10;" points="723.628,171.558 304.664,171.558 300.588,175.981 
					723.628,175.981 				"/>
				<g>
					<line style="fill:none;stroke:#263238;stroke-miterlimit:10;" x1="239.877" y1="289.682" x2="216.139" y2="314.108"/>
					<line style="fill:none;stroke:#263238;stroke-miterlimit:10;" x1="238.761" y1="263.457" x2="213.275" y2="289.682"/>
					<line style="fill:none;stroke:#263238;stroke-miterlimit:10;" x1="288.75" y1="239.391" x2="265.362" y2="263.457"/>
					<line style="fill:none;stroke:#263238;stroke-miterlimit:10;" x1="279.543" y1="219.003" x2="259.73" y2="239.391"/>
					<line style="fill:none;stroke:#263238;stroke-miterlimit:10;" x1="327.632" y1="199.38" x2="308.562" y2="219.003"/>
					<line style="fill:none;stroke:#263238;stroke-miterlimit:10;" x1="313.517" y1="184.977" x2="299.52" y2="199.38"/>
					<line style="fill:none;stroke:#263238;stroke-miterlimit:10;" x1="350.831" y1="175.508" x2="341.629" y2="184.977"/>
				</g>
				<g>
					<line style="fill:none;stroke:#263238;stroke-miterlimit:10;" x1="302.724" y1="289.682" x2="278.987" y2="314.108"/>
					<line style="fill:none;stroke:#263238;stroke-miterlimit:10;" x1="301.609" y1="263.457" x2="276.123" y2="289.682"/>
					<line style="fill:none;stroke:#263238;stroke-miterlimit:10;" x1="351.597" y1="239.391" x2="328.21" y2="263.457"/>
					<line style="fill:none;stroke:#263238;stroke-miterlimit:10;" x1="342.39" y1="219.003" x2="322.578" y2="239.391"/>
					<line style="fill:none;stroke:#263238;stroke-miterlimit:10;" x1="390.48" y1="199.38" x2="371.41" y2="219.003"/>
					<line style="fill:none;stroke:#263238;stroke-miterlimit:10;" x1="376.364" y1="184.977" x2="362.367" y2="199.38"/>
					<line style="fill:none;stroke:#263238;stroke-miterlimit:10;" x1="413.678" y1="175.508" x2="404.477" y2="184.977"/>
				</g>
			</g>
			<g>
				<line style="fill:none;stroke:#263238;stroke-miterlimit:10;" x1="365.572" y1="289.682" x2="341.835" y2="314.108"/>
				<line style="fill:none;stroke:#263238;stroke-miterlimit:10;" x1="364.456" y1="263.457" x2="338.971" y2="289.682"/>
				<line style="fill:none;stroke:#263238;stroke-miterlimit:10;" x1="414.445" y1="239.391" x2="391.057" y2="263.457"/>
				<line style="fill:none;stroke:#263238;stroke-miterlimit:10;" x1="405.238" y1="219.003" x2="385.425" y2="239.391"/>
				<line style="fill:none;stroke:#263238;stroke-miterlimit:10;" x1="453.327" y1="199.38" x2="434.258" y2="219.003"/>
				<line style="fill:none;stroke:#263238;stroke-miterlimit:10;" x1="439.212" y1="184.977" x2="425.215" y2="199.38"/>
				<line style="fill:none;stroke:#263238;stroke-miterlimit:10;" x1="476.526" y1="175.508" x2="467.325" y2="184.977"/>
			</g>
			<g>
				<line style="fill:none;stroke:#263238;stroke-miterlimit:10;" x1="428.42" y1="289.682" x2="404.682" y2="314.108"/>
				<line style="fill:none;stroke:#263238;stroke-miterlimit:10;" x1="427.304" y1="263.457" x2="401.818" y2="289.682"/>
				<line style="fill:none;stroke:#263238;stroke-miterlimit:10;" x1="477.292" y1="239.391" x2="453.905" y2="263.457"/>
				<line style="fill:none;stroke:#263238;stroke-miterlimit:10;" x1="468.086" y1="219.003" x2="448.273" y2="239.391"/>
				<line style="fill:none;stroke:#263238;stroke-miterlimit:10;" x1="516.175" y1="199.38" x2="497.105" y2="219.003"/>
				<line style="fill:none;stroke:#263238;stroke-miterlimit:10;" x1="502.06" y1="184.977" x2="488.063" y2="199.38"/>
				<line style="fill:none;stroke:#263238;stroke-miterlimit:10;" x1="539.374" y1="175.508" x2="530.172" y2="184.977"/>
			</g>
			<g>
				<line style="fill:none;stroke:#263238;stroke-miterlimit:10;" x1="491.267" y1="289.682" x2="467.53" y2="314.108"/>
				<line style="fill:none;stroke:#263238;stroke-miterlimit:10;" x1="490.151" y1="263.457" x2="464.666" y2="289.682"/>
				<line style="fill:none;stroke:#263238;stroke-miterlimit:10;" x1="540.14" y1="239.391" x2="516.753" y2="263.457"/>
				<line style="fill:none;stroke:#263238;stroke-miterlimit:10;" x1="530.933" y1="219.003" x2="511.121" y2="239.391"/>
				<line style="fill:none;stroke:#263238;stroke-miterlimit:10;" x1="579.023" y1="199.38" x2="559.953" y2="219.003"/>
				<line style="fill:none;stroke:#263238;stroke-miterlimit:10;" x1="564.907" y1="184.977" x2="550.91" y2="199.38"/>
				<line style="fill:none;stroke:#263238;stroke-miterlimit:10;" x1="602.221" y1="175.508" x2="593.02" y2="184.977"/>
			</g>
			<g>
				<line style="fill:none;stroke:#263238;stroke-miterlimit:10;" x1="554.115" y1="289.682" x2="530.377" y2="314.108"/>
				<line style="fill:none;stroke:#263238;stroke-miterlimit:10;" x1="552.999" y1="263.457" x2="527.514" y2="289.682"/>
				<line style="fill:none;stroke:#263238;stroke-miterlimit:10;" x1="602.988" y1="239.391" x2="579.6" y2="263.457"/>
				<line style="fill:none;stroke:#263238;stroke-miterlimit:10;" x1="593.781" y1="219.003" x2="573.968" y2="239.391"/>
				<line style="fill:none;stroke:#263238;stroke-miterlimit:10;" x1="641.87" y1="199.38" x2="622.8" y2="219.003"/>
				<line style="fill:none;stroke:#263238;stroke-miterlimit:10;" x1="627.755" y1="184.977" x2="613.758" y2="199.38"/>
				<line style="fill:none;stroke:#263238;stroke-miterlimit:10;" x1="665.069" y1="175.508" x2="655.867" y2="184.977"/>
			</g>
			<g>
				<line style="fill:none;stroke:#263238;stroke-miterlimit:10;" x1="616.962" y1="289.682" x2="593.225" y2="314.108"/>
				<line style="fill:none;stroke:#263238;stroke-miterlimit:10;" x1="615.847" y1="263.457" x2="590.361" y2="289.682"/>
				<line style="fill:none;stroke:#263238;stroke-miterlimit:10;" x1="665.835" y1="239.391" x2="642.448" y2="263.457"/>
				<line style="fill:none;stroke:#263238;stroke-miterlimit:10;" x1="656.628" y1="219.003" x2="636.816" y2="239.391"/>
				<line style="fill:none;stroke:#263238;stroke-miterlimit:10;" x1="704.718" y1="199.38" x2="685.648" y2="219.003"/>
				<line style="fill:none;stroke:#263238;stroke-miterlimit:10;" x1="690.602" y1="184.977" x2="676.605" y2="199.38"/>
			</g>
			<g>
				<line style="fill:none;stroke:#263238;stroke-miterlimit:10;" x1="679.81" y1="289.682" x2="656.073" y2="314.108"/>
				<line style="fill:none;stroke:#263238;stroke-miterlimit:10;" x1="678.694" y1="263.457" x2="653.209" y2="289.682"/>
				<line style="fill:none;stroke:#263238;stroke-miterlimit:10;" x1="718.939" y1="249.418" x2="705.296" y2="263.457"/>
				<line style="fill:none;stroke:#263238;stroke-miterlimit:10;" x1="719.476" y1="219.003" x2="699.664" y2="239.391"/>
			</g>
		</g>
		<g>
			<path style="fill:#92E3A9;stroke:#263238;stroke-miterlimit:10;" d="M722.382,329.19H144.547
				c-10.116-2.529-15.174-14.668-15.174-14.668h593.528"/>
			<polyline style="fill:#92E3A9;stroke:#263238;stroke-miterlimit:10;" points="722.382,340.318 144.547,340.318 144.547,329.19 
				722.382,329.19 			"/>
		</g>
	</g>
</g>
<g id="Character">
	<g>
		<g>
			<g>
				
					<rect x="341.43" y="271.572" transform="matrix(0.882 -0.4712 0.4712 0.882 -87.8712 199.2876)" style="fill:#263238;stroke:#263238;stroke-miterlimit:10;" width="25.323" height="7.144"/>
			</g>
			<g>
				
					<rect x="360.727" y="249.03" transform="matrix(0.882 -0.4713 0.4713 0.882 -71.2167 217.7503)" style="fill:#B0B0B0;stroke:#263238;stroke-miterlimit:10;" width="76.876" height="4.083"/>
			</g>
			<g>
				
					<rect x="423.728" y="190.536" transform="matrix(0.8821 -0.4711 0.4711 0.8821 -32.8564 260.0195)" style="fill:#B0B0B0;stroke:#263238;stroke-miterlimit:10;" width="158.448" height="10.206"/>
			</g>
		</g>
		<g>
			<path style="fill:#FFFFFF;stroke:#263238;stroke-miterlimit:10;" d="M523.382,118.635c0,0,0,4.806,0.253,12.141
				c0.253,7.335,0.506,9.612,2.277,11.888c1.771,2.276,3.288,4.553,2.276,7.841c-1.012,3.288-1.265,5.059,1.518,6.324
				c2.782,1.265,4.806,0.759,4.806,0.759s5.565,5.565,7.841,7.588c2.276,2.023,3.288,4.553,5.818,3.541
				c2.529-1.012,7.588-4.806,7.588-4.806l31.871-14.165c0,0-11.382-11.888-13.912-17.959c-2.529-6.071-2.782-17.959-7.841-22.765
				c-5.059-4.806-16.947-8.853-24.535-6.323c-7.588,2.529-18.465,8.853-18.465,8.853s-7.335,4.806-6.829,6.071
				c0.506,1.265,2.277,0.253,2.277,0.253s-2.529,5.059-1.012,5.312C518.829,123.441,523.382,118.635,523.382,118.635z"/>
			<path style="fill:#263238;stroke:#263238;stroke-miterlimit:10;" d="M531.531,120.905c-1.012,2.529,1.641,6.073,3.412,5.82
				c1.771-0.253,4.563-0.008,4.816,1.004c0.253,1.012,2.147,6.422,3.412,6.422c1.265,0,2.208-3.01,2.208-3.01l1.004,1.405
				l2.408-4.816c0,0,1.91-4.287,4.945-1.505c3.035,2.782,3.035,6.829,3.035,6.829s2.782,2.023,5.565,3.541
				c2.782,1.518,3.794-2.023,3.794-2.023s2.529,3.035,3.794,2.782c1.227-0.245,2.452-6.194,2.986-7.934
				c-1.846-6.407-2.57-16.155-7.033-20.396c-5.059-4.806-16.947-8.853-24.535-6.323c-7.588,2.529-18.465,8.853-18.465,8.853
				s-7.335,4.806-6.829,6.071c0.506,1.265,2.277,0.253,2.277,0.253s-3.362,7.993-1.844,8.246c1.518,0.253,7.626-2.208,7.626-2.208
				S532.543,118.376,531.531,120.905z"/>
			<path style="fill:#263238;" d="M533.44,142.316c0.662,1.408,0.595,2.832-0.149,3.182c-0.744,0.35-1.883-0.508-2.545-1.916
				c-0.661-1.408-0.595-2.832,0.149-3.182C531.639,140.051,532.778,140.908,533.44,142.316z"/>
			<path style="fill:none;stroke:#263238;stroke-miterlimit:10;" d="M537.8,159.359c0,0,2.024-1.518,0.759-5.818"/>
			<path style="fill:none;stroke:#263238;stroke-miterlimit:10;" d="M527.176,141.4c0,0-0.759-4.806,5.818-5.312"/>
			<path style="fill:none;stroke:#263238;stroke-miterlimit:10;" d="M546.147,134.065c0,0,1.012-7.588,5.059-8.094
				c4.047-0.506,6.829,4.806,5.312,10.37c-1.518,5.565-2.782,8.6-5.818,7.841"/>
			<line style="fill:none;stroke:#263238;stroke-miterlimit:10;" x1="555.759" y1="163.912" x2="557.529" y2="154.047"/>
			<line style="fill:none;stroke:#263238;stroke-miterlimit:10;" x1="560.565" y1="149.494" x2="558.035" y2="158.6"/>
		</g>
		<path style="fill:#92E3A9;stroke:#263238;stroke-miterlimit:10;" d="M645.085,155.902l-16.189-7.908c0,0-12.32-8.69-13.537-8.386
			c-1.217,0.304-5.172,4.259-6.997,6.389c-1.825,2.13-3.955,3.955-3.955,3.955l39.245,9.431L645.085,155.902z"/>
		<g>
			<path style="fill:#92E3A9;stroke:#263238;stroke-miterlimit:10;" d="M555.764,162.485l-14.545,12.452
				c0,0-7.698,5.747-8.372,8.106c-0.674,2.359,46.844,95.037,46.844,95.037l64.329-11.382l-15.126-118.703l-42.126,0.337
				L555.764,162.485z"/>
			<line style="fill:#FFFFFF;stroke:#263238;stroke-miterlimit:10;" x1="595.569" y1="160.885" x2="584.44" y2="190.759"/>
			<line style="fill:#FFFFFF;stroke:#263238;stroke-miterlimit:10;" x1="595.569" y1="174.943" x2="587.368" y2="196.617"/>
		</g>
		<path style="fill:#FFFFFF;stroke:#263238;stroke-miterlimit:10;" d="M645.085,155.902c0,0,20.994,6.427,22.493,7.498
			c1.5,1.071,7.284,7.284,7.284,10.283c0,2.999-1.5,7.926-2.785,8.569c-1.285,0.643-21.851-1.714-21.851-1.714l-10.497-24.207
			L645.085,155.902z"/>
		<g>
			<polygon style="fill:#92E3A9;stroke:#263238;stroke-miterlimit:10;" points="628.896,147.993 653.16,161.811 650.801,185.065 
				633.426,184.11 			"/>
			<line style="fill:#FFFFFF;stroke:#263238;stroke-miterlimit:10;" x1="633.426" y1="184.11" x2="636.544" y2="162.592"/>
			<line style="fill:none;stroke:#263238;stroke-miterlimit:10;" x1="634.059" y1="180.697" x2="632.639" y2="153.362"/>
		</g>
		<g>
			<polygon style="fill:#92E3A9;stroke:#263238;stroke-miterlimit:10;" points="532.848,183.042 509.931,222.136 534.196,232.583 
				548.687,217.755 			"/>
			<polyline style="fill:none;stroke:#263238;stroke-miterlimit:10;" points="534.302,211.583 548.687,217.755 526.847,216.908 			
				"/>
		</g>
		<path style="fill:#92E3A9;stroke:#263238;stroke-miterlimit:10;" d="M490.416,221.882c0,0-0.857-5.57,0-7.069
			c0.857-1.5,4.499-5.356,4.713-6.641c0.214-1.285,0.643-3.642,0.643-3.642s-5.784-0.214-7.284-1.285
			c-1.5-1.071-2.999-4.499-3.213-5.784c-0.214-1.285-4.07-2.785-4.499-1.714c-0.428,1.071-2.571,2.785-2.571,2.785
			s-4.713-0.643-5.998,0.643c-1.285,1.285-1.928,2.571-1.928,2.571s-3.856,0.643-4.07,1.928c-0.214,1.285-0.214,1.285-0.214,1.285
			s-2.785,1.071-2.999,4.07c-0.214,2.999,0.643,4.07,0.857,4.713c0.214,0.643,7.284,13.068,8.355,15.21
			c1.071,2.142,3.686,3.631,3.686,3.631S488.916,230.237,490.416,221.882z"/>
		<g>
			<path style="fill:#FFFFFF;stroke:#263238;stroke-miterlimit:10;" d="M512.29,220.114l-11.121,13.817L488.7,220.788
				c0,0-6.066-0.674-9.436,4.044c-3.37,4.718-3.37,7.751-3.37,7.751l28.646,31.679c0,0,3.37-0.337,6.066-2.696
				c2.696-2.359,23.591-28.983,23.591-28.983L512.29,220.114z"/>
			<line style="fill:none;stroke:#263238;stroke-miterlimit:10;" x1="501.169" y1="233.931" x2="495.433" y2="241.101"/>
		</g>
		<g>
			<rect x="567.068" y="363.353" style="fill:#FFFFFF;stroke:#263238;stroke-miterlimit:10;" width="93.96" height="13.949"/>
			<rect x="567.068" y="438.328" style="fill:#FFFFFF;stroke:#263238;stroke-miterlimit:10;" width="93.96" height="13.949"/>
			
				<rect x="661.028" y="298.84" transform="matrix(-1 -1.224647e-16 1.224647e-16 -1 1336.1138 781.9203)" style="fill:#FFFFFF;stroke:#263238;stroke-miterlimit:10;" width="14.057" height="184.24"/>
			
				<rect x="664.728" y="298.84" transform="matrix(-1 -1.224647e-16 1.224647e-16 -1 1343.5122 781.9203)" style="fill:#FFFFFF;stroke:#263238;stroke-miterlimit:10;" width="14.057" height="184.24"/>
			
				<rect x="553.011" y="298.84" transform="matrix(-1 -1.224647e-16 1.224647e-16 -1 1120.0796 781.9203)" style="fill:#FFFFFF;stroke:#263238;stroke-miterlimit:10;" width="14.057" height="184.24"/>
			
				<rect x="556.711" y="298.84" transform="matrix(-1 -1.224647e-16 1.224647e-16 -1 1127.478 781.9203)" style="fill:#FFFFFF;stroke:#263238;stroke-miterlimit:10;" width="14.057" height="184.24"/>
		</g>
		<polygon style="fill:#263238;stroke:#263238;stroke-miterlimit:10;" points="570.172,278.031 579.374,428.343 582.88,467.783 
			583.245,482.94 615.245,482.94 624.511,358.227 645.297,482.94 680.674,482.94 667.019,322.292 653.435,262.255 632.937,210.788 
			621.605,164.899 618,148.002 607.045,148.002 611.427,160.272 622.32,207.039 592.521,214.488 552.643,165.845 543.532,173.242 
			580.251,223.253 		"/>
		<g>
			<line style="fill:none;stroke:#B8B8B8;stroke-miterlimit:10;" x1="636.679" y1="293.647" x2="656.444" y2="288.826"/>
			<g>
				<path style="fill:none;stroke:#B8B8B8;stroke-miterlimit:10;" d="M614.022,299.431l-31.335,4.821c0,0,3.857,31.817,6.267,34.227
					c2.41,2.41,16.872,6.749,20.729,4.821c3.857-1.928,8.677-10.605,8.677-10.605"/>
				<path style="fill:none;stroke:#B8B8B8;stroke-miterlimit:10;" d="M635.233,311.001c0,0-0.964,15.426,4.821,20.247
					c5.785,4.821,17.837,4.339,20.247,2.41c2.41-1.928,6.719-11.366,6.719-11.366"/>
				<line style="fill:none;stroke:#B8B8B8;stroke-miterlimit:10;" x1="577.385" y1="270.989" x2="644.393" y2="256.045"/>
				<line style="fill:none;stroke:#B8B8B8;stroke-miterlimit:10;" x1="583.652" y1="261.348" x2="638.608" y2="250.26"/>
				<line style="fill:none;stroke:#B8B8B8;stroke-miterlimit:10;" x1="624.511" y1="358.227" x2="632.823" y2="343.782"/>
				<polyline style="fill:none;stroke:#B8B8B8;stroke-miterlimit:10;" points="591.809,267.005 590.097,260.158 594.254,259.424 
					595.966,266.271 				"/>
				<polyline style="fill:none;stroke:#B8B8B8;stroke-miterlimit:10;" points="631.377,259.42 629.714,252.087 633.871,251.598 
					635.583,258.69 				"/>
			</g>
		</g>
		<g>
			<line style="fill:#FFFFFF;stroke:#263238;stroke-miterlimit:10;" x1="269.605" y1="304.634" x2="259.158" y2="308.483"/>
			<line style="fill:#FFFFFF;stroke:#263238;stroke-miterlimit:10;" x1="338.044" y1="279.419" x2="274.069" y2="302.989"/>
			<line style="fill:#FFFFFF;stroke:#263238;stroke-miterlimit:10;" x1="327.973" y1="290.847" x2="292.373" y2="310.143"/>
			<line style="fill:#FFFFFF;stroke:#263238;stroke-miterlimit:10;" x1="336.799" y1="286.062" x2="331.409" y2="288.984"/>
			<line style="fill:#FFFFFF;stroke:#263238;stroke-miterlimit:10;" x1="335.173" y1="301.029" x2="332.647" y2="305.576"/>
			<line style="fill:#FFFFFF;stroke:#263238;stroke-miterlimit:10;" x1="343.027" y1="286.893" x2="337.073" y2="297.609"/>
			<line style="fill:#FFFFFF;stroke:#263238;stroke-miterlimit:10;" x1="313.089" y1="278.788" x2="303.999" y2="279.419"/>
			<line style="fill:#FFFFFF;stroke:#263238;stroke-miterlimit:10;" x1="333.892" y1="277.343" x2="316.808" y2="278.53"/>
		</g>
	</g>
</g>
<g id="Leaves">
	<g>
		<g>
			<g>
				<g>
					<path style="fill:#92E3A9;stroke:#263238;stroke-miterlimit:10;" d="M244.044,279.454c0,0-3.431-6.55-9.046-8.11
						c-5.614-1.56-13.1,0-13.1,0s4.055,5.615,7.174,8.11C232.191,281.95,244.044,279.454,244.044,279.454z"/>
					<path style="fill:none;stroke:#263238;stroke-miterlimit:10;" d="M221.898,271.345c0,0,20.389,6.562,22.146,8.11"/>
				</g>
				<polyline style="fill:none;stroke:#263238;stroke-width:0.5;stroke-miterlimit:10;" points="225.71,275.75 229.216,273.926 
					228.655,271.121 				"/>
				<polyline style="fill:none;stroke:#263238;stroke-width:0.5;stroke-miterlimit:10;" points="229.072,279.454 233.003,275.189 
					233.003,271.262 				"/>
				<polyline style="fill:none;stroke:#263238;stroke-width:0.5;stroke-miterlimit:10;" points="234.125,280.097 237.631,277.012 
					237.21,272.664 				"/>
			</g>
			<g>
				<g>
					<path style="fill:#92E3A9;stroke:#263238;stroke-miterlimit:10;" d="M240.847,291.796c0,0-3.431-6.55-9.046-8.11
						c-5.615-1.56-13.1,0-13.1,0s4.055,5.614,7.174,8.11C228.994,294.291,240.847,291.796,240.847,291.796z"/>
					<path style="fill:none;stroke:#263238;stroke-miterlimit:10;" d="M218.701,283.686c0,0,20.389,6.562,22.146,8.11"/>
				</g>
				<polyline style="fill:none;stroke:#263238;stroke-width:0.5;stroke-miterlimit:10;" points="222.513,288.091 226.019,286.268 
					225.458,283.463 				"/>
				<polyline style="fill:none;stroke:#263238;stroke-width:0.5;stroke-miterlimit:10;" points="225.875,291.796 229.806,287.53 
					229.806,283.603 				"/>
				<polyline style="fill:none;stroke:#263238;stroke-width:0.5;stroke-miterlimit:10;" points="230.928,292.439 234.434,289.353 
					234.013,285.005 				"/>
			</g>
			<g>
				<g>
					<path style="fill:#92E3A9;stroke:#263238;stroke-miterlimit:10;" d="M246.206,309.589c0,0,5.646-4.775,5.946-10.594
						s-2.852-12.786-2.852-12.786s-4.597,5.18-6.354,8.767C241.19,298.563,246.206,309.589,246.206,309.589z"/>
					<path style="fill:none;stroke:#263238;stroke-miterlimit:10;" d="M249.301,286.209c0,0-1.966,21.328-3.095,23.38"/>
				</g>
				<polyline style="fill:none;stroke:#263238;stroke-width:0.5;stroke-miterlimit:10;" points="245.831,290.888 248.374,293.913 
					250.989,292.755 				"/>
				<polyline style="fill:none;stroke:#263238;stroke-width:0.5;stroke-miterlimit:10;" points="242.947,294.976 247.966,297.884 
					251.799,297.029 				"/>
				<polyline style="fill:none;stroke:#263238;stroke-width:0.5;stroke-miterlimit:10;" points="243.419,300.047 247.194,302.798 
					251.346,301.441 				"/>
			</g>
			<g>
				<g>
					<path style="fill:#92E3A9;stroke:#263238;stroke-miterlimit:10;" d="M223.397,253.15c0,0,5.646-4.775,5.946-10.594
						c0.3-5.819-2.852-12.786-2.852-12.786s-4.597,5.18-6.354,8.767C218.381,242.125,223.397,253.15,223.397,253.15z"/>
					<path style="fill:none;stroke:#263238;stroke-miterlimit:10;" d="M226.492,229.77c0,0-1.966,21.328-3.095,23.38"/>
				</g>
				<polyline style="fill:none;stroke:#263238;stroke-width:0.5;stroke-miterlimit:10;" points="223.022,234.449 225.565,237.475 
					228.18,236.316 				"/>
				<polyline style="fill:none;stroke:#263238;stroke-width:0.5;stroke-miterlimit:10;" points="220.138,238.538 225.157,241.445 
					228.99,240.59 				"/>
				<polyline style="fill:none;stroke:#263238;stroke-width:0.5;stroke-miterlimit:10;" points="220.61,243.609 224.385,246.359 
					228.537,245.002 				"/>
			</g>
			<g>
				<g>
					<path style="fill:#92E3A9;stroke:#263238;stroke-miterlimit:10;" d="M250.45,281.153c0,0,5.646-4.775,5.947-10.594
						c0.3-5.819-2.852-12.786-2.852-12.786s-4.597,5.18-6.354,8.767C245.434,270.127,250.45,281.153,250.45,281.153z"/>
					<path style="fill:none;stroke:#263238;stroke-miterlimit:10;" d="M253.545,257.773c0,0-1.966,21.328-3.095,23.38"/>
				</g>
				<polyline style="fill:none;stroke:#263238;stroke-width:0.5;stroke-miterlimit:10;" points="250.075,262.452 252.618,265.477 
					255.233,264.319 				"/>
				<polyline style="fill:none;stroke:#263238;stroke-width:0.5;stroke-miterlimit:10;" points="247.191,266.54 252.21,269.448 
					256.043,268.593 				"/>
				<polyline style="fill:none;stroke:#263238;stroke-width:0.5;stroke-miterlimit:10;" points="247.663,271.611 251.438,274.362 
					255.59,273.005 				"/>
			</g>
			<g>
				<g>
					<path style="fill:#92E3A9;stroke:#263238;stroke-miterlimit:10;" d="M211.057,288.272c0,0,5.646-4.775,5.946-10.594
						c0.3-5.819-2.851-12.786-2.851-12.786s-4.597,5.18-6.354,8.767C206.041,277.247,211.057,288.272,211.057,288.272z"/>
					<path style="fill:none;stroke:#263238;stroke-miterlimit:10;" d="M214.152,264.892c0,0-1.966,21.328-3.095,23.38"/>
				</g>
				<polyline style="fill:none;stroke:#263238;stroke-width:0.5;stroke-miterlimit:10;" points="210.682,269.571 213.225,272.596 
					215.84,271.438 				"/>
				<polyline style="fill:none;stroke:#263238;stroke-width:0.5;stroke-miterlimit:10;" points="207.798,273.659 212.817,276.567 
					216.65,275.712 				"/>
				<polyline style="fill:none;stroke:#263238;stroke-width:0.5;stroke-miterlimit:10;" points="208.27,278.73 212.045,281.481 
					216.197,280.124 				"/>
			</g>
			<g>
				<g>
					<path style="fill:#92E3A9;stroke:#263238;stroke-miterlimit:10;" d="M186.527,292.177c0,0-7.394-0.032-11.4,4.2
						c-4.005,4.232-6.129,11.578-6.129,11.578s6.859-0.957,10.524-2.546C183.186,303.82,186.527,292.177,186.527,292.177z"/>
					<path style="fill:none;stroke:#263238;stroke-miterlimit:10;" d="M168.998,307.955c0,0,15.339-14.949,17.529-15.778"/>
				</g>
				<polyline style="fill:none;stroke:#263238;stroke-width:0.5;stroke-miterlimit:10;" points="174.674,306.647 174.703,302.696 
					171.962,301.879 				"/>
				<polyline style="fill:none;stroke:#263238;stroke-width:0.5;stroke-miterlimit:10;" points="179.522,305.409 177.591,299.939 
					174.12,298.102 				"/>
				<polyline style="fill:none;stroke:#263238;stroke-width:0.5;stroke-miterlimit:10;" points="182.454,301.245 181.367,296.702 
					177.328,295.04 				"/>
			</g>
			<g>
				<g>
					<path style="fill:#92E3A9;stroke:#263238;stroke-miterlimit:10;" d="M195.649,259.312c0,0-7.394-0.032-11.4,4.2
						c-4.005,4.232-6.129,11.578-6.129,11.578s6.859-0.957,10.524-2.546C192.309,270.955,195.649,259.312,195.649,259.312z"/>
					<path style="fill:none;stroke:#263238;stroke-miterlimit:10;" d="M178.12,275.09c0,0,15.339-14.95,17.529-15.778"/>
				</g>
				<polyline style="fill:none;stroke:#263238;stroke-width:0.5;stroke-miterlimit:10;" points="183.796,273.783 183.826,269.831 
					181.084,269.014 				"/>
				<polyline style="fill:none;stroke:#263238;stroke-width:0.5;stroke-miterlimit:10;" points="188.644,272.544 186.713,267.074 
					183.242,265.237 				"/>
				<polyline style="fill:none;stroke:#263238;stroke-width:0.5;stroke-miterlimit:10;" points="191.576,268.38 190.49,263.837 
					186.45,262.175 				"/>
			</g>
			<g>
				<g>
					<path style="fill:#92E3A9;stroke:#263238;stroke-miterlimit:10;" d="M197.102,281.662c0,0-6.13,4.135-7.059,9.887
						c-0.929,5.753,1.45,13.02,1.45,13.02s5.131-4.651,7.266-8.028C200.894,293.166,197.102,281.662,197.102,281.662z"/>
					<path style="fill:none;stroke:#263238;stroke-miterlimit:10;" d="M191.493,304.569c0,0,4.265-20.99,5.609-22.907"/>
				</g>
				<polyline style="fill:none;stroke:#263238;stroke-width:0.5;stroke-miterlimit:10;" points="195.449,300.294 193.249,297.011 
					190.523,297.879 				"/>
				<polyline style="fill:none;stroke:#263238;stroke-width:0.5;stroke-miterlimit:10;" points="198.759,296.542 194.084,293.108 
					190.181,293.542 				"/>
				<polyline style="fill:none;stroke:#263238;stroke-width:0.5;stroke-miterlimit:10;" points="198.839,291.449 195.384,288.306 
					191.11,289.205 				"/>
			</g>
			<g>
				<g>
					<path style="fill:#92E3A9;stroke:#263238;stroke-miterlimit:10;" d="M271.695,294.559c0,0-7.241-1.501-12.007,1.852
						c-4.766,3.352-8.307,10.13-8.307,10.13s6.913,0.425,10.82-0.405C266.108,305.306,271.695,294.559,271.695,294.559z"/>
					<path style="fill:none;stroke:#263238;stroke-miterlimit:10;" d="M251.381,306.54c0,0,18.003-11.604,20.314-11.981"/>
				</g>
				<polyline style="fill:none;stroke:#263238;stroke-width:0.5;stroke-miterlimit:10;" points="257.204,306.387 258.018,302.519 
					255.493,301.174 				"/>
				<polyline style="fill:none;stroke:#263238;stroke-width:0.5;stroke-miterlimit:10;" points="262.201,306.136 261.395,300.392 
					258.358,297.901 				"/>
				<polyline style="fill:none;stroke:#263238;stroke-width:0.5;stroke-miterlimit:10;" points="265.902,302.637 265.74,297.969 
					262.111,295.537 				"/>
			</g>
			<g>
				<g>
					<path style="fill:#92E3A9;stroke:#263238;stroke-miterlimit:10;" d="M153.66,286.623c0,0-0.821,6.421,2.427,10.355
						c3.248,3.934,9.403,6.567,9.403,6.567s-0.096-6.063-1.084-9.417C163.418,290.773,153.66,286.623,153.66,286.623z"/>
					<path style="fill:none;stroke:#263238;stroke-miterlimit:10;" d="M165.49,303.545c0,0-11.345-14.93-11.83-16.922"/>
				</g>
				<polyline style="fill:none;stroke:#263238;stroke-width:0.5;stroke-miterlimit:10;" points="164.962,298.472 161.532,298.023 
					160.528,300.318 				"/>
				<polyline style="fill:none;stroke:#263238;stroke-width:0.5;stroke-miterlimit:10;" points="164.406,294.128 159.447,295.219 
					157.478,298.038 				"/>
				<polyline style="fill:none;stroke:#263238;stroke-width:0.5;stroke-miterlimit:10;" points="161.102,291.134 157.038,291.591 
					155.161,294.922 				"/>
			</g>
			<g>
				<g>
					<path style="fill:#92E3A9;stroke:#263238;stroke-miterlimit:10;" d="M143.611,333.065c0,0-7.394-0.032-11.399,4.2
						c-4.005,4.232-6.129,11.578-6.129,11.578s6.859-0.957,10.524-2.546C140.271,344.708,143.611,333.065,143.611,333.065z"/>
					<path style="fill:none;stroke:#263238;stroke-miterlimit:10;" d="M126.082,348.843c0,0,15.339-14.95,17.529-15.778"/>
				</g>
				<polyline style="fill:none;stroke:#263238;stroke-width:0.5;stroke-miterlimit:10;" points="131.759,347.535 131.788,343.583 
					129.046,342.767 				"/>
				<polyline style="fill:none;stroke:#263238;stroke-width:0.5;stroke-miterlimit:10;" points="136.606,346.297 134.675,340.827 
					131.204,338.99 				"/>
				<polyline style="fill:none;stroke:#263238;stroke-width:0.5;stroke-miterlimit:10;" points="139.538,342.133 138.452,337.59 
					134.413,335.928 				"/>
			</g>
			<g>
				<g>
					<path style="fill:#92E3A9;stroke:#263238;stroke-miterlimit:10;" d="M110.744,327.511c0,0-0.821,6.421,2.427,10.355
						c3.248,3.934,9.403,6.567,9.403,6.567s-0.096-6.062-1.084-9.417C120.503,331.661,110.744,327.511,110.744,327.511z"/>
					<path style="fill:none;stroke:#263238;stroke-miterlimit:10;" d="M122.575,344.433c0,0-11.345-14.93-11.83-16.922"/>
				</g>
				<polyline style="fill:none;stroke:#263238;stroke-width:0.5;stroke-miterlimit:10;" points="122.047,339.36 118.616,338.911 
					117.613,341.206 				"/>
				<polyline style="fill:none;stroke:#263238;stroke-width:0.5;stroke-miterlimit:10;" points="121.491,335.016 116.531,336.107 
					114.563,338.926 				"/>
				<polyline style="fill:none;stroke:#263238;stroke-width:0.5;stroke-miterlimit:10;" points="118.186,332.022 114.123,332.479 
					112.246,335.81 				"/>
			</g>
			<g>
				<g>
					<path style="fill:#92E3A9;stroke:#263238;stroke-miterlimit:10;" d="M131.075,353.711c0,0-0.821,6.421,2.427,10.355
						c3.248,3.934,9.403,6.567,9.403,6.567s-0.096-6.063-1.084-9.417C140.833,357.861,131.075,353.711,131.075,353.711z"/>
					<path style="fill:none;stroke:#263238;stroke-miterlimit:10;" d="M142.906,370.633c0,0-11.345-14.93-11.831-16.922"/>
				</g>
				<polyline style="fill:none;stroke:#263238;stroke-width:0.5;stroke-miterlimit:10;" points="142.378,365.56 138.947,365.112 
					137.944,367.406 				"/>
				<polyline style="fill:none;stroke:#263238;stroke-width:0.5;stroke-miterlimit:10;" points="141.821,361.216 136.862,362.307 
					134.893,365.126 				"/>
				<polyline style="fill:none;stroke:#263238;stroke-width:0.5;stroke-miterlimit:10;" points="138.517,358.222 134.454,358.679 
					132.576,362.01 				"/>
			</g>
			<g>
				<g>
					<path style="fill:#92E3A9;stroke:#263238;stroke-miterlimit:10;" d="M222.085,296.095c0,0-0.821,6.421,2.427,10.355
						c3.248,3.934,9.403,6.567,9.403,6.567s-0.096-6.063-1.084-9.417C231.843,300.245,222.085,296.095,222.085,296.095z"/>
					<path style="fill:none;stroke:#263238;stroke-miterlimit:10;" d="M233.915,313.017c0,0-11.345-14.93-11.83-16.922"/>
				</g>
				<polyline style="fill:none;stroke:#263238;stroke-width:0.5;stroke-miterlimit:10;" points="233.388,307.944 229.957,307.495 
					228.954,309.79 				"/>
				<polyline style="fill:none;stroke:#263238;stroke-width:0.5;stroke-miterlimit:10;" points="232.831,303.6 227.872,304.691 
					225.903,307.51 				"/>
				<polyline style="fill:none;stroke:#263238;stroke-width:0.5;stroke-miterlimit:10;" points="229.527,300.605 225.464,301.063 
					223.586,304.394 				"/>
			</g>
			<g>
				<g>
					<path style="fill:#92E3A9;stroke:#263238;stroke-miterlimit:10;" d="M172.715,262.821c0,0-4.134,2.788-4.76,6.668
						c-0.626,3.879,0.978,8.78,0.978,8.78s3.46-3.137,4.9-5.414C175.272,270.579,172.715,262.821,172.715,262.821z"/>
					<path style="fill:none;stroke:#263238;stroke-miterlimit:10;" d="M168.932,278.269c0,0,2.876-14.155,3.783-15.448"/>
				</g>
				<polyline style="fill:none;stroke:#263238;stroke-width:0.5;stroke-miterlimit:10;" points="171.6,275.386 170.116,273.172 
					168.278,273.757 				"/>
				<polyline style="fill:none;stroke:#263238;stroke-width:0.5;stroke-miterlimit:10;" points="173.832,272.856 170.68,270.54 
					168.048,270.833 				"/>
				<polyline style="fill:none;stroke:#263238;stroke-width:0.5;stroke-miterlimit:10;" points="173.886,269.421 171.556,267.302 
					168.674,267.908 				"/>
			</g>
			<g>
				<g>
					<path style="fill:#92E3A9;stroke:#263238;stroke-miterlimit:10;" d="M206.362,251.111c0,0-0.125-4.985-3.058-7.601
						c-2.933-2.615-7.926-3.901-7.926-3.901s0.782,4.605,1.926,7.043C198.447,249.092,206.362,251.111,206.362,251.111z"/>
					<path style="fill:none;stroke:#263238;stroke-miterlimit:10;" d="M195.377,239.61c0,0,10.383,10.042,10.985,11.502"/>
				</g>
				<polyline style="fill:none;stroke:#263238;stroke-width:0.5;stroke-miterlimit:10;" points="196.372,243.41 199.036,243.351 
					199.532,241.486 				"/>
				<polyline style="fill:none;stroke:#263238;stroke-width:0.5;stroke-miterlimit:10;" points="197.303,246.653 200.951,245.242 
					202.121,242.866 				"/>
				<polyline style="fill:none;stroke:#263238;stroke-width:0.5;stroke-miterlimit:10;" points="200.169,248.546 203.209,247.723 
					204.249,244.968 				"/>
			</g>
			<g>
				<g>
					<path style="fill:#92E3A9;stroke:#263238;stroke-miterlimit:10;" d="M137.542,334.047c0,0-0.126-4.985-3.058-7.601
						c-2.933-2.615-7.927-3.901-7.927-3.901s0.782,4.605,1.926,7.043C129.627,332.027,137.542,334.047,137.542,334.047z"/>
					<path style="fill:none;stroke:#263238;stroke-miterlimit:10;" d="M126.557,322.545c0,0,10.383,10.042,10.985,11.502"/>
				</g>
				<polyline style="fill:none;stroke:#263238;stroke-width:0.5;stroke-miterlimit:10;" points="127.551,326.345 130.216,326.286 
					130.712,324.422 				"/>
				<polyline style="fill:none;stroke:#263238;stroke-width:0.5;stroke-miterlimit:10;" points="128.483,329.589 132.131,328.178 
					133.3,325.802 				"/>
				<polyline style="fill:none;stroke:#263238;stroke-width:0.5;stroke-miterlimit:10;" points="131.348,331.482 134.389,330.659 
					135.429,327.903 				"/>
			</g>
			<g>
				<g>
					<path style="fill:#92E3A9;stroke:#263238;stroke-miterlimit:10;" d="M136.268,379.561c0,0-4.8,1.351-6.612,4.838
						c-1.812,3.487-1.826,8.644-1.826,8.644s4.27-1.893,6.351-3.603C136.262,387.73,136.268,379.561,136.268,379.561z"/>
					<path style="fill:none;stroke:#263238;stroke-miterlimit:10;" d="M127.83,393.042c0,0,7.172-12.538,8.438-13.481"/>
				</g>
				<polyline style="fill:none;stroke:#263238;stroke-width:0.5;stroke-miterlimit:10;" points="131.268,391.142 130.553,388.574 
					128.625,388.553 				"/>
				<polyline style="fill:none;stroke:#263238;stroke-width:0.5;stroke-miterlimit:10;" points="134.181,389.44 131.914,386.252 
					129.323,385.704 				"/>
				<polyline style="fill:none;stroke:#263238;stroke-width:0.5;stroke-miterlimit:10;" points="135.31,386.196 133.763,383.452 
					130.835,383.124 				"/>
			</g>
			<g>
				<g>
					<path style="fill:#92E3A9;stroke:#263238;stroke-miterlimit:10;" d="M147.625,263.818c0,0-0.126-4.985-3.058-7.6
						c-2.933-2.616-7.926-3.901-7.926-3.901s0.782,4.605,1.926,7.043C139.71,261.798,147.625,263.818,147.625,263.818z"/>
					<path style="fill:none;stroke:#263238;stroke-miterlimit:10;" d="M136.64,252.316c0,0,10.383,10.042,10.985,11.502"/>
				</g>
				<polyline style="fill:none;stroke:#263238;stroke-width:0.5;stroke-miterlimit:10;" points="137.635,256.116 140.299,256.057 
					140.795,254.193 				"/>
				<polyline style="fill:none;stroke:#263238;stroke-width:0.5;stroke-miterlimit:10;" points="138.566,259.359 142.215,257.948 
					143.384,255.572 				"/>
				<polyline style="fill:none;stroke:#263238;stroke-width:0.5;stroke-miterlimit:10;" points="141.432,261.253 144.472,260.43 
					145.512,257.674 				"/>
			</g>
		</g>
		<g>
			<line style="fill:none;stroke:#263238;stroke-miterlimit:10;" x1="144.264" y1="389.793" x2="144.264" y2="378.313"/>
			<line style="fill:none;stroke:#263238;stroke-miterlimit:10;" x1="140.785" y1="459.366" x2="140.785" y2="416.579"/>
			<line style="fill:none;stroke:#263238;stroke-miterlimit:10;" x1="141.133" y1="396.055" x2="141.133" y2="372.748"/>
			<line style="fill:none;stroke:#263238;stroke-miterlimit:10;" x1="141.133" y1="414.143" x2="141.133" y2="402.664"/>
			<line style="fill:none;stroke:#263238;stroke-miterlimit:10;" x1="144.264" y1="444.823" x2="144.264" y2="402.316"/>
			<line style="fill:none;stroke:#263238;stroke-miterlimit:10;" x1="144.264" y1="481.27" x2="144.264" y2="438.763"/>
			<line style="fill:none;stroke:#263238;stroke-miterlimit:10;" x1="144.264" y1="358.137" x2="144.264" y2="346.658"/>
			<line style="fill:none;stroke:#263238;stroke-miterlimit:10;" x1="138.002" y1="406.838" x2="138.002" y2="470.846"/>
			<line style="fill:none;stroke:#263238;stroke-miterlimit:10;" x1="147.742" y1="344.57" x2="147.742" y2="472.585"/>
			<line style="fill:none;stroke:#263238;stroke-miterlimit:10;" x1="138.002" y1="347.353" x2="138.002" y2="399.881"/>
		</g>
	</g>
</g>
<g id="Line">
	<line style="fill:none;stroke:#263238;stroke-miterlimit:10;" x1="35.03" y1="482.94" x2="731.281" y2="482.94"/>
</g>
</svg>
