<?xml version="1.0" encoding="utf-8"?>
<!-- Generator: Adobe Illustrator 27.5.0, SVG Export Plug-In . SVG Version: 6.00 Build 0)  -->
<svg version="1.1" id="Layer_1" xmlns="http://www.w3.org/2000/svg" xmlns:xlink="http://www.w3.org/1999/xlink" x="0px" y="0px"
	 viewBox="0 0 586.617 350" style="enable-background:new 0 0 586.617 350;" xml:space="preserve">

<g>
	<path style="fill:#DDB6DD;" d="M290.445,42.181c-83.671,0.329-98.677,54.685-172.573,60.322
		C-6.07,111.958,2.443,260.929,55.547,285.453l485.944,1.637c59.054-65.798,7.441-141.117-42.306-152.724
		C399.802,111.18,407.074,41.723,290.445,42.181z"/>
	<g>
		<g>
			<path style="fill:#C493C6;" d="M73.345,237.307c-0.156,3.902-3.363,6.933-7.14,6.764c-3.792-0.169-6.727-3.471-6.57-7.38
				c0.17-3.907,3.37-6.934,7.155-6.764C70.574,230.094,73.514,233.398,73.345,237.307z"/>
		</g>
		<path style="fill:#C493C6;" d="M90.364,233.069c-2.167-1.994-3.31-5.372-2.878-8.231c0.265-1.788,5.145-4.899,5.145-4.899
			l-7.277-8.156c0,0-3.413,4.771-5.149,4.897c-2.678,0.199-5.696-1.221-7.32-3.519c-1.032-1.46,0.305-7.214,0.305-7.214
			l-10.743-0.48c0,0,0.845,5.857-0.301,7.222c-1.581,1.877-4.409,2.829-6.717,2.355c-1.719-0.348-4.494-5.527-4.494-5.527
			l-8.235,7.134c0,0,4.456,3.722,4.501,5.531c0.074,3.026-1.487,6.368-3.949,8.175c-1.426,1.049-7.003-0.397-7.003-0.397
			l-0.596,11.074c0,0,5.674-0.808,6.979,0.395c2.16,1.996,3.309,5.368,2.877,8.23c-0.266,1.784-5.149,4.894-5.149,4.894l7.273,8.165
			c0,0,3.408-4.772,5.158-4.897c2.665-0.2,5.695,1.217,7.32,3.516c1.031,1.461-0.302,7.217-0.302,7.217l10.739,0.474
			c0,0-0.849-5.858,0.293-7.221c1.592-1.874,4.425-2.834,6.727-2.357c1.711,0.354,4.498,5.531,4.498,5.531l8.229-7.138
			c0,0-4.455-3.722-4.508-5.527c-0.066-3.025,1.49-6.367,3.953-8.175c1.429-1.049,7.006,0.402,7.006,0.402l0.592-11.07
			C97.338,233.472,91.669,234.265,90.364,233.069z M65.735,255.351c-9.818-0.438-17.447-9.005-17.013-19.144
			c0.424-10.14,8.723-18.005,18.552-17.565c9.818,0.438,17.444,9.01,17.016,19.145C83.864,247.93,75.563,255.79,65.735,255.351z"/>
		<g>
			<g>
				<g>
					<path style="fill:#C493C6;" d="M80.097,237.853c-0.325,7.746-6.672,13.758-14.18,13.419
						c-7.507-0.334-13.328-6.882-13.005-14.624c0.327-7.752,6.672-13.762,14.178-13.427
						C74.601,223.558,80.422,230.106,80.097,237.853z"/>
				</g>
			</g>
		</g>
	</g>
	<g>
		<g>
			<path style="fill:#C493C6;" d="M418.274,129.876c-0.127,3.187-2.746,5.661-5.829,5.523c-3.098-0.138-5.494-2.834-5.366-6.026
				c0.14-3.19,2.751-5.662,5.843-5.523C416.011,123.986,418.411,126.685,418.274,129.876z"/>
		</g>
		<path style="fill:#C493C6;" d="M432.172,126.416c-1.768-1.628-2.702-4.387-2.35-6.722c0.216-1.46,4.199-4.001,4.199-4.001
			l-5.942-6.66c0,0-2.786,3.896-4.203,3.999c-2.188,0.163-4.652-0.996-5.978-2.873c-0.841-1.192,0.25-5.891,0.25-5.891l-8.772-0.393
			c0,0,0.688,4.783-0.247,5.897c-1.29,1.532-3.601,2.31-5.484,1.924c-1.404-0.284-3.67-4.515-3.67-4.515l-6.726,5.826
			c0,0,3.641,3.039,3.675,4.517c0.061,2.472-1.213,5.2-3.224,6.676c-1.164,0.855-5.718-0.324-5.718-0.324l-0.487,9.042
			c0,0,4.633-0.659,5.699,0.323c1.766,1.629,2.701,4.383,2.35,6.72c-0.216,1.457-4.205,3.996-4.205,3.996l5.94,6.667
			c0,0,2.781-3.897,4.212-3.998c2.176-0.164,4.65,0.993,5.977,2.87c0.842,1.193-0.245,5.893-0.245,5.893l8.769,0.387
			c0,0-0.692-4.784,0.239-5.896c1.3-1.53,3.614-2.314,5.493-1.924c1.398,0.289,3.673,4.517,3.673,4.517l6.72-5.829
			c0,0-3.638-3.039-3.68-4.513c-0.055-2.471,1.216-5.2,3.229-6.676c1.165-0.857,5.719,0.328,5.719,0.328l0.484-9.04
			C437.867,126.744,433.238,127.392,432.172,126.416z M412.06,144.61c-8.018-0.357-14.247-7.354-13.893-15.633
			c0.346-8.279,7.123-14.702,15.15-14.343c8.016,0.357,14.243,7.357,13.895,15.633C426.864,138.551,420.086,144.97,412.06,144.61z"
			/>
		<g>
			<g>
				<g>
					<path style="fill:#C493C6;" d="M423.788,130.322c-0.266,6.325-5.448,11.234-11.58,10.957
						c-6.129-0.273-10.884-5.619-10.618-11.941c0.266-6.33,5.447-11.237,11.577-10.964
						C419.3,118.648,424.053,123.996,423.788,130.322z"/>
				</g>
			</g>
		</g>
	</g>
	<g>
		<g>
			<path style="fill:#A27CF5;" d="M298.234,260.759c0,4.551-3.685,8.238-8.229,8.238H109.257c-4.544,0-8.227-3.688-8.227-8.238
				V147.418c0-4.546,3.683-8.231,8.227-8.231h180.749c4.544,0,8.229,3.686,8.229,8.231V260.759z"/>
			<path style="fill:#8461E2;" d="M290.006,139.187H109.257c-4.544,0-8.227,3.686-8.227,8.231v15.29h197.204v-15.29
				C298.234,142.872,294.55,139.187,290.006,139.187z"/>
			<path style="fill:#F5F9FC;" d="M120.99,151.021c0,2.253-1.831,4.082-4.088,4.082c-2.261,0-4.09-1.829-4.09-4.082
				c0-2.264,1.829-4.093,4.09-4.093C119.159,146.928,120.99,148.757,120.99,151.021z"/>
			<path style="fill:#F5F9FC;" d="M131.316,151.021c0,2.253-1.831,4.082-4.094,4.082c-2.252,0-4.081-1.829-4.081-4.082
				c0-2.264,1.829-4.093,4.081-4.093C129.485,146.928,131.316,148.757,131.316,151.021z"/>
			<path style="fill:#F5F9FC;" d="M141.28,151.021c0,2.253-1.826,4.082-4.085,4.082c-2.254,0-4.085-1.829-4.085-4.082
				c0-2.264,1.831-4.093,4.085-4.093C139.454,146.928,141.28,148.757,141.28,151.021z"/>
		</g>
		<rect x="131.937" y="240.624" style="fill:#8461E2;" width="66.058" height="16.691"/>
		<rect x="206.687" y="240.624" style="fill:#8461E2;" width="66.057" height="16.691"/>
		<rect x="115.773" y="171.601" style="fill:#8461E2;" width="174.069" height="60.413"/>
	</g>
	<g>
		<g>
			<path style="fill:#F5F5FF;" d="M320.599,210.139c0,3.762-3.207,6.809-7.171,6.809H155.927c-3.962,0-7.167-3.047-7.167-6.809
				v-93.657c0-3.761,3.205-6.803,7.167-6.803h157.501c3.964,0,7.171,3.042,7.171,6.803V210.139z"/>
			<path style="fill:#BDBDFD;" d="M313.428,109.679H155.927c-3.962,0-7.167,3.042-7.167,6.803v12.632h171.839v-12.632
				C320.599,112.721,317.392,109.679,313.428,109.679z"/>
			<path style="fill:#F5F9FC;" d="M166.151,119.456c0,1.86-1.597,3.374-3.562,3.374c-1.973,0-3.566-1.514-3.566-3.374
				c0-1.87,1.594-3.381,3.566-3.381C164.555,116.075,166.151,117.586,166.151,119.456z"/>
			<path style="fill:#F5F9FC;" d="M175.152,119.456c0,1.86-1.599,3.374-3.566,3.374c-1.965,0-3.558-1.514-3.558-3.374
				c0-1.87,1.593-3.381,3.558-3.381C173.554,116.075,175.152,117.586,175.152,119.456z"/>
			<path style="fill:#F5F9FC;" d="M183.828,119.456c0,1.86-1.586,3.374-3.555,3.374c-1.965,0-3.56-1.514-3.56-3.374
				c0-1.87,1.595-3.381,3.56-3.381C182.242,116.075,183.828,117.586,183.828,119.456z"/>
		</g>
		<rect x="171.901" y="193.502" style="fill:#BDBDFD;" width="57.562" height="13.796"/>
		<rect x="237.041" y="193.502" style="fill:#BDBDFD;" width="57.56" height="13.796"/>
		<rect x="161.605" y="136.46" style="fill:#BDBDFD;" width="146.727" height="49.923"/>
	</g>
	<g>
		<path style="fill:#D19FD3;" d="M251.82,81.023c-2.112,0-4.065,0.65-5.676,1.764c-1.396-6.997-7.564-12.272-14.974-12.272
			c-1.124,0-2.215,0.131-3.274,0.363c-3.293-6.452-10.001-10.871-17.732-10.871c-10.622,0-19.304,8.316-19.886,18.792
			c-0.717-0.142-1.464-0.218-2.23-0.218c-6.205,0-11.236,5.03-11.236,11.235c0,0.411,0.026,0.82,0.07,1.222h84.952
			C261.834,85.506,257.348,81.023,251.82,81.023z"/>
		<path style="fill:#E4C3E5;" d="M246.809,85.051c-1.448,0-2.773,0.515-3.804,1.364c-0.184-4.764-4.092-8.569-8.902-8.569
			c-2.198,0-4.203,0.798-5.759,2.113c-1.837-7.388-8.516-12.863-16.473-12.863c-8.967,0-16.306,6.951-16.932,15.757
			c-1.125-0.54-2.38-0.852-3.712-0.852c-4.727,0-8.553,3.828-8.553,8.548c0,0.165,0.013,0.327,0.022,0.489h70.099
			C252.797,87.731,250.111,85.051,246.809,85.051z"/>
	</g>
	<g>
		<path style="fill:#D19FD3;" d="M529.648,147.051c-1.775,0-3.418,0.547-4.772,1.482c-1.175-5.884-6.36-10.319-12.59-10.319
			c-0.945,0-1.862,0.11-2.754,0.306c-2.77-5.425-8.409-9.141-14.91-9.141c-8.932,0-16.23,6.993-16.721,15.801
			c-0.603-0.119-1.231-0.183-1.876-0.183c-5.217,0-9.447,4.229-9.447,9.446c0,0.347,0.022,0.69,0.059,1.028h71.432
			C538.068,150.82,534.296,147.051,529.648,147.051z"/>
		<path style="fill:#E4C3E5;" d="M525.435,150.438c-1.219,0-2.333,0.432-3.198,1.146c-0.156-4.006-3.44-7.205-7.486-7.205
			c-1.848,0-3.533,0.671-4.842,1.776c-1.544-6.212-7.161-10.815-13.85-10.815c-7.54,0-13.711,5.845-14.236,13.249
			c-0.947-0.454-2.002-0.717-3.122-0.717c-3.975,0-7.191,3.219-7.191,7.188c0,0.139,0.011,0.275,0.018,0.412h58.943
			C530.471,152.69,528.212,150.438,525.435,150.438z"/>
	</g>
	<path style="fill:#C493C6;" d="M564.36,287.255c0,6.626-123.442,11.999-275.727,11.999c-152.275,0-252.982-7.435-252.982-14.061
		c0-4.394,139.63-9.938,252.982-9.938C440.918,275.255,564.36,280.63,564.36,287.255z"/>
	<g>
		<path style="fill:#252956;" d="M156.056,283.09c-26.46,0.403,33.609-103.841,55.659-123.989h137.506
			c23.111,17.746,82.14,123.353,55.658,123.989C316.442,285.211,228.901,281.966,156.056,283.09z"/>
		<path style="fill:#A27CF5;" d="M326.626,221.465c0,25.008-20.273,45.279-45.281,45.279c-25.005,0-45.278-20.271-45.278-45.279
			c0-25.008,20.273-45.278,45.278-45.278C306.353,176.187,326.626,196.457,326.626,221.465z"/>
		<path style="fill:#252956;" d="M301.117,221.465c0,10.918-8.852,19.77-19.772,19.77c-10.915,0-19.77-8.852-19.77-19.77
			c0-10.917,8.854-19.769,19.77-19.769C292.266,201.696,301.117,210.548,301.117,221.465z"/>
		<path style="fill:#8461E2;" d="M285.73,187.801c0,2.88-2.338,5.215-5.22,5.215c-2.88,0-5.215-2.335-5.215-5.215
			c0-2.886,2.335-5.221,5.215-5.221C283.392,182.58,285.73,184.915,285.73,187.801z"/>
		<path style="fill:#8461E2;" d="M286.563,254.31c0,2.879-2.336,5.215-5.215,5.215c-2.882,0-5.221-2.336-5.221-5.215
			c0-2.885,2.339-5.22,5.221-5.22C284.227,249.09,286.563,251.425,286.563,254.31z"/>
		<path style="fill:#8461E2;" d="M320.599,220.138c0,2.887-2.335,5.222-5.218,5.222c-2.882,0-5.217-2.335-5.217-5.222
			c0-2.879,2.335-5.214,5.217-5.214C318.264,214.924,320.599,217.259,320.599,220.138z"/>
		<path style="fill:#8461E2;" d="M252.263,220.138c0,2.887-2.336,5.222-5.215,5.222c-2.882,0-5.221-2.335-5.221-5.222
			c0-2.879,2.339-5.214,5.221-5.214C249.927,214.924,252.263,217.259,252.263,220.138z"/>
		<path style="fill:#8461E2;" d="M311.553,198.236c0,2.879-2.337,5.214-5.218,5.214c-2.883,0-5.218-2.335-5.218-5.214
			c0-2.886,2.335-5.221,5.218-5.221C309.216,193.016,311.553,195.351,311.553,198.236z"/>
		<path style="fill:#8461E2;" d="M263.027,198.236c0,2.879-2.335,5.214-5.215,5.214c-2.882,0-5.22-2.335-5.22-5.214
			c0-2.886,2.338-5.221,5.22-5.221C260.692,193.016,263.027,195.351,263.027,198.236z"/>
		<path style="fill:#8461E2;" d="M309.125,246.449c0,2.885-2.339,5.22-5.221,5.22c-2.879,0-5.214-2.335-5.214-5.22
			c0-2.879,2.335-5.215,5.214-5.215C306.786,241.234,309.125,243.57,309.125,246.449z"/>
		<path style="fill:#8461E2;" d="M261.575,243.876c0,2.879-2.338,5.214-5.218,5.214c-2.879,0-5.217-2.335-5.217-5.214
			c0-2.887,2.338-5.221,5.217-5.221C259.237,238.655,261.575,240.989,261.575,243.876z"/>
		<g>
			<path style="fill:#A27CF5;" d="M353.395,176.901l-21.108,28.138c0,0,19.939,42.729,38.83,41.202
				c37.827-3.051,53.805-50.542,15.918-102.698c-45.385-62.487-116.692-115.297-153.74-60.055
				c-6.165,9.201-12.831,23.97-13.972,40.31l50.918,18.431l20.797-26.708C291.037,115.521,339.363,128.278,353.395,176.901z"/>
			<path style="fill:#8261DB;" d="M371.116,246.241c5.188-0.422,9.949-1.706,14.228-3.687
				c-10.611-8.913-29.831-26.769-44.048-49.527l-9.011,12.012C332.286,205.039,352.225,247.769,371.116,246.241z"/>
			<path style="fill:#8261DB;" d="M219.322,123.798l50.918,18.431l8.824-11.334l-55.698-26.816
				C221.327,110.172,219.809,116.822,219.322,123.798z"/>
		</g>
	</g>
	<g>
		<g>
			<path style="fill:#FC76B2;" d="M118.258,173.859c0,6.507-5.111,11.782-11.418,11.782H55.996c-6.303,0-11.416-5.275-11.416-11.782
				v-21.205c0-6.505,5.113-11.781,11.416-11.781h50.844c6.307,0,11.418,5.276,11.418,11.781V173.859z"/>
		</g>
		<g>
			<path style="fill:#FC76B2;" d="M55.547,179.751c0,0,10.448,20.029,28.354,20.811c0,0-11.779-10.403-1.143-20.811H55.547z"/>
		</g>
		<g>
			<path style="fill:#FFFFFF;" d="M57.365,155.666h11.338v3.552h-7.127v4.37h6.659v3.525h-6.659v7.695h-4.211V155.666z"/>
			<path style="fill:#FFFFFF;" d="M74.899,169.897l-1.321,4.912h-4.35l5.671-19.143h5.506l5.752,19.143h-4.515l-1.431-4.912H74.899z
				 M79.606,166.658l-1.156-4.065c-0.332-1.133-0.662-2.555-0.936-3.69h-0.056c-0.274,1.136-0.55,2.585-0.854,3.69l-1.1,4.065
				H79.606z"/>
			<path style="fill:#FFFFFF;" d="M104.352,178.103c-2.644-0.794-4.843-1.615-7.32-2.698c-0.412-0.17-0.854-0.256-1.294-0.284
				c-4.184-0.282-8.092-3.464-8.092-9.715c0-5.736,3.524-10.052,9.054-10.052c5.671,0,8.782,4.431,8.782,9.656
				c0,4.344-1.957,7.412-4.404,8.55v0.112c1.43,0.428,3.026,0.768,4.487,1.081L104.352,178.103z M101.048,165.18
				c0-3.493-1.597-6.391-4.457-6.391c-2.863,0-4.515,2.897-4.515,6.475c-0.026,3.637,1.681,6.418,4.485,6.418
				C99.397,171.683,101.048,168.928,101.048,165.18z"/>
		</g>
	</g>
	<g>
		<path style="fill:#BC75F9;" d="M503.631,162.708c0,25.214-20.44,45.652-45.651,45.652c-25.212,0-45.652-20.439-45.652-45.652
			c0-25.214,20.44-45.652,45.652-45.652C483.19,117.056,503.631,137.494,503.631,162.708z"/>
		<g>
			<g>
				<g>
					<path style="fill:#FEC045;" d="M461.45,171.781l-0.083-2.253c-0.27-4.408,1.209-8.927,5.116-13.599
						c2.762-3.291,5.021-6.063,5.021-9.012c0-3.039-1.997-5.029-6.323-5.199c-2.859,0-6.326,1.043-8.585,2.596l-2.94-9.44
						c3.126-1.822,8.317-3.551,14.471-3.551c11.441,0,16.633,6.323,16.633,13.512c0,6.592-4.072,10.927-7.36,14.555
						c-3.209,3.554-4.508,6.938-4.418,10.835v1.556H461.45z M459.199,183.739c0-4.594,3.201-7.886,7.72-7.886
						c4.667,0,7.698,3.292,7.795,7.886c0,4.503-3.128,7.888-7.795,7.888C462.321,191.627,459.199,188.242,459.199,183.739z"/>
				</g>
			</g>
		</g>
		<g>
			<g>
				<path style="fill:#FEC045;" d="M438.161,184.573c0-4.542,3.169-7.797,7.703-7.797c4.542,0,7.54,3.255,7.634,7.797
					c0,4.451-3.001,7.796-7.634,7.796C441.248,192.369,438.161,189.024,438.161,184.573z M440.99,172.49l-1.965-38.804h13.614
					l-1.886,38.804H440.99z"/>
			</g>
		</g>
	</g>
	<g>
		<path style="fill:#FEC045;" d="M155.171,181.086c10.929-0.977,40.156-4.057,35.362,17.863
			c-3.291,15.036-33.151,12.956-44.442,4.277c-11.293-8.677-13.202,2.893-12.138,7.878
			C135.017,216.09,119.654,184.269,155.171,181.086z"/>
		<g>
			<g>
				<path style="fill:#FFFFFF;" d="M149.915,199.768v-1.564l1.432-1.293c2.418-2.166,3.592-3.409,3.627-4.702
					c0-0.903-0.546-1.619-1.821-1.619c-0.955,0-1.789,0.479-2.368,0.919l-0.731-1.856c0.832-0.631,2.128-1.14,3.628-1.14
					c2.502,0,3.883,1.465,3.883,3.474c0,1.856-1.347,3.341-2.948,4.768l-1.02,0.854v0.034h4.171v2.127H149.915z"/>
				<path style="fill:#FFFFFF;" d="M163.951,199.768v-2.64h-4.905v-1.684l4.191-6.749h3.169v6.489h1.327v1.943h-1.327v2.64H163.951z
					 M163.951,195.185v-2.453c0-0.661,0.035-1.343,0.086-2.059h-0.068c-0.358,0.716-0.647,1.362-1.021,2.059l-1.481,2.419v0.034
					H163.951z"/>
				<path style="fill:#FFFFFF;" d="M168.384,200.448l3.643-12.347h1.722l-3.646,12.347H168.384z"/>
				<path style="fill:#FFFFFF;" d="M182.402,188.695v1.638l-4.568,9.435h-2.739l4.564-8.906v-0.034h-5.077v-2.132H182.402z"/>
			</g>
		</g>
	</g>
	<g>
		<path style="fill:#EDA932;" d="M545.077,257.263c0,1.364-7.528,2.466-16.819,2.466c-9.287,0-16.818-1.102-16.818-2.466
			c0-1.362,7.531-2.47,16.818-2.47C537.549,254.793,545.077,255.9,545.077,257.263z"/>
		<path style="fill:#EDA932;" d="M528.258,254.793c-9.287,0-16.818,1.107-16.818,2.47h33.638
			C545.077,255.9,537.549,254.793,528.258,254.793z"/>
		<path style="fill:#B37CEA;" d="M520.24,267.94c0,0,10.751-19.77,0-29.726c-10.745-9.96-7.223-23.412-3.053-29.904
			c4.168-6.492,0.382-25.551-11.476-22.132c-11.861,3.412-9.983,28.209-4.358,33.141c9.966,8.751-1.306,24.203,15.087,30.098
			C524.364,252.267,520.24,267.94,520.24,267.94z"/>
		<path style="fill:#E38CDF;" d="M535.835,182.351c-3.741-2.268-10.985-5.884-13.132,7.511
			c-2.709,16.887,18.634,24.292,11.721,30.019c-15.648,12.956-21.249,23.939-11.721,34.913c4.508,5.194,6.495,11.414-2.117,11.602
			c-8.611,0.191,30.129-1.59,21.287-29.657c-1.75-5.559,15.488-16.11,6.321-29.252C542.268,199.003,548.791,190.206,535.835,182.351
			z"/>
		<path style="fill:#6366DD;" d="M523.396,264.413c0,0,7.888-6.335,1.892-12.307c-12.498-12.446,4.893-18.043-4.782-27.668
			c-9.665-9.63-0.162-23.473,9.72-23.175c3.021,0.095,8.165,0.651,1.461,9.239c-10.963,14.044-0.066,22.528,1.86,26.658
			C537.588,245.844,537.435,259.347,523.396,264.413z"/>
		<path style="fill:#9B59E2;" d="M531.111,264.854c0,0-6.416-11.795,0-17.74c6.412-5.943,4.307-13.968,1.825-17.844
			c-2.492-3.873-0.229-15.248,6.846-13.209c7.077,2.039,5.962,16.836,2.603,19.778c-5.949,5.223,0.777,14.443-9.006,17.96
			C528.65,255.501,531.111,264.854,531.111,264.854z"/>
		<path style="fill:#FEC045;" d="M528.258,259.729c-9.287,0-16.818-1.102-16.818-2.466l3.585,29.827
			c0,1.362,5.926,2.469,13.233,2.469c7.311,0,13.233-1.106,13.233-2.469l3.586-29.827
			C545.077,258.627,537.549,259.729,528.258,259.729z"/>
	</g>
	<g>
		<path style="fill:#FE88D4;" d="M347.787,83.363c11.608-1.034,42.646-4.307,37.554,18.969
			c-3.493,15.971-35.201,13.757-47.193,4.545c-11.991-9.218-14.02,3.07-12.891,8.364C326.385,120.534,310.074,86.744,347.787,83.363
			z"/>
		<g>
			<g>
				<path style="fill:#FFFFFF;" d="M353.279,100.765l-0.022-0.633c-0.076-1.241,0.341-2.511,1.439-3.825
					c0.775-0.926,1.414-1.706,1.414-2.536c0-0.854-0.564-1.414-1.779-1.461c-0.806,0-1.779,0.292-2.417,0.728l-0.826-2.653
					c0.878-0.512,2.339-0.998,4.07-0.998c3.218,0,4.677,1.777,4.677,3.798c0,1.856-1.146,3.075-2.066,4.096
					c-0.905,1-1.271,1.952-1.245,3.046v0.439H353.279z M352.646,104.129c0-1.293,0.9-2.219,2.17-2.219
					c1.313,0,2.167,0.926,2.192,2.219c0,1.266-0.879,2.218-2.192,2.218C353.524,106.347,352.646,105.395,352.646,104.129z"/>
			</g>
		</g>
		<g>
			<g>
				<path style="fill:#FFFFFF;" d="M362.621,104.129c0-1.293,0.904-2.219,2.193-2.219c1.29,0,2.144,0.926,2.17,2.219
					c0,1.266-0.852,2.218-2.17,2.218C363.5,106.347,362.621,105.395,362.621,104.129z M363.427,100.69l-0.56-11.038h3.877
					l-0.538,11.038H363.427z"/>
			</g>
		</g>
	</g>
	<g>
		<path style="fill:#EEE7DF;" d="M73.533,271.584c4.294,2.188,10.878,4.387,17.685,4.387c7.317,0,11.193-3.032,11.193-7.633
			c0-4.396-3.355-6.899-11.823-9.932c-11.722-4.09-19.354-10.573-19.354-20.82c0-12.036,10.043-21.245,26.68-21.245
			c7.948,0,13.801,1.678,17.992,3.561l-3.561,12.863c-2.828-1.354-7.846-3.34-14.754-3.34c-6.901,0-10.249,3.135-10.249,6.799
			c0,4.498,3.979,6.482,13.076,9.932c12.454,4.608,18.315,11.091,18.315,21.031c0,11.825-9.106,21.868-28.461,21.868
			c-8.05,0-16.007-2.095-19.977-4.292L73.533,271.584z"/>
		<path style="fill:#EEE7DF;" d="M147.526,217.498v40.584c0,12.14,4.601,18.315,12.762,18.315c8.373,0,12.981-5.862,12.981-18.315
			v-40.584h15.896v39.545c0,21.756-10.989,32.114-29.398,32.114c-17.778,0-28.239-9.83-28.239-32.328v-39.331H147.526z"/>
		<path style="fill:#EEE7DF;" d="M205.112,218.436c4.915-0.835,11.824-1.465,21.553-1.465c9.83,0,16.842,1.883,21.552,5.648
			c4.498,3.561,7.532,9.414,7.532,16.322c0,6.908-2.301,12.769-6.493,16.739c-5.434,5.128-13.493,7.428-22.914,7.428
			c-2.087,0-3.97-0.102-5.436-0.315v25.216h-15.794V218.436z M220.906,250.449c1.363,0.314,3.033,0.418,5.333,0.418
			c8.477,0,13.706-4.285,13.706-11.51c0-6.481-4.498-10.358-12.445-10.358c-3.245,0-5.443,0.316-6.594,0.63V250.449z"/>
		<path style="fill:#EEE7DF;" d="M268.015,218.436c4.925-0.835,11.824-1.465,21.553-1.465c9.838,0,16.85,1.883,21.552,5.648
			c4.498,3.561,7.53,9.414,7.53,16.322c0,6.908-2.3,12.769-6.474,16.739c-5.452,5.128-13.502,7.428-22.914,7.428
			c-2.098,0-3.979-0.102-5.444-0.315v25.216h-15.803V218.436z M283.817,250.449c1.355,0.314,3.031,0.418,5.342,0.418
			c8.467,0,13.696-4.285,13.696-11.51c0-6.481-4.498-10.358-12.453-10.358c-3.238,0-5.436,0.316-6.585,0.63V250.449z"/>
		<path style="fill:#EEE7DF;" d="M395.472,252.017c0,23.12-14.015,37.141-34.62,37.141c-20.924,0-33.173-15.793-33.173-35.879
			c0-21.137,13.493-36.938,34.313-36.938C383.656,216.341,395.472,232.56,395.472,252.017z M344.529,252.962
			c0,13.81,6.483,23.537,17.156,23.537c10.769,0,16.952-10.257,16.952-23.955c0-12.657-6.072-23.545-17.054-23.545
			C350.799,228.999,344.529,239.256,344.529,252.962z"/>
		<path style="fill:#EEE7DF;" d="M408.079,218.436c5.128-0.835,12.762-1.465,21.229-1.465c10.47,0,17.787,1.568,22.812,5.545
			c4.183,3.349,6.491,8.264,6.491,14.746c0,9.005-6.39,15.181-12.453,17.379v0.307c4.914,1.993,7.633,6.695,9.422,13.187
			c2.188,7.947,4.386,17.155,5.741,19.873h-16.314c-1.15-1.984-2.819-7.743-4.916-16.424c-1.891-8.792-4.924-11.202-11.406-11.304
			h-4.813v27.728h-15.793V218.436z M423.872,248.779h6.279c7.947,0,12.658-3.978,12.658-10.154c0-6.483-4.396-9.728-11.714-9.831
			c-3.875,0-6.073,0.307-7.224,0.521V248.779z"/>
		<path style="fill:#EEE7DF;" d="M485.838,230.891h-18.939v-13.393h54.197v13.393h-19.252v57.117h-16.007V230.891z"/>
	</g>
	<g>
		<path style="fill:#EE9D7F;" d="M129.552,255.239c0.963,0.021,2.629,1.318,3.018,4.012c0.519,3.603-1.014,10.279,2.125,14.238
			c3.142,3.951,6.513,3.471,8.815,3.433c2.313-0.039,3.212-1.128,4.554-0.996c1.343,0.126,1.125,1.707-2.549,2.646
			c-1.759,0.449-10.184,3.701-14.794-0.328C124.681,272.973,123.84,255.118,129.552,255.239z"/>
		<g>
			<path style="fill:#EE9D7F;" d="M135.204,296.003c0.566-1.233,3.932-4.651,6.345,1.371c2.418,6.021-0.338,22.349-1.615,23.886
				c-1.281,1.527-3.716-0.947-3.716-0.947S131.811,303.431,135.204,296.003z"/>
			<path style="fill:#EE9D7F;" d="M136.099,319.75c0,0,0.341,2.076,0.998,3.267c0.799,1.441,8.185,0.806,6.395-0.771
				c-1.478-1.307-3.998-1.095-3.91-1.806C139.664,319.723,136.099,319.75,136.099,319.75z"/>
		</g>
		<g>
			<path style="fill:#EE9D7F;" d="M150.592,284.801c0.087-1.328,2.167-6.903,6.332-2.156c4.171,4.744,6.97,21.994,6.353,23.836
				c-0.621,1.834-3.609,0.36-3.609,0.36S150.078,292.762,150.592,284.801z"/>
			<path style="fill:#EE9D7F;" d="M159.365,306.367c0,0,1.003,1.795,1.986,2.68c1.191,1.067,7.534-1.976,5.415-2.834
				c-1.749-0.716-3.915,0.32-4.079-0.369C162.526,305.158,159.365,306.367,159.365,306.367z"/>
		</g>
		<path style="fill:#F28F19;" d="M128.015,292.068c7.236,1.178,31.806-6.627,28.328-10.849c-3.473-4.22-26.247-3.507-29.996-1.661
			C121.128,282.129,123.254,291.29,128.015,292.068z"/>
		<path style="fill:#F4A517;" d="M116.918,277.858c0,0,28.018,14.016,25.208,19.548c-1.32,2.599-5.646,4.209-9.324,3.299
			c-7.948-1.984-15.656-7.279-17.725-9.383C110.854,287.018,111.909,278.774,116.918,277.858z"/>
		<path style="fill:#E67052;" d="M117.4,259.858c0,0,1.578,2.863,2.151,4.953c0.573,2.093-0.357,8.081-0.357,8.081l-5.215-1.472
			L117.4,259.858z"/>
		<polygon style="fill:#EA68C3;" points="132.581,290.365 123.386,285.021 138.777,277.795 		"/>
		<path style="fill:#EFBEBD;" d="M128.138,254.737c0,0-2.671,1.152-2.268,6.786c0.472,6.59,1.844,9.346,1.844,9.346
			s2.615,1.684,8.64-1.417C136.354,269.452,134.221,253.061,128.138,254.737z"/>
		<path style="fill:#963734;" d="M129.158,244.146c2.439,2.797-5.358,9.951,1.296,14.444c2.194,1.482,1.58,7.575-5.977,5.952
			c-7.554-1.629-12.218-6.292-8.189-16.737C119.445,239.618,126.777,241.417,129.158,244.146z"/>
		<path style="fill:#872A2A;" d="M128.589,246.928c0,0-2.096,4.953,0.993,10.163c1.274,2.157-13.569,1.855-13.569,1.855l6.51-10.19
			L128.589,246.928z"/>
		<path style="fill:#EE9D7F;" d="M130.332,259.339c-0.116-5.86-5.066-6.098-11.08-4.924c-3.803,0.749-9.992,2.178-7.033,10.22
			c2.067,5.613,3.265,8.578-0.586,14.089c-0.505,0.722,0.418-0.908,0,0c3.539,2.068,5.966,0.553,10.345,1.267
			c3.246,0.53,5.588-0.294,8.667-0.633c-0.58-4.295-1.202-0.258-1.251-0.506C127.847,271.001,130.434,264.296,130.332,259.339z"/>
		<path style="fill:#FCDCDA;" d="M131.25,279.234c-0.903-5.035-1.34-5.887,0.605-8.467c4.348-5.772-2.879-16.211-2.879-16.211
			l-3.104-0.703c0.31,5.79-6.878,0.626-6.878,0.626l-2.231,0.522c0,0,3.136,3.28,2.648,9.07c-0.587,7.006-5.756,5.448-5.756,5.448
			c0.062,2.368,1.031,3.025-0.855,6.899c-0.014,0.018-1.883,2.545-1.883,2.545C116.48,282.309,130.605,283.22,131.25,279.234z"/>
		<g>
			<path style="fill:#E67052;" d="M122.522,248.756c0,0,0.3,3.853-1.214,5.401c-0.964,0.986,4.804,4.769,4.924,3.252
				c0.153-1.962-0.759-3.326,0.855-5.295L122.522,248.756z"/>
		</g>
		<g>
			<path style="fill:#EE9D7F;" d="M127.706,244.094c1.343,1.937,1.658,9.289-0.436,10.441c-0.914,0.511-3.914-0.925-5.259-4.413
				c-0.556-1.433-1.064-3.999,0.72-6.098C123.534,243.071,126.156,241.831,127.706,244.094z"/>
		</g>
		<g>
			<path style="fill:#963734;" d="M128.77,245.565c-0.047,1.035-0.142,1.622-2.252,0.954c-2.586-0.835-2.56,1.229-2.437,1.958
				c0.367,2.136-2.35-0.49-1.883,2.064c0.461,2.552-1.868-0.89-2.041-1.294c-0.185-0.407-0.731-2.131,1.488-5.206
				C123.857,240.961,128.912,242.382,128.77,245.565z"/>
		</g>
		<polygon style="fill:#FE88D4;" points="136.751,277.664 151.287,272.089 147.575,283.825 132.581,290.365 		"/>
		<path style="fill:#EFBEBD;" d="M113.655,269.521c0.062,2.368,1.031,3.025-0.855,6.899c-0.014,0.018-1.883,2.545-1.883,2.545
			c2.669,1.602,7.301,2.637,11.471,2.854c-2.297-0.552-6.161-5.254-2.002-5.6c4.176-0.347,7.476-1.729,7.281-3.301
			c0,0-6.972,0.271-8.402-0.473c-1.429-0.744,1.548-4.923,1.696-6.63c0.12-1.357-1.69-5.195-1.69-5.195
			C118.406,266.806,113.655,269.521,113.655,269.521z"/>
		<path style="fill:#EE9D7F;" d="M115.459,256.145c0,0,1.977,0.137,2.131,3.368c0.179,3.765-4.865,11.329-3.084,16.246
			c1.779,4.917,5.252,5.546,7.526,6.27c2.275,0.721,3.521-0.049,4.796,0.517c1.276,0.565,0.544,2.055-3.375,1.764
			c-1.873-0.138-11.215,0.282-14.419-5.186C104.841,271.958,110.754,255.369,115.459,256.145z"/>
		<path style="fill:#FCDCDA;" d="M116.763,255.002c0,0-3.724-0.672-6.186,4.412c-2.884,5.945-3.074,9.017-3.074,9.017
			s2.451,2.556,9.221,2.874C116.724,271.305,122.871,256.589,116.763,255.002z"/>
		<path style="fill:#963734;" d="M120.622,251.731c0,0-5.608,7.587,1.639,9.959c0,0-8.356,0.508-7.411-8.066L120.622,251.731z"/>
		<path style="fill:#872A2A;" d="M122.039,252.924c0,0-1.857,2.106,1.521,3.928c0,0-3.515,1.985-1.3,4.839
			c0,0-6.927-1.421-2.23-9.027L122.039,252.924z"/>
		<path style="fill:#F4A517;" d="M142.206,295.702c0,0,2.736,5.965-1.089,22.08c0,0-2.081,2.559-5.715,0.802
			c0,0-3.339-17.317-1.948-22.379C134.845,291.143,142.206,295.702,142.206,295.702z"/>
		<path style="fill:#F28F19;" d="M156.343,281.22c0,0,5.852,5.009,7.037,22.157c0,0-1.084,3.114-5.101,2.694
			c0,0-10.488-13.695-9.439-20.387C149.652,280.506,156.343,281.22,156.343,281.22z"/>
	</g>
	<g>
		<g>
			<path style="fill:#F4A517;" d="M300.516,170.744c-13.091,5.545-19.205,20.655-13.657,33.746
				c5.547,13.086,20.653,19.201,33.745,13.654c13.087-5.543,19.205-20.65,13.657-33.74
				C328.713,171.314,313.605,165.197,300.516,170.744z M317.227,210.18c-8.691,3.682-18.718-0.378-22.401-9.064
				c-3.682-8.691,0.379-18.722,9.067-22.404c8.687-3.681,18.718,0.381,22.398,9.072C329.973,196.468,325.913,206.496,317.227,210.18
				z"/>
			<path style="fill:#F28F19;" d="M307.735,177.721c0.759,1.79-0.076,3.855-1.869,4.615l0,0c-1.789,0.758-3.855-0.081-4.612-1.869
				l-3.522-8.305c-0.758-1.791,0.079-3.856,1.869-4.615l0,0c1.791-0.759,3.857,0.08,4.616,1.868L307.735,177.721z"/>
			<path style="fill:#F28F19;" d="M323.958,216.007c0.761,1.791-0.076,3.86-1.866,4.619l0,0c-1.791,0.755-3.855-0.08-4.614-1.871
				l-3.522-8.307c-0.759-1.791,0.08-3.855,1.868-4.615l0,0c1.789-0.758,3.858,0.078,4.615,1.868L323.958,216.007z"/>
			<path style="fill:#F28F19;" d="M327.544,192.276c-1.809,0.718-3.853-0.164-4.574-1.973l0,0c-0.717-1.804,0.166-3.848,1.971-4.569
				l8.381-3.334c1.809-0.721,3.854,0.163,4.575,1.969l0,0c0.716,1.805-0.167,3.854-1.973,4.573L327.544,192.276z"/>
			<path style="fill:#F28F19;" d="M287.556,207.906c-1.805,0.721-3.854-0.163-4.571-1.969l0,0c-0.72-1.808,0.162-3.856,1.97-4.573
				l8.381-3.333c1.805-0.722,3.853,0.163,4.571,1.969l0,0c0.718,1.807-0.164,3.856-1.971,4.572L287.556,207.906z"/>
		</g>
		<path style="fill:#2F2E69;" d="M322.271,206.398c0,1.33,1.078,2.411,2.412,2.411c1.332,0,2.413-1.081,2.413-2.411
			c0-1.333-1.081-2.414-2.413-2.414C323.35,203.984,322.271,205.065,322.271,206.398z"/>
		<g>
			<path style="fill:#EE9D7F;" d="M307.751,267.173c-1.728,8.18-3.761,25.65-0.436,25.744c3.322,0.09,5.18-1.122,3.267-1.77
				c-1.916-0.654-1.993-0.904-1.933-1.556c0.823-8.438,11.736-21.59,12.666-31.617c0.314-3.431,0.526-6.556,0.678-9.303
				c1.24,7.349,0.325,15.139,0.434,17.719c0.35,9.169,1.974,26.493,5.608,26.527c3.875,0.035,5.781-1.258,3.306-1.882
				c-2.141-0.543-2.053-0.665-2.016-1.306c0.524-9.255,4.238-26.371,4.952-37.366C335.099,239.673,309.256,260.022,307.751,267.173z
				"/>
			<path style="fill:#C92F3B;" d="M330.779,231.981c-6.624,5.336-15.133,3.679-18.736,2.838c-0.975,9.511-6.672,45.157-7.339,50.057
				c2.908,1.164,3.875,1.41,4.715,1.41c14.036-21.873,12.424-31.25,12.574-33.997c0.525,3.169-1.208,18.734,1.823,33.997
				c1.02,0.79,4.098,1.823,6.298,0c0.113-0.982,5.784-24.239,4.922-33.919C334.204,243.061,332.294,235.519,330.779,231.981z"/>
			<path style="fill:#7585F8;" d="M325.996,290.832c0,0,2.889,1.385,4.675,0c0,0,3.254,0.533,1.211,1.489
				C329.827,293.28,325.876,294.073,325.996,290.832z"/>
			<path style="fill:#7585F8;" d="M305.908,291.147c0,0,2.889,1.383,4.673,0c0,0,3.258,0.534,1.203,1.493
				C309.735,293.592,305.784,294.391,305.908,291.147z"/>
		</g>
		<path style="fill:#EE9D7F;" d="M325.225,217.848c-0.393-0.864-0.633-3.684,1.575-5.171c2.961-1.996,10.187-2.703,12.339-7.158
			c2.151-4.459,0.285-7.221-0.731-9.244c-1.017-2.02-2.358-2.353-2.818-3.594c-0.461-1.236,1.029-1.721,3.425,1.127
			c1.145,1.361,7.606,7.407,6.018,13.189C342.956,214.579,327.556,222.93,325.225,217.848z"/>
		<path style="fill:#EFBEBD;" d="M326.135,216.862c0,0,1.819,3.756,7.488,1.21c5.667-2.544,7.782-4.436,7.782-4.436
			s-0.505-4.04-5.07-8.477C336.335,205.159,322.826,211.94,326.135,216.862z"/>
		<path style="fill:#FCDCDA;" d="M332.557,234.263c0.524-9.148-0.047-13.271-0.902-17.933c-1.016-5.518-10.554-4.201-13.982-2.798
			c-3.427,1.407-9.096,3.591-5.06,10.729c2.807,4.976-4.704,11.073,0.96,13.945C313.563,238.206,332.002,243.889,332.557,234.263z"
			/>
		<path style="fill:#E67052;" d="M318.492,208.642c0,0,1.972,2.542,0.307,4.5c-1.706,2.018,7.21,4.463,6.643,2.849
			c-0.733-2.087-2.105-3.108-1.616-5.811L318.492,208.642z"/>
		<path style="fill:#F3B294;" d="M321.803,202.241c2.209,1.31,5.865,8.426,4.317,10.523c-0.669,0.907-4.294,0.859-7.202-1.973
			c-1.197-1.167-2.881-3.472-2.067-6.354C317.207,203.131,319.234,200.716,321.803,202.241z"/>
		<path style="fill:#963734;" d="M323.865,202.736c0.618,0.859,0.543,1.102-2.209,2.176c-2.753,1.07-3.285,0.999-2.841,1.607
			c1.292,1.809-0.827,1.872,0.744,4.023c1.583,2.148-1.132,1.23-2.623-0.474c-0.301-0.351-1.926-1.996-1.199-5.273
			C316.577,200.973,321.595,199.598,323.865,202.736z"/>
		<path style="fill:#AA3C3C;" d="M315.737,204.795c-0.833,3.056,0.898,4.923,1.199,5.273c1.106,1.272,2.902,2.135,3.08,1.555
			c0.212-0.699-1.666-0.522-1.524-2.317c0.129-1.791-1.061-1.898-1.125-3.42c-0.06-1.52,1.093-1.482,4.2-2.698
			c1.257-0.492,1.397-1.054,1.121-1.546C320.197,200.068,316.621,201.583,315.737,204.795z"/>
		<path style="fill:#EE9D7F;" d="M317.139,216.638c-0.421-0.842-2.476-2.789-5.026-1.979c-3.421,1.077-8.527,6.326-13.366,5.24
			c-4.836-1.09-5.823-4.28-6.761-6.342c-0.94-2.055-0.352-3.316-1.034-4.453c-0.677-1.129-1.99-0.27-1.276,3.389
			c0.345,1.75,0.998,10.604,6.518,12.956C303.425,228.544,319.65,221.646,317.139,216.638z"/>
		<path style="fill:#EFBEBD;" d="M317.417,217.607c0,0-1.183-3.79-6.869-2.189c-5.688,1.597-7.945,3.08-7.945,3.08
			s-0.094,3.87,3.581,8.691C306.184,227.189,319.844,222.701,317.417,217.607z"/>
		<g>
			<path style="fill:#2F2E69;" d="M319.807,209.867c0,1.331-1.081,2.415-2.411,2.415c-1.334,0-2.413-1.084-2.413-2.415
				c0-1.335,1.079-2.41,2.413-2.41C318.725,207.457,319.807,208.532,319.807,209.867z"/>
			<g>
				<path style="fill:#2F2E69;" d="M316.399,208.117c-0.018-0.159-0.338-3.954,1.619-5.987c0.848-0.883,2.445-1.594,3.409-1.219
					c0.128,0.048,0.432,0.339,0.432,0.339c-1.29-0.06-2.776,0.385-3.536,1.175c-1.817,1.891-1.506,5.62-1.501,5.654L316.399,208.117
					z"/>
			</g>
			<g>
				<path style="fill:#2F2E69;" d="M322.157,213.69c-2.659,0-4.197-2.585-4.216-2.62l0.367-0.214
					c0.093,0.158,2.335,3.904,6.135,1.738l0.21,0.367C323.739,213.484,322.902,213.69,322.157,213.69z"/>
			</g>
			<path style="fill:#2F2E69;" d="M325.887,212.032c0.124,0.239-0.182,0.645-0.683,0.912c-0.499,0.27-1.006,0.295-1.132,0.063
				c-0.125-0.239,0.176-0.645,0.677-0.912C325.248,211.825,325.76,211.797,325.887,212.032z"/>
		</g>
	</g>
	<g>
		<g>
			<path style="fill:#FFAA83;" d="M458.677,208.654c0,0-2.959-2.369-4.814-0.845c-1.636,1.348,2.748-0.017,3.313,1.959
				L458.677,208.654z"/>
			<path style="fill:#EFCACA;" d="M478.145,216.154c2.369,2.661,1.108,4.71-0.762,5.493c-2.967,1.261-9.24,4.887-11.27,3.395
				c-2.035-1.496-9.213-15.544-9.213-15.544s0.457-1.351,1.777-0.845l9.74,10.544C468.417,219.198,475.906,213.632,478.145,216.154z
				"/>
		</g>
		<g>
			<path style="fill:#EE9D7F;" d="M479.273,287.333c1.33-1.022,1.319-1.225,1.096-1.672c-0.191-0.39-0.433-0.778-0.701-1.172
				l2.659-0.985c0.309,0.966,0.521,1.828,0.576,2.51C482.679,286.211,480.92,287.78,479.273,287.333z"/>
			<path style="fill:#7585F8;" d="M482.903,286.014c0.009-0.015,0.035-0.039,0.035-0.039c0.954,2.282-2.361,2.866-4.222,2.781
				c-1.858-0.093,0.557-1.423,0.557-1.423C480.92,287.78,482.679,286.211,482.903,286.014z"/>
		</g>
		<path style="fill:#C92F3B;" d="M463.716,238.88c0,0-0.198,5.483,0.569,8.786c2.577,11.083,3.3,9.812,4.229,12.861
			c1.563,5.189,5.981,18.007,11.166,24.505c0.615,0.76,3.558-0.603,3.465-1.823c-0.584-8.181-0.719-11.863-4.292-20.166
			c0,0,1.826-6.865,1.834-10.137c0.008-3.857-0.412-13.061-3.134-16.897L463.716,238.88z"/>
		<g>
			<path style="fill:#EE9D7F;" d="M463.353,288.598c1.519-0.718,1.553-0.92,1.434-1.405c-0.107-0.417-0.265-0.853-0.443-1.292
				l2.807-0.399c0.099,1.008,0.125,1.9,0.03,2.577C466.926,288.225,464.871,289.384,463.353,288.598z"/>
			<path style="fill:#7585F8;" d="M467.18,288.078c0.018-0.014,0.046-0.03,0.046-0.03c0.451,2.432-2.912,2.299-4.712,1.818
				c-1.802-0.479,0.839-1.268,0.839-1.268C464.871,289.384,466.926,288.225,467.18,288.078z"/>
		</g>
		<path style="fill:#E03D51;" d="M458.42,237.946c0,0-1.354,5.319-1.306,8.705c0.168,11.376,1.146,10.289,1.404,13.468
			c0.432,5.404,2.031,18.865,5.724,26.314c0.436,0.873,3.604,0.164,3.776-1.05c1.154-8.115,1.808-11.743,0.078-20.614
			c0,0,3.237-6.321,3.938-9.518c0.818-3.768,2.366-12.853,0.511-17.18L458.42,237.946z"/>
		<path style="fill:#FCDCDA;" d="M463.434,214.695c-2.734,2.199-4.963,7.431-5.667,24.396c-0.148,3.729,21.474,4.095,21.462,0.361
			c-0.051-9.94-1.842-13.985-4.91-22.872C473.49,214.165,468.833,210.318,463.434,214.695z"/>
		<g>
			<path style="fill:#FFAA83;" d="M441.951,214.409c0,0-1.149-4.745-1.75-2.921c-0.602,1.826-1.49,2.195,0.648,4.37L441.951,214.409
				z"/>
			<path style="fill:#FCDCDA;" d="M465.064,215.517c3.223,2.006,2.382,4.584,0.568,6.045c-2.875,2.33-8.715,8.268-11.28,7.381
				c-2.569-0.886-13.862-13.273-13.862-13.273s0.147-1.577,1.692-1.489l13.173,7.828
				C455.355,222.008,462.01,213.611,465.064,215.517z"/>
		</g>
		<path style="fill:#963734;" d="M465.058,198.31c-2.32,0.373-5.142,2.367-5.007,6.969c0.142,4.594,0.021,4.689-1.463,6.422
			c-3.822,4.461,6.557,3.709,4.015,8.281c-7.022,12.619,11.489,10,14.913,6.175c3.859-4.313,4.962-11.376,0.272-14.276
			c-1.546-0.956,1.025-6.442-2.693-7.39C471.373,203.536,473.986,196.873,465.058,198.31z"/>
		<path style="fill:#2F2E69;" d="M463.961,205.963c0,1.107-0.95,2.001-2.123,2.001c-1.169,0-2.122-0.894-2.122-2.001
			c0-1.1,0.953-1.993,2.122-1.993C463.011,203.97,463.961,204.863,463.961,205.963z"/>
		<g>
			<path style="fill:#2F2E69;" d="M460.989,204.566c-0.013-0.145-0.303-3.553,1.453-5.377c0.761-0.791,2.194-1.431,3.06-1.094
				c0.116,0.044,0.387,0.307,0.387,0.307c-1.156-0.057-2.488,0.343-3.172,1.053c-1.634,1.696-1.351,5.043-1.35,5.077
				L460.989,204.566z"/>
		</g>
	</g>
</g>
</svg>
