<svg id="svg" version="1.1" xmlns="http://www.w3.org/2000/svg" xmlns:xlink="http://www.w3.org/1999/xlink" width="400" height="400" viewBox="0, 0, 400,400"><g id="svgg"><path id="path0" d="M75.600 149.269 C 71.807 150.320,71.143 150.597,69.822 151.686 C 69.040 152.331,68.400 153.052,68.400 153.289 C 68.400 153.525,67.774 154.327,67.010 155.070 C 65.478 156.557,65.020 156.562,61.667 155.137 C 55.886 152.679,46.400 157.536,46.400 162.954 C 46.400 163.310,46.220 163.600,46.000 163.600 C 45.780 163.600,45.598 164.185,45.595 164.900 C 45.582 167.799,45.335 167.996,40.400 169.058 C 37.337 169.717,34.133 172.430,32.369 175.859 C 31.308 177.924,30.985 184.795,31.935 185.112 C 32.191 185.197,32.400 185.666,32.400 186.153 C 32.400 186.641,32.604 187.244,32.853 187.493 C 33.443 188.083,32.066 190.538,31.033 190.737 C 27.591 191.400,24.885 201.081,26.973 205.266 C 27.318 205.957,27.600 206.689,27.600 206.893 C 27.600 207.441,30.718 210.337,32.048 211.025 C 33.438 211.744,33.537 212.871,32.425 215.304 C 31.999 216.237,31.608 217.810,31.557 218.800 C 31.394 221.967,31.589 224.854,31.951 224.630 C 32.145 224.511,32.403 224.915,32.526 225.528 C 33.119 228.497,38.030 231.660,42.459 231.926 C 45.391 232.102,45.600 232.363,45.600 235.855 C 45.600 236.601,45.759 237.523,45.953 237.905 C 46.148 238.287,46.552 239.140,46.853 239.800 C 47.153 240.460,47.489 241.090,47.599 241.200 C 47.710 241.310,47.995 241.760,48.233 242.200 C 50.318 246.048,58.045 247.489,63.041 244.962 C 65.050 243.945,65.311 243.898,65.643 244.491 C 65.846 244.854,66.549 245.688,67.206 246.344 C 67.863 247.001,68.400 247.698,68.400 247.894 C 68.400 249.043,72.661 251.156,75.596 251.463 C 80.519 251.977,85.626 249.469,87.622 245.557 C 88.568 243.702,88.367 243.728,91.160 245.100 C 94.428 246.705,99.335 246.681,102.100 245.047 C 103.145 244.429,103.901 243.763,103.779 243.567 C 103.658 243.370,103.815 243.307,104.127 243.428 C 105.628 244.003,108.469 238.724,108.717 234.900 L 108.905 232.000 111.389 232.000 C 121.154 232.000,126.131 221.510,120.903 211.948 C 120.827 211.810,121.538 211.241,122.483 210.684 C 130.555 205.925,130.555 194.075,122.483 189.316 C 121.538 188.759,120.827 188.190,120.903 188.052 C 124.112 182.183,123.940 176.941,120.394 172.487 C 117.933 169.397,114.908 168.102,109.953 168.018 C 108.936 168.001,108.900 167.912,108.715 165.042 C 108.382 159.842,105.666 156.525,100.500 155.010 C 100.005 154.865,99.600 154.623,99.601 154.473 C 99.603 153.887,94.206 154.484,93.208 155.180 C 92.654 155.567,91.722 155.999,91.137 156.140 C 90.553 156.281,89.743 156.516,89.337 156.662 C 88.932 156.808,88.720 156.794,88.867 156.630 C 89.013 156.467,88.833 156.000,88.467 155.593 C 88.100 155.186,87.260 154.141,86.600 153.271 C 85.318 151.581,81.860 149.600,80.191 149.600 C 79.646 149.600,79.200 149.420,79.200 149.200 C 79.200 148.712,77.493 148.745,75.600 149.269 M101.900 184.560 C 104.155 186.840,106.000 188.836,106.000 188.995 C 106.000 189.379,71.198 224.128,70.998 223.943 C 70.912 223.865,65.611 218.585,59.217 212.211 L 47.591 200.622 51.889 196.311 C 54.252 193.940,56.323 192.000,56.490 192.000 C 56.656 192.000,60.006 195.225,63.933 199.166 L 71.073 206.331 84.034 193.366 C 91.163 186.235,97.176 180.403,97.398 180.408 C 97.619 180.412,99.645 182.281,101.900 184.560 M148.800 183.527 C 148.800 183.706,149.708 186.451,150.818 189.627 C 152.967 195.773,156.486 205.927,158.473 211.712 L 159.679 215.223 164.703 215.112 L 169.727 215.000 170.699 212.200 C 171.233 210.660,172.630 206.610,173.803 203.200 C 174.976 199.790,177.018 193.889,178.340 190.086 L 180.745 183.173 176.720 183.286 L 172.695 183.400 170.952 188.800 C 165.755 204.895,164.971 207.171,164.652 207.074 C 164.364 206.986,158.570 189.891,157.069 184.700 L 156.635 183.200 152.717 183.200 C 150.563 183.200,148.800 183.347,148.800 183.527 M184.409 199.200 L 184.384 215.200 194.392 215.200 L 204.400 215.200 204.400 212.200 L 204.400 209.200 198.185 209.200 L 191.970 209.200 192.085 205.500 L 192.200 201.800 197.600 201.733 L 203.000 201.665 203.054 199.087 L 203.108 196.510 200.093 196.255 C 198.436 196.115,195.929 196.000,194.524 196.000 L 191.969 196.000 192.084 192.500 L 192.200 189.000 198.300 188.890 L 204.400 188.779 204.400 185.990 L 204.400 183.200 194.417 183.200 L 184.435 183.200 184.409 199.200 M209.600 199.167 L 209.600 215.200 213.200 215.200 L 216.800 215.200 216.800 209.633 C 216.800 200.240,217.619 200.152,222.658 209.000 L 226.188 215.200 230.340 215.200 L 234.492 215.200 233.854 214.226 C 233.502 213.690,232.876 212.655,232.463 211.926 C 232.049 211.196,230.695 208.940,229.455 206.912 C 226.757 202.500,226.783 202.734,228.900 201.822 C 236.424 198.580,236.416 187.557,228.886 184.121 C 227.670 183.566,225.781 183.415,218.500 183.288 L 209.600 183.133 209.600 199.167 M239.200 199.200 L 239.200 215.200 242.791 215.200 L 246.382 215.200 246.491 199.200 L 246.600 183.200 242.900 183.200 L 239.200 183.200 239.200 199.200 M252.800 199.172 L 252.800 215.143 256.392 215.272 L 259.983 215.400 260.092 208.800 L 260.200 202.200 265.300 202.088 L 270.400 201.976 270.400 199.588 C 270.400 198.275,270.445 197.065,270.500 196.900 C 270.555 196.735,268.260 196.510,265.400 196.400 L 260.200 196.200 260.200 192.600 L 260.200 189.000 266.900 188.890 L 273.600 188.781 273.600 185.990 L 273.600 183.200 263.200 183.200 L 252.800 183.200 252.800 199.172 M278.400 199.200 L 278.400 215.200 282.000 215.200 L 285.600 215.200 285.600 199.200 L 285.600 183.200 282.000 183.200 L 278.400 183.200 278.400 199.200 M292.000 199.200 L 292.000 215.200 301.800 215.200 L 311.600 215.200 311.600 212.200 L 311.600 209.200 305.400 209.200 L 299.200 209.200 299.200 205.643 C 299.200 201.358,298.827 201.600,305.433 201.600 L 310.400 201.600 310.400 198.800 L 310.400 196.000 304.784 196.000 L 299.169 196.000 299.284 192.500 L 299.400 189.000 305.600 188.891 L 311.800 188.783 311.667 185.991 L 311.534 183.200 301.767 183.200 L 292.000 183.200 292.000 199.200 M316.800 199.234 L 316.800 215.269 325.300 215.116 C 340.600 214.840,346.122 210.078,345.529 197.671 C 345.023 187.078,339.237 183.207,323.900 183.202 L 316.800 183.200 316.800 199.234 M225.439 190.508 C 226.702 191.665,226.867 192.042,226.867 193.766 C 226.867 196.969,225.746 197.765,220.992 197.939 L 217.200 198.077 217.200 193.639 L 217.200 189.200 220.606 189.200 C 223.895 189.200,224.061 189.245,225.439 190.508 M333.564 190.814 C 336.157 192.263,337.489 194.149,337.945 197.015 C 339.077 204.141,335.563 208.274,328.008 208.705 L 324.400 208.911 324.400 199.208 L 324.400 189.505 328.100 189.667 C 331.092 189.798,332.138 190.017,333.564 190.814 " stroke="none" fill="#335cac" fill-rule="evenodd"></path><path id="path1" d="M75.400 148.400 C 74.960 148.589,74.127 148.756,73.549 148.772 C 72.971 148.787,72.251 149.104,71.949 149.475 C 71.460 150.075,71.488 150.114,72.200 149.829 C 73.300 149.388,75.486 148.793,77.400 148.416 L 79.000 148.100 77.600 148.078 C 76.830 148.066,75.840 148.211,75.400 148.400 M79.268 148.571 C 79.698 149.050,82.400 149.556,82.400 149.158 C 82.400 148.961,81.965 148.800,81.433 148.800 C 80.901 148.800,80.136 148.681,79.733 148.536 C 79.330 148.391,79.121 148.407,79.268 148.571 M69.508 150.787 C 68.957 151.220,68.378 151.445,68.220 151.287 C 68.062 151.129,67.987 151.180,68.052 151.400 C 68.117 151.620,67.937 152.220,67.653 152.734 C 67.368 153.248,67.236 153.769,67.358 153.892 C 67.481 154.014,67.702 153.801,67.849 153.417 C 68.156 152.615,69.665 151.034,70.696 150.434 C 71.083 150.209,71.199 150.019,70.954 150.012 C 70.709 150.005,70.058 150.354,69.508 150.787 M83.633 150.100 C 83.725 150.155,84.340 150.650,85.000 151.200 L 86.200 152.200 85.230 151.100 C 84.697 150.495,84.082 150.000,83.864 150.000 C 83.645 150.000,83.542 150.045,83.633 150.100 M87.162 153.529 C 87.405 153.984,87.801 154.477,88.042 154.626 C 88.356 154.820,88.354 154.662,88.038 154.071 C 87.795 153.616,87.399 153.123,87.158 152.974 C 86.844 152.780,86.846 152.938,87.162 153.529 M52.322 154.628 C 50.220 155.684,46.800 158.770,46.800 159.610 C 46.800 159.911,47.349 159.412,48.019 158.500 C 48.690 157.588,49.590 156.730,50.019 156.594 C 50.449 156.458,50.800 156.198,50.800 156.016 C 50.800 155.263,54.381 154.188,57.600 153.976 L 61.000 153.751 57.600 153.718 C 54.782 153.690,53.878 153.846,52.322 154.628 M92.647 154.407 C 91.793 154.833,90.499 155.222,89.773 155.271 C 89.046 155.320,88.537 155.498,88.641 155.667 C 88.901 156.087,91.141 155.623,92.600 154.847 C 93.260 154.496,95.240 154.102,97.000 153.972 L 100.200 153.735 97.200 153.684 C 94.955 153.645,93.809 153.827,92.647 154.407 M61.200 154.231 C 61.200 154.501,63.278 155.256,63.476 155.057 C 63.567 154.967,63.092 154.701,62.420 154.467 C 61.749 154.233,61.200 154.127,61.200 154.231 M65.861 154.985 C 65.455 155.293,64.825 155.441,64.461 155.314 C 63.954 155.136,63.906 155.197,64.254 155.575 C 64.678 156.036,67.200 155.192,67.200 154.590 C 67.200 154.244,66.610 154.418,65.861 154.985 M102.400 154.963 C 102.400 155.043,102.850 155.403,103.400 155.763 C 103.950 156.124,104.400 156.263,104.400 156.073 C 104.400 155.884,103.950 155.523,103.400 155.273 C 102.850 155.022,102.400 154.883,102.400 154.963 M115.371 159.720 C 113.922 160.531,114.726 161.866,117.209 162.771 C 125.659 165.852,129.259 171.062,129.515 180.578 L 129.676 186.555 131.444 189.084 C 134.252 193.101,135.379 196.823,135.065 201.040 C 134.800 204.606,134.402 206.752,133.956 207.027 C 133.760 207.148,133.600 207.563,133.600 207.948 C 133.600 208.334,133.285 209.004,132.900 209.438 C 129.487 213.286,128.932 214.193,129.261 215.400 C 131.598 223.988,126.429 233.533,117.453 237.203 C 114.806 238.285,114.176 239.319,115.410 240.553 C 116.012 241.155,125.775 241.198,239.532 241.103 L 363.000 241.000 365.600 239.666 C 369.826 237.499,372.368 234.654,374.017 230.247 C 374.798 228.158,374.817 227.307,374.710 199.349 L 374.600 170.600 373.425 168.281 C 371.769 165.012,369.280 162.613,365.861 160.990 L 362.969 159.618 239.456 159.509 C 171.524 159.449,115.686 159.544,115.371 159.720 M46.129 160.890 C 45.457 161.780,43.860 168.300,44.461 167.699 C 44.664 167.496,44.930 166.626,45.053 165.765 C 45.176 164.904,45.630 163.415,46.061 162.456 C 46.837 160.730,46.873 159.905,46.129 160.890 M109.352 166.197 C 109.389 167.413,109.568 167.808,110.108 167.856 C 110.560 167.896,110.604 167.852,110.230 167.734 C 109.903 167.631,109.570 166.900,109.475 166.075 L 109.305 164.600 109.352 166.197 M39.689 168.284 C 39.189 168.380,38.302 168.706,37.718 169.009 C 37.135 169.311,36.464 169.449,36.229 169.315 C 35.993 169.181,35.939 169.225,36.110 169.412 C 36.280 169.600,35.560 170.663,34.510 171.776 L 32.600 173.800 34.589 172.000 C 35.683 171.010,36.673 170.110,36.789 170.000 C 37.339 169.478,38.862 168.799,39.495 168.794 C 39.883 168.791,40.470 168.613,40.800 168.400 C 41.418 168.001,41.254 167.983,39.689 168.284 M120.400 172.000 C 120.870 172.660,121.344 173.200,121.454 173.200 C 121.564 173.200,121.270 172.660,120.800 172.000 C 120.330 171.340,119.856 170.800,119.746 170.800 C 119.636 170.800,119.930 171.340,120.400 172.000 M122.207 174.800 C 123.092 176.584,123.379 176.871,123.007 175.600 C 122.846 175.050,122.444 174.330,122.114 174.000 C 121.650 173.537,121.672 173.720,122.207 174.800 M31.596 175.300 C 31.160 176.015,30.802 176.990,30.801 177.467 C 30.801 177.944,30.693 178.664,30.562 179.067 C 30.365 179.677,30.397 179.699,30.756 179.200 C 30.994 178.870,31.191 178.205,31.194 177.723 C 31.197 177.240,31.578 176.205,32.040 175.423 C 32.501 174.640,32.769 174.000,32.634 174.000 C 32.499 174.000,32.032 174.585,31.596 175.300 M95.578 182.300 L 94.200 183.800 95.700 182.422 C 97.096 181.138,97.384 180.800,97.078 180.800 C 97.012 180.800,96.337 181.475,95.578 182.300 M101.400 184.800 C 103.592 187.000,105.475 188.800,105.585 188.800 C 105.695 188.800,103.992 187.000,101.800 184.800 C 99.608 182.600,97.725 180.800,97.615 180.800 C 97.505 180.800,99.208 182.600,101.400 184.800 M30.644 183.400 C 30.973 184.871,31.202 185.190,31.194 184.167 C 31.191 183.745,31.005 183.130,30.782 182.800 C 30.485 182.362,30.448 182.524,30.644 183.400 M156.991 183.300 C 157.083 183.575,158.812 188.896,160.835 195.124 C 162.858 201.352,164.644 206.302,164.805 206.124 C 164.965 205.946,166.390 201.750,167.970 196.800 C 169.550 191.850,171.227 186.675,171.696 185.300 L 172.548 182.800 176.874 182.800 C 179.253 182.800,181.200 182.867,181.200 182.950 C 181.200 183.032,180.914 183.887,180.566 184.850 C 180.217 185.812,178.434 190.920,176.603 196.200 C 174.773 201.480,172.501 208.005,171.554 210.700 L 169.833 215.600 164.565 215.600 L 159.297 215.600 158.877 214.100 C 158.440 212.535,157.328 209.314,153.187 197.600 C 151.825 193.750,150.306 189.329,149.810 187.775 C 149.314 186.221,148.710 184.579,148.468 184.127 C 148.226 183.675,148.142 183.192,148.281 183.053 C 148.788 182.546,156.816 182.774,156.991 183.300 M204.800 186.000 L 204.800 189.200 198.600 189.200 L 192.400 189.200 192.400 192.589 L 192.400 195.977 197.900 196.089 L 203.400 196.200 203.518 199.100 L 203.635 202.000 198.018 202.000 L 192.400 202.000 192.400 205.600 L 192.400 209.200 198.600 209.200 L 204.800 209.200 204.800 212.400 L 204.800 215.600 194.600 215.600 L 184.400 215.600 184.400 199.200 L 184.400 182.800 194.600 182.800 L 204.800 182.800 204.800 186.000 M228.995 183.920 C 233.169 185.843,234.603 188.226,234.581 193.200 C 234.562 197.451,231.923 202.000,229.475 202.000 C 227.130 202.000,227.328 202.844,231.136 209.096 C 233.151 212.403,234.800 215.219,234.800 215.354 C 234.800 215.490,232.835 215.600,230.432 215.600 L 226.064 215.600 222.525 209.504 C 217.825 201.410,217.653 201.402,217.511 209.273 L 217.400 215.400 213.300 215.514 L 209.200 215.628 209.200 199.186 L 209.200 182.745 218.100 182.873 C 226.392 182.991,227.136 183.063,228.995 183.920 M246.900 183.300 C 246.845 183.465,246.800 190.800,246.800 199.600 L 246.800 215.600 242.800 215.600 L 238.800 215.600 238.800 199.186 L 238.800 182.772 242.900 182.886 C 245.155 182.949,246.955 183.135,246.900 183.300 M273.917 186.090 L 274.033 189.181 267.317 189.290 L 260.600 189.400 260.484 192.688 L 260.368 195.976 265.484 196.088 L 270.600 196.200 270.717 199.288 L 270.833 202.376 265.717 202.488 L 260.600 202.600 260.490 209.100 L 260.380 215.600 256.390 215.600 L 252.400 215.600 252.400 199.193 L 252.400 182.787 263.100 182.893 L 273.800 183.000 273.917 186.090 M286.000 199.200 L 286.000 215.600 282.000 215.600 L 278.000 215.600 278.000 199.200 L 278.000 182.800 282.000 182.800 L 286.000 182.800 286.000 199.200 M312.000 185.990 L 312.000 189.179 305.900 189.290 L 299.800 189.400 299.800 192.600 L 299.800 195.800 305.300 195.911 L 310.800 196.023 310.800 199.011 L 310.800 202.000 305.184 202.000 L 299.569 202.000 299.684 205.500 L 299.800 209.000 305.900 209.110 L 312.000 209.221 312.000 212.410 L 312.000 215.600 301.800 215.600 L 291.600 215.600 291.600 199.200 L 291.600 182.800 301.800 182.800 L 312.000 182.800 312.000 185.990 M334.750 183.554 C 342.416 185.940,345.788 190.655,345.796 199.000 C 345.807 211.099,339.674 215.745,324.000 215.511 L 316.600 215.400 316.495 199.601 C 316.438 190.911,316.477 183.576,316.583 183.301 C 316.924 182.410,331.739 182.616,334.750 183.554 M122.278 185.805 C 121.912 186.572,121.695 187.200,121.796 187.200 C 122.070 187.200,123.284 184.751,123.101 184.568 C 123.014 184.481,122.644 185.038,122.278 185.805 M31.332 185.767 C 31.479 186.151,31.600 186.631,31.600 186.833 C 31.600 187.035,31.763 187.200,31.963 187.200 C 32.428 187.200,32.037 185.670,31.484 185.328 C 31.220 185.165,31.164 185.328,31.332 185.767 M32.036 188.533 C 31.762 189.045,31.052 189.751,30.458 190.102 C 29.864 190.453,29.023 191.136,28.589 191.619 C 28.021 192.252,28.337 192.137,29.717 191.210 C 31.545 189.980,33.120 188.187,32.721 187.788 C 32.619 187.685,32.310 188.020,32.036 188.533 M88.198 206.500 L 71.000 223.800 88.300 206.602 C 104.380 190.617,105.780 189.200,105.498 189.200 C 105.442 189.200,97.657 196.985,88.198 206.500 M217.600 193.559 L 217.600 197.600 221.018 197.600 C 225.268 197.600,226.400 196.809,226.400 193.840 C 226.400 190.742,225.231 189.831,221.035 189.659 L 217.600 189.518 217.600 193.559 M324.800 199.259 L 324.800 208.519 328.159 208.282 C 333.716 207.890,336.254 206.201,337.445 202.106 C 339.483 195.093,335.400 190.000,327.740 190.000 L 324.800 190.000 324.800 199.259 M52.002 196.598 L 47.818 200.796 48.709 201.687 C 49.199 202.177,49.600 202.461,49.600 202.317 C 49.600 202.174,49.303 201.760,48.939 201.396 C 48.325 200.782,48.570 200.443,52.432 196.568 C 54.717 194.276,56.496 192.400,56.386 192.400 C 56.276 192.400,54.303 194.289,52.002 196.598 M63.800 199.600 C 67.755 203.560,71.082 206.800,71.192 206.800 C 71.302 206.800,68.155 203.560,64.200 199.600 C 60.245 195.640,56.918 192.400,56.808 192.400 C 56.698 192.400,59.845 195.640,63.800 199.600 M126.760 193.000 C 127.434 194.305,127.988 195.028,127.985 194.600 C 127.983 194.380,127.614 193.750,127.164 193.200 C 126.621 192.536,126.485 192.469,126.760 193.000 M27.354 193.106 C 27.109 193.268,26.768 193.849,26.596 194.397 C 26.325 195.263,26.365 195.327,26.899 194.884 C 27.237 194.603,27.606 194.020,27.719 193.587 C 27.952 192.698,27.959 192.707,27.354 193.106 M25.867 196.267 C 25.720 196.413,25.621 197.178,25.646 197.967 L 25.692 199.400 26.004 197.800 C 26.331 196.119,26.305 195.828,25.867 196.267 M128.901 200.200 C 128.905 201.080,128.987 201.393,129.083 200.895 C 129.179 200.398,129.175 199.678,129.075 199.295 C 128.975 198.913,128.896 199.320,128.901 200.200 M127.053 206.500 L 126.333 207.800 127.158 206.800 C 127.889 205.913,128.214 205.200,127.886 205.200 C 127.824 205.200,127.449 205.785,127.053 206.500 M31.700 211.322 C 32.589 212.041,32.581 212.668,31.655 214.625 C 30.851 216.325,30.133 219.855,30.805 218.800 C 31.016 218.470,31.191 217.833,31.194 217.385 C 31.197 216.936,31.560 215.863,32.000 215.000 C 33.055 212.931,33.023 211.736,31.900 211.192 C 31.088 210.798,31.068 210.811,31.700 211.322 M122.278 214.195 C 122.644 214.962,123.014 215.519,123.101 215.432 C 123.284 215.249,122.070 212.800,121.796 212.800 C 121.695 212.800,121.912 213.428,122.278 214.195 M30.658 222.400 C 30.975 224.125,31.202 224.451,31.194 223.167 C 31.191 222.635,31.011 221.930,30.794 221.600 C 30.518 221.178,30.477 221.415,30.658 222.400 M122.278 225.005 C 121.912 225.772,121.695 226.400,121.796 226.400 C 122.070 226.400,123.284 223.951,123.101 223.768 C 123.014 223.681,122.644 224.238,122.278 225.005 M31.433 225.200 C 31.730 226.314,31.919 226.614,32.167 226.366 C 32.259 226.274,32.072 225.749,31.751 225.199 L 31.167 224.200 31.433 225.200 M35.374 229.958 C 35.523 230.199,36.016 230.595,36.471 230.838 C 37.062 231.154,37.220 231.156,37.026 230.842 C 36.877 230.601,36.384 230.205,35.929 229.962 C 35.338 229.646,35.180 229.644,35.374 229.958 M44.654 234.200 C 44.933 237.023,45.213 238.361,45.572 238.583 C 45.742 238.688,45.734 238.105,45.553 237.287 C 45.372 236.469,45.051 234.990,44.840 234.000 L 44.457 232.200 44.654 234.200 M109.309 234.000 C 109.309 234.990,109.387 235.395,109.482 234.900 C 109.578 234.405,109.578 233.595,109.482 233.100 C 109.387 232.605,109.309 233.010,109.309 234.000 M108.480 237.880 C 107.888 239.809,108.175 240.095,108.800 238.200 C 109.064 237.401,109.202 236.669,109.107 236.574 C 109.012 236.478,108.730 237.066,108.480 237.880 M63.800 244.827 C 63.140 245.250,62.805 245.597,63.056 245.598 C 63.306 245.599,63.936 245.246,64.456 244.813 C 65.645 243.823,65.359 243.829,63.800 244.827 M65.943 245.900 C 66.444 246.615,66.939 247.200,67.041 247.200 C 67.387 247.200,66.450 245.740,65.737 245.167 C 65.236 244.765,65.296 244.978,65.943 245.900 M53.600 246.405 C 53.930 246.616,54.725 246.791,55.367 246.794 C 56.914 246.802,56.577 246.571,54.600 246.268 C 53.510 246.101,53.191 246.145,53.600 246.405 M59.400 246.400 C 58.311 246.677,58.293 246.707,59.200 246.725 C 59.750 246.735,60.560 246.589,61.000 246.400 C 61.986 245.976,61.066 245.976,59.400 246.400 M93.000 246.381 C 93.768 246.729,95.910 246.956,95.567 246.653 C 95.475 246.572,94.680 246.396,93.800 246.262 C 92.685 246.093,92.442 246.129,93.000 246.381 M97.700 246.676 C 98.085 246.776,98.715 246.776,99.100 246.676 C 99.485 246.575,99.170 246.493,98.400 246.493 C 97.630 246.493,97.315 246.575,97.700 246.676 M80.600 251.236 C 79.500 251.637,78.921 251.973,79.313 251.982 C 80.121 252.002,82.800 250.956,82.800 250.620 C 82.800 250.499,82.755 250.424,82.700 250.453 C 82.645 250.483,81.700 250.835,80.600 251.236 " stroke="none" fill="#cccddb" fill-rule="evenodd"></path><path id="path2" d="M75.887 148.646 C 75.751 148.782,75.046 149.047,74.320 149.235 L 73.000 149.578 74.400 149.370 C 75.170 149.256,76.389 149.060,77.109 148.936 C 77.829 148.812,78.909 148.896,79.509 149.123 C 80.924 149.657,83.344 150.124,82.200 149.641 C 79.551 148.524,76.491 148.042,75.887 148.646 M83.374 150.358 C 83.523 150.599,84.016 150.995,84.471 151.238 C 85.062 151.554,85.220 151.556,85.026 151.242 C 84.877 151.001,84.384 150.605,83.929 150.362 C 83.338 150.046,83.180 150.044,83.374 150.358 M86.200 152.800 C 86.598 153.240,86.992 153.600,87.076 153.600 C 87.160 153.600,87.035 153.240,86.800 152.800 C 86.565 152.360,86.170 152.000,85.924 152.000 C 85.678 152.000,85.802 152.360,86.200 152.800 M62.800 155.369 C 63.914 156.041,64.791 156.216,64.180 155.645 C 63.971 155.450,63.350 155.172,62.800 155.028 L 61.800 154.767 62.800 155.369 M92.287 155.046 C 92.151 155.182,91.446 155.433,90.720 155.605 C 89.572 155.877,89.533 155.923,90.424 155.959 C 90.986 155.982,91.796 155.736,92.224 155.413 C 92.651 155.090,92.895 154.820,92.767 154.813 C 92.638 154.806,92.422 154.911,92.287 155.046 M102.000 155.220 C 103.387 156.161,104.178 156.435,103.200 155.636 C 102.650 155.186,102.020 154.817,101.800 154.815 C 101.580 154.813,101.670 154.996,102.000 155.220 M49.485 156.900 C 48.619 157.548,46.800 160.034,46.800 160.571 C 46.800 160.799,47.275 160.269,47.855 159.393 C 48.435 158.517,49.290 157.489,49.755 157.109 C 50.721 156.318,50.496 156.144,49.485 156.900 M45.467 163.467 C 45.320 163.613,45.200 164.232,45.200 164.841 C 45.200 165.450,45.009 166.455,44.775 167.074 C 44.466 167.891,44.470 168.081,44.788 167.766 C 45.139 167.419,46.081 163.200,45.807 163.200 C 45.766 163.200,45.613 163.320,45.467 163.467 M108.846 165.476 C 108.821 166.618,108.938 167.638,109.107 167.743 C 109.276 167.847,109.357 167.183,109.286 166.266 C 109.079 163.575,108.896 163.247,108.846 165.476 M40.800 168.400 C 40.036 168.894,40.858 168.894,42.400 168.400 L 43.400 168.080 42.400 168.046 C 41.850 168.027,41.130 168.187,40.800 168.400 M37.600 169.433 C 36.984 169.775,36.838 169.990,37.220 169.994 C 37.561 169.997,38.011 169.837,38.220 169.639 C 38.429 169.440,38.960 169.191,39.400 169.085 L 40.200 168.893 39.400 168.886 C 38.960 168.882,38.150 169.128,37.600 169.433 M34.400 172.200 C 33.428 173.190,32.723 174.000,32.833 174.000 C 32.943 174.000,33.828 173.190,34.800 172.200 C 35.772 171.210,36.477 170.400,36.367 170.400 C 36.257 170.400,35.372 171.210,34.400 172.200 M120.000 172.000 C 120.697 172.880,121.357 173.600,121.467 173.600 C 121.577 173.600,121.097 172.880,120.400 172.000 C 119.703 171.120,119.043 170.400,118.933 170.400 C 118.823 170.400,119.303 171.120,120.000 172.000 M31.915 175.716 C 30.750 178.018,30.156 181.669,30.786 182.665 C 31.183 183.293,31.214 183.231,31.003 182.242 C 30.721 180.924,31.400 177.548,32.284 175.872 C 32.610 175.252,32.808 174.674,32.721 174.588 C 32.635 174.502,32.272 175.009,31.915 175.716 M123.328 180.400 C 123.328 181.830,123.401 182.415,123.489 181.700 C 123.578 180.985,123.578 179.815,123.489 179.100 C 123.401 178.385,123.328 178.970,123.328 180.400 M83.998 193.500 L 71.000 206.600 84.185 193.600 C 91.436 186.450,97.451 180.555,97.551 180.500 C 97.651 180.445,97.567 180.400,97.364 180.400 C 97.161 180.400,91.146 186.295,83.998 193.500 M148.269 183.087 C 148.162 183.259,149.997 183.345,152.348 183.277 L 156.622 183.153 157.124 185.030 C 157.400 186.063,157.702 186.831,157.795 186.738 C 157.889 186.644,157.729 185.765,157.439 184.784 L 156.913 183.000 152.688 182.887 C 150.365 182.825,148.376 182.915,148.269 183.087 M176.449 183.098 L 180.697 183.226 180.133 184.864 C 179.823 185.765,179.646 186.579,179.739 186.673 C 179.876 186.809,181.200 183.415,181.200 182.929 C 181.200 182.858,179.175 182.838,176.700 182.885 L 172.200 182.970 176.449 183.098 M194.300 183.100 L 204.400 183.214 204.400 185.996 L 204.400 188.779 198.300 188.890 L 192.200 189.000 192.173 192.400 L 192.145 195.800 192.289 192.500 L 192.432 189.200 198.616 189.200 L 204.800 189.200 204.800 186.000 L 204.800 182.800 194.500 182.893 L 184.200 182.986 194.300 183.100 M213.300 183.098 C 215.665 183.169,219.535 183.169,221.900 183.098 C 224.265 183.028,222.330 182.970,217.600 182.970 C 212.870 182.970,210.935 183.028,213.300 183.098 M242.600 183.090 L 246.600 183.225 246.490 198.289 C 246.430 206.574,246.471 213.262,246.581 213.152 C 246.691 213.042,246.795 206.213,246.810 197.976 L 246.839 183.000 242.720 182.977 L 238.600 182.954 242.600 183.090 M252.400 199.193 L 252.400 215.600 256.100 215.518 L 259.800 215.435 256.300 215.302 L 252.800 215.169 252.800 199.184 L 252.800 183.200 263.200 183.200 L 273.600 183.200 273.600 185.990 L 273.600 188.781 266.900 188.890 L 260.200 189.000 260.164 192.400 L 260.129 195.800 260.364 192.600 L 260.600 189.400 267.317 189.290 L 274.033 189.181 273.917 186.090 L 273.800 183.000 263.100 182.893 L 252.400 182.787 252.400 199.193 M281.700 183.098 L 285.600 183.229 285.600 199.200 L 285.600 215.171 281.700 215.302 L 277.800 215.433 281.900 215.516 L 286.000 215.600 286.000 199.200 L 286.000 182.800 281.900 182.884 L 277.800 182.967 281.700 183.098 M301.482 183.100 L 311.564 183.214 311.704 185.907 L 311.843 188.600 311.922 185.700 L 312.000 182.800 301.700 182.893 L 291.400 182.986 301.482 183.100 M316.583 183.301 C 316.477 183.576,316.438 190.911,316.495 199.601 L 316.600 215.400 324.600 215.413 L 332.600 215.427 324.700 215.305 L 316.800 215.183 316.800 199.200 L 316.800 183.217 324.900 183.100 L 333.000 182.982 324.887 182.891 C 318.691 182.822,316.730 182.918,316.583 183.301 M31.246 184.054 C 31.221 184.414,31.469 185.224,31.798 185.854 C 32.126 186.484,32.396 186.721,32.398 186.380 C 32.399 186.039,32.237 185.589,32.039 185.380 C 31.840 185.171,31.591 184.640,31.485 184.200 C 31.350 183.637,31.279 183.593,31.246 184.054 M171.644 185.244 C 171.398 185.951,171.266 186.600,171.352 186.685 C 171.438 186.771,171.709 186.262,171.956 185.556 C 172.202 184.849,172.334 184.200,172.248 184.115 C 172.162 184.029,171.891 184.538,171.644 185.244 M238.895 199.700 L 238.800 215.600 242.800 215.600 C 245.000 215.600,246.800 215.465,246.801 215.300 C 246.801 215.135,245.093 215.057,243.006 215.127 L 239.209 215.255 239.100 199.527 L 238.990 183.800 238.895 199.700 M231.211 185.632 C 231.987 186.385,232.937 187.450,233.323 188.000 L 234.023 189.000 233.562 188.000 C 232.985 186.751,231.650 185.261,230.600 184.696 C 230.160 184.459,230.435 184.880,231.211 185.632 M341.273 187.403 C 342.084 188.281,343.206 189.810,343.768 190.800 C 344.331 191.790,344.793 192.410,344.795 192.178 C 344.804 191.438,342.555 188.242,341.154 187.003 C 339.820 185.822,339.821 185.828,341.273 187.403 M299.467 189.067 C 299.099 189.435,299.129 195.509,299.500 195.739 C 299.665 195.842,299.800 194.457,299.800 192.663 L 299.800 189.400 306.000 189.184 L 312.200 188.968 305.967 188.884 C 302.538 188.838,299.613 188.920,299.467 189.067 M219.500 189.482 C 219.995 189.578,220.805 189.578,221.300 189.482 C 221.795 189.387,221.390 189.309,220.400 189.309 C 219.410 189.309,219.005 189.387,219.500 189.482 M158.831 189.810 C 158.814 190.036,159.686 192.826,160.769 196.010 C 161.852 199.195,162.752 201.615,162.769 201.390 C 162.786 201.164,161.914 198.374,160.831 195.190 C 159.748 192.005,158.848 189.585,158.831 189.810 M177.647 192.047 C 177.184 193.418,176.874 194.608,176.958 194.692 C 177.043 194.776,177.490 193.723,177.953 192.353 C 178.416 190.982,178.726 189.792,178.642 189.708 C 178.557 189.624,178.110 190.677,177.647 192.047 M217.348 193.600 C 217.348 195.910,217.414 196.855,217.495 195.700 C 217.576 194.545,217.576 192.655,217.495 191.500 C 217.414 190.345,217.348 191.290,217.348 193.600 M324.492 199.100 L 324.585 208.600 324.700 199.317 L 324.815 190.033 327.907 189.897 L 331.000 189.761 327.700 189.680 L 324.400 189.600 324.492 199.100 M124.000 190.125 C 124.000 190.194,124.585 190.779,125.300 191.425 L 126.600 192.600 125.425 191.300 C 124.330 190.088,124.000 189.816,124.000 190.125 M225.614 191.057 C 226.276 192.010,226.453 192.752,226.344 194.119 C 226.265 195.112,226.335 195.840,226.500 195.738 C 227.274 195.260,226.784 192.027,225.771 190.922 L 224.742 189.800 225.614 191.057 M234.524 193.000 C 234.526 194.320,234.601 194.812,234.690 194.093 C 234.779 193.374,234.777 192.294,234.686 191.693 C 234.595 191.092,234.522 191.680,234.524 193.000 M28.598 192.002 C 27.575 193.132,28.010 193.237,29.086 192.120 C 29.573 191.614,29.826 191.200,29.648 191.200 C 29.470 191.200,28.997 191.561,28.598 192.002 M51.793 196.500 L 47.400 201.000 51.987 196.600 C 54.510 194.180,56.655 192.155,56.754 192.100 C 56.852 192.045,56.765 192.000,56.560 192.000 C 56.354 192.000,54.209 194.025,51.793 196.500 M345.095 193.800 C 345.481 195.317,345.493 202.544,345.113 204.400 C 344.894 205.468,344.971 205.373,345.437 204.000 C 346.163 201.858,346.057 194.664,345.280 193.400 C 344.848 192.695,344.825 192.743,345.095 193.800 M26.907 194.900 C 26.367 195.590,25.991 197.253,26.437 196.977 C 26.637 196.854,26.800 196.439,26.800 196.056 C 26.800 195.673,27.016 195.144,27.280 194.880 C 27.544 194.616,27.656 194.400,27.529 194.400 C 27.402 194.400,27.122 194.625,26.907 194.900 M175.622 197.822 C 175.115 199.259,174.780 200.513,174.877 200.610 C 174.973 200.707,175.459 199.602,175.956 198.156 C 176.452 196.709,176.788 195.454,176.701 195.368 C 176.615 195.281,176.129 196.386,175.622 197.822 M203.000 199.038 C 203.000 200.667,203.135 202.000,203.300 202.000 C 203.465 202.000,203.600 200.751,203.600 199.224 C 203.600 197.697,203.465 196.364,203.300 196.262 C 203.135 196.160,203.000 197.409,203.000 199.038 M262.000 196.265 C 266.365 196.558,270.711 196.575,270.540 196.300 C 270.437 196.135,268.068 196.032,265.276 196.072 C 262.484 196.112,261.010 196.199,262.000 196.265 M310.400 198.788 L 310.400 201.577 305.100 201.701 L 299.800 201.825 305.300 201.913 L 310.800 202.000 310.800 199.000 C 310.800 197.350,310.710 196.000,310.600 196.000 C 310.490 196.000,310.400 197.255,310.400 198.788 M233.000 198.347 C 232.340 199.356,231.188 200.591,230.441 201.091 C 229.693 201.591,229.288 202.000,229.540 202.000 C 230.241 202.000,233.176 199.207,233.855 197.893 C 234.798 196.070,234.324 196.322,233.000 198.347 M270.334 199.801 C 270.260 201.231,270.335 202.401,270.500 202.401 C 270.665 202.400,270.800 201.230,270.800 199.800 C 270.800 196.443,270.507 196.443,270.334 199.801 M25.724 201.400 C 25.726 202.720,25.801 203.212,25.890 202.493 C 25.979 201.774,25.977 200.694,25.886 200.093 C 25.795 199.492,25.722 200.080,25.724 201.400 M173.647 203.647 C 173.184 205.018,172.874 206.208,172.958 206.292 C 173.043 206.376,173.490 205.323,173.953 203.953 C 174.416 202.582,174.726 201.392,174.642 201.308 C 174.557 201.224,174.110 202.277,173.647 203.647 M192.170 202.133 C 192.058 202.427,192.027 204.182,192.101 206.033 L 192.237 209.400 192.319 205.712 L 192.400 202.024 197.500 201.899 L 202.600 201.774 197.487 201.687 C 193.533 201.620,192.329 201.721,192.170 202.133 M299.264 205.500 C 299.229 207.535,299.335 209.200,299.500 209.201 C 299.665 209.201,299.750 208.076,299.689 206.701 C 299.488 202.186,299.329 201.738,299.264 205.500 M260.076 209.100 C 260.152 215.888,260.304 215.091,260.495 206.899 C 260.553 204.424,260.465 202.399,260.300 202.399 C 260.135 202.400,260.034 205.415,260.076 209.100 M217.100 203.432 C 216.935 203.598,216.800 206.313,216.800 209.467 L 216.800 215.200 213.223 215.200 L 209.646 215.200 209.493 213.500 L 209.340 211.800 209.270 213.700 L 209.200 215.600 213.213 215.600 C 216.130 215.600,217.279 215.458,217.424 215.082 C 217.742 214.253,217.432 203.100,217.100 203.432 M26.281 205.187 C 26.394 205.620,26.732 206.178,27.033 206.427 C 27.445 206.770,27.428 206.578,26.960 205.640 C 26.253 204.222,25.981 204.041,26.281 205.187 M53.400 206.400 C 54.483 207.500,55.460 208.400,55.570 208.400 C 55.680 208.400,54.883 207.500,53.800 206.400 C 52.717 205.300,51.740 204.400,51.630 204.400 C 51.520 204.400,52.317 205.300,53.400 206.400 M163.632 204.681 C 163.579 205.486,164.494 207.189,164.858 206.964 C 165.046 206.848,165.200 206.573,165.200 206.353 C 165.200 206.133,165.035 206.055,164.834 206.179 C 164.633 206.303,164.287 205.909,164.066 205.302 C 163.844 204.696,163.649 204.417,163.632 204.681 M228.114 204.700 C 228.845 206.059,231.348 210.000,231.480 210.000 C 231.687 210.000,231.667 209.964,229.805 206.900 C 228.970 205.525,228.211 204.400,228.120 204.400 C 228.028 204.400,228.025 204.535,228.114 204.700 M343.403 207.994 C 342.649 209.453,340.340 211.804,338.651 212.834 C 337.963 213.254,337.600 213.598,337.845 213.599 C 338.430 213.600,341.155 211.463,342.321 210.087 C 343.326 208.900,344.540 206.800,344.221 206.800 C 344.111 206.800,343.743 207.337,343.403 207.994 M124.975 208.900 L 123.800 210.200 125.100 209.025 C 126.312 207.930,126.584 207.600,126.275 207.600 C 126.206 207.600,125.621 208.185,124.975 208.900 M330.800 208.000 C 329.416 208.291,329.414 208.295,330.600 208.341 C 331.260 208.367,332.070 208.213,332.400 208.000 C 333.066 207.570,332.845 207.570,330.800 208.000 M171.046 211.046 C 170.692 212.085,170.472 213.005,170.556 213.090 C 170.641 213.174,171.000 212.393,171.354 211.354 C 171.708 210.315,171.928 209.395,171.844 209.310 C 171.759 209.226,171.400 210.007,171.046 211.046 M204.400 212.193 L 204.400 215.186 194.300 215.300 L 184.200 215.414 194.500 215.507 L 204.800 215.600 204.800 212.400 C 204.800 210.640,204.710 209.200,204.600 209.200 C 204.490 209.200,204.400 210.547,204.400 212.193 M311.600 212.193 L 311.600 215.186 301.500 215.300 L 291.400 215.414 301.700 215.507 L 312.000 215.600 312.000 212.400 C 312.000 210.640,311.910 209.200,311.800 209.200 C 311.690 209.200,311.600 210.547,311.600 212.193 M232.400 211.838 C 232.400 211.969,232.730 212.554,233.134 213.138 C 234.670 215.359,234.821 215.261,230.077 215.126 C 227.655 215.057,225.758 215.135,225.861 215.300 C 226.076 215.646,234.800 215.716,234.800 215.371 C 234.800 215.044,232.756 211.600,232.562 211.600 C 232.473 211.600,232.400 211.707,232.400 211.838 M335.800 214.214 C 334.795 214.698,334.763 214.753,335.600 214.551 C 336.150 214.419,336.771 214.150,336.980 213.955 C 337.498 213.471,337.214 213.533,335.800 214.214 M31.697 215.701 C 30.691 217.771,30.478 220.284,31.078 223.000 C 31.364 224.290,31.429 223.817,31.418 220.559 C 31.408 217.684,31.564 216.325,31.959 215.849 C 32.264 215.482,32.429 215.095,32.324 214.991 C 32.220 214.887,31.938 215.206,31.697 215.701 M159.199 215.300 C 159.200 215.465,161.675 215.568,164.700 215.528 C 170.279 215.455,169.617 215.300,162.899 215.107 C 160.864 215.048,159.199 215.135,159.199 215.300 M123.328 219.600 C 123.328 221.030,123.401 221.615,123.489 220.900 C 123.578 220.185,123.578 219.015,123.489 218.300 C 123.401 217.585,123.328 218.170,123.328 219.600 M32.800 227.325 C 32.800 227.394,33.385 227.979,34.100 228.625 L 35.400 229.800 34.225 228.500 C 33.130 227.288,32.800 227.016,32.800 227.325 M108.920 234.400 C 108.920 235.610,108.995 236.105,109.087 235.500 C 109.178 234.895,109.178 233.905,109.087 233.300 C 108.995 232.695,108.920 233.190,108.920 234.400 M45.096 235.046 C 45.212 236.121,45.372 237.075,45.453 237.167 C 45.772 237.529,45.565 234.165,45.237 233.646 C 45.022 233.307,44.968 233.851,45.096 235.046 M45.835 238.400 C 46.196 239.856,47.774 242.477,48.844 243.400 C 49.545 244.005,49.491 243.858,48.623 242.800 C 47.991 242.030,47.049 240.500,46.530 239.400 C 46.012 238.300,45.699 237.850,45.835 238.400 M87.992 244.900 C 87.569 245.773,87.575 245.776,88.188 245.010 C 88.719 244.346,88.945 244.298,89.604 244.710 C 90.700 245.394,91.116 245.324,90.176 244.613 C 89.082 243.785,88.495 243.862,87.992 244.900 M102.700 244.629 C 101.205 245.440,101.296 245.778,102.800 245.000 C 103.460 244.659,104.000 244.294,104.000 244.190 C 104.000 243.932,103.957 243.947,102.700 244.629 M66.800 246.285 C 66.800 246.501,67.160 247.093,67.600 247.600 C 68.040 248.107,68.400 248.388,68.400 248.224 C 68.400 248.060,68.040 247.469,67.600 246.909 C 67.160 246.350,66.800 246.069,66.800 246.285 M85.000 248.676 C 83.900 249.687,83.540 250.147,84.200 249.697 C 85.324 248.930,87.544 246.778,87.170 246.818 C 87.076 246.828,86.100 247.664,85.000 248.676 M76.105 251.887 C 76.714 251.979,77.614 251.977,78.105 251.882 C 78.597 251.787,78.100 251.711,77.000 251.714 C 75.900 251.717,75.497 251.795,76.105 251.887 " stroke="none" fill="#788fc1" fill-rule="evenodd"></path><path id="path3" d="M72.835 148.291 C 72.304 148.391,71.617 148.726,71.307 149.036 C 70.997 149.346,70.486 149.600,70.171 149.600 C 69.857 149.600,69.600 149.759,69.600 149.953 C 69.600 150.148,69.241 150.401,68.802 150.515 C 68.363 150.630,67.877 151.056,67.721 151.462 C 67.035 153.250,65.150 154.768,63.853 154.577 L 62.600 154.392 63.800 154.958 C 65.097 155.570,67.200 154.819,67.200 153.744 C 67.200 152.907,69.309 150.714,70.654 150.152 C 71.364 149.855,72.058 149.429,72.196 149.206 C 72.334 148.983,72.932 148.787,73.524 148.772 C 74.116 148.756,74.960 148.589,75.400 148.400 C 76.304 148.012,74.683 147.943,72.835 148.291 M79.400 148.400 C 79.840 148.589,80.695 148.756,81.300 148.772 C 81.905 148.787,82.400 148.968,82.400 149.173 C 82.400 149.378,82.805 149.668,83.300 149.816 C 84.403 150.147,87.468 153.027,88.203 154.423 C 88.766 155.493,91.256 155.680,91.863 154.697 C 92.029 154.430,91.755 154.375,91.091 154.541 C 89.769 154.873,88.800 154.494,88.800 153.646 C 88.800 153.278,88.440 152.717,88.000 152.400 C 87.560 152.083,87.200 151.597,87.200 151.319 C 87.200 151.042,86.720 150.695,86.134 150.548 C 85.548 150.401,84.636 149.902,84.108 149.440 C 82.967 148.442,81.896 148.084,80.000 148.068 C 78.871 148.059,78.755 148.123,79.400 148.400 M52.559 153.763 C 52.435 154.086,51.847 154.458,51.253 154.588 C 50.054 154.852,47.200 157.209,47.200 157.935 C 47.200 158.191,47.020 158.400,46.800 158.400 C 46.580 158.400,46.400 158.611,46.400 158.869 C 46.400 159.126,46.145 159.621,45.834 159.969 C 45.522 160.316,45.160 161.320,45.027 162.200 C 44.816 163.609,44.841 163.681,45.234 162.800 C 45.480 162.250,45.841 161.530,46.035 161.200 C 46.229 160.870,46.639 160.045,46.946 159.366 C 48.862 155.130,57.352 152.157,61.755 154.181 C 62.323 154.442,62.463 154.388,62.322 153.964 C 62.040 153.113,52.880 152.925,52.559 153.763 M92.400 153.843 C 92.400 154.312,92.589 154.398,93.100 154.161 C 99.659 151.122,108.531 157.056,109.423 165.079 C 109.702 167.585,110.929 168.709,112.395 167.803 C 113.140 167.343,117.027 168.752,118.710 170.092 C 123.463 173.875,125.137 180.651,122.600 185.836 C 121.344 188.402,121.288 188.141,123.362 189.357 C 130.597 193.597,130.800 205.989,123.708 210.479 C 122.908 210.985,122.083 211.515,121.875 211.655 C 121.659 211.802,121.955 212.845,122.568 214.098 C 126.554 222.245,120.349 232.400,111.384 232.400 L 109.714 232.400 109.454 234.900 C 108.527 243.805,99.869 249.072,91.534 245.802 C 90.005 245.202,88.706 244.777,88.647 244.856 C 88.588 244.935,88.137 245.668,87.646 246.485 C 84.438 251.822,76.151 253.729,70.718 250.381 C 68.800 249.199,65.200 245.535,65.200 244.766 C 65.200 244.629,64.255 244.979,63.100 245.545 C 56.679 248.689,47.370 245.278,45.781 239.200 C 45.328 237.468,44.802 237.201,44.964 238.786 C 45.065 239.768,45.429 240.778,45.773 241.030 C 46.118 241.282,46.400 241.701,46.400 241.961 C 46.400 242.753,48.533 245.063,49.800 245.643 C 50.240 245.845,51.230 246.403,52.000 246.884 C 53.669 247.926,61.917 248.242,62.860 247.300 C 64.015 246.146,67.047 247.397,67.729 249.309 C 67.868 249.699,68.287 250.135,68.660 250.279 C 69.034 250.422,69.668 250.868,70.069 251.269 C 70.471 251.671,71.138 252.000,71.551 252.000 C 71.964 252.000,72.526 252.270,72.800 252.600 C 73.474 253.412,81.274 253.469,82.075 252.667 C 82.368 252.375,83.098 252.012,83.697 251.862 C 84.797 251.586,88.000 248.925,88.000 248.288 C 88.000 246.781,89.703 246.572,93.600 247.601 C 96.947 248.485,102.556 247.665,104.557 246.000 C 106.635 244.269,109.059 241.671,109.500 240.700 C 110.403 238.714,110.734 237.815,110.977 236.700 C 111.249 235.444,112.000 235.207,112.000 236.376 C 112.000 236.803,112.180 237.264,112.400 237.400 C 112.620 237.536,112.800 237.997,112.800 238.424 C 112.800 238.851,112.980 239.200,113.200 239.200 C 113.420 239.200,113.603 239.605,113.606 240.100 C 113.614 241.269,113.955 241.709,115.319 242.308 C 116.769 242.946,361.406 243.037,361.800 242.400 C 361.936 242.180,362.757 242.000,363.624 242.000 C 364.491 242.000,365.200 241.820,365.200 241.600 C 365.200 241.380,365.560 241.200,366.000 241.200 C 366.440 241.200,366.800 241.020,366.800 240.800 C 366.800 240.580,367.160 240.400,367.600 240.400 C 368.451 240.400,368.876 240.093,371.400 237.653 C 374.092 235.049,375.600 232.187,375.600 229.680 C 375.600 228.782,375.780 227.936,376.000 227.800 C 376.260 227.639,376.400 217.870,376.400 199.800 C 376.400 181.730,376.260 171.961,376.000 171.800 C 375.780 171.664,375.600 171.000,375.600 170.324 C 375.600 169.175,374.225 166.364,373.517 166.067 C 373.343 165.993,373.200 165.673,373.200 165.354 C 373.200 165.036,372.937 164.674,372.615 164.550 C 372.294 164.427,371.931 164.012,371.809 163.627 C 371.687 163.243,371.095 162.674,370.493 162.364 C 369.892 162.054,369.051 161.485,368.625 161.100 C 368.198 160.715,367.523 160.400,367.125 160.400 C 366.726 160.400,366.400 160.220,366.400 160.000 C 366.400 159.780,366.076 159.600,365.680 159.600 C 365.284 159.600,364.769 159.409,364.534 159.174 C 364.236 158.876,331.158 158.709,254.154 158.616 C 193.680 158.543,137.675 158.359,129.700 158.207 C 120.410 158.030,115.200 158.070,115.200 158.319 C 115.200 158.532,114.840 158.801,114.400 158.916 C 113.868 159.055,113.600 159.462,113.600 160.129 C 113.600 160.681,113.455 161.193,113.278 161.267 C 113.100 161.340,112.681 162.570,112.346 164.000 C 111.676 166.862,111.062 167.367,110.888 165.200 C 110.826 164.430,110.577 163.350,110.334 162.800 C 109.175 160.173,108.985 159.786,108.761 159.600 C 108.628 159.490,108.298 158.980,108.028 158.466 C 107.265 157.019,105.914 155.600,105.299 155.600 C 104.993 155.600,104.473 155.330,104.143 155.000 C 103.813 154.670,103.215 154.400,102.814 154.400 C 102.413 154.400,101.982 154.130,101.855 153.800 C 101.500 152.874,92.400 152.915,92.400 153.843 M365.861 160.990 C 369.280 162.613,371.769 165.012,373.425 168.281 L 374.600 170.600 374.710 199.349 C 374.817 227.307,374.798 228.158,374.017 230.247 C 372.368 234.654,369.826 237.499,365.600 239.666 L 363.000 241.000 239.532 241.103 C 125.775 241.198,116.012 241.155,115.410 240.553 C 114.176 239.319,114.806 238.285,117.453 237.203 C 126.429 233.533,131.598 223.988,129.261 215.400 C 128.932 214.193,129.487 213.286,132.900 209.438 C 133.285 209.004,133.600 208.334,133.600 207.948 C 133.600 207.563,133.760 207.148,133.956 207.027 C 134.402 206.752,134.800 204.606,135.065 201.040 C 135.379 196.823,134.252 193.101,131.444 189.084 L 129.676 186.555 129.515 180.578 C 129.259 171.062,125.659 165.852,117.209 162.771 C 114.726 161.866,113.922 160.531,115.371 159.720 C 115.686 159.544,171.524 159.449,239.456 159.509 L 362.969 159.618 365.861 160.990 M44.000 165.320 C 44.000 166.667,43.252 167.200,41.363 167.200 C 40.282 167.200,39.608 167.402,39.467 167.769 C 39.236 168.372,43.429 168.233,44.115 167.615 C 44.664 167.119,44.950 164.400,44.452 164.400 C 44.204 164.400,44.000 164.814,44.000 165.320 M120.900 166.623 C 121.725 166.769,122.400 167.049,122.400 167.245 C 122.400 167.440,122.589 167.600,122.819 167.600 C 123.271 167.600,125.167 169.604,125.187 170.104 C 125.194 170.271,125.732 170.964,126.381 171.644 C 127.186 172.485,127.650 173.474,127.837 174.740 C 127.987 175.763,128.355 176.955,128.655 177.389 C 129.355 178.403,129.355 180.933,128.654 182.320 C 127.147 185.303,127.414 187.355,129.598 189.598 C 131.578 191.631,132.800 193.482,132.800 194.449 C 132.800 194.717,133.091 195.259,133.447 195.652 C 134.385 196.689,134.376 204.758,133.436 205.284 C 133.086 205.480,132.800 206.008,132.800 206.458 C 132.800 207.517,131.569 209.600,130.943 209.600 C 130.676 209.600,130.082 210.077,129.623 210.661 C 128.625 211.931,128.042 211.646,128.959 210.337 C 129.348 209.781,129.600 208.602,129.600 207.335 C 129.600 206.187,129.780 205.136,130.000 205.000 C 131.106 204.316,130.163 194.466,128.914 193.659 C 128.693 193.517,128.352 192.519,128.156 191.443 C 127.931 190.205,127.519 189.322,127.035 189.043 C 125.261 188.016,124.800 187.228,124.800 185.224 C 124.800 184.137,124.980 183.136,125.200 183.000 C 125.420 182.864,125.600 181.874,125.600 180.800 C 125.600 179.726,125.420 178.736,125.200 178.600 C 124.980 178.464,124.800 177.833,124.800 177.198 C 124.800 175.917,122.255 171.273,121.366 170.932 C 121.055 170.812,120.800 170.468,120.800 170.166 C 120.800 169.758,119.298 168.468,118.533 168.220 C 117.917 168.021,118.029 165.952,118.646 166.134 C 119.060 166.257,120.075 166.477,120.900 166.623 M36.695 168.677 C 36.307 168.778,36.093 169.027,36.219 169.230 C 36.344 169.434,36.077 169.600,35.624 169.600 C 35.171 169.600,34.800 169.849,34.800 170.153 C 34.800 170.458,34.465 170.794,34.057 170.901 C 33.648 171.008,33.064 171.659,32.759 172.348 C 32.454 173.036,31.979 173.600,31.702 173.600 C 31.426 173.600,31.198 173.825,31.195 174.100 C 31.192 174.375,31.077 175.050,30.940 175.600 C 30.746 176.378,30.933 176.245,31.783 175.000 C 33.216 172.900,36.840 169.200,37.463 169.200 C 37.732 169.200,38.064 169.020,38.200 168.800 C 38.453 168.391,37.948 168.350,36.695 168.677 M29.770 178.619 C 29.425 180.456,29.754 184.398,30.280 184.737 C 31.787 185.708,30.903 190.000,29.195 190.000 C 28.532 190.000,27.308 191.445,26.600 193.064 C 26.231 193.909,25.629 195.140,25.264 195.800 C 24.291 197.558,24.316 204.403,25.300 205.490 C 25.685 205.915,26.000 206.564,26.000 206.931 C 26.000 207.299,26.180 207.600,26.400 207.600 C 26.620 207.600,26.800 207.876,26.800 208.213 C 26.800 209.065,29.067 211.200,29.970 211.200 C 30.884 211.200,31.316 212.683,30.995 214.724 L 30.764 216.200 31.582 214.629 C 32.738 212.408,32.627 211.944,30.637 210.687 C 28.672 209.446,27.065 207.532,26.151 205.344 C 25.469 203.712,25.297 197.064,25.916 196.275 C 26.122 196.014,26.412 195.289,26.561 194.664 C 26.806 193.641,28.303 191.947,31.337 189.258 C 32.370 188.342,32.763 187.200,32.044 187.200 C 31.293 187.200,30.277 182.086,30.536 179.606 C 30.809 176.996,30.218 176.234,29.770 178.619 M84.246 193.849 L 71.137 206.929 63.863 199.663 L 56.589 192.397 52.421 196.579 L 48.253 200.762 59.630 212.179 L 71.007 223.596 88.306 206.294 L 105.605 188.991 101.480 184.880 L 97.355 180.769 84.246 193.849 M29.761 217.815 C 29.406 219.226,29.768 223.606,30.266 223.932 C 30.492 224.079,30.788 224.910,30.926 225.777 C 31.094 226.844,31.567 227.689,32.387 228.389 C 33.054 228.958,33.600 229.644,33.600 229.912 C 33.600 230.180,33.793 230.400,34.029 230.400 C 34.264 230.400,34.727 230.670,35.057 231.000 C 35.387 231.330,36.004 231.600,36.429 231.600 C 36.853 231.600,37.200 231.778,37.200 231.995 C 37.200 232.565,39.557 233.464,41.895 233.786 C 43.745 234.040,43.933 234.165,44.159 235.295 C 44.532 237.161,44.934 236.290,44.632 234.272 L 44.367 232.507 41.884 232.296 C 37.953 231.962,34.805 230.153,32.095 226.671 C 31.149 225.457,30.296 221.148,30.558 218.915 C 30.816 216.720,30.236 215.920,29.761 217.815 M127.515 221.932 C 127.588 224.273,127.480 225.600,127.215 225.600 C 126.987 225.600,126.800 225.915,126.799 226.300 C 126.798 227.260,124.733 229.600,123.888 229.600 C 122.879 229.600,123.045 228.379,124.242 227.000 C 125.630 225.401,125.845 224.746,126.184 221.079 C 126.591 216.677,127.366 217.174,127.515 221.932 M119.846 233.125 C 119.518 233.656,118.000 234.005,118.000 233.550 C 118.000 233.177,119.671 232.377,119.940 232.620 C 120.017 232.690,119.975 232.917,119.846 233.125 " stroke="none" fill="#f9fafa" fill-rule="evenodd"></path><path id="path4" d="M53.102 154.904 C 52.279 155.363,51.673 155.806,51.755 155.889 C 51.838 155.971,52.586 155.657,53.417 155.190 C 54.991 154.306,59.516 154.183,61.400 154.972 L 62.200 155.308 61.400 154.667 C 60.164 153.676,55.044 153.823,53.102 154.904 M95.091 154.289 C 95.801 154.377,97.061 154.379,97.891 154.292 C 98.721 154.205,98.140 154.133,96.600 154.131 C 95.060 154.129,94.381 154.200,95.091 154.289 M99.600 154.411 C 99.600 154.758,101.153 155.381,101.401 155.132 C 101.478 155.055,101.105 154.785,100.571 154.533 C 100.037 154.281,99.600 154.226,99.600 154.411 M89.000 156.400 C 88.708 156.873,89.099 156.873,90.200 156.400 C 90.971 156.069,90.969 156.055,90.124 156.028 C 89.642 156.013,89.136 156.180,89.000 156.400 M278.182 199.200 C 278.182 208.110,278.235 211.755,278.300 207.300 C 278.364 202.845,278.364 195.555,278.300 191.100 C 278.235 186.645,278.182 190.290,278.182 199.200 M291.782 199.200 C 291.782 208.110,291.835 211.755,291.900 207.300 C 291.964 202.845,291.964 195.555,291.900 191.100 C 291.835 186.645,291.782 190.290,291.782 199.200 M209.334 188.000 C 209.334 189.650,209.405 190.325,209.491 189.500 C 209.578 188.675,209.578 187.325,209.491 186.500 C 209.405 185.675,209.334 186.350,209.334 188.000 M209.374 202.000 C 209.374 207.610,209.430 209.905,209.499 207.100 C 209.568 204.295,209.568 199.705,209.499 196.900 C 209.430 194.095,209.374 196.390,209.374 202.000 M200.105 196.287 C 200.714 196.379,201.614 196.377,202.105 196.282 C 202.597 196.187,202.100 196.111,201.000 196.114 C 199.900 196.117,199.497 196.195,200.105 196.287 M26.093 198.400 C 26.093 199.170,26.175 199.485,26.276 199.100 C 26.376 198.715,26.376 198.085,26.276 197.700 C 26.175 197.315,26.093 197.630,26.093 198.400 M218.912 197.895 C 219.964 197.977,221.584 197.976,222.512 197.892 C 223.440 197.808,222.580 197.741,220.600 197.742 C 218.620 197.743,217.860 197.812,218.912 197.895 M26.046 202.476 C 26.021 203.508,26.142 204.441,26.316 204.548 C 26.490 204.656,26.570 204.082,26.493 203.272 C 26.259 200.798,26.095 200.507,26.046 202.476 M262.700 202.296 C 264.075 202.374,266.325 202.374,267.700 202.296 C 269.075 202.218,267.950 202.154,265.200 202.154 C 262.450 202.154,261.325 202.218,262.700 202.296 M217.200 202.955 C 217.200 203.040,217.730 203.187,218.379 203.282 C 219.027 203.377,219.467 203.308,219.355 203.128 C 219.157 202.807,217.200 202.650,217.200 202.955 M325.700 208.691 C 326.525 208.778,327.875 208.778,328.700 208.691 C 329.525 208.605,328.850 208.534,327.200 208.534 C 325.550 208.534,324.875 208.605,325.700 208.691 M32.893 212.800 C 32.893 213.570,32.975 213.885,33.076 213.500 C 33.176 213.115,33.176 212.485,33.076 212.100 C 32.975 211.715,32.893 212.030,32.893 212.800 " stroke="none" fill="#5a84d1" fill-rule="evenodd"></path></g></svg>